<svg width="200" height="200" viewBox="0 0 200 200" fill="none" xmlns="http://www.w3.org/2000/svg">
<path d="M180.515 71.0268C180.515 33.936 140.106 8.93652 90.2577 8.93652C40.4097 8.93652 0 33.936 0 71.0268C0 112.8 53.6707 141.17 85.3223 143.972C85.0447 144.243 85.231 144.674 85.9091 144.649C86.02 144.645 86.1336 144.642 86.2451 144.638C84.0196 147.066 82.0806 150.332 82.6439 151.118C83.5664 152.405 96.4836 152.784 97.9154 151.118C98.7584 150.137 96.92 147.109 94.7007 144.785C98.1048 145.075 101.382 145.721 104.027 147.007C108.157 149.014 109.495 152.141 109.529 155.198C109.55 157.103 109.028 158.985 107.931 160.776C106.99 162.313 105.636 163.744 104.188 165.13C101.362 167.835 98.2124 170.479 97.1634 173.667C96.5289 175.595 96.6476 177.564 97.2604 179.488C97.862 181.377 99.2898 183.079 101.426 184.522C105.253 187.105 110.882 188.69 116.616 189.145C116.985 192.958 120.82 196.407 126.168 198.506C127.694 199.105 129.337 199.586 131.046 199.97C131.946 200.172 132.335 199.313 131.443 199.113C125.013 197.668 119.635 194.437 118.343 190.34C118.229 189.98 118.159 189.61 118.113 189.238C118.482 189.255 118.852 189.268 119.221 189.275C122.545 189.339 126.138 189.041 129.106 188.104C131.849 187.239 134.033 185.787 135.2 184.079C136.097 182.767 136.448 181.064 135.059 179.82C133.455 178.385 130.297 178.103 127.712 178.64C124.589 179.289 122.02 180.738 120.077 182.289C118.033 183.92 116.859 185.781 116.618 187.813C116.601 187.96 116.602 188.105 116.595 188.251C111.465 187.82 106.484 186.423 102.934 184.187C100.861 182.882 99.4012 181.297 98.7947 179.535C98.1711 177.723 97.9961 175.835 98.57 174.009C99.5378 170.932 102.528 168.381 105.268 165.779C106.693 164.425 108.017 163.037 109.023 161.553C110.164 159.869 110.816 158.083 110.981 156.27C111.266 153.143 110.338 149.775 106.772 147.349C103.755 145.296 99.3733 144.329 94.9203 143.932C124.187 140.773 180.515 110.021 180.515 71.0268ZM119.444 184.618C120.788 182.929 122.941 181.368 125.534 180.307C127.664 179.435 130.548 178.775 132.898 179.75C134.657 180.479 134.721 181.91 134.197 183.073C133.474 184.678 131.634 186.104 129.3 187.005C126.635 188.035 123.279 188.381 120.146 188.393C119.454 188.396 118.76 188.378 118.066 188.344C118.097 187.056 118.534 185.761 119.444 184.618Z" fill="#FF1500"/>
<path d="M143.968 124.208C113.82 127.63 85.1186 125.758 61.2811 117.689C25.3793 105.032 7.70958 75.2529 4.02355 51.6488C4.02199 51.6385 4.01974 51.628 4.01818 51.6177C3.72205 52.2972 3.44653 52.9852 3.18157 53.6775C3.13118 53.8095 3.08061 53.9413 3.03143 54.0737C2.51208 55.4685 2.05715 56.8889 1.66785 58.3338C1.62733 58.4835 1.5875 58.6331 1.54836 58.7832C1.36047 59.5081 1.18434 60.2372 1.03004 60.9742C1.0297 60.976 1.02952 60.9778 1.02918 60.9796C0.878169 61.7007 0.749156 62.4297 0.630877 63.1622C0.603169 63.3335 0.576329 63.5049 0.550526 63.6766C0.439174 64.4171 0.338909 65.1613 0.261327 65.913C0.260461 65.9222 0.259935 65.9317 0.258896 65.941C0.183391 66.6772 0.130055 67.4205 0.0874542 68.1672C0.0767173 68.3556 0.067025 68.5441 0.0583662 68.733C0.0237312 69.4927 0 70.2559 0 71.0262C0 112.8 53.6707 141.169 85.3222 143.971C85.4384 143.858 85.6272 143.77 85.9091 143.76C86.3194 143.744 86.73 143.733 87.1408 143.723C88.6029 143.687 90.0672 143.683 91.5292 143.729C92.2577 143.752 92.9934 143.788 93.7302 143.837C94.127 143.864 94.5239 143.896 94.9205 143.931C95.1811 143.903 95.4397 143.877 95.7044 143.844C95.9247 143.817 96.1502 143.785 96.3736 143.754C96.6401 143.719 96.9052 143.684 97.1757 143.644C97.408 143.61 97.6447 143.57 97.8797 143.533C98.1477 143.49 98.4143 143.448 98.6858 143.401C98.9286 143.359 99.1756 143.313 99.4213 143.268C99.6909 143.218 99.9595 143.17 100.233 143.116C100.486 143.067 100.744 143.012 101.001 142.96C101.271 142.904 101.54 142.849 101.813 142.79C102.078 142.732 102.346 142.67 102.613 142.609C102.884 142.548 103.154 142.487 103.427 142.422C103.699 142.357 103.975 142.288 104.25 142.22C104.524 142.151 104.798 142.084 105.075 142.012C105.353 141.94 105.634 141.864 105.914 141.789C106.192 141.715 106.469 141.64 106.749 141.563C107.035 141.483 107.324 141.4 107.612 141.317C107.889 141.237 108.166 141.157 108.446 141.074C108.742 140.986 109.04 140.895 109.338 140.804C109.614 140.719 109.89 140.634 110.168 140.547C110.471 140.451 110.776 140.352 111.081 140.253C111.358 140.163 111.635 140.073 111.913 139.98C112.223 139.876 112.534 139.77 112.846 139.663C113.123 139.568 113.4 139.473 113.678 139.375C113.994 139.264 114.311 139.151 114.628 139.036C114.905 138.936 115.183 138.835 115.462 138.732C115.783 138.613 116.105 138.493 116.428 138.371C116.704 138.266 116.981 138.16 117.258 138.053C117.587 137.926 117.915 137.797 118.245 137.667C118.517 137.559 118.79 137.45 119.064 137.339C119.401 137.203 119.738 137.065 120.076 136.926C120.344 136.815 120.613 136.702 120.882 136.589C121.225 136.444 121.568 136.298 121.912 136.15C122.178 136.035 122.445 135.919 122.712 135.802C123.06 135.649 123.408 135.495 123.757 135.339C124.019 135.221 124.282 135.101 124.544 134.982C124.899 134.82 125.254 134.657 125.61 134.491C125.867 134.371 126.125 134.249 126.383 134.127C126.742 133.956 127.102 133.785 127.463 133.611C127.717 133.488 127.971 133.362 128.226 133.237C128.589 133.058 128.953 132.879 129.317 132.697C129.566 132.571 129.816 132.444 130.065 132.317C130.435 132.128 130.806 131.939 131.176 131.746C131.414 131.622 131.653 131.495 131.892 131.369C132.271 131.169 132.65 130.969 133.028 130.764C133.26 130.639 133.491 130.512 133.723 130.385C134.107 130.175 134.491 129.965 134.875 129.751C135.097 129.626 135.32 129.499 135.542 129.373C135.933 129.151 136.325 128.93 136.716 128.704C136.925 128.584 137.132 128.46 137.341 128.338C137.744 128.102 138.146 127.867 138.548 127.626C138.739 127.512 138.929 127.394 139.12 127.279C139.536 127.027 139.953 126.775 140.367 126.518C140.534 126.414 140.7 126.308 140.868 126.203C141.304 125.93 141.74 125.657 142.174 125.379C142.295 125.301 142.415 125.221 142.536 125.143C143.014 124.834 143.492 124.524 143.967 124.208C143.967 124.208 143.967 124.208 143.968 124.208Z" fill="#FB0000"/>
<path d="M86.2446 144.638C84.0192 147.066 82.0801 150.332 82.6435 151.118C83.566 152.405 96.4831 152.784 97.9149 151.118C98.7579 150.137 96.9195 147.109 94.7002 144.784C91.8725 144.543 88.96 144.546 86.2446 144.638Z" fill="#FB0000"/>
<path d="M143.288 100.012C174.609 91.8477 185.948 66.1501 168.615 42.6147C151.281 19.0793 111.839 6.61853 80.5171 14.7828C49.1957 22.947 37.8564 48.6446 55.19 72.18C72.5236 95.7154 111.966 108.176 143.288 100.012Z" fill="#FF1500"/>
<path d="M147.855 82.1879C169.523 76.5399 176.426 57.4849 163.274 39.6273C150.122 21.7696 121.895 11.8717 100.227 17.5196C78.5594 23.1675 71.6559 42.2226 84.808 60.0802C97.96 77.9379 126.187 87.8358 147.855 82.1879Z" fill="#FF1500"/>
<path d="M148.019 62.3446C161.081 58.9398 165.243 47.4527 157.314 36.6874C149.386 25.922 132.369 19.9552 119.307 23.36C106.245 26.7648 102.083 38.2519 110.012 49.0172C117.94 59.7826 134.957 65.7495 148.019 62.3446Z" fill="#FF1500"/>
<path d="M150.74 52.2609C157.727 50.4397 159.148 43.2027 153.914 36.0966C148.68 28.9905 138.774 24.7063 131.787 26.5274C124.801 28.3486 123.38 35.5856 128.613 42.6917C133.847 49.7978 143.753 54.082 150.74 52.2609Z" fill="#E2A7CC"/>
<path d="M91.529 143.729C90.0671 143.683 88.6029 143.687 87.1406 143.723C86.7298 143.733 86.319 143.745 85.909 143.76C85.627 143.77 85.4383 143.858 85.3221 143.972C85.0445 144.243 85.2308 144.674 85.909 144.649C86.0198 144.645 86.1334 144.642 86.2449 144.638C88.9603 144.545 91.8728 144.542 94.7007 144.784C98.1048 145.075 101.382 145.72 104.027 147.006C108.157 149.014 109.495 152.141 109.529 155.197C109.55 157.102 109.028 158.984 107.931 160.776C106.99 162.313 105.636 163.744 104.188 165.129C101.362 167.834 98.2124 170.479 97.1634 173.667C96.5289 175.595 96.6476 177.563 97.2604 179.488C97.862 181.377 99.2898 183.079 101.426 184.521C105.253 187.104 110.882 188.69 116.616 189.145C116.985 192.958 120.82 196.407 126.168 198.506C127.694 199.104 129.337 199.585 131.046 199.969C131.946 200.171 132.335 199.312 131.443 199.112C125.013 197.668 119.635 194.437 118.343 190.34C118.229 189.979 118.159 189.61 118.113 189.238C118.482 189.254 118.852 189.268 119.221 189.275C122.545 189.338 126.138 189.04 129.106 188.104C131.849 187.239 134.033 185.786 135.2 184.078C136.097 182.766 136.448 181.063 135.059 179.82C133.455 178.384 130.297 178.103 127.712 178.64C124.589 179.289 122.02 180.737 120.077 182.288C118.033 183.919 116.859 185.781 116.618 187.813C116.601 187.959 116.602 188.105 116.595 188.25C111.465 187.819 106.484 186.422 102.934 184.187C100.861 182.882 99.4012 181.297 98.7947 179.534C98.1711 177.722 97.9961 175.834 98.57 174.009C99.5378 170.931 102.528 168.38 105.268 165.778C106.693 164.425 108.017 163.037 109.023 161.553C110.164 159.868 110.816 158.083 110.981 156.269C111.266 153.142 110.338 149.775 106.772 147.349C103.755 145.295 99.3735 144.328 94.9207 143.931C94.5241 143.896 94.1272 143.864 93.7304 143.838C92.9932 143.788 92.2576 143.752 91.529 143.729ZM119.444 184.617C120.788 182.928 122.94 181.368 125.534 180.306C127.664 179.435 130.548 178.775 132.898 179.749C134.657 180.479 134.721 181.91 134.197 183.072C133.474 184.678 131.633 186.104 129.3 187.005C126.634 188.034 123.279 188.381 120.146 188.393C119.454 188.396 118.759 188.377 118.065 188.344C118.097 187.056 118.534 185.76 119.444 184.617Z" fill="#FF1500"/>
</svg>
