<svg width="1255" height="612" viewBox="0 0 1255 612" fill="none" xmlns="http://www.w3.org/2000/svg">
<path d="M1218.93 179.364C1216.56 195.366 1242.65 213.718 1240.29 229.729C1237.92 245.73 1207.1 259.39 1204.74 275.392C1202.38 291.394 1228.47 309.747 1226.1 325.757C1223.74 341.758 1192.92 355.418 1190.55 371.421C1188.19 387.422 1214.28 405.775 1211.92 421.785C1209.55 437.786 1178.73 451.447 1176.37 467.448C1174 483.449 1200.09 501.802 1197.74 517.813C1195.37 533.814 1164.54 547.465 1162.19 563.475C1162.13 563.873 1162.08 564.28 1162.05 564.696C1160.07 589.286 1128.21 605.803 1096.96 597.965C1091.36 596.563 1085.88 595.56 1080.57 595.198C1050.53 593.137 1018.1 612.601 988.004 610.947C957.909 609.301 929.642 586.502 899.51 585.263C869.379 584.024 837.93 604.365 807.786 603.543C777.63 602.712 748.25 580.707 718.083 580.291C687.915 579.876 657.482 601.066 627.314 601.066C597.146 601.066 566.714 579.876 536.534 580.291C506.378 580.707 476.998 602.712 446.842 603.543C416.699 604.366 385.238 584.025 355.118 585.263C324.987 586.502 296.719 609.301 266.624 610.947C236.529 612.601 204.1 593.137 174.054 595.198C168.744 595.56 163.264 596.563 157.664 597.965C126.42 605.803 94.5597 589.286 92.5756 564.696C92.5513 564.28 92.5028 563.873 92.4421 563.475C90.0829 547.465 59.2629 533.814 56.8926 517.813C54.5334 501.802 80.625 483.449 78.2536 467.448C75.8955 451.447 45.0744 437.786 42.7041 421.785C40.346 405.775 66.4366 387.422 64.0773 371.421C61.7071 355.419 30.886 341.759 28.5278 325.757C26.1565 309.747 52.2481 291.395 49.8888 275.392C47.5296 259.391 16.7096 245.731 14.3393 229.729C11.9801 213.718 38.0718 195.366 35.7004 179.364C33.3423 163.363 2.52118 149.703 0.150925 133.701C-2.2072 117.699 23.8833 99.3374 21.5241 83.336C21.4027 82.5402 21.2218 81.7179 21.0044 80.8858C14.2544 56.1604 43.321 34.4271 76.5488 37.9619C76.6944 37.971 76.8511 37.9891 77.0089 38.0163C77.2142 38.0254 77.4327 38.0526 77.6379 38.0798C87.4235 39.2732 96.8946 39.8786 105.712 39.2732C109.499 39.0109 113.248 38.5046 116.986 37.7994C117.156 37.7631 117.324 37.7359 117.505 37.7005C125.187 36.2176 132.783 33.9124 140.343 31.2725C162.672 23.4887 184.675 12.7665 207.718 11.5013C211.25 11.3116 214.806 11.3388 218.374 11.5557C218.386 11.5557 218.386 11.5557 218.398 11.5557C218.628 11.5648 218.846 11.5739 219.063 11.592C250.441 13.5986 282.979 29.1216 314.065 27.8375C317.706 27.6841 321.347 27.3039 324.964 26.7348C325.254 26.6986 325.544 26.6533 325.834 26.5996C336.261 24.8999 346.603 21.7089 356.934 18.2005C376.976 11.4114 396.947 3.4379 417.377 2.88616C418.901 2.8408 420.413 2.8408 421.938 2.88616C422.277 2.88616 422.628 2.89521 422.979 2.90428H423.015C456.097 4.08859 489.821 22.5675 522.855 22.1156C531.794 21.9976 540.696 20.4884 549.611 18.3095C573.694 12.4333 597.705 1.65733 621.849 0.183541C622.622 0.13818 623.409 0.0928469 624.183 0.0664556C624.884 0.0392395 625.597 0.0210625 626.299 0.0119904C626.311 0.0119904 626.311 0.0119904 626.323 0.0119904C626.65 0.00291841 626.989 0.00292969 627.315 0.00292969C628.356 0.00292969 629.407 0.0210955 630.448 0.0664556C631.223 0.0936717 632.008 0.139005 632.783 0.183541C656.927 1.65733 680.936 12.4333 705.02 18.3095C708.237 19.0954 711.443 19.7922 714.66 20.3704C720.357 21.3922 726.066 22.0339 731.776 22.1156C764.302 22.5585 797.493 4.65849 830.08 2.97687C830.599 2.94965 831.108 2.9315 831.616 2.90428H831.652C833.527 2.84985 835.389 2.83173 837.252 2.88616C861.892 3.55502 885.878 15.0187 910.13 22.1873C916.444 24.0586 922.77 25.6404 929.133 26.6532C929.315 26.6895 929.484 26.7167 929.666 26.7348C933.282 27.3047 936.923 27.6841 940.564 27.8375C970.985 29.0944 1002.81 14.2501 1033.57 11.7363C1034.23 11.6819 1034.9 11.6275 1035.56 11.592C1039.36 11.3388 1043.15 11.2935 1046.91 11.5013C1072.98 12.9388 1097.7 26.4545 1123.07 34.1475C1127.53 35.5125 1132.01 36.6786 1136.51 37.5734C1136.89 37.6551 1137.27 37.7269 1137.64 37.7994C1141.38 38.5046 1145.13 39.0109 1148.92 39.2732C1157.21 39.8431 1166.09 39.3367 1175.27 38.2785C1175.84 38.215 1176.41 38.1524 1176.99 38.0798C1177.21 38.0526 1177.41 38.0254 1177.63 38.0163C1211.04 34.2374 1240.4 56.0524 1233.62 80.8858C1233.41 81.7171 1233.22 82.5402 1233.1 83.336C1230.75 99.3374 1256.84 117.698 1254.48 133.701C1252.11 149.703 1221.29 163.363 1218.93 179.364Z" fill="url(#paint0_linear_104_419)"/>
<path d="M1194.22 171.88C1192.21 185.45 1211.57 200.792 1214.48 214.777C1214.85 216.585 1214.95 218.375 1214.69 220.138C1213.36 229.151 1202.61 237.387 1193.51 245.767C1187.14 251.634 1181.56 257.574 1180.63 263.893C1178.36 279.226 1203.37 296.819 1201.1 312.152C1200.82 313.987 1200.17 315.795 1199.2 317.567C1195.11 325.161 1185.62 332.311 1177.97 339.599C1172.44 344.879 1167.87 350.24 1167.04 355.917C1164.77 371.25 1189.78 388.833 1187.51 404.176C1185.24 419.508 1155.71 432.599 1153.44 447.932C1151.18 463.265 1176.18 480.857 1173.92 496.19C1171.66 511.522 1142.12 524.613 1139.86 539.946C1139.8 540.335 1139.75 540.724 1139.72 541.121C1137.82 564.681 1107.29 580.511 1077.36 572.998C1071.98 571.651 1066.74 570.702 1061.64 570.349C1032.85 568.369 1001.78 587.029 972.944 585.447C944.107 583.865 917.012 562.014 888.151 560.829C859.277 559.645 829.135 579.137 800.249 578.341C771.352 577.545 743.205 556.463 714.295 556.065C685.387 555.667 656.223 575.972 627.314 575.972C598.404 575.972 569.242 555.667 540.332 556.065C511.423 556.462 483.276 577.545 454.378 578.341C425.492 579.137 395.35 559.645 366.476 560.829C337.615 562.014 310.52 583.865 281.683 585.447C252.846 587.029 221.772 568.369 192.984 570.349C187.891 570.702 182.642 571.651 177.272 572.998C147.927 580.357 118.026 565.305 115.062 542.523C115.05 542.504 115.05 542.477 115.05 542.459C114.989 542.016 114.941 541.573 114.904 541.121C114.88 540.724 114.832 540.335 114.771 539.946C114.722 539.62 114.662 539.295 114.59 538.97C114.578 538.961 114.578 538.951 114.578 538.942C111.228 524.034 82.9225 511.188 80.709 496.19C80.6483 495.765 80.6118 495.349 80.5875 494.924C80.5875 494.915 80.5875 494.915 80.5875 494.906C80.3459 490.295 82.4017 485.477 85.317 480.595C86.6842 478.308 88.2324 476.012 89.817 473.706C95.8409 464.927 102.397 456.104 101.187 447.931C101.126 447.57 101.066 447.217 100.982 446.864C100.982 446.855 100.982 446.837 100.97 446.828C97.5104 431.965 69.3266 419.136 67.113 404.175C67.0523 403.759 67.0159 403.343 66.9917 402.927V402.9C66.6286 396.02 71.3945 388.706 76.4263 381.374C82.4016 372.705 88.7886 363.999 87.5913 355.916C87.5428 355.581 87.482 355.257 87.4092 354.931C84.0712 340.005 55.7418 327.159 53.5282 312.151C53.4675 311.744 53.4311 311.346 53.4068 310.939C52.6565 297.813 70.5592 283.149 73.6798 269.706C74.1399 267.744 74.2724 265.801 73.9943 263.893C73.9458 263.604 73.8972 263.315 73.8376 263.025C70.6199 248.063 42.1459 235.181 39.9323 220.138C39.8595 219.668 39.823 219.197 39.8109 218.727C39.1698 203.729 62.5999 186.742 60.4106 171.879C60.362 171.518 60.2902 171.156 60.2053 170.804C56.758 155.923 28.5621 143.094 26.3364 128.114C26.2272 127.364 26.1786 126.604 26.1908 125.836V125.71C26.6024 110.956 48.9554 94.4034 46.8147 79.8567C46.7419 79.3866 46.658 78.9165 46.5366 78.4374C46.4759 78.157 46.4041 77.8765 46.3313 77.5871C46.307 77.479 46.2828 77.3611 46.2464 77.2522C46.1129 76.7549 45.9926 76.2575 45.8955 75.7602C42.4118 58.6552 56.6609 43.3407 77.0068 38.0162C84.2643 36.1085 92.3086 35.4761 100.593 36.488C106.181 37.175 111.673 37.6542 116.983 37.7985C120.576 37.9164 124.084 37.8711 127.483 37.636C133.592 37.2113 139.616 36.1169 145.591 34.5895C170.243 28.3239 194.083 14.7908 219.061 11.59C221.118 11.3277 223.174 11.1381 225.242 11.0202C228.181 10.8577 231.133 10.8576 234.096 10.9838C234.386 11.002 234.689 11.0201 234.991 11.0383C260.803 12.4123 287.463 23.6139 313.385 26.2176C313.578 26.2357 313.772 26.2538 313.965 26.2719C317.643 26.6241 321.32 26.7965 324.96 26.733C325.687 26.724 326.424 26.7058 327.15 26.6786C337.383 26.2538 347.483 23.9396 357.547 20.8922C379.32 14.3199 400.887 4.35713 422.974 2.90147H423.011C424.051 2.83797 425.103 2.7835 426.143 2.75711C426.894 2.73896 427.655 2.72992 428.406 2.72992H428.647C459.383 2.81982 490.723 19.5091 521.52 21.0819C521.629 21.091 521.725 21.091 521.822 21.091C523.612 21.1817 525.415 21.2179 527.217 21.1907C534.692 21.0909 542.155 19.9792 549.606 18.3067C573.69 12.9096 597.7 1.72617 621.844 0.180612C622.618 0.135252 623.404 0.0899179 624.178 0.0635264C624.88 0.0363101 625.593 0.0181329 626.295 0.00906082C626.307 0.00906082 626.307 0.00906082 626.319 0.00906082C626.645 -1.12756e-05 626.984 0 627.311 0C628.351 0 629.403 0.0181659 630.444 0.0635264C631.218 0.0907427 632.004 0.136077 632.779 0.180612C656.923 1.72617 680.932 12.9096 705.015 18.3067C711.704 19.8077 718.406 20.856 725.106 21.1273H725.179C725.917 21.1636 726.666 21.1817 727.405 21.1907C759.592 21.6336 792.469 3.30888 824.704 2.73898C824.789 2.72991 824.873 2.72991 824.958 2.73898C826.131 2.72084 827.304 2.72082 828.478 2.75711C829.519 2.78432 830.571 2.83879 831.611 2.90147H831.647C857.981 4.63672 883.588 18.4692 909.666 24.2283C915.388 25.5034 921.121 26.38 926.903 26.6514C927.096 26.6605 927.278 26.6695 927.471 26.6786C928.197 26.7058 928.934 26.724 929.66 26.733C960.577 27.2122 992.922 11.1834 1023.9 10.903C1025.73 10.8848 1027.55 10.9212 1029.38 11.0202C1031.45 11.1381 1033.5 11.3277 1035.56 11.59C1063.9 15.2246 1090.78 32.1482 1119.03 36.6958C1121.72 37.1296 1124.43 37.4463 1127.14 37.636C1127.57 37.6632 1128.01 37.6905 1128.46 37.7086C1131.45 37.8801 1134.51 37.8983 1137.64 37.7985C1142.95 37.6542 1148.44 37.175 1154.03 36.488C1156.73 36.1622 1159.4 35.9997 1162.02 36.0088C1167.47 36.0179 1172.73 36.732 1177.63 38.0162C1194.14 42.3468 1206.65 53.2582 1208.88 66.3764C1209.49 69.9475 1209.34 73.6902 1208.3 77.5054C1208.09 78.3095 1207.93 79.0872 1207.81 79.8559C1207.46 82.2517 1207.77 84.693 1208.53 87.1787C1212.68 100.631 1230.2 115.177 1228.29 128.114C1226.02 143.456 1196.49 156.538 1194.22 171.88Z" fill="url(#paint1_linear_104_419)"/>
<path d="M1190.37 171.312C1188.43 184.502 1206.71 199.364 1210.31 213.015C1210.48 213.666 1210.63 214.318 1210.71 214.959C1210.75 215.167 1210.77 215.375 1210.8 215.583C1210.85 215.89 1210.87 216.197 1210.89 216.514C1210.91 216.803 1210.92 217.083 1210.92 217.372C1210.92 218.059 1210.87 218.737 1210.77 219.415C1210.72 219.705 1210.68 219.985 1210.62 220.274C1210.57 220.5 1210.52 220.717 1210.46 220.943C1210.41 221.141 1210.35 221.349 1210.28 221.548C1210.23 221.729 1210.17 221.901 1210.11 222.082C1210.03 222.271 1209.97 222.461 1209.89 222.652C1209.47 223.746 1208.92 224.83 1208.27 225.906C1208.16 226.077 1208.05 226.259 1207.93 226.43C1207.29 227.443 1206.55 228.446 1205.74 229.441C1205.52 229.712 1205.29 229.983 1205.06 230.255C1204.23 231.249 1203.31 232.235 1202.35 233.22C1202.02 233.572 1201.68 233.916 1201.31 234.268C1197.53 238.029 1193.13 241.735 1189.1 245.479C1187.95 246.537 1186.84 247.603 1185.77 248.679C1185.49 248.968 1185.22 249.248 1184.94 249.529C1183.32 251.22 1181.84 252.919 1180.6 254.636C1180.43 254.862 1180.27 255.088 1180.12 255.314C1179.95 255.54 1179.81 255.775 1179.66 256.001C1179.22 256.688 1178.82 257.384 1178.47 258.081C1178.35 258.325 1178.22 258.569 1178.12 258.813C1178.01 259.039 1177.91 259.265 1177.83 259.482C1177.73 259.717 1177.63 259.952 1177.55 260.187C1177.46 260.422 1177.38 260.657 1177.32 260.892C1177.24 261.118 1177.17 261.344 1177.12 261.57C1176.99 262.058 1176.89 262.537 1176.82 263.026C1174.57 278.313 1199.49 295.843 1197.23 311.121C1197.12 311.835 1196.96 312.549 1196.73 313.254C1196.68 313.435 1196.62 313.616 1196.56 313.788C1196.5 313.96 1196.44 314.14 1196.37 314.313C1195.95 315.424 1195.39 316.519 1194.72 317.603C1194.56 317.884 1194.37 318.164 1194.19 318.445C1194.06 318.652 1193.91 318.86 1193.77 319.068C1193.26 319.791 1192.72 320.515 1192.12 321.238C1191.86 321.573 1191.57 321.907 1191.29 322.242C1188.89 325.026 1185.98 327.775 1182.96 330.505C1182.56 330.875 1182.15 331.237 1181.75 331.598C1180.97 332.294 1180.19 332.99 1179.41 333.687C1179.02 334.04 1178.63 334.392 1178.24 334.745C1178.17 334.799 1178.11 334.862 1178.03 334.925C1177.59 335.332 1177.13 335.747 1176.68 336.155C1176.64 336.182 1176.61 336.218 1176.57 336.255C1176.09 336.698 1175.61 337.131 1175.14 337.574C1175.13 337.574 1175.13 337.583 1175.13 337.583C1174.66 338.026 1174.19 338.469 1173.73 338.921C1173.7 338.948 1173.68 338.966 1173.66 338.994C1173.17 339.464 1172.69 339.943 1172.22 340.413C1172.2 340.413 1172.2 340.413 1172.2 340.413C1170.7 341.923 1169.31 343.451 1168.09 344.988C1167.68 345.512 1167.28 346.046 1166.91 346.57C1166.59 346.994 1166.3 347.437 1166.02 347.871C1165.91 348.052 1165.81 348.233 1165.7 348.414C1165.41 348.875 1165.15 349.336 1164.92 349.806C1164.8 350.032 1164.69 350.249 1164.6 350.475C1164.58 350.493 1164.57 350.52 1164.56 350.547C1164.46 350.764 1164.37 350.981 1164.28 351.198C1164.09 351.668 1163.92 352.138 1163.77 352.608C1163.7 352.798 1163.65 352.988 1163.6 353.187C1163.54 353.404 1163.5 353.621 1163.45 353.838C1163.38 354.137 1163.33 354.435 1163.28 354.742C1161.15 369.198 1183.31 385.661 1183.82 400.324C1183.85 401.165 1183.81 402.006 1183.68 402.837C1182.69 409.546 1176.46 415.829 1169.59 422.066C1160.81 430.012 1151 437.887 1149.73 446.458C1147.48 461.745 1172.4 479.266 1170.14 494.553C1167.89 509.84 1138.45 522.886 1136.18 538.173C1136.14 538.553 1136.09 538.942 1136.05 539.33C1134.16 562.818 1103.74 578.602 1073.9 571.117C1068.56 569.77 1063.32 568.821 1058.25 568.468C1029.55 566.497 998.569 585.094 969.841 583.52C941.089 581.939 914.09 560.16 885.314 558.985C856.538 557.8 826.504 577.229 797.703 576.433C768.902 575.647 740.852 554.627 712.039 554.229C683.227 553.84 654.16 574.073 625.335 574.073C596.523 574.073 567.456 553.84 538.645 554.229C509.832 554.627 481.782 575.646 452.981 576.433C424.181 577.229 394.146 557.8 365.37 558.985C336.594 560.16 309.583 581.939 280.844 583.52C252.116 585.093 221.139 566.497 192.435 568.468C187.367 568.821 182.13 569.77 176.784 571.117C171.232 572.509 165.655 573.097 160.236 572.979C159.934 572.979 159.643 572.97 159.341 572.952C158.18 572.907 157.018 572.834 155.869 572.735C155.168 572.663 154.478 572.59 153.789 572.5C153.426 572.455 153.063 572.4 152.7 572.347C152.483 572.311 152.264 572.283 152.047 572.247C151.733 572.202 151.43 572.147 151.116 572.094C150.572 571.994 150.016 571.895 149.47 571.786C149.18 571.732 148.902 571.669 148.624 571.605C148.128 571.497 147.62 571.379 147.112 571.252C146.786 571.171 146.459 571.09 146.132 570.999C145.806 570.918 145.479 570.828 145.153 570.737C144.511 570.556 143.882 570.367 143.254 570.158C141.04 569.444 138.887 568.594 136.842 567.636C136.601 567.528 136.359 567.41 136.116 567.293C132.596 565.566 129.378 563.487 126.56 561.118C126.124 560.748 125.69 560.359 125.266 559.97C125.048 559.771 124.818 559.563 124.613 559.356C124.395 559.148 124.189 558.94 123.984 558.732C123.766 558.524 123.56 558.307 123.367 558.1C123.174 557.901 122.992 557.693 122.798 557.494C122.194 556.825 121.626 556.147 121.08 555.451C120.91 555.225 120.729 554.999 120.561 554.764C120.392 554.538 120.222 554.303 120.065 554.068C119.896 553.833 119.739 553.598 119.582 553.354C119.255 552.875 118.953 552.396 118.675 551.907C118.239 551.175 117.841 550.434 117.465 549.674V549.665C116.849 548.399 116.329 547.089 115.893 545.742C115.808 545.47 115.724 545.208 115.651 544.938C115.493 544.395 115.361 543.844 115.228 543.292C115.179 543.039 115.118 542.786 115.07 542.524C115.058 542.505 115.058 542.478 115.058 542.46C114.973 542.026 114.888 541.583 114.828 541.14C114.804 540.996 114.78 540.851 114.767 540.707C114.707 540.246 114.658 539.794 114.622 539.333C114.61 539.207 114.597 539.07 114.585 538.944C114.561 538.682 114.525 538.429 114.488 538.176C114.307 536.982 113.968 535.798 113.484 534.632C113.303 534.18 113.097 533.728 112.867 533.276C112.153 531.866 111.246 530.473 110.207 529.099C109.88 528.675 109.553 528.249 109.203 527.824C109.166 527.797 109.154 527.77 109.13 527.743C108.779 527.318 108.416 526.893 108.042 526.477C106.252 524.461 104.219 522.481 102.079 520.492C101.849 520.276 101.607 520.059 101.365 519.833C101.123 519.616 100.881 519.399 100.639 519.173C100.348 518.901 100.046 518.63 99.7437 518.359C97.2763 516.144 94.7604 513.929 92.389 511.705C92.1474 511.488 91.9179 511.262 91.6872 511.045C90.042 509.49 88.4816 507.926 87.0791 506.344C86.8739 506.127 86.6797 505.901 86.4866 505.675C86.353 505.531 86.2449 505.395 86.1357 505.26C85.979 505.079 85.8212 504.889 85.6645 504.7C85.5552 504.573 85.4592 504.446 85.3621 504.31C85.1812 504.084 84.9991 503.858 84.8303 503.632C83.6926 502.14 82.726 500.631 81.9877 499.103C81.8785 498.877 81.7824 498.66 81.6853 498.434C81.2737 497.494 80.9472 496.545 80.7298 495.595C80.6812 495.397 80.6448 495.189 80.6084 494.99C80.6084 494.972 80.5962 494.945 80.5962 494.926C80.5962 494.917 80.5962 494.917 80.5962 494.908C80.5719 494.791 80.5477 494.673 80.5355 494.556C79.8823 490.099 81.5276 485.453 84.1516 480.734C85.3975 478.474 86.8606 476.195 88.4099 473.917C92.2323 468.267 96.4895 462.58 98.969 457.038C99.0904 456.776 99.1986 456.514 99.3078 456.251C99.3078 456.251 99.3199 456.242 99.3199 456.233C99.598 455.546 99.8518 454.868 100.07 454.19C100.143 453.991 100.216 453.793 100.263 453.593C100.953 451.306 101.243 449.046 100.977 446.831C100.977 446.704 100.965 446.587 100.941 446.461C100.868 445.982 100.772 445.502 100.651 445.032C100.53 444.562 100.385 444.092 100.215 443.622C100.13 443.387 100.033 443.152 99.9368 442.917C99.7073 442.356 99.4402 441.787 99.1379 441.226C98.9569 440.865 98.7505 440.503 98.5331 440.141C97.9648 439.183 97.3116 438.233 96.5856 437.284C96.4399 437.085 96.2831 436.896 96.1254 436.705C95.9565 436.488 95.7745 436.271 95.5935 436.045C95.4236 435.837 95.2426 435.63 95.0737 435.422C90.8033 430.449 84.9009 425.604 79.6153 420.713C79.2279 420.351 78.8406 419.998 78.4665 419.646C74.8129 416.202 71.5356 412.73 69.4059 409.169C69.2724 408.934 69.14 408.708 69.0065 408.473C68.4989 407.578 68.0873 406.674 67.7485 405.761C67.6878 405.616 67.6393 405.462 67.5908 405.309C67.3977 404.757 67.2519 404.206 67.1306 403.645C67.0942 403.474 67.0578 403.293 67.0335 403.121L66.9971 402.931V402.904C66.9971 402.886 66.985 402.859 66.985 402.841C65.9687 395.933 70.505 388.565 75.5732 381.153C81.6578 372.239 88.5159 363.253 87.4157 354.935C87.4036 354.872 87.4035 354.809 87.3914 354.745C85.1414 339.458 55.6997 326.412 53.4376 311.125C53.4255 311.061 53.4255 311.008 53.4134 310.944C51.6831 297.89 69.5615 283.209 73.3111 269.693C73.9401 267.433 74.1696 265.209 73.843 263.03C73.1048 258.003 69.4401 253.23 64.7592 248.538C55.191 238.937 41.4142 229.679 39.8903 219.418C39.8539 219.192 39.8297 218.957 39.8175 218.731C38.3775 203.606 62.5214 186.375 60.2957 171.313C60.2714 171.142 60.2471 170.979 60.2107 170.807C57.3924 155.737 28.5797 142.818 26.3419 127.702C26.2569 127.088 26.2084 126.463 26.1963 125.84V125.714C26.1963 110.906 48.9001 94.2253 46.7473 79.5978C46.6866 79.2184 46.6259 78.8292 46.5421 78.4407C46.4814 78.1603 46.4096 77.8799 46.3368 77.5904C46.3125 77.4824 46.2883 77.3644 46.2518 77.2556C46.1183 76.7582 45.9981 76.261 45.901 75.7636C42.2485 58.6949 56.3398 43.3804 76.552 37.9651C83.8702 36.0122 91.9863 35.3524 100.357 36.3743C106.224 37.0885 111.957 37.5858 117.51 37.7029C120.8 37.7845 124.017 37.7301 127.151 37.5132C133.283 37.0885 139.343 35.985 145.355 34.4395H145.367C169.861 28.174 193.556 14.758 218.378 11.558C218.39 11.558 218.39 11.558 218.402 11.558C220.458 11.2957 222.515 11.106 224.583 10.9881C227.74 10.8165 230.909 10.8256 234.102 10.9881C234.392 11.0062 234.695 11.0244 234.997 11.0425C260.834 12.5881 287.494 23.844 313.391 26.2217C313.584 26.2399 313.778 26.258 313.971 26.2762C317.951 26.6201 321.906 26.7554 325.837 26.602C325.946 26.602 326.054 26.5929 326.164 26.5929C336.7 26.1682 347.102 23.7088 357.468 20.527C378.914 13.9456 400.167 4.24508 421.939 2.88921C422.907 2.82571 423.863 2.78112 424.83 2.7539C426.028 2.71762 427.213 2.71764 428.411 2.73578H428.653C459.413 3.29578 490.765 20.0758 521.525 21.0878C521.635 21.0968 521.731 21.0968 521.828 21.0968C523.074 21.1422 524.319 21.1513 525.565 21.1332C558.902 20.6721 591.996 0.00585938 625.332 0.00585938C625.659 0.00585938 625.973 0.0058481 626.3 0.0149202C626.312 0.0149202 626.312 0.0149202 626.324 0.0149202C655.85 0.367082 685.171 16.6218 714.66 20.3744C718.144 20.8173 721.628 21.0886 725.111 21.134H725.184C758.109 21.5496 791.772 2.28462 824.709 2.74565C824.794 2.73658 824.878 2.73658 824.963 2.74565C825.253 2.74565 825.556 2.74564 825.846 2.75471C827.262 2.791 828.664 2.87186 830.08 2.98073C856.872 5.06896 882.927 19.4796 909.55 24.7414C914.509 25.7269 919.504 26.3867 924.513 26.5945C925.311 26.6217 926.109 26.649 926.907 26.658C927.645 26.6671 928.395 26.6671 929.133 26.658C960.304 26.2869 992.842 10.0232 1023.9 10.9097C1024.63 10.9188 1025.36 10.9551 1026.08 10.9914C1028.59 11.1267 1031.09 11.3799 1033.57 11.7419C1062.37 15.8466 1089.68 33.3574 1118.53 37.0192C1120.19 37.2361 1121.84 37.3986 1123.51 37.5165C1125.13 37.6246 1126.79 37.6971 1128.46 37.7153C1131.09 37.7697 1133.77 37.7244 1136.5 37.5801C1141 37.3813 1145.62 36.9475 1150.32 36.3776C1154.3 35.8893 1158.22 35.7804 1162.03 36.0155C1166.65 36.2959 1171.1 37.0827 1175.27 38.2844C1191.21 42.9037 1203.1 53.744 1205.06 66.6355C1205.6 70.0532 1205.41 73.6235 1204.42 77.2581C1204.2 78.0539 1204.04 78.8399 1203.91 79.5995C1203.55 82.0861 1203.9 84.6262 1204.74 87.2118C1209.04 100.529 1226.22 114.903 1224.32 127.704C1222.07 142.987 1192.63 156.024 1190.37 171.312Z" fill="url(#paint2_linear_104_419)"/>
<path opacity="0.2" d="M1176.82 263.021C1174.57 278.308 1199.49 295.838 1197.23 311.116C1194.98 326.403 1165.53 339.449 1163.27 354.736C1161.14 369.192 1183.3 385.654 1183.81 400.318C1183.85 401.159 1183.8 402 1183.68 402.831C1182.69 409.539 1176.46 415.822 1169.59 422.06C1160.81 430.006 1151 437.881 1149.73 446.451C1147.48 461.738 1172.39 479.259 1170.13 494.546C1167.88 509.833 1138.44 522.879 1136.18 538.166C1136.13 538.546 1136.08 538.935 1136.04 539.323C1134.16 562.811 1103.74 578.595 1073.9 571.11C1068.55 569.763 1063.31 568.814 1058.24 568.461C1029.54 566.49 998.563 585.087 969.835 583.513C941.083 581.932 914.085 560.153 885.308 558.978C856.532 557.793 826.498 577.222 797.697 576.426C768.897 575.64 740.846 554.621 712.034 554.222C683.221 553.833 654.154 574.066 625.329 574.066C596.517 574.066 567.45 553.833 538.639 554.222C509.826 554.62 481.776 575.639 452.975 576.426C424.174 577.222 394.14 557.793 365.364 558.978C336.588 560.153 309.577 581.932 280.838 583.513C252.11 585.086 221.132 566.49 192.429 568.461C187.361 568.814 182.124 569.763 176.777 571.11C146.936 578.595 116.503 562.811 114.617 539.323C114.592 538.935 114.544 538.546 114.483 538.166C112.233 522.879 82.7913 509.833 80.5303 494.546C79.877 490.089 81.5223 485.443 84.1464 480.724C85.3922 478.464 86.8554 476.185 88.4047 473.907C94.7066 464.577 102.218 455.157 100.936 446.451C98.6857 431.164 69.244 418.118 66.983 402.831C65.9667 395.924 70.5031 388.556 75.5713 381.143C170.768 406.366 296.342 472.906 556.851 463.884C849.585 453.749 825.89 323.083 1210.31 213.008C1210.88 215.178 1211.09 217.312 1210.77 219.409C1208.52 234.688 1179.08 247.734 1176.82 263.021Z" fill="#96440C"/>
<path d="M1214.69 220.14C1213.36 229.153 1202.61 237.389 1193.51 245.769C1108.66 240.354 1008.43 231.956 948.486 220.076C944.773 219.335 945.668 215.239 949.503 215.402C1052.34 219.859 1143.96 218.132 1214.48 214.779C1214.85 216.587 1214.95 218.376 1214.69 220.14Z" fill="url(#paint3_linear_104_419)"/>
<path d="M1183.81 400.312C1183.85 401.152 1183.8 401.993 1183.68 402.824C1182.69 409.533 1176.46 415.816 1169.59 422.053C1050.91 422.849 718.651 424.91 640.886 423.771C492.263 421.601 236.024 463.233 84.1465 480.717C85.3923 478.458 86.8555 476.179 88.4048 473.901C200.522 457.366 508.593 414.252 692.136 411.097C893.049 407.643 1117.25 402.02 1183.81 400.312Z" fill="url(#paint4_linear_104_419)"/>
<path d="M348.148 507.812C348.148 507.812 534.529 519.806 695.012 513.171C613.367 531.325 437.824 530.158 348.148 507.812Z" fill="url(#paint5_linear_104_419)"/>
<path d="M326.815 265.045C283.838 280.305 141.457 273.815 73.3088 269.646C73.9377 267.387 74.1673 265.162 73.8407 262.983C73.1025 257.957 69.4378 253.184 64.7568 248.491C104.927 255.553 219.802 273.173 326.815 265.045Z" fill="url(#paint6_linear_104_419)"/>
<path d="M1199.2 317.562C1195.11 325.157 1185.61 332.307 1177.97 339.594C1060.82 356.627 722.557 374.12 633.978 353.806C538.602 331.937 184.082 336.078 184.082 336.078C184.082 336.078 402.087 318.06 661.134 346.347C908.509 373.36 998.079 318.439 1199.2 317.562Z" fill="url(#paint7_linear_104_419)"/>
<path d="M148.907 141.416C148.907 141.416 301.17 101.673 584.469 141.416C763.763 166.569 825.89 153.447 825.89 153.447C825.89 153.447 643.774 168.152 545.203 147.643C446.631 127.135 148.907 141.416 148.907 141.416Z" fill="url(#paint8_linear_104_419)"/>
<path d="M1208.54 87.1793C1159.4 87.4597 835.571 88.3364 686.102 63.0864C838.014 87.2337 1102.9 73.3741 1208.89 66.3771C1209.49 69.9482 1209.35 73.6908 1208.31 77.506C1208.09 78.3101 1207.93 79.0878 1207.81 79.8565C1207.46 82.2523 1207.77 84.6927 1208.54 87.1793Z" fill="url(#paint9_linear_104_419)"/>
<defs>
<linearGradient id="paint0_linear_104_419" x1="361.057" y1="-245.497" x2="557.757" y2="421.05" gradientUnits="userSpaceOnUse">
<stop stop-color="#F8A45B"/>
<stop offset="0.2171" stop-color="#C97F40"/>
<stop offset="0.4733" stop-color="#985825"/>
<stop offset="0.6987" stop-color="#743C11"/>
<stop offset="0.8819" stop-color="#5E2B04"/>
<stop offset="1" stop-color="#562500"/>
</linearGradient>
<linearGradient id="paint1_linear_104_419" x1="852.408" y1="701.021" x2="650.853" y2="-29.2026" gradientUnits="userSpaceOnUse">
<stop stop-color="#F8A45B"/>
<stop offset="0.3936" stop-color="#CC7937"/>
<stop offset="0.7917" stop-color="#A55318"/>
<stop offset="1" stop-color="#96440C"/>
</linearGradient>
<linearGradient id="paint2_linear_104_419" x1="515.214" y1="4.94166" x2="719.482" y2="793.52" gradientUnits="userSpaceOnUse">
<stop stop-color="#F8A45B"/>
<stop offset="0.3936" stop-color="#CC7937"/>
<stop offset="0.7917" stop-color="#A55318"/>
<stop offset="1" stop-color="#96440C"/>
</linearGradient>
<linearGradient id="paint3_linear_104_419" x1="1081.74" y1="197.44" x2="1079.41" y2="265.91" gradientUnits="userSpaceOnUse">
<stop offset="0.3844" stop-color="#96440C"/>
<stop offset="0.3989" stop-color="#9A4810"/>
<stop offset="0.5039" stop-color="#B76427"/>
</linearGradient>
<linearGradient id="paint4_linear_104_419" x1="632.858" y1="406.157" x2="633.478" y2="440.163" gradientUnits="userSpaceOnUse">
<stop offset="0.3844" stop-color="#96440C"/>
<stop offset="0.3989" stop-color="#9A4810"/>
<stop offset="0.5039" stop-color="#B76427"/>
</linearGradient>
<linearGradient id="paint5_linear_104_419" x1="521.571" y1="510.579" x2="520.329" y2="533.848" gradientUnits="userSpaceOnUse">
<stop offset="0.3844" stop-color="#96440C"/>
<stop offset="0.3989" stop-color="#9A4810"/>
<stop offset="0.5039" stop-color="#B76427"/>
</linearGradient>
<linearGradient id="paint6_linear_104_419" x1="195.162" y1="261.039" x2="193.293" y2="283.961" gradientUnits="userSpaceOnUse">
<stop offset="0.3844" stop-color="#96440C"/>
<stop offset="0.3989" stop-color="#9A4810"/>
<stop offset="0.5039" stop-color="#B76427"/>
</linearGradient>
<linearGradient id="paint7_linear_104_419" x1="691.924" y1="321.458" x2="690.064" y2="384.313" gradientUnits="userSpaceOnUse">
<stop offset="0.3844" stop-color="#96440C"/>
<stop offset="0.3989" stop-color="#9A4810"/>
<stop offset="0.5039" stop-color="#B76427"/>
</linearGradient>
<linearGradient id="paint8_linear_104_419" x1="492.09" y1="118.882" x2="487.723" y2="166.458" gradientUnits="userSpaceOnUse">
<stop offset="0.3844" stop-color="#96440C"/>
<stop offset="0.3989" stop-color="#9A4810"/>
<stop offset="0.5039" stop-color="#B76427"/>
</linearGradient>
<linearGradient id="paint9_linear_104_419" x1="947.673" y1="71.1705" x2="947.673" y2="89.2054" gradientUnits="userSpaceOnUse">
<stop offset="0.3844" stop-color="#96440C"/>
<stop offset="0.3989" stop-color="#9A4810"/>
<stop offset="0.5039" stop-color="#B76427"/>
</linearGradient>
</defs>
</svg>
