<svg width="490" height="107" viewBox="0 0 490 107" fill="none" xmlns="http://www.w3.org/2000/svg">
<path d="M489.688 47.1753C489.204 45.7077 488.189 44.3503 487.329 42.9654C487.286 42.8958 487.243 42.8262 487.198 42.7551C486.099 41.0106 484.835 39.3153 483.498 37.6491C482.827 36.8152 482.139 35.99 481.442 35.1663C481.305 35.0054 481.169 34.8676 480.987 34.7298C480.797 34.5863 480.698 34.4108 480.565 34.2426C480.249 33.8452 479.862 33.474 479.475 33.1071C478.174 31.873 476.824 30.6432 475.145 29.6383C474.33 29.151 473.438 28.7203 472.47 28.3824C471.937 28.1953 471.38 28.0373 470.806 27.9154C470.273 27.8023 469.731 27.7574 469.189 27.6762C469.18 27.4949 469.262 27.2977 469.282 27.1135C469.301 26.9163 469.301 26.719 469.288 26.5233C469.26 26.1187 469.165 25.7155 469.026 25.3225C468.744 24.5307 468.282 23.7737 467.751 23.0443C467.159 22.2336 466.491 21.4476 465.747 20.6964C465.37 20.3165 464.971 19.9496 464.566 19.5827C464.265 19.3086 464.162 18.9722 463.896 18.6807C463.659 18.424 463.423 18.1673 463.184 17.9121C463.031 17.7482 462.891 17.5901 462.773 17.4161C462.618 17.1884 462.311 17.0101 462.072 16.8245C461.55 16.4155 461.027 16.0051 460.52 15.5874C456.652 12.4086 452.707 9.22841 448.019 6.57748C445.973 5.42023 443.788 4.3703 441.451 3.49729C440.787 3.24931 440.118 3.02598 439.447 2.8244C434.444 1.32927 429.236 1.07984 423.708 1.01313C417.903 0.944969 412.098 0.879713 406.293 0.818805C400.483 0.757897 394.672 0.699892 388.862 0.644785C383.046 0.589678 377.23 0.538917 371.414 0.492511C365.592 0.444655 359.772 0.40115 353.951 0.360545C348.125 0.31994 342.298 0.283685 336.471 0.250331C330.638 0.216977 324.807 0.186523 318.974 0.160419C313.136 0.134316 307.299 0.111118 301.462 0.0908157C295.62 0.0705132 289.776 0.0545606 283.934 0.041509C278.086 0.0284574 272.238 0.0197556 266.389 0.0125047C260.537 0.00670398 254.682 0.00380207 248.83 0.00525225C242.971 0.00670243 237.112 0.0110513 231.253 0.0183022C225.39 0.0255531 219.524 0.0371584 213.661 0.0516602C207.791 0.066162 201.922 0.0835624 196.052 0.105315C190.178 0.127068 184.302 0.151719 178.428 0.179272C172.547 0.206826 166.669 0.238733 160.788 0.273538C154.904 0.308342 149.019 0.346045 143.132 0.3881C137.241 0.430155 131.352 0.475109 125.46 0.522965C111.732 0.634629 98.148 0.724542 84.2499 0.871011C73.4028 0.985575 60.9302 0.94642 51.8354 5.74507C46.5225 8.54827 42.9878 11.3065 38.6059 14.7217C34.0456 18.2761 29.6659 21.9378 25.4926 25.7025C21.5816 29.2322 17.7781 32.8243 14.3875 36.5933C11.343 39.9795 8.00389 43.238 4.92928 46.6097C2.33414 49.4564 -0.308309 52.6628 0.0292534 56.12C0.261462 58.5012 2.42229 60.9912 3.89079 63.1418C4.64762 64.2483 5.6388 65.2649 6.53324 66.3278C7.38037 67.3357 8.35005 68.2957 9.43154 69.1963C10.0658 69.7227 10.7581 70.2419 11.6569 70.5464C13.3748 71.1308 15.5894 70.8568 17.174 71.5949C16.0581 71.7022 15.2733 72.4563 15.1335 73.2104C14.9938 73.9645 15.3572 74.7171 15.7463 75.4306C17.0901 77.8988 18.8252 80.2699 20.9065 82.493C22.9878 84.7161 25.5786 86.5651 28.0534 88.5823C30.9667 90.9577 34.0091 93.262 37.1697 95.4881C40.2163 97.6329 43.3576 99.9807 47.0536 101.728C53.3017 104.684 60.4916 104.414 67.761 104.529C90.9474 104.897 114.173 105.635 137.37 105.635C166.794 106.003 196.222 106.219 225.652 106.282C255.009 106.343 284.366 106.25 313.721 106.002C343.01 105.754 372.296 105.349 401.578 104.788C409.843 104.63 418.413 104.531 426.723 103.764C430.821 103.386 434.072 102.939 437.514 101.353C442.691 98.9671 446.74 95.1357 450.797 91.9511C453.423 89.8889 456.005 87.8021 458.538 85.6878C460.836 83.7692 463.354 82.0913 464.242 79.6782C464.369 79.3331 464.476 78.972 464.779 78.6805C465.123 78.3498 465.672 78.1512 466.179 77.9365C469.828 76.3906 472.143 73.4613 474.362 71.0554C478.308 66.7803 481.928 62.363 485.515 57.9472C488.159 54.7017 490.948 50.998 489.688 47.1753Z" fill="url(#paint0_linear_89_258)"/>
<path d="M485.491 57.9405C484.803 58.7831 484.117 59.6401 483.407 60.4696C483.136 60.8206 482.844 61.1585 482.554 61.4949C480.449 64.024 478.178 66.5111 475.701 68.8981C474.368 70.1902 472.973 71.4417 471.515 72.6497C470.141 73.7591 468.995 74.912 466.953 75.5298C466.598 75.6414 466.245 75.727 465.891 75.7966C464.704 76.0359 463.474 76.12 462.246 76.1896C458.727 76.4144 455.226 76.6392 451.728 76.8639C451.644 76.8639 451.541 76.8784 451.457 76.8784C449.561 77.0046 447.667 77.1177 445.77 77.2439C448.312 77.1598 450.874 77.1873 453.414 77.3004C457.058 77.4687 460.662 77.8486 464.224 78.4098C463.371 79.9412 462.1 81.374 460.515 82.624C455.538 86.5294 450.81 91.1091 444.414 94.0602C440.976 95.6481 437.705 96.0832 433.624 96.4631C425.314 97.2361 416.731 97.3347 408.484 97.4884C379.197 98.0511 349.911 98.4571 320.625 98.7109C306.379 98.8226 292.151 98.9081 277.903 98.9632C274.383 98.9632 270.861 98.9777 267.342 98.9908C255.74 99.0053 244.157 99.0183 232.556 98.9908C203.123 98.9212 173.691 98.7095 144.258 98.344C137.051 98.344 129.844 98.2744 122.637 98.1613C106.641 97.922 90.6419 97.487 74.6669 97.2346C67.3975 97.123 60.1904 97.3898 53.9423 94.4242C50.2549 92.6825 47.1093 90.3361 44.0691 88.1869C43.7574 87.9622 43.4434 87.7374 43.1317 87.5126C40.3817 85.5462 37.7156 83.5232 35.1549 81.4436C33.0306 79.7295 30.9472 78.0009 28.7391 76.3303C27.8016 75.5994 27.0319 74.7844 26.303 73.9563C25.3247 72.8469 24.1788 71.7506 23.7831 70.4585C23.7208 70.2337 23.6993 69.9814 23.9079 69.8117C24.0949 69.6565 24.3873 69.6145 24.6582 69.5869C29.8657 68.9691 35.2818 69.3056 40.4054 68.6168C41.446 68.4906 42.4673 68.3079 43.4671 68.0686C38.7391 68.0541 34.0111 68.041 29.283 68.012C28.0962 68.012 26.9094 67.9975 25.7204 67.9134C25.2624 67.8714 24.8238 67.8293 24.3658 67.7582C22.2609 67.4349 20.3452 66.6764 18.8251 65.6511C18.0747 65.132 17.4082 64.5417 16.8878 63.895C14.7829 61.2397 12.6586 58.5844 10.7838 55.845C9.32603 53.6958 7.15875 51.2088 6.93084 48.8203C6.90934 48.6942 6.90934 48.5811 6.90934 48.4549C6.84699 46.8249 7.42966 45.2369 8.36709 43.7201C9.9087 41.1764 12.3877 38.7894 14.3658 36.5837C17.7608 32.819 21.5729 29.2226 25.4882 25.6958C29.655 21.9311 34.0283 18.2781 38.5907 14.7237C39.4228 14.0639 40.2355 13.4316 41.0483 12.8269C44.3809 10.2412 47.5264 8.0079 51.818 5.74562C60.9214 0.94117 73.3983 0.983226 84.2283 0.870112C98.1436 0.716393 111.723 0.630831 125.45 0.519167C131.345 0.46261 137.219 0.420555 143.112 0.378499C149.008 0.336444 154.882 0.308891 160.775 0.266836C166.649 0.239283 172.523 0.195776 178.419 0.168223C184.293 0.140669 190.167 0.126167 196.041 0.0986134C201.915 0.0841116 207.767 0.0565616 213.641 0.0420598C219.515 0.027558 225.368 0.0275565 231.242 0.0145049C237.094 3.09824e-06 242.949 0 248.823 0C254.676 0 260.53 3.09824e-06 266.383 0.0145049C272.216 0.0145049 278.068 0.0290082 283.921 0.0420598C289.754 0.0565616 295.607 0.0696123 301.438 0.0841141C307.29 0.111668 313.123 0.12617 318.957 0.153723C324.788 0.181277 330.621 0.210276 336.454 0.252331C342.287 0.279885 348.118 0.321941 353.93 0.350945C359.761 0.393 365.572 0.435055 371.405 0.491612C377.217 0.533668 383.029 0.590228 388.84 0.646785C394.652 0.703342 400.464 0.758445 406.275 0.815002C412.087 0.871559 417.899 0.94117 423.689 1.01223C429.23 1.08184 434.437 1.32112 439.436 2.82495C440.103 3.02218 440.769 3.24696 441.436 3.49929C446.914 5.53679 451.477 8.51401 455.6 11.6624C456.559 12.3932 457.538 13.1241 458.475 13.8681C460.141 15.1326 461.724 16.4393 463.1 17.83C464.745 19.502 466.308 21.2016 467.744 22.9578C468.118 23.4219 468.494 24.0541 467.974 24.4616C467.744 24.6444 467.391 24.743 467.037 24.7995C466.996 24.814 466.953 24.814 466.912 24.8271C461.872 25.7262 456.684 26.2178 451.477 26.2889C453.788 26.5557 456.121 26.7805 458.475 26.9357C461.558 27.1749 464.641 27.3011 467.744 27.3287C469.974 27.3562 472.347 27.3562 474.285 28.1161C474.325 28.1306 474.347 28.1437 474.388 28.1582C476.721 29.1269 477.97 31.1934 479.303 32.7378C480.782 34.4795 482.218 36.2357 483.844 37.9353C485.031 39.1998 485.906 40.6326 486.74 42.0233C486.948 42.3467 487.136 42.6556 487.323 42.9645C488.198 44.3552 489.197 45.7184 489.677 47.1787C490.948 51 488.157 54.7081 485.491 57.9405Z" fill="url(#paint1_linear_89_258)"/>
<path d="M474.388 28.159C464.16 29.7179 450.537 28.7072 443.165 29.1567C434.88 29.6541 426.635 30.3923 418.389 31.1159C414.046 31.4959 409.703 31.8729 405.353 32.2065C401.898 32.4718 398.613 32.6198 395.349 33.458C392.077 34.2991 388.516 34.112 385.067 34.1845C380.731 34.2759 376.396 34.3948 372.064 34.5441C354.734 35.1402 337.439 36.1988 320.232 37.7157C311.629 38.4741 303.048 39.3471 294.495 40.3347C290.219 40.8278 285.951 41.3513 281.689 41.9009C279.559 42.1765 277.43 42.4592 275.306 42.7478C274.201 42.8986 273.096 43.0509 271.99 43.2061C271.24 43.3105 269.933 43.6875 269.189 43.602C273.528 44.0994 277.701 45.2392 281.33 46.9171C243.371 50.7659 205.127 53.3356 166.789 54.6118C159.316 54.8612 151.808 55.057 144.34 54.6248C140.674 54.4131 137.021 54.0491 133.442 53.4661C128.475 52.6555 123.164 53.0601 118.036 53.0166C108.823 52.9382 99.6123 52.7454 90.4142 52.406C74.0414 51.8013 57.7116 51.0574 41.3602 50.354C30.5496 49.89 17.8857 50.2554 6.90739 48.4572C6.84503 46.8272 7.42771 45.2392 8.36514 43.7223C20.3841 42.8232 33.964 44.214 45.4411 44.3401C61.7924 44.5228 78.1438 44.3126 94.4951 44.0312C126.51 43.4555 158.546 43.821 190.582 42.9349C213.1 42.3026 235.304 40.603 257.486 38.4669C242.76 38.3973 227.991 38.0173 213.203 37.2444C181.105 35.5723 148.632 32.875 116.471 33.8727C100.141 34.3788 84.1855 33.5348 67.9373 32.5806C60.0229 32.1165 51.8161 31.696 44.0672 30.4169C37.5675 29.3496 31.6526 27.3266 25.4862 25.6966C29.6531 21.9319 34.0263 18.2789 38.5888 14.7245C39.4209 14.0647 40.2336 13.4324 41.0463 12.8277C44.5466 12.4898 48.1072 12.265 51.773 12.294C61.2506 12.3636 70.6658 13.4034 80.081 14.1618C97.5568 15.5946 113.949 18.4747 131.051 21.1024C148.673 23.8143 167.127 24.7554 185.063 26.2303C202.455 27.6775 219.827 28.7028 237.346 29.0958C269.466 29.8267 302.543 28.2112 334.203 24.3755C365.031 20.6239 396.067 16.9578 427.353 15.6091C437.123 15.1871 448.015 14.0357 458.473 13.8675C460.139 15.132 461.722 16.4386 463.098 17.8294C464.743 19.5014 466.306 21.201 467.742 22.9572C468.116 23.4213 468.492 24.0535 467.972 24.461C467.723 24.6713 467.306 24.7554 466.91 24.8265C461.87 25.7256 456.682 26.2172 451.475 26.2883C456.848 26.9205 462.285 27.2715 467.742 27.328C469.972 27.3556 472.345 27.3556 474.283 28.1155C474.326 28.1314 474.347 28.1459 474.388 28.159ZM489.677 47.1825C489.198 45.7221 488.198 44.359 487.323 42.9683C487.136 42.6594 486.949 42.3505 486.74 42.0271C482.741 41.9705 478.742 41.9705 474.764 41.943C458.662 41.8444 442.541 41.9009 426.439 42.1533C392.883 42.6869 360.576 46.1151 327.708 50.5411C320.505 51.5127 313.225 52.0986 305.951 52.8715C298.346 53.6778 290.741 54.4812 283.134 55.2788C265.648 57.1133 248.157 58.9231 230.659 60.7098C221.911 61.6031 213.16 62.4906 204.409 63.3708C200.034 63.8117 195.658 64.2497 191.281 64.6876C187.052 65.1096 182.678 65.81 178.413 65.9696C195.25 65.3822 212.048 67.3081 228.576 69.5501C215.179 70.3274 201.823 71.4324 188.542 72.8579C179.974 73.7773 171.438 74.8316 162.941 76.0179C158.709 76.6096 154.506 77.3506 150.262 77.8872C148.914 78.0583 147.669 78.0032 146.316 77.9858C142.941 77.9452 139.58 78.9661 136.407 79.5824C118.367 83.0803 100.1 83.9373 81.6032 85.6659C68.7716 86.8609 55.942 87.1132 43.1319 87.5207C43.4436 87.7455 43.7576 87.9703 44.0693 88.1951C47.1095 90.3442 50.2551 92.6906 53.9425 94.4323C60.1906 97.3964 67.3977 97.1296 74.6671 97.2427C90.6443 97.4951 106.641 97.9316 122.637 98.1694C153.487 95.1066 180.898 85.6239 210.393 78.7819C242.242 71.3787 275.798 66.8687 309.167 64.0582C329.268 62.3717 349.514 62.4848 369.782 62.7937C331.748 70.1983 299.44 83.9098 267.342 98.9989C270.862 98.9844 274.381 98.9713 277.903 98.9713C307.753 84.964 343.392 74.9607 378.886 71.2671C400.445 69.0193 422.461 69.7777 444.207 69.4268C454.706 69.2441 465.224 69.0759 475.702 68.9076C478.181 66.5192 480.451 64.0321 482.554 61.5045C482.846 61.168 483.137 60.8301 483.408 60.4792C484.115 59.6497 484.803 58.7941 485.491 57.9501C488.157 54.7118 490.948 51.0037 489.677 47.1825Z" fill="url(#paint2_linear_89_258)"/>
<path d="M466.282 44.4331C467.142 46.2864 468.643 48.002 470.632 49.4058C470.984 49.6552 471.378 49.9336 471.378 50.2773C471.378 50.4775 471.24 50.6645 471.107 50.8429C469.782 52.6165 468.46 54.3886 467.136 56.1622C466.463 57.0613 465.792 57.9618 465.121 58.861C464.826 59.2554 464.521 59.6368 464.319 60.0559C463.902 60.9173 462.945 61.612 462.122 62.3225C460.546 63.6785 458.944 65.1257 457.149 66.3526C456.428 66.8442 455.59 67.1415 454.97 67.7114C453.141 69.3936 451.339 71.1179 449.752 72.9103C449.152 73.5875 449.096 74.2677 448.787 75.0015C448.623 75.3901 448.333 75.7338 447.966 76.0514C446.089 77.6756 443.453 78.872 441.287 80.3091C439.367 81.5824 437.686 83.034 435.525 84.1188C430.049 86.8683 422.84 86.0069 416.052 86.5101C402.509 87.5122 388.841 86.6029 375.222 86.294C355.777 85.8517 337.894 87.7805 318.441 87.589C309.021 87.4962 299.602 87.4049 290.18 87.3121C291.072 88.449 291.965 89.5845 292.857 90.7214C283.861 87.4382 273.19 87.1917 262.962 87.1003C250.767 86.9901 238.57 86.9901 226.372 86.9901C224.282 86.9901 222.091 87.0075 220.259 87.6862C218.428 88.3649 217.148 89.9427 218.036 91.2188C217.198 88.5302 211.999 87.9153 207.927 87.882C170.715 87.5876 133.504 87.2947 96.2925 87.0003C91.9278 86.9655 87.5631 86.9278 83.2049 86.7697C79.0703 86.6189 74.94 86.3607 70.8592 85.888C68.8295 85.6531 66.8106 85.3645 64.8175 85.0121C63.8198 84.8351 62.8287 84.6423 61.8461 84.432C60.6399 84.1739 59.7927 83.7968 58.737 83.3009C58.1071 83.005 57.3589 82.6889 56.9654 82.2393C55.2281 80.2613 53.0931 78.3905 50.9473 76.5967C49.3821 75.2872 47.7308 74.024 46.0451 72.7841C45.1873 72.1533 44.3208 71.5283 43.4522 70.9047C41.4676 69.4806 40.126 67.8187 38.6962 66.1104C33.7553 60.2125 29.7368 53.9884 25.7764 47.7627C36.2494 56.69 48.3006 65.1881 58.7736 74.1154C61.5752 76.5039 64.5057 78.9648 68.5264 80.3526C72.6373 81.7709 77.4234 81.9087 82.0374 82.0116C193.53 84.5016 305.172 83.9317 416.596 80.3062C422.76 80.1061 429.174 79.8494 434.564 77.8206C438.963 76.1645 442.274 73.4715 445.297 70.7524C453.844 63.0563 460.819 53.3097 466.282 44.4331Z" fill="#EB924D"/>
<path d="M341.874 11.0215C340.95 11.8757 339.944 12.7327 338.574 13.2446C336.667 13.9596 334.345 13.903 332.177 13.7319C330.722 13.6173 329.273 13.4578 327.836 13.2562C330.305 12.6602 332.874 12.2498 335.476 12.0352C336.134 11.9815 336.813 11.9351 337.398 11.7249C337.959 11.5233 338.383 11.1868 338.8 10.862C339.933 9.97449 341.102 9.10728 342.309 8.26327C343.515 7.41927 344.753 6.59847 346.028 5.80232C346.383 5.58044 346.738 5.36146 347.097 5.14394C347.282 5.03227 347.467 4.9206 347.654 4.81039C347.789 4.72918 347.95 4.59432 348.12 4.55371C347.411 5.43252 346.559 6.27363 345.768 7.11908C344.973 7.97034 344.16 8.8158 343.317 9.64675C342.844 10.1108 342.369 10.5705 341.874 11.0215Z" fill="#EB924D"/>
<path d="M39.2275 31.6356C39.4576 31.6806 39.6962 31.7284 39.8833 31.8314C40.3176 32.0692 40.3348 32.5028 40.3176 32.8784C40.2854 33.5818 40.2509 34.2837 40.2187 34.987C41.5539 33.4513 42.8504 31.8996 44.106 30.3334C42.0355 29.5735 39.5586 29.5851 37.2021 29.6141C36.1658 29.6271 35.1295 29.6402 34.091 29.6532C33.5621 29.6605 33.0331 29.6663 32.5021 29.6735C32.2591 29.6764 32.0162 29.6793 31.7732 29.6822C31.6463 29.6837 31.1884 29.6373 31.0873 29.7011C30.6036 30.0129 32.6784 30.3421 32.8633 30.3783C33.8609 30.5755 34.8564 30.7713 35.854 30.9686C36.9785 31.1933 38.103 31.4152 39.2275 31.6356Z" fill="#EB924D"/>
<path d="M52.5274 65.3719C51.6051 64.1349 50.659 62.8182 50.8246 61.439C50.8525 61.2085 50.917 60.9706 51.1234 60.7865C51.446 60.4993 52.0222 60.4152 52.5489 60.3514C60.1 59.4465 67.6962 58.7185 75.3226 58.1703C73.7982 57.7846 72.1921 57.7904 70.5666 57.844C65.4107 58.0108 60.2419 57.9949 55.0882 57.7947C52.1275 57.6802 49.0916 57.5091 46.2471 58.0775C47.4554 59.5248 48.1714 61.1302 49.1497 62.6543C50.128 64.177 51.4481 65.675 53.4993 66.593C53.3337 66.1144 52.8564 65.8113 52.5274 65.3719Z" fill="#EB924D"/>
<path d="M449.217 44.9823C450.959 45.1201 452.713 45.3405 454.278 45.8728C455.844 46.405 457.216 47.2823 457.766 48.4048C458.297 49.4866 458.024 50.6656 457.747 51.7895C459.007 50.8454 459.948 49.7085 460.479 48.4903C460.574 48.2714 460.658 48.0408 460.595 47.8174C460.546 47.6376 460.406 47.4766 460.271 47.32C459.458 46.389 458.622 45.4696 457.757 44.5589C457.527 44.3153 457.289 44.0687 456.953 43.8889C456.444 43.6163 455.773 43.5293 455.13 43.4654C454.934 43.4466 454.739 43.4292 454.545 43.4118C452.374 43.2291 450.18 43.2059 447.996 43.2523C447.594 43.261 447.237 43.2479 446.844 43.1972C446.426 43.1435 446.018 43.2131 445.605 43.2595C444.53 43.3784 443.449 43.4742 442.363 43.5496C441.277 43.6235 440.191 43.6772 439.101 43.7076C438.557 43.7221 438.011 43.7323 437.467 43.7366C437.194 43.7381 436.921 43.7395 436.65 43.7381C436.401 43.7381 436.11 43.7627 435.865 43.7323C436.742 43.8396 437.618 43.9498 438.493 44.0629C439.572 44.2036 440.651 44.3472 441.729 44.4965C442.268 44.5705 442.806 44.6473 443.343 44.7228C443.535 44.7503 443.704 44.7677 443.898 44.7474C444.208 44.7141 444.496 44.7315 444.814 44.7445C446.121 44.7982 447.428 44.8533 448.731 44.9461C448.893 44.9562 449.056 44.9693 449.217 44.9823Z" fill="#EB924D"/>
<path d="M470.036 47.8539C468.432 45.2551 467.058 43.3859 465.433 41.5731C463.141 38.9875 460.559 36.3467 457.768 33.719C450.832 27.2004 442.999 18.5182 432.356 14.5563C432.19 14.4867 432.001 14.4301 431.836 14.388C430.023 13.8399 427.149 13.6992 423.379 13.6571C417.568 13.5875 411.778 13.5165 405.987 13.4599C400.197 13.4034 394.386 13.3338 388.595 13.2917C382.784 13.2351 376.994 13.18 371.182 13.1365C369.503 13.1249 367.824 13.1046 366.147 13.0916C362.214 13.0582 358.275 13.0872 354.351 12.9248C352.614 12.8523 350.892 13.0133 349.148 12.9248C347.009 12.816 344.859 12.6971 342.762 12.3824C344.721 9.56909 346.68 6.75573 348.638 3.94238C346.491 5.49988 344.493 7.14873 342.657 8.87735C341.769 9.71555 340.907 10.606 339.756 11.2963C338.903 11.8082 338.006 12.4636 336.925 12.7319C335.938 12.9756 334.865 12.9901 333.816 13.0002C329.443 13.0466 325.037 13.196 320.696 12.9654C312.747 12.5405 304.68 12.7537 296.708 12.7276C274.904 12.658 253.095 12.6101 231.292 12.6623C225.418 12.6768 219.565 12.6768 213.71 12.6899C202.003 12.7174 190.277 12.774 178.55 12.816C172.676 12.8436 166.802 12.8857 160.95 12.9147C155.076 12.9567 149.202 12.9843 143.328 13.0263C126.914 13.0263 110.479 13.2932 94.065 13.4483C85.6281 13.5324 70.5905 11.9024 63.3834 15.6961C59.509 17.7467 56.8429 19.8262 52.7814 23.0021C51.9429 23.6547 51.1366 24.3261 50.2851 24.9715C49.81 25.3311 49.2123 25.6139 48.8037 26.0127C48.2232 26.5783 47.8169 27.1656 47.0729 27.6543C46.3677 28.1184 45.5227 28.4881 44.6003 28.7216C43.1985 29.0755 41.6762 29.1233 40.1819 29.1683C38.1458 29.2292 36.1097 29.2901 34.0736 29.351C32.4567 29.3989 30.7775 29.4583 29.3477 29.9702C33.6586 29.7701 38.034 30.2168 42.0654 31.2681C42.2202 31.3088 42.3901 31.361 42.4481 31.4654C42.5105 31.577 42.418 31.6974 42.3277 31.7989C41.7235 32.4732 41.0291 33.0562 40.1733 33.5783C39.3735 34.067 38.765 34.8428 38.1308 35.4302C37.2901 36.2075 36.458 36.9906 35.6388 37.778C33.8177 39.5313 32.0546 41.3136 30.4098 43.1466C29.8895 43.7223 29.3477 44.3125 28.7844 44.9172C27.9093 45.8439 26.7009 47.1375 26.0344 48.0366C26.2645 48.3745 26.5139 48.7254 26.7224 49.0198C27.1181 49.539 27.4728 50.0596 27.8254 50.5512C30.3668 54.2883 33.3877 57.9964 36.7827 61.5653C39.8444 64.7833 43.1361 67.9012 46.5526 70.8523C50.0314 73.831 53.7382 76.7255 57.6126 79.4504L58.7586 80.2509C61.6548 82.316 63.8414 84.381 68.32 84.4651C93.6285 84.9423 118.956 85.7021 144.265 85.7021H144.62C164.714 85.953 184.811 86.1329 204.91 86.2402C206.88 86.2503 208.89 86.1474 210.883 86.1474C212.945 86.1488 215.005 86.1488 217.067 86.1488C217.565 86.1488 218.148 86.1764 218.432 86.4533C218.653 86.6709 218.604 86.9609 218.544 87.2219C217.8 90.4747 217.056 93.7275 216.312 96.9802C218.365 93.6607 220.419 90.3413 222.472 87.0218C222.616 86.7898 222.769 86.5491 223.057 86.391C223.386 86.2097 223.835 86.1677 224.259 86.1401C226.331 86.0023 228.43 86.0241 230.496 86.2025C231.39 86.2793 232.278 86.4606 233.173 86.3997C234.164 86.3315 235.162 86.3533 236.161 86.3547C240.561 86.362 244.962 86.362 249.361 86.362C249.58 86.362 249.799 86.362 250.019 86.362C260.597 86.362 271.197 86.288 281.762 86.2808C284.16 86.2793 286.501 86.8884 288.471 87.7803C290.851 88.8592 292.767 90.3384 294.562 91.8466C293.708 90.1092 293.01 88.3371 292.47 86.5433C294.902 86.3852 297.331 86.2271 299.763 86.069C301.719 85.9414 303.579 86.1923 305.555 86.1793C310.496 86.1459 315.439 86.0676 320.38 86.0676C349.479 85.8153 378.952 85.4078 407.948 84.8596L410.197 84.8175C416.779 84.6914 427.589 85.6035 433.672 83.6095C434.588 83.3151 435.297 82.7945 435.983 82.2884C441.212 78.4672 446.336 74.4778 451.126 70.4027C454.085 67.8881 456.875 65.3315 459.417 62.8168C462.749 59.5148 465.646 56.0314 469.103 51.8303C469.477 51.3662 470.458 50.1727 470.999 49.3287C470.911 49.2025 470.264 48.2193 470.036 47.8539ZM450.789 58.868C448.393 61.2564 445.749 63.6579 442.956 66.0333C438.645 69.7139 433.749 73.5496 428.417 77.455C427.396 77.6522 425.272 77.89 421.001 77.89C419.357 77.89 417.71 77.8625 416.149 77.8335C414.523 77.8059 413.003 77.7769 411.586 77.7769C411.004 77.7769 410.44 77.7769 409.898 77.7914L407.649 77.8335C378.718 78.3816 349.305 78.7891 320.249 79.0415C297.002 79.2387 273.381 79.3359 250.012 79.3359C244.222 79.3359 238.432 79.3359 232.64 79.3213C203.562 79.2517 174.005 79.04 144.8 78.6746H144.364C125.992 78.6746 107.35 78.2671 89.3112 77.8741C82.5836 77.7334 75.8754 77.5797 69.1693 77.4521C68.7113 77.1707 68.0233 76.6646 67.503 76.2861C67.1074 75.9917 66.7117 75.6959 66.2946 75.4146L65.1486 74.5996C61.5042 72.0284 58.0039 69.3166 54.7552 66.5075C53.7747 65.6664 52.5879 64.9007 51.7472 64.0074C50.7216 62.9169 49.696 61.8278 48.6704 60.7373C48.4339 60.485 48.1845 60.1891 48.3135 59.9034C48.492 59.5003 49.2531 59.3988 49.8745 59.3669C59.1005 58.8999 68.3243 58.4315 77.5503 57.9645C68.6748 57.3845 59.7992 56.8044 50.9259 56.2243C49.0531 56.1011 47.1482 55.9734 45.4066 55.492C44.1811 55.1526 43.0308 54.6132 42.2525 53.8808C41.9149 53.5618 41.659 53.2152 41.3193 52.8991C40.8248 52.4393 40.4593 51.9289 40.0658 51.4242C39.5799 50.7992 39.1047 50.1713 38.6403 49.539C38.5543 49.4215 37.7265 48.4977 37.8212 48.3991C38.3415 47.851 38.8424 47.3173 39.3004 46.7981C42.3406 43.4265 45.9871 40.0403 48.8403 37.4691C52.5277 34.1395 56.5053 30.8244 60.6507 27.5919C64.4413 24.6278 66.7117 22.8571 69.7949 21.2271C70.1282 21.0589 72.1493 20.1873 79.8358 20.1873C82.231 20.1873 84.6885 20.2714 87.0644 20.3425C89.3348 20.4121 91.4591 20.4686 93.4372 20.4686H94.2091C99.1456 20.4266 104.082 20.37 109.04 20.3135C120.287 20.1873 131.911 20.0466 143.325 20.0466C149.303 20.0046 155.157 19.977 161.031 19.935C166.905 19.9074 172.758 19.8654 178.632 19.8364C190.339 19.7943 202.044 19.7378 213.751 19.7102C219.604 19.6957 225.458 19.6957 231.289 19.6827C237.288 19.6681 243.308 19.6681 249.307 19.6681C282.842 19.6681 316.983 19.7798 353.642 20.0191C359.453 20.0611 365.243 20.1032 371.055 20.1598C376.845 20.2018 382.657 20.2584 388.447 20.3149C394.237 20.357 400.027 20.428 405.82 20.4831C411.61 20.5397 417.4 20.6093 423.192 20.6804C425.983 20.7079 427.213 20.7935 427.733 20.8631C434.504 23.5184 440.649 29.4612 446.063 34.7022C447.166 35.7695 448.249 36.8238 449.292 37.807C450.324 38.7786 452.057 39.801 451.864 41.1265C445.936 42.9682 439.387 43.8949 432.861 43.8137C439.924 43.8717 446.983 44.2038 453.99 44.8085C454.48 44.8505 454.983 44.8969 455.42 45.055C456.486 45.4393 456.805 46.2949 457.473 46.9141C457.779 47.1984 458.215 47.3565 458.486 47.6523C458.636 47.8162 459.567 48.9256 459.456 49.0633C456.37 52.8265 453.704 55.9734 450.789 58.868Z" fill="url(#paint3_linear_89_258)"/>
<path d="M464.224 78.4078C463.371 79.9392 462.1 81.372 460.515 82.622C455.538 86.5274 450.81 91.107 444.413 94.0581C440.975 95.6461 437.705 96.0811 433.624 96.4611C425.314 97.234 416.731 97.3327 408.484 97.4864C379.197 98.049 349.911 98.4551 320.625 98.7089C306.379 98.8205 292.151 98.9061 277.903 98.9612C274.383 98.9612 270.861 98.9757 267.342 98.9888C255.74 99.0033 244.157 99.0163 232.556 98.9888C203.123 98.9192 173.691 98.7074 144.258 98.342C137.051 98.342 129.844 98.2724 122.637 98.1593C106.641 97.92 90.6419 97.4849 74.6668 97.2326C67.3974 97.1209 60.1904 97.3878 53.9422 94.4221C50.2548 92.6805 47.1093 90.3341 44.0691 88.1849C43.7573 87.9601 43.4434 87.7354 43.1316 87.5106C40.3817 85.5441 37.7156 83.5211 35.1549 81.4416C33.0306 79.7275 30.9472 77.9988 28.739 76.3282C27.8016 75.5973 27.0319 74.7823 26.303 73.9543C25.3247 72.8449 24.1787 71.7486 23.7831 70.4565C23.7207 70.2317 23.6992 69.9793 23.9078 69.8097C24.0949 69.6545 24.3873 69.6124 24.6582 69.5849C29.8657 68.9671 35.2817 69.3036 40.4053 68.6147C41.3019 68.5872 42.2179 68.5582 43.1338 68.5161C39.0938 69.4297 34.927 70.062 30.6978 70.4129C29.7388 70.484 28.6767 70.5812 28.0102 71.0452C26.761 71.9298 27.4275 73.1668 28.1564 74.037C28.782 74.7954 29.4679 75.5263 30.1968 76.2282C31.6545 77.661 33.2585 79.0096 34.9678 80.2887C37.6748 82.3262 40.5924 84.2216 43.5294 86.1184C45.5913 87.4526 47.6533 88.7882 49.7367 90.1224C51.1729 91.0635 52.6113 91.9916 54.2991 92.7211C57.1329 93.9581 60.4656 94.5614 63.7143 95.124C65.3183 95.4054 66.9438 95.6577 68.5671 95.868C69.1497 95.9376 69.7131 96.0362 70.3172 96.0231C70.9214 95.9956 71.5256 96.0652 72.1512 96.1073C73.5681 96.2059 75.0044 96.29 76.4428 96.332C79.3174 96.4306 82.2136 96.4306 85.0861 96.3175C87.3974 96.2334 89.6271 96.1624 91.8137 95.6853C92.8973 95.446 94.0003 95.6142 95.084 95.7273C97.9995 95.9941 100.917 96.261 103.833 96.5278C105.561 96.5278 107.249 97.0049 108.978 96.9078C109.477 96.8802 109.978 96.7816 110.479 96.7816C110.812 96.7671 111.145 96.7961 111.478 96.8236C113.437 97.0209 115.394 97.3428 117.374 97.5255C119.874 97.7648 122.728 97.9896 125.226 97.5821C125.413 97.5545 125.581 97.498 125.789 97.4559C126.372 97.3298 127.06 97.4139 127.664 97.4139C131.33 97.4704 134.996 97.527 138.683 97.569C146.015 97.6807 153.368 97.7793 160.722 97.8779C168.075 97.9896 175.447 98.0882 182.801 98.1868C186.467 98.2434 190.132 98.3275 193.798 98.3405C194.297 98.3405 194.714 98.284 195.194 98.1868C196.381 97.9055 197.735 97.9345 198.984 97.8634C200.442 97.7924 201.9 97.7228 203.379 97.6662C209.232 97.4139 215.084 97.2732 220.958 97.2166C226.832 97.147 232.706 97.147 238.58 97.2021C244.433 97.2442 250.307 97.3428 256.181 97.4269C257.473 97.4545 258.763 97.469 260.055 97.4965C263.637 97.5531 267.2 97.6082 270.782 97.6793C271.782 97.6938 272.822 97.6517 273.803 97.8199C274.762 98.0026 275.553 98.1143 276.572 98.0868C279.509 98.0302 282.467 97.9606 285.424 97.904C291.319 97.7924 297.234 97.6793 303.13 97.5806C309.025 97.482 314.94 97.3979 320.836 97.3283C322.461 97.3008 324.084 97.2863 325.71 97.2587C359.976 96.8512 393.199 95.8259 427.462 95.6853C430.836 95.6708 434.295 95.6432 437.398 94.7586C440.419 93.9015 443.022 92.0337 443.147 89.87C443.209 90.4182 444.147 90.8533 445.022 90.8112C446 90.7691 446.834 90.3341 447.604 89.9266C453.042 87.019 458.686 83.9272 461.56 79.6564C458.935 78.7152 456.207 77.9278 453.416 77.2955C457.058 77.4666 460.662 77.8451 464.224 78.4078Z" fill="#EB924D"/>
<path d="M485.491 57.9419C484.803 58.7844 484.117 59.6415 483.407 60.471C483.137 60.8219 482.844 61.1598 482.554 61.4962C480.449 64.0254 478.178 66.5124 475.702 68.8994C474.369 70.1915 472.973 71.443 471.515 72.651C470.141 73.7604 468.996 74.9133 466.953 75.5311C466.598 75.6428 466.246 75.7283 465.891 75.7979C472.661 69.9813 479.389 64.0384 483.45 57.1689C484.908 54.7108 486.013 52.1542 487.908 49.8208C488.219 49.4409 488.553 49.0334 488.533 48.5983C488.512 48.2474 488.262 47.924 488.034 47.6151C486.119 45.1701 483.848 42.5018 479.974 41.6157C479.266 41.4475 478.37 41.1386 478.6 40.6745C478.725 40.4353 479.099 40.3236 479.391 40.1684C480.703 39.4665 480.079 38.0613 479.329 37.036C477.89 35.0696 476.454 33.1162 475.018 31.1498C474.519 30.4609 473.997 29.759 473.102 29.2805C472.249 28.8164 471.124 28.6206 470.06 28.451C466.228 27.8332 462.354 27.3416 458.479 26.9341C461.563 27.1734 464.646 27.2995 467.748 27.3271C469.978 27.3546 472.352 27.3546 474.289 28.1145C474.33 28.129 474.351 28.1421 474.392 28.1566C476.725 29.1253 477.974 31.1918 479.307 32.7363C480.787 34.4779 482.223 36.2341 483.848 37.9337C485.035 39.1983 485.91 40.631 486.744 42.0218C486.953 42.3452 487.14 42.654 487.327 42.9629C488.202 44.3537 489.202 45.7168 489.681 47.1772C490.948 51.0013 488.157 54.7094 485.491 57.9419Z" fill="#EB924D"/>
<path d="M467.974 24.4598C467.744 24.6425 467.392 24.7411 467.037 24.7977C463.642 21.3419 460.225 17.8991 456.83 14.4434C455.102 12.7017 453.853 11.1413 451.165 10.145C449.019 9.35902 447.166 8.3468 444.79 7.86969C443.769 7.65941 442.625 7.47669 441.999 6.90097C441.644 6.57758 441.52 6.15703 441.27 5.79158C440.062 4.06296 437.168 4.14852 434.917 3.5293C434.188 3.31902 433.605 3.23491 432.793 3.1914C430.584 3.10729 428.376 3.03624 426.168 2.95213C421.752 2.7839 417.357 2.61568 412.941 2.44601C405.213 2.15017 397.486 1.85579 389.757 1.5614C385.508 1.40768 381.238 1.23801 376.968 1.26701C372.76 1.29457 368.574 1.50629 364.366 1.39318C363.059 1.35983 361.705 1.36563 360.453 1.09154C359.221 0.820358 357.912 0.939274 356.63 0.959576C353.485 1.00888 350.341 1.05964 347.196 1.10895C338.389 1.24816 329.561 1.52804 320.752 1.52804C319.099 1.55415 317.379 1.59185 315.908 2.10232C314.39 2.63018 313.769 3.50029 313.657 4.59228C313.642 4.7373 313.667 4.93307 313.519 5.05488C313.25 5.27386 312.885 5.20136 312.537 5.10854C311.315 4.78225 310.249 3.9774 309.361 3.35383C308.709 2.89557 308.088 2.41555 307.458 1.9428C307.047 1.63391 306.878 1.40188 306.282 1.39173C305.753 1.38303 305.147 1.5121 304.62 1.5614C302.485 1.76008 300.337 1.88624 298.185 1.93845C296.045 1.99065 293.902 1.97035 291.765 1.87609C290.784 1.83404 289.731 1.83403 288.78 1.65131C288.174 1.53529 287.649 1.34967 287.009 1.31487C284.859 1.1974 282.612 1.34098 280.455 1.35983C278.245 1.37868 276.035 1.39753 273.824 1.41638C264.983 1.49179 256.14 1.5672 247.299 1.64261C243.452 1.67597 239.606 1.70787 235.759 1.74122C233.76 1.75862 231.758 1.9167 229.935 2.50982C227.286 3.37123 229.066 5.61465 228.647 7.10834C228.391 5.22746 227.783 2.99998 225.213 2.25169C224.261 1.97325 223.19 1.96165 222.152 1.9544C222.018 1.95295 221.887 1.95295 221.754 1.9515C217.344 1.92104 212.936 1.89494 208.527 1.87319C201.244 1.83839 194.037 1.61651 186.751 1.5469C166.359 1.34967 145.966 1.68757 125.574 1.81373C116.723 1.85579 107.849 1.91234 98.9951 1.9689C96.787 1.9834 94.5595 1.99646 92.3514 1.99646C81.457 2.06606 70.2938 2.16468 60.1497 4.80691C57.0987 5.60161 54.4262 6.75015 51.9558 8.15537C50.8571 8.78185 49.9239 9.5403 49.223 10.3887C52.6825 11.4589 56.3957 12.155 60.1798 12.4436C58.2705 12.8641 56.228 12.8917 54.2198 12.9134C51.6332 12.9424 49.0489 12.9714 46.4623 13.0019C45.5356 13.012 44.6025 13.0236 43.7016 13.173C42.1062 13.4369 40.7668 14.1156 39.6337 14.8958C39.0467 15.299 38.4167 15.7384 37.9781 16.2227C37.6663 16.5679 37.5502 16.9667 37.2621 17.3191C36.3118 18.4821 34.7637 19.5262 33.5489 20.5704C32.2266 21.7073 30.9065 22.8443 29.5907 23.9841C22.5298 30.0531 15.3636 36.2352 11.1365 43.4136C10.2206 44.9726 9.44873 46.5605 8.92841 48.205C8.42744 49.7785 11.8654 50.1294 14.052 50.7762C16.2193 51.423 18.6339 51.7594 20.5517 52.7006C18.0533 52.3917 15.512 52.2365 12.9491 52.2235C12.5104 52.2235 11.9901 52.238 11.6999 52.4758C11.3042 52.7702 11.5128 53.2342 11.7407 53.6142C12.304 54.5278 12.8029 55.3704 13.5532 56.1999C13.9273 56.6349 14.0542 57.0714 14.1983 57.563C14.51 58.6449 14.9895 59.6847 15.656 60.6824C16.9676 62.6909 18.9263 64.4891 21.3838 65.9364C22.7169 66.7093 24.1553 67.3837 25.7162 67.9173C25.2583 67.8753 24.8196 67.8332 24.3617 67.7622C22.2567 67.4388 20.341 66.6803 18.8209 65.6551C18.0705 65.1359 17.404 64.5457 16.8837 63.8989C14.7788 61.2436 12.6545 58.5883 10.7796 55.8489C9.32188 53.6998 7.1546 51.2127 6.92669 48.8242C6.90519 48.6981 6.90519 48.585 6.90519 48.4588C6.84284 46.8288 7.42551 45.2409 8.36294 43.724C9.90455 41.1803 12.3836 38.7933 14.3617 36.5876C17.7566 32.823 21.5687 29.2265 25.484 25.6997C29.6509 21.935 34.0241 18.282 38.5866 14.7276C39.4187 14.0678 40.2314 13.4355 41.0441 12.8308C44.3767 10.2451 47.5223 8.0118 51.8139 5.74952C60.9173 0.945071 73.3942 0.987127 84.2241 0.874013C98.1394 0.720293 111.719 0.634732 125.445 0.523068C131.341 0.466511 137.215 0.424456 143.108 0.3824C149.004 0.340345 154.878 0.312792 160.771 0.270737C166.645 0.243183 172.519 0.199682 178.415 0.172129C184.289 0.144575 190.163 0.130073 196.037 0.10252C201.911 0.0880179 207.763 0.0604623 213.637 0.0459605C219.511 0.0314587 225.364 0.0314573 231.238 0.0184056C237.09 0.00390382 242.945 0.00390625 248.819 0.00390625C254.672 0.00390625 260.526 0.00390382 266.379 0.0184056C272.212 0.0184056 278.064 0.0329089 283.917 0.0459605C289.75 0.0604623 295.603 0.073513 301.434 0.0880148C307.286 0.115568 313.119 0.130071 318.952 0.157624C324.783 0.185177 330.617 0.214182 336.45 0.256237C342.283 0.283791 348.114 0.325847 353.926 0.354851C359.757 0.396906 365.568 0.438962 371.401 0.495519C377.213 0.537574 383.025 0.594129 388.836 0.650686C394.648 0.707243 400.46 0.762351 406.271 0.818908C412.083 0.875465 417.895 0.945071 423.685 1.01613C429.226 1.08574 434.433 1.32502 439.432 2.82886C440.098 3.02608 440.765 3.25086 441.432 3.50319C446.91 5.54069 451.472 8.51792 455.596 11.6663C456.555 12.3972 457.533 13.128 458.471 13.872C460.137 15.1365 461.72 16.4432 463.096 17.8339C464.741 19.5059 466.304 21.2056 467.74 22.9617C468.118 23.42 468.495 24.0523 467.974 24.4598Z" fill="#EB924D"/>
<path d="M144.729 50.879C135.389 47.3566 119.879 48.4427 112.487 53.1848C107.828 56.1722 107.595 61.754 112.487 64.7225C123.265 71.2642 142.19 68.4726 149.023 60.3748C149.154 60.2951 149.285 60.2153 149.417 60.1356C154.635 56.9539 150.917 51.6694 144.729 50.879Z" fill="#EB924D"/>
<path d="M146.942 47.7868C137.602 44.2643 122.091 45.3505 114.699 50.0926C110.04 53.0799 109.808 58.6617 114.699 61.6302C125.48 68.172 144.403 65.3804 151.236 57.2826C151.367 57.2028 151.498 57.123 151.629 57.0433C156.85 53.8616 153.132 48.5786 146.942 47.7868Z" fill="url(#paint4_linear_89_258)"/>
<path d="M144.729 49.7775C135.389 46.255 119.879 47.3412 112.487 52.0833C107.828 55.0706 107.595 60.6524 112.487 63.6209C123.265 70.1627 142.19 67.3711 149.023 59.2733C149.154 59.1935 149.285 59.1137 149.417 59.034C154.635 55.8523 150.917 50.5693 144.729 49.7775Z" fill="url(#paint5_linear_89_258)"/>
<path d="M384.388 30.604C378.564 28.407 368.892 29.0857 364.283 32.0411C361.378 33.9046 361.234 37.3836 364.283 39.2355C371.004 43.3148 382.803 41.5732 387.065 36.5251C387.147 36.4758 387.228 36.425 387.31 36.3757C390.565 34.3919 388.247 31.0985 384.388 30.604Z" fill="#EB924D"/>
<path d="M385.768 28.6602C379.944 26.4631 370.273 27.1418 365.663 30.0973C362.758 31.9608 362.614 35.4398 365.663 37.2916C372.384 41.371 384.184 39.6308 388.445 34.5798C388.527 34.5305 388.609 34.4797 388.69 34.4304C391.946 32.4466 389.628 29.1532 385.768 28.6602Z" fill="url(#paint6_linear_89_258)"/>
<path d="M384.388 29.9058C378.564 27.7087 368.892 28.3874 364.283 31.3429C361.378 33.2064 361.234 36.6854 364.283 38.5372C371.004 42.6166 382.803 40.8764 387.065 35.8254C387.147 35.7761 387.228 35.7253 387.31 35.676C390.565 33.6936 388.247 30.3988 384.388 29.9058Z" fill="url(#paint7_linear_89_258)"/>
<defs>
<linearGradient id="paint0_linear_89_258" x1="278.58" y1="-86.8297" x2="271.709" y2="-24.2525" gradientUnits="userSpaceOnUse">
<stop stop-color="#CF5C2B"/>
<stop offset="1" stop-color="#59173E"/>
</linearGradient>
<linearGradient id="paint1_linear_89_258" x1="268.484" y1="-74.2385" x2="238.287" y2="333.031" gradientUnits="userSpaceOnUse">
<stop stop-color="#CF5C2B"/>
<stop offset="1" stop-color="#59173E"/>
</linearGradient>
<linearGradient id="paint2_linear_89_258" x1="252.185" y1="-7.70529" x2="242.739" y2="305.782" gradientUnits="userSpaceOnUse">
<stop stop-color="#CF5C2B"/>
<stop offset="1" stop-color="#59173E"/>
</linearGradient>
<linearGradient id="paint3_linear_89_258" x1="248.512" y1="149.764" x2="248.512" y2="71.2852" gradientUnits="userSpaceOnUse">
<stop stop-color="#CF5C2B"/>
<stop offset="1" stop-color="#59173E"/>
</linearGradient>
<linearGradient id="paint4_linear_89_258" x1="149.003" y1="24.7872" x2="137.538" y2="70.2269" gradientUnits="userSpaceOnUse">
<stop stop-color="#CF5C2B"/>
<stop offset="1" stop-color="#59173E"/>
</linearGradient>
<linearGradient id="paint5_linear_89_258" x1="227.874" y1="-96.2747" x2="126.945" y2="250.954" gradientUnits="userSpaceOnUse">
<stop stop-color="#CF5C2B"/>
<stop offset="1" stop-color="#59173E"/>
</linearGradient>
<linearGradient id="paint6_linear_89_258" x1="387.054" y1="14.3185" x2="379.905" y2="42.6517" gradientUnits="userSpaceOnUse">
<stop stop-color="#CF5C2B"/>
<stop offset="1" stop-color="#59173E"/>
</linearGradient>
<linearGradient id="paint7_linear_89_258" x1="436.233" y1="-61.1631" x2="373.3" y2="155.346" gradientUnits="userSpaceOnUse">
<stop stop-color="#CF5C2B"/>
<stop offset="1" stop-color="#59173E"/>
</linearGradient>
</defs>
</svg>
