<svg width="81" height="80" viewBox="0 0 81 80" fill="none" xmlns="http://www.w3.org/2000/svg">
<path d="M0.511526 37.7476C0.0698141 39.8837 -0.08401 42.0675 0.0429998 44.2416C0.162954 46.3073 0.247605 48.4083 1.49371 50.152C1.98482 50.8397 2.59306 51.4429 3.28879 51.9225C3.75026 52.2403 4.29924 52.4006 4.75789 52.7029C4.86797 52.7746 4.97803 52.8337 4.97521 52.9799C4.96956 53.2584 4.43329 53.5481 4.24983 53.6985C3.8815 53.9995 3.51175 54.3426 3.3791 54.8151C3.14343 55.6476 3.55131 56.518 3.91399 57.2493C4.74802 58.9368 5.68646 60.5722 6.72089 62.1444C10.884 68.4725 15.6878 74.9622 23.0106 77.8225C27.2005 79.4594 31.6289 79.6099 36.0644 79.8236C40.7172 80.057 45.3813 80.0641 50.0171 79.8152C54.1816 79.5916 58.7512 79.2541 62.3074 77.0983C64.9422 75.4896 67.0364 73.0905 68.6565 70.6746C71.3265 66.695 73.6579 62.4875 75.635 58.124C75.8199 57.7148 76.081 57.3196 76.0979 56.8668C76.1049 56.6516 76.1275 56.4477 76.0979 56.2312C76.0386 55.8079 75.8608 55.4015 75.5785 55.0795C76.366 54.7054 76.9714 54.0163 77.3807 53.2485C77.6037 52.8323 77.7744 52.3893 77.9155 51.9393C78.0341 51.5625 78.1244 51.1982 78.3474 50.8664C78.8314 50.1436 79.0064 49.2323 79.2421 48.4026C79.7953 46.4522 80.2497 44.4722 80.5856 42.4725C80.635 42.1829 80.6801 41.8918 80.7239 41.6007C80.913 40.3224 81.0485 39.0315 80.9835 37.7448C80.9807 37.6196 80.968 37.4917 80.9624 37.3749C80.7733 42.173 79.1193 46.3721 77.152 50.8537C75.0832 55.5717 72.6178 60.0927 69.7671 64.3691C68.1569 66.7878 66.074 69.1896 63.4491 70.8012C59.9112 72.971 55.3657 73.3043 51.2322 73.5349C46.6161 73.7894 41.9845 73.7894 37.3627 73.563C32.9597 73.3563 28.5497 73.2199 24.3936 71.5816C19.9426 69.8323 16.2805 66.6219 13.331 63.0852C10.1247 59.2293 7.57892 54.7659 5.39011 50.6568C1.92134 44.1361 0.623027 37.4213 2.30802 30.625C1.48528 32.9636 0.988518 35.4625 0.511526 37.7476Z" fill="url(#paint0_linear_85_1685)"/>
<path d="M80.972 37.019C80.972 37.1441 80.972 37.2594 80.9607 37.3733C80.8661 39.7344 80.416 41.9703 79.7442 44.143C79.0626 46.3789 78.151 48.5825 77.1546 50.8493C76.5252 52.2696 75.8648 53.6702 75.1733 55.0596C75.131 55.1426 75.09 55.2368 75.0378 55.3211C73.4657 58.4444 71.7045 61.4636 69.7655 64.3675C69.0839 65.401 68.3077 66.4361 67.4384 67.3965C66.2854 68.6917 64.9532 69.8827 63.4446 70.8024C59.9124 72.975 55.3626 73.2985 51.232 73.5389C46.6187 73.7893 41.9856 73.7893 37.3625 73.56C32.9595 73.3505 28.5466 73.2155 24.3947 71.5857C19.9395 69.8307 16.2803 66.6231 13.3351 63.0822C13.3252 63.0611 13.304 63.0512 13.2927 63.0302C11.1223 60.4075 9.24675 57.5149 7.59986 54.6321C7.12851 53.8277 6.67692 53.0234 6.23662 52.2288C5.94308 51.6959 5.6594 51.1742 5.38703 50.651C5.04128 50.0028 4.72661 49.3657 4.42319 48.7189C2.97669 45.5956 2.04386 42.4203 1.70799 39.224C1.51889 37.386 1.51889 35.5466 1.73904 33.6974C1.86464 32.6737 2.05374 31.65 2.30494 30.6262C2.60835 29.4352 3.00771 28.2244 3.48894 27.0122C3.62583 26.6888 3.75144 26.3541 3.89821 26.0306C4.32863 24.9647 4.77881 23.9101 5.26145 22.8652C5.52394 22.2915 5.78502 21.7262 6.05879 21.1524C6.61481 19.9824 7.21176 18.8124 7.84116 17.6635C8.2603 16.9014 8.6907 16.149 9.15217 15.4079C9.71807 14.4573 10.315 13.5278 10.9444 12.6081C10.9755 12.5462 11.0178 12.4928 11.0602 12.4309C11.3749 11.9711 11.6896 11.5225 12.0141 11.0725C12.2865 10.6971 12.549 10.3314 12.8312 9.97566C12.8735 9.91238 12.9258 9.8505 12.978 9.78722C15.3996 6.65272 18.2715 3.89507 22.3287 2.5479C30.9456 -0.313795 39.9083 -0.27301 49.2393 0.333078C52.9917 0.583388 57.1746 1.27385 60.1424 3.60257C66.3066 8.47097 71.6848 14.1536 75.9622 20.5463C76.0144 20.6195 76.0666 20.6827 76.1089 20.7559C77.7869 23.2632 79.0541 26.0095 79.8727 28.8726C79.8727 28.8825 79.8825 28.8937 79.8825 28.9148C80.0392 29.4478 80.1761 29.9808 80.2918 30.5236C80.3863 30.9314 80.4696 31.3378 80.543 31.7569C80.543 31.7779 80.5528 31.7878 80.5528 31.8089C80.5528 31.8089 80.5528 31.8089 80.5528 31.8187C80.7631 32.9578 80.8887 34.1165 80.9508 35.2766C80.9819 35.8701 80.9819 36.4551 80.972 37.019Z" fill="url(#paint1_linear_85_1685)"/>
<path d="M80.972 37.0186C80.972 37.1438 80.972 37.2591 80.9607 37.373C80.8661 39.734 80.416 41.97 79.7442 44.1426C77.3861 44.0273 74.9955 43.8599 72.5526 43.7137C62.9295 43.0978 53.305 42.5437 43.672 42.0318C29.5725 41.2908 15.6085 40.852 1.70799 39.2222C1.51889 37.3842 1.51889 35.5449 1.73904 33.6957C15.6494 32.693 29.5612 33.0586 43.672 33.361C43.8611 33.3708 44.0488 33.3708 44.2379 33.3821C43.4307 33.2569 42.6235 33.1205 41.8163 33.0066C29.5401 31.1265 16.0065 29.8623 3.89821 26.0289C4.32863 24.963 4.77881 23.9083 5.26145 22.8634C5.52394 22.2897 5.78502 21.7244 6.05879 21.1506C6.61481 19.9806 7.21176 18.8106 7.84116 17.6618C8.2603 16.8996 8.6907 16.1473 9.15217 15.4062C20.8512 15.0715 32.9284 16.7533 44.1448 17.7152C53.4123 18.4985 62.732 19.1158 71.9783 20.0763C73.3091 20.2113 74.6413 20.3688 75.9622 20.546C76.0144 20.6191 76.0666 20.6824 76.1089 20.7555C77.7869 23.2628 79.0541 26.0092 79.8727 28.8723C79.8727 28.8821 79.8825 28.8934 79.8825 28.9145C80.0392 29.4474 80.1761 29.9804 80.2918 30.5232C80.3863 30.931 80.4696 31.3374 80.543 31.7565C80.543 31.7776 80.5528 31.7874 80.5528 31.8085C80.5528 31.8085 80.5528 31.8085 80.5528 31.8183C80.7631 32.9574 80.8887 34.1161 80.9508 35.2763C80.9819 35.8697 80.9819 36.4547 80.972 37.0186ZM74.891 55.3109C70.8126 54.8722 66.7878 54.4756 62.6882 54.3702C54.5539 54.1508 46.4296 53.8161 38.3038 53.3675C30.1695 52.9189 22.1495 52.4591 13.9828 52.4802C11.5922 52.4802 8.90946 52.2706 6.2352 52.2299C6.6755 53.0244 7.12568 53.8288 7.59844 54.6331C9.24392 57.5159 11.1208 60.4099 13.2913 63.0312C21.2689 64.5035 29.1633 65.298 37.2975 65.8929C45.4121 66.4779 53.5364 66.9475 61.6707 67.3132C63.621 67.3961 65.529 67.4172 67.437 67.3961C68.3063 66.4357 69.0825 65.4007 69.7641 64.3671C71.7031 61.4632 73.4643 58.444 75.0364 55.3208C74.9856 55.3208 74.9447 55.3208 74.891 55.3109Z" fill="url(#paint2_linear_85_1685)"/>
<path d="M76.1075 20.7544C77.7854 23.2617 79.0527 26.0081 79.8712 28.8712C79.6821 28.4845 79.462 28.1188 79.2743 27.7743C78.6039 26.5312 77.8899 25.2993 77.1461 24.097C75.7095 21.8091 74.1374 19.6055 72.4397 17.506C71.7158 16.6074 70.8676 15.803 70.4485 14.7062C70.0915 13.7865 69.3379 13.0665 68.6563 12.376C66.3715 10.0571 63.6761 8.21918 61.1923 6.13936C59.7557 4.93843 58.3515 3.64329 56.6637 2.82767C55.007 2.03456 53.1625 1.7519 51.3378 1.65768C50.6674 1.6155 50.007 1.60566 49.3352 1.59441C49.0629 1.59441 48.8004 1.60425 48.5379 1.51004C48.2444 1.41582 47.9297 1.40597 47.6262 1.36378C46.7767 1.26956 45.9384 1.19645 45.0889 1.13457C38.0342 0.612859 30.8948 1.2077 24.0278 2.91065C22.7704 3.22424 21.5018 3.5786 20.3488 4.18469C20.1809 4.27891 20.0242 4.37313 19.8563 4.46735C18.7767 5.13531 17.8326 5.98187 16.8588 6.78623C16.3762 7.19404 15.8837 7.5906 15.3601 7.94638C15.1513 8.09262 14.9509 8.19669 14.7208 8.30216C14.3539 8.47935 14.1436 8.86605 13.9235 9.20074C13.4522 9.92214 13.1586 10.6731 12.8016 11.4366C12.7381 11.5618 12.6858 11.656 12.6548 11.8023C12.5602 12.2101 12.4982 12.6277 12.4135 13.0454C11.8998 13.0243 11.3861 12.878 10.9458 12.6066C10.9768 12.5448 11.0192 12.4913 11.0615 12.4295C11.3762 11.9696 11.691 11.521 12.0155 11.071C12.2879 10.6956 12.5504 10.3299 12.8326 9.97417C12.8749 9.91089 12.9272 9.84901 12.9794 9.78573C15.401 6.65123 18.2729 3.89361 22.3301 2.54643C30.947 -0.31526 39.9097 -0.274475 49.2407 0.331613C52.9931 0.581923 57.176 1.27238 60.1438 3.60111C66.3686 8.52294 71.799 14.2787 76.1075 20.7544Z" fill="#EB924D"/>
<path d="M80.542 31.7538C80.5208 31.8902 80.4898 32.0153 80.4573 32.1503C80.374 31.6286 80.2372 31.1055 80.2894 30.5725V30.5205C80.3854 30.9297 80.4686 31.3361 80.542 31.7538Z" fill="#EB924D"/>
<path d="M75.3115 35.1319C76.298 35.1403 77.3253 35.1572 78.2074 35.5987C79.6637 36.3286 80.3453 38.0076 80.7659 39.577C80.9366 38.189 80.9141 36.7786 80.7024 35.3962C80.6657 35.1586 80.6205 34.9139 80.4865 34.7142C80.3312 34.4836 80.0758 34.3415 79.8218 34.2276C77.712 33.2869 75.2763 33.7917 72.9957 34.1587C71.5873 34.3851 70.1676 34.5525 68.7451 34.6608C67.3169 34.769 65.8831 34.8169 64.4508 34.8042C64.1784 34.8014 63.8383 34.7311 63.5899 34.8703C63.247 35.0615 63.6718 35.0362 63.8439 35.0376C64.5735 35.0433 65.3046 35.0489 66.0342 35.0559C67.4891 35.0672 68.9441 35.0798 70.3977 35.0911C71.8583 35.1023 73.3175 35.115 74.7781 35.1262C74.9545 35.129 75.1323 35.1305 75.3115 35.1319Z" fill="#EB924D"/>
<path d="M69.7658 64.3679C68.1612 66.7908 66.0754 69.1941 63.4449 70.8028C59.9126 72.9754 55.3629 73.2989 51.2322 73.5393C46.6189 73.7896 41.9859 73.7896 37.3627 73.5604C32.9597 73.3509 28.5468 73.2159 24.395 71.5861C19.9398 69.8311 16.2805 66.6235 13.3353 63.0826C11.1451 60.4501 9.25685 57.5364 7.60149 54.6311C6.81544 53.2937 6.08162 51.9564 5.39012 50.6514C5.04437 50.0031 4.72965 49.3661 4.42624 48.7193C1.68988 42.8074 0.788115 36.748 2.30941 30.6266C2.61282 29.4355 3.01223 28.2248 3.49345 27.0126C3.79828 26.2518 4.11012 25.4953 4.43188 24.7429C4.82138 23.8359 5.27581 22.9711 5.63285 22.0584C5.98424 21.157 6.38783 20.2753 6.84084 19.4189C7.73978 17.7146 8.83207 16.11 10.0895 14.649C10.2842 14.4226 10.4917 14.1933 10.7683 14.0794C11.0195 13.9754 11.3003 13.9782 11.5713 13.9866C12.4815 14.0133 13.3903 14.0851 14.2977 14.1666C17.1583 14.4226 20.0343 15.3591 22.9358 15.3029C24.3795 15.2747 25.8091 15.0075 27.2513 14.9414C27.9894 14.9077 28.7289 14.926 29.467 14.9696C29.8367 14.9907 30.205 15.0188 30.5733 15.0483C30.7582 15.0638 30.9417 15.0821 31.1265 15.0947C31.2423 15.1018 31.3509 15.0708 31.4638 15.075C31.5513 15.0793 31.6473 15.1032 31.7319 15.1257C31.0616 15.331 30.3419 15.4393 29.6518 15.556C28.9532 15.6741 28.2505 15.7697 27.5449 15.8442C26.1308 15.9947 24.7083 16.0664 23.2872 16.0918C21.8577 16.1171 20.4281 16.0946 18.9999 16.0594C17.758 16.0285 16.5148 15.9863 15.2729 15.9539C14.0014 15.9216 12.7016 15.9033 11.4936 16.2999C9.89048 16.8258 8.59076 18.045 7.65795 19.4456C7.62408 19.4963 7.59019 19.5483 7.55773 19.5989C7.00453 20.4581 6.56709 21.3862 6.17618 22.3284C5.98426 22.7925 5.84031 23.2973 5.61028 23.7431C5.5369 23.8865 5.42116 23.9878 5.32802 24.1157C5.16009 24.3478 5.05847 24.6304 4.9371 24.8864C4.66756 25.4573 4.40792 26.0338 4.16801 26.6188C3.77992 27.5695 3.42426 28.5299 3.12932 29.5129C2.87812 30.3482 2.47879 31.3719 2.56346 32.2607C2.63685 32.9708 2.48019 33.7021 2.42797 34.4122C2.41668 34.6006 2.29109 36.6889 2.42797 36.7002C3.82226 36.7733 5.20665 37.0545 6.52614 37.5355C5.95037 37.5973 5.38447 37.6916 4.81716 37.8069C4.28231 37.9152 3.62891 38.1697 3.26623 38.6084C3.111 38.7969 3.06724 39.1301 3.02772 39.3636C2.93317 39.9331 2.96562 40.5153 3.0263 41.0862C3.28879 43.5527 4.0833 45.9419 5.06975 48.2032C5.31671 48.7699 5.56371 49.3366 5.81067 49.9047C6.01812 50.3814 6.24673 50.8835 6.67856 51.1746C7.02007 51.4038 7.45331 51.4839 7.85127 51.5571C8.67684 51.7089 9.43326 52.0534 10.2673 52.2194C11.91 52.5442 13.5724 52.8016 15.2475 52.8438C18.2576 52.9197 21.3411 52.3038 24.2398 53.1138C23.767 53.1503 23.2957 53.1855 22.8229 53.2206C19.8706 53.4372 16.917 53.6256 13.9605 53.7845C12.5013 53.8633 11.0421 53.9463 9.58287 53.9997C9.28228 54.0109 8.59782 53.9378 8.43694 54.2795C8.39602 54.3653 8.41153 54.4567 8.42988 54.5453C8.54278 55.0937 8.91253 55.6675 9.18631 56.1484C9.98506 57.5532 10.9941 58.8217 11.9481 60.121C12.8809 61.3923 13.8857 62.6115 14.9808 63.7477C15.4888 64.275 16.0095 64.8263 16.5811 65.2875C16.6785 65.3649 16.7773 65.4254 16.8873 65.483C17.3742 65.7432 17.7326 66.2283 18.1419 66.5967C19.0578 67.4236 20.0682 68.145 21.1351 68.7666C22.6479 69.6469 24.2751 70.3275 25.9488 70.8394C29.3286 71.8729 32.8764 72.2414 36.4045 72.4579C43.7442 72.9079 51.1743 72.7223 58.3504 71.1192C60.2993 70.6833 62.2482 70.1348 63.9797 69.1434C66.9391 67.4503 69.0333 64.6083 70.93 61.7804C72.0801 60.0648 73.2246 58.2254 73.3658 56.1681C71.9941 55.7279 70.5927 55.375 69.1759 55.112C70.6026 54.9812 72.0279 54.8209 73.4504 54.6747C73.6156 54.6578 73.7835 54.6325 73.9486 54.6634C74.0742 54.6873 74.1744 54.7126 74.3056 54.7084C74.4863 54.7028 74.6655 54.6831 74.8447 54.655C74.9026 54.6465 75.3288 54.5987 75.3429 54.5495C75.1383 55.299 74.8433 56.0247 74.4679 56.7067C74.2986 57.0132 74.118 57.317 73.9006 57.594C73.5591 58.0314 73.3305 58.5545 73.0581 59.0354C72.7067 59.6542 72.3483 60.2673 71.9828 60.8776C71.2687 62.0546 70.5306 63.2204 69.7658 64.3679Z" fill="#EB924D"/>
<path d="M60.9131 34.9635C66.0471 34.8608 71.1825 34.7581 76.3137 34.6653C77.3072 34.6456 78.3445 34.6246 79.2688 34.9845C80.1917 35.3445 81.0004 36.177 80.9609 37.115C80.958 37.0827 80.9651 37.0531 80.9722 37.0236C80.9891 36.4541 80.9863 35.8705 80.9524 35.2798C80.8903 34.1197 80.7619 32.9553 80.5516 31.8135C80.498 31.9878 80.426 32.1482 80.3032 32.2874C79.8954 32.7768 78.9188 32.8203 78.3275 32.923C77.8082 33.0003 77.2819 33.0664 76.7682 33.1241C71.4747 33.733 66.1953 34.3433 60.9131 34.9635Z" fill="url(#paint3_linear_85_1685)"/>
<path d="M7.04503 53.17C7.22284 53.651 7.41192 54.1418 7.60103 54.6325C6.81498 53.2952 6.08116 51.9579 5.38966 50.6529C5.04392 50.0046 4.72919 49.3676 4.42578 48.7207C4.50904 48.8037 4.60361 48.8768 4.67699 48.9401C5.15963 49.3479 5.67333 49.7023 6.21806 50.006C8.05264 51.0396 10.1807 51.2702 12.2355 51.5627C13.3786 51.7188 14.6049 51.9705 15.7579 51.9705C20.3387 52.4402 24.9195 52.879 29.5116 53.2769C22.0251 53.0969 14.5301 53.0646 7.04503 53.17Z" fill="url(#paint4_linear_85_1685)"/>
<path d="M75.5825 52.3541C73.5574 53.7997 70.9212 54.4325 68.3726 55.0287C70.6192 55.0161 72.8673 55.0358 75.1125 55.0906C74.8402 55.4787 74.7555 55.9582 74.8825 56.397C75.3284 55.3761 75.7744 54.3566 76.2189 53.3356C76.6522 52.3456 77.0064 51.2797 77.5412 50.3291C77.5257 50.6638 76.9683 51.1321 76.7199 51.3852C76.3756 51.7353 75.9945 52.0602 75.5825 52.3541Z" fill="url(#paint5_linear_85_1685)"/>
<path d="M34.3022 14.9041C27.8346 15.9377 21.0311 15.7507 14.5409 15.0715C13.45 14.9562 11.9626 14.6018 10.9451 15.2796C10.3891 15.6452 9.83304 16.0207 9.27843 16.3975C8.74357 16.7632 8.26093 17.1808 7.8418 17.6618C8.82683 15.8646 9.89654 14.1209 11.0608 12.4277C11.3755 11.9679 11.6902 11.5193 12.0148 11.0693C12.0049 11.1523 11.9936 11.2367 12.0049 11.3196C12.0571 12.0509 12.5708 12.6879 13.2002 13.0746C13.8296 13.4501 14.5634 13.6287 15.286 13.7637C21.429 14.9984 28.0321 14.3824 34.3022 14.9041Z" fill="url(#paint6_linear_85_1685)"/>
<path d="M1.60699 34.3232C1.33462 34.9589 1.71986 35.7224 2.29705 36.1063C2.87283 36.4902 3.58976 36.5887 4.27843 36.6702C6.9033 36.9852 9.55498 37.2341 12.1855 36.9796C9.19653 37.1076 5.91263 37.4127 2.92225 37.5407C2.72186 37.5491 2.51582 37.559 2.33801 37.649C1.96262 37.8388 1.83559 38.3141 1.84265 38.7332C1.84971 39.1523 1.94707 39.5769 1.85393 39.9861C1.42633 38.1102 1.41506 36.2399 1.60699 34.3232Z" fill="url(#paint7_linear_85_1685)"/>
<path d="M57.0066 35.684C59.8093 35.6798 62.619 35.4168 65.3921 35.0357C65.1536 35.068 62.6811 31.2163 62.4539 30.9182C61.4294 29.5753 60.3667 28.2604 59.2631 26.9794C56.8076 24.1261 53.9104 21.8804 51.4295 19.1157C51.0724 18.7177 50.5178 18.2846 50.0634 18.5673C49.7967 18.7332 49.7134 19.0735 49.6527 19.38C49.4763 20.2772 49.2985 21.173 49.1221 22.0702C48.8709 20.941 48.6211 19.8118 48.3699 18.6826C48.2077 17.9541 48.0425 17.213 47.6756 16.562C46.6214 14.6874 42.519 10.9904 40.2963 10.9834C38.2458 10.975 35.5603 13.8324 34.1195 15.1557C33.2995 15.9095 32.6729 17.0527 31.822 17.8599C30.8779 18.7557 29.6924 19.3224 29.0376 20.5107C28.4901 21.5035 28.4464 22.6847 28.4139 23.8181C28.3617 25.6716 28.3095 27.525 28.2573 29.377C28.095 29.1998 28.0343 28.9565 27.9835 28.7231C27.522 26.6362 27.3061 24.4945 27.3428 22.3571C23.0823 26.618 19.4385 31.5637 16.0981 36.5615C18.5099 36.515 21.3126 36.2577 23.7244 36.2113C23.7286 41.8911 23.7315 47.5695 23.7357 53.2493C23.7357 53.4799 23.3843 53.3927 23.6158 53.3843C24.4964 53.3533 25.3374 53.411 26.1672 53.1311C26.647 52.9694 27.1734 52.9357 27.6659 52.8105C27.8847 51.9654 28.1034 51.1188 28.3236 50.2737C28.4012 51.1202 28.524 51.9626 28.6891 52.7965C28.8627 53.6711 29.7221 53.6163 30.4263 53.3871C30.7015 53.2971 30.9597 53.1888 31.249 53.1438C31.7147 53.0707 32.1988 53.1396 32.6588 53.0622C32.7365 52.2537 32.6363 51.393 32.6461 50.576C32.656 49.7477 32.6842 48.9195 32.735 48.0926C32.8366 46.4374 33.03 44.7865 33.3419 43.1581C35.5843 43.047 37.8761 42.7025 40.1072 42.8783C40.8778 42.9387 41.7697 42.6448 42.5289 42.5169C42.7095 42.4859 42.9 42.4522 43.0398 42.334C43.2049 42.1948 43.267 41.9727 43.3178 41.7631C43.871 39.5061 44.2478 37.2069 44.4411 34.8923C44.5286 37.0691 44.7883 39.2389 45.2159 41.375C45.326 41.9277 45.5743 42.5956 46.1374 42.6505C46.8105 42.7151 47.4837 42.3903 48.1823 42.4831C48.2655 43.2861 48.1371 44.1692 48.106 44.9792C48.0736 45.8525 48.0383 46.7271 48.003 47.6004C47.9339 49.309 47.8704 51.0176 47.8139 52.7261C47.8139 52.7163 49.3225 52.8161 49.6231 52.7247C49.7713 52.6797 49.8983 52.5715 50.0507 52.5363C50.5065 52.4308 50.9765 52.8035 51.1642 53.193C51.39 53.6641 51.3716 54.2083 51.3942 54.73C51.4464 55.9366 51.7526 57.1333 52.2875 58.2175C52.7969 57.9095 52.8167 57.1938 52.7772 56.6017C52.6939 55.3727 52.6107 54.1436 52.526 52.916C52.5316 52.9961 53.9189 52.8288 54.0445 52.8147C54.5694 52.7585 55.0775 52.7318 55.5883 52.8808C55.8974 52.9708 56.5621 53.1396 56.8683 52.9933C57.2169 52.826 57.3411 52.1215 57.3453 51.7924C57.4018 46.955 56.5875 40.745 57.0066 35.684Z" fill="#FCEBC5"/>
<defs>
<linearGradient id="paint0_linear_85_1685" x1="40.0584" y1="-2.10881" x2="40.4571" y2="36.6974" gradientUnits="userSpaceOnUse">
<stop stop-color="#CF5C2B"/>
<stop offset="1" stop-color="#59173E"/>
</linearGradient>
<linearGradient id="paint1_linear_85_1685" x1="69.2432" y1="-14.8617" x2="-0.498636" y2="114.965" gradientUnits="userSpaceOnUse">
<stop stop-color="#CF5C2B"/>
<stop offset="1" stop-color="#59173E"/>
</linearGradient>
<linearGradient id="paint2_linear_85_1685" x1="61.3552" y1="-0.28167" x2="-8.38664" y2="129.545" gradientUnits="userSpaceOnUse">
<stop stop-color="#CF5C2B"/>
<stop offset="1" stop-color="#59173E"/>
</linearGradient>
<linearGradient id="paint3_linear_85_1685" x1="70.5534" y1="-2.4221" x2="70.9521" y2="36.3845" gradientUnits="userSpaceOnUse">
<stop stop-color="#CF5C2B"/>
<stop offset="1" stop-color="#59173E"/>
</linearGradient>
<linearGradient id="paint4_linear_85_1685" x1="16.42" y1="-1.86569" x2="16.8187" y2="36.9405" gradientUnits="userSpaceOnUse">
<stop stop-color="#CF5C2B"/>
<stop offset="1" stop-color="#59173E"/>
</linearGradient>
<linearGradient id="paint5_linear_85_1685" x1="72.3873" y1="-2.44118" x2="72.786" y2="36.3651" gradientUnits="userSpaceOnUse">
<stop stop-color="#CF5C2B"/>
<stop offset="1" stop-color="#59173E"/>
</linearGradient>
<linearGradient id="paint6_linear_85_1685" x1="30.5509" y1="-16.9719" x2="17.7873" y2="28.1257" gradientUnits="userSpaceOnUse">
<stop stop-color="#CF5C2B"/>
<stop offset="1" stop-color="#59173E"/>
</linearGradient>
<linearGradient id="paint7_linear_85_1685" x1="14.2414" y1="8.05352" x2="6.79635" y2="36.2048" gradientUnits="userSpaceOnUse">
<stop stop-color="#CF5C2B"/>
<stop offset="1" stop-color="#59173E"/>
</linearGradient>
</defs>
</svg>
