<svg width="353" height="80" viewBox="0 0 353 80" fill="none" xmlns="http://www.w3.org/2000/svg">
<path d="M352.813 63.7399C352.619 62.0881 352.444 60.4353 352.282 58.7814C352.113 57.0399 351.941 55.2984 351.782 53.5569C351.675 52.3671 351.519 51.1039 351.471 49.8834C351.431 48.8589 352.097 47.1765 351.214 46.2592C350.687 45.7097 349.547 45.5477 348.534 45.4372C347.203 45.2916 345.872 45.1471 344.541 45.0015C346.326 44.7465 348.082 44.417 349.795 44.0153C350.179 43.9255 350.58 43.8237 350.831 43.6234C351.056 43.4439 351.132 43.2097 351.192 42.9853C351.786 40.7184 351.41 38.3114 351.394 36.0215C351.378 33.6834 351.362 31.3465 351.346 29.0084C351.322 26.7842 351.313 24.5589 351.285 22.3347C351.276 21.598 351.77 19.9988 351.192 19.3475C350.715 18.8112 349.616 18.8462 348.737 18.7871C347.856 18.7291 346.968 18.7291 346.085 18.7619C344.764 18.8123 343.454 18.9371 342.149 19.063C343.86 18.7652 345.629 18.6251 347.356 18.3657C348.475 18.1971 349.581 17.976 350.601 17.6389C351.214 17.4364 351.904 17.2416 352.257 16.8464C352.405 16.68 352.472 16.4709 352.537 16.286C352.681 15.8755 352.729 15.4552 352.769 15.037C352.883 13.8844 352.954 12.7307 352.982 11.5759C352.996 10.9936 353.01 10.4091 352.991 9.82676C352.978 9.44693 352.748 9.0901 352.693 8.70918C352.466 7.13734 351.45 5.62791 349.816 4.42277C348.191 3.22309 345.986 2.34632 343.547 1.9457C342.643 1.79684 341.711 1.71363 340.778 1.69393C230.772 -0.522621 122.89 -0.600327 17.3428 1.67643C16.933 1.68518 16.4705 1.66108 16.0766 1.72567C15.6458 1.79681 15.2202 1.90192 14.8017 1.99387C13.9347 2.18323 13.0748 2.39009 12.2448 2.63747C10.6305 3.118 9.11104 3.7649 8.06999 4.68546C7.47385 5.21415 7.05884 5.8118 6.50138 6.35581C6.22177 6.62946 5.84722 6.8418 5.61685 7.12859C4.50019 8.52091 3.37294 9.93076 1.8307 11.1644C0.3254 12.3706 -0.137046 14.2752 0.0335316 15.7507C0.265658 17.7582 0.343015 19.7887 0.629656 21.7885C1.08687 24.9825 0.668312 28.182 1.22401 31.3946C1.30314 31.8555 1.42449 32.359 1.98371 32.6644C2.36707 32.8734 2.88937 32.949 3.38879 33.0168C5.01368 33.2379 6.6368 33.458 8.26168 33.6791C6.25168 34.4902 3.25336 34.5515 2.19472 35.888C1.85357 36.3181 1.79378 36.8107 1.74103 37.2901C1.54935 38.9999 1.29262 40.7064 1.10621 42.4172C1.02356 43.1856 0.955003 43.9551 0.912798 44.7246C0.874111 45.4602 0.773823 46.1618 0.663036 46.893C0.404531 48.5896 -0.290065 50.8062 0.545239 52.4656C1.35241 54.0702 4.56875 54.137 6.79681 54.5267C5.62563 54.6099 4.72877 55.2031 4.0447 55.8008C3.70003 56.1018 3.4556 56.4247 3.12851 56.7323C2.84011 57.0027 2.57637 57.2818 2.33721 57.5697C1.85888 58.1454 1.47724 58.7518 1.20115 59.3768C1.01474 59.7961 0.911018 60.1244 0.879364 60.5601C0.851228 60.9487 0.824839 61.3362 0.801978 61.7248C0.756256 62.5019 0.717589 63.278 0.691211 64.0551C0.636696 65.6084 0.617354 67.1627 0.638457 68.717C0.657801 70.221 0.0862579 71.6801 1.11324 73.1643C2.12967 74.6322 3.87767 75.9019 6.07232 76.7338C7.84844 77.407 9.85489 77.7682 11.9264 77.8394C118.082 80.7444 225.989 80.7017 335.581 77.8218C338.476 77.7452 341.266 77.0261 343.398 75.8034C344.425 75.2145 345.311 74.6979 346.072 73.9634C346.999 73.068 347.868 72.1497 348.677 71.2105C350.652 68.9184 353.121 66.3888 352.813 63.7399Z" fill="url(#paint0_linear_83_1338)"/>
<path d="M341.001 72.016C231.404 74.8893 123.504 74.9331 17.3535 72.027C12.6318 72.027 8.22842 69.9243 6.47868 67.2721C5.70141 66.1052 5.52381 64.818 5.64691 63.5625C5.66449 63.3425 5.69967 63.1224 5.80694 62.9024C5.96521 62.5609 6.21315 62.2643 6.28349 61.9118C6.31866 61.7247 6.35383 61.5484 6.389 61.3613C6.56661 60.3597 6.61937 59.3362 6.76005 58.3347C6.84798 57.7732 6.95526 57.1788 7.20145 56.6403C7.48458 56.0131 7.94354 55.4406 8.77532 55.0553C12.2766 53.4265 19.1014 53.4484 24.1942 53.3817C25.1842 53.3598 26.1039 53.3488 26.9357 53.316C29.1462 53.2273 31.3567 53.1945 33.5847 53.2054C28.3337 53.1945 23.081 52.9077 17.9179 52.3473C15.4595 52.0944 13.0205 51.7638 10.6148 51.3785C10.031 51.291 9.4119 51.1695 8.865 51.0042C8.10531 50.7951 7.45113 50.4864 7.11349 50.0245C6.83037 49.6283 6.84797 49.1883 6.86556 48.7701C6.88314 48.3629 6.79524 47.9448 6.83041 47.5376C6.88316 46.6685 7.06077 45.8202 7.20145 44.962C7.34214 44.2681 7.46701 43.5642 7.53735 42.8593C7.71496 40.9887 7.90837 39.1279 8.13873 37.2681C8.20907 36.7066 8.31636 36.0904 8.95119 35.6941C9.33982 35.4522 9.83572 35.3307 10.3299 35.2213C11.6734 34.9137 13.0538 34.6816 14.4677 34.5382C15.1219 34.4616 15.8288 34.4616 16.4654 34.351C17.2075 34.2076 17.7913 34.1091 18.6055 34.0544C26.3501 33.4929 34.0771 32.9314 41.8234 32.3709C42.7432 32.3053 43.6805 32.2385 44.6002 32.1728C32.9288 31.2928 21.2592 30.3897 9.58777 29.5096C9.07428 29.4659 8.56255 29.433 8.04906 29.3882C7.59008 29.3553 7.09418 29.3115 6.77588 29.1025C6.74071 29.0915 6.72311 29.0696 6.70552 29.0587C6.47516 28.8715 6.44 28.6296 6.40483 28.3877C5.87376 24.4581 6.47516 20.4081 6.12169 16.4457C6.08652 16.2257 5.99863 15.1136 5.89135 13.8592C5.73133 12.0432 5.53788 9.95147 5.44995 9.95147C4.95404 5.59279 10.3299 1.82849 17.3499 1.6862C122.881 -0.592748 230.764 -0.515055 340.767 1.69712C347.822 1.84051 353.251 5.62672 352.702 10.0073C352.507 11.5036 352.985 12.9353 352.402 14.4426C352.278 14.795 352.083 15.1584 351.659 15.4003C351.271 15.6094 350.757 15.686 350.246 15.7638C348.92 15.9619 347.594 16.171 346.248 16.3691C344.479 16.6329 342.73 16.8748 340.943 16.9963C330.334 17.7012 319.742 18.405 309.149 19.1209C308.866 19.1318 308.582 19.1537 308.299 19.1756C307.963 19.1975 307.61 19.2194 307.274 19.2413C308.123 19.2303 308.953 19.2194 309.803 19.2194C323.083 19.076 336.397 18.9446 349.678 18.8012C350.049 18.8012 350.455 18.8013 350.756 18.9447C351.091 19.099 351.179 19.3847 351.234 19.6495C351.304 20.002 351.322 20.3424 351.304 20.673C351.287 21.7183 350.986 22.7308 350.986 23.7992C350.986 24.746 351.357 25.6698 351.339 26.6276C351.304 28.0144 351.234 29.4122 351.144 30.8319C350.931 34.0128 350.578 37.2375 350.012 40.4184C349.924 40.8803 349.817 41.3761 349.322 41.7166C348.934 41.9804 348.367 42.1237 347.819 42.2343C347.483 42.3109 347.129 42.3777 346.776 42.4215C338.979 43.8083 330.42 42.7072 322.41 43.5664C321.879 43.6102 321.349 43.6759 320.836 43.7536C320.658 43.7755 320.482 43.8083 320.305 43.8302C320.959 43.8631 321.613 43.8849 322.267 43.9287C331.037 44.325 339.791 44.8756 348.508 45.5685C349.533 45.6451 350.666 45.7666 351.267 46.2843C351.728 46.6805 351.746 47.2093 351.746 47.6931V49.2999C351.746 50.9177 351.746 52.5465 351.869 54.1654C352.029 56.3119 352.24 58.4463 352.47 60.5928C352.576 61.6382 352.683 62.6955 352.806 63.7409C353.325 68.0755 347.984 71.8288 341.001 72.016Z" fill="url(#paint1_linear_83_1338)"/>
<path d="M351.345 26.6249C351.31 28.0117 351.239 29.4095 351.15 30.8292C346.658 31.0821 342.237 31.3021 337.922 31.5998C336.92 31.6688 335.915 31.7366 334.911 31.8023C331.195 32.0464 327.474 32.2664 323.752 32.4667C321.889 32.5674 320.027 32.6572 318.165 32.7535C316.979 32.8148 315.91 33.1082 314.746 33.1892C313.121 33.3019 311.359 33.0392 309.729 32.979C307.911 32.9122 306.089 32.8893 304.269 32.9024C300.613 32.9287 296.962 33.1027 293.331 33.361C286.05 33.8798 278.847 34.738 271.623 35.49C260.045 36.694 248.388 37.6047 236.692 38.2199C243.063 38.6129 249.392 39.2598 255.631 40.1551C253.292 40.2745 250.952 40.3785 248.609 40.4693C241.174 40.7561 233.725 40.9039 226.276 40.9794C218.822 41.0549 211.366 41.0571 203.909 41.0516C196.453 41.0461 188.995 41.0319 181.539 41.0746C174.09 41.1173 166.639 41.2158 159.197 41.4369C155.478 41.5475 151.76 41.6876 148.048 41.866C147.119 41.9109 146.191 41.958 145.264 42.0072C144.135 42.0674 143.059 42.2677 141.916 42.3498C133.026 42.9945 124.167 43.8078 115.385 44.8838C101.733 46.5563 88.029 48.1862 74.1489 48.7805C71.6377 48.8791 69.1265 48.9787 66.6153 49.0772C54.6626 50.5746 41.7532 50.8822 30.029 51.7743C26.0512 52.083 21.9837 52.2471 17.9162 52.3467C15.4578 52.0939 13.0188 51.7633 10.6131 51.378C10.0292 51.2905 9.41025 51.169 8.86335 51.0037C8.10366 50.7946 7.44948 50.4859 7.11184 50.024C6.82872 49.6278 6.84627 49.1877 6.86385 48.7696C6.88144 48.3624 6.79353 47.9443 6.8287 47.5371C6.88146 46.668 7.05906 45.8197 7.19975 44.9615C17.9338 44.4109 28.9317 42.4735 39.2578 41.5497C52.5207 40.3719 66.0121 39.6681 79.3805 39.2051C94.5162 38.6873 109.601 39.7994 124.684 39.7994C138.654 39.7994 152.606 39.0398 166.504 38.3469C193.594 36.9819 220.649 35.5732 247.721 34.1097C241.832 34.0484 235.945 33.9499 230.059 33.8218C222.555 33.6587 215.053 33.4497 207.555 33.2099C205.807 33.1541 204.013 33.0107 202.284 33.1366C200.498 33.2669 198.678 33.2986 196.88 33.2833C193.309 33.2526 189.743 32.9691 186.275 32.4383C184.233 32.1252 182.221 31.7268 180.152 31.5013C176.659 31.1204 173.082 31.2408 169.537 31.2123C156.29 31.1062 143.231 28.9235 129.984 29.0089C126.506 29.0319 123.036 29.2114 119.572 29.4018C115.889 29.6054 112.205 29.8233 108.507 29.8813C106.879 29.9065 105.166 29.9831 103.583 29.75C102.352 29.5693 100.958 29.6602 99.7004 29.6394C97.4583 29.6011 95.2161 29.5682 92.9757 29.5398C88.4915 29.4829 84.0072 29.4456 79.5212 29.4314C62.5285 29.3767 45.571 29.9711 28.5765 29.8824C21.3261 29.8496 13.9525 29.7499 6.77417 29.1008C6.739 29.0899 6.72146 29.068 6.70387 29.0571C6.4735 28.8699 6.4383 28.628 6.40313 28.3861C5.87205 24.4565 6.4735 20.4065 6.12004 16.4441C6.08487 16.2241 5.99692 15.1119 5.88965 13.8575C14.5539 13.3956 23.2903 13.2741 31.9546 12.8779C48.9297 12.0963 65.9049 11.7658 82.9521 11.8106C116.726 11.9103 150.411 13.2522 184.08 14.8481C217.767 16.4441 251.381 18.4034 285.066 19.8888C302.094 20.6375 319.141 21.0994 336.204 21.0994C341.209 21.0994 346.247 20.9122 351.304 20.6703C351.287 21.7156 350.986 22.7281 350.986 23.7965C350.991 24.7433 351.362 25.6682 351.345 26.6249ZM351.876 54.1638C351.753 52.5459 351.753 50.9172 351.753 49.2983C341.001 48.5715 330.232 47.8239 319.412 47.3609C300.863 46.5706 282.245 46.6943 263.68 47.1682C259.815 47.2667 256.015 47.3225 252.188 47.6279C250.338 47.7757 248.486 47.918 246.635 48.0537C239.224 48.5977 231.796 49.0465 224.356 49.399C221.454 49.5369 218.551 49.6595 215.646 49.7679C223.169 49.7339 230.69 49.7 238.213 49.6661C245.736 49.6321 253.259 49.5982 260.78 49.5643C264.542 49.5468 268.303 49.5303 272.065 49.5128C273.945 49.5041 275.826 49.4953 277.706 49.4877C278.499 49.4844 279.313 49.5161 280.094 49.41C280.571 49.3454 281.019 49.2239 281.505 49.179C283.186 49.0236 285.078 49.2326 286.77 49.2884C288.634 49.3508 290.498 49.4176 292.362 49.4888C296.093 49.6311 299.825 49.7909 303.553 49.9649C309.427 50.2385 315.295 50.5461 321.161 50.8734C327.562 51.2368 333.928 51.6987 340.294 52.1836C325.83 53.0418 311.365 53.9339 296.865 54.4287C263.497 55.5736 230.113 57.0152 196.692 56.608C163.732 56.2008 130.842 55.023 97.8627 55.0996C80.4814 55.1325 63.1159 55.3087 45.7697 55.6283C32.9676 55.8593 19.9878 55.8155 7.20329 56.6408C6.95534 57.1805 6.84981 57.7748 6.76188 58.3353C6.61944 59.3368 6.56669 60.3603 6.39084 61.3618C20.6262 61.7252 35.0373 61.1199 49.2357 61.098C66.6012 61.0761 83.965 61.1856 101.329 61.4395C134.236 61.9233 167.108 63.0573 200.016 63.4207C233.49 63.7951 266.911 62.2977 300.312 61.2524C317.535 60.7127 334.881 60.7018 352.122 60.5923H352.476C352.247 58.4458 352.034 56.3103 351.876 54.1638Z" fill="url(#paint2_linear_83_1338)"/>
<path d="M262.463 16.4892C255.594 14.0986 244.19 14.8363 238.753 18.0544C235.327 20.0816 235.157 23.87 238.753 25.8841C246.68 30.3237 260.595 28.429 265.621 22.933C265.718 22.8794 265.813 22.8247 265.91 22.7711C269.747 20.6114 267.014 17.0255 262.463 16.4892Z" fill="#EB924D"/>
<path d="M264.09 14.3856C257.221 11.9951 245.817 12.7328 240.379 15.9509C236.954 17.9781 236.783 21.7665 240.379 23.7806C248.307 28.2202 262.222 26.3255 267.248 20.8295C267.345 20.7759 267.44 20.7212 267.536 20.6675C271.375 18.5079 268.641 14.922 264.09 14.3856Z" fill="url(#paint3_linear_83_1338)"/>
<path d="M262.463 15.7421C255.594 13.3515 244.19 14.0892 238.753 17.3074C235.327 19.3345 235.157 23.1229 238.753 25.137C246.68 29.5766 260.595 27.6819 265.621 22.186C265.718 22.1323 265.813 22.0776 265.91 22.0239C269.747 19.8643 267.014 16.2784 262.463 15.7421Z" fill="url(#paint4_linear_83_1338)"/>
<path d="M133.642 52.0844C126.773 49.6938 115.369 50.4315 109.931 53.6496C106.506 55.6779 106.335 59.4652 109.931 61.4793C117.859 65.9189 131.774 64.0242 136.8 58.5282C136.897 58.4746 136.992 58.4199 137.088 58.3662C140.926 56.2066 138.193 52.6218 133.642 52.0844Z" fill="#EB924D"/>
<path d="M135.27 49.9809C128.402 47.5903 116.997 48.3281 111.56 51.5451C108.134 53.5723 107.964 57.3607 111.56 59.3747C119.488 63.8144 133.403 61.9197 138.429 56.4237C138.525 56.3701 138.62 56.3153 138.717 56.2617C142.554 54.1031 139.821 50.5184 135.27 49.9809Z" fill="url(#paint5_linear_83_1338)"/>
<path d="M133.642 51.3368C126.773 48.9462 115.369 49.684 109.931 52.9021C106.506 54.9304 106.335 58.7177 109.931 60.7317C117.859 65.1714 131.774 63.2766 136.8 57.7807C136.897 57.7271 136.992 57.6723 137.088 57.6187C140.926 55.4602 138.193 51.8743 133.642 51.3368Z" fill="url(#paint6_linear_83_1338)"/>
<path d="M8.47616 48.605C8.44099 49.4084 8.44095 50.2447 8.86476 51.0044C8.10507 50.7953 7.45089 50.4866 7.11326 50.0247C6.83013 49.6284 6.84773 49.1884 6.86532 48.7703C6.8829 48.3631 6.795 47.945 6.83017 47.5378C6.93568 45.9637 7.39643 44.4226 7.53711 42.8595C7.71472 40.9888 7.90813 39.128 8.13849 37.2683C8.20884 36.7068 8.31612 36.0905 8.95095 35.6943C9.33958 35.4524 9.83548 35.3309 10.3296 35.2214C11.6732 34.9138 13.0536 34.6818 14.4675 34.5384C15.1216 34.4618 15.8286 34.4618 16.4652 34.3512C17.2073 34.2078 17.7911 34.1093 18.6053 34.0546C26.3499 33.493 34.0769 32.9315 41.8232 32.3711C33.5124 33.4164 25.2016 34.4508 16.8908 35.4972C15.2711 35.6976 13.1099 35.6888 11.7576 36.3521C11.2458 36.6028 10.7833 36.9761 10.3754 37.2891C10.2435 37.3909 9.08811 38.8303 9.53478 38.8401C15.6422 38.9671 21.7496 39.093 27.8552 39.22C23.3305 39.6775 18.8198 40.1876 14.325 40.748C12.0583 41.0315 9.48904 41.4694 8.48668 42.7665C7.85537 43.583 7.89935 44.6864 8.11037 45.5653C8.18247 45.8631 8.34777 46.1444 8.44273 46.4388C8.6731 47.1459 8.50254 47.8924 8.47616 48.605Z" fill="#EB924D"/>
<path d="M308.304 19.1739C307.828 19.152 307.367 19.141 306.908 19.1191H309.154C308.871 19.1301 308.588 19.152 308.304 19.1739Z" fill="#EB924D"/>
<path d="M315.944 43.2119C318.101 43.3444 320.259 43.4648 322.415 43.5644C321.884 43.6082 321.355 43.6738 320.841 43.7516C319.197 43.5644 317.553 43.3772 315.944 43.2119Z" fill="#EB924D"/>
<path d="M347.773 41.2199C348.109 40.3836 348.021 39.5024 347.914 38.6443C347.718 37.0484 347.525 35.4524 347.33 33.8565C347.295 33.5479 347.224 33.2074 346.836 33.0202C346.517 32.8659 346.074 32.8659 345.685 32.8769C342.467 32.9426 339.267 33.0093 336.066 33.075C339.532 32.8878 342.963 32.3153 346.092 31.3795C346.994 31.1047 347.931 30.7632 348.267 30.1907C348.443 29.8941 348.443 29.5745 348.443 29.2549C348.39 26.745 347.683 23.9384 347.205 21.4515C345.684 20.5605 343.421 20.439 341.352 20.3624C332.971 20.0428 324.571 19.7242 316.19 19.4046C314.192 19.3159 311.946 19.2722 309.806 19.2174C323.087 19.074 336.4 18.9427 349.681 18.7993C350.052 18.7993 350.458 18.7993 350.759 18.9427C351.095 19.097 351.183 19.3827 351.237 19.6476C351.52 21.0673 350.989 22.3885 350.989 23.7972C350.989 24.744 351.36 25.6679 351.343 26.6257C351.22 31.1277 350.829 35.8268 350.017 40.4175C349.929 40.8795 349.822 41.3753 349.327 41.7157C348.939 41.9795 348.373 42.1229 347.824 42.2335C347.488 42.3101 347.135 42.3768 346.781 42.4206C347.259 42.078 347.595 41.649 347.773 41.2199Z" fill="#EB924D"/>
<path d="M6.1234 16.4442C6.07064 15.9046 5.59234 9.94998 5.45166 9.94998C4.95575 5.59131 10.3316 1.82701 17.3517 1.68471C122.883 -0.59423 230.766 -0.516503 340.769 1.69567C347.824 1.83906 353.253 5.62527 352.704 10.0058C352.509 11.5021 352.987 12.9338 352.403 14.4411C352.28 14.7936 352.085 15.157 351.661 15.3989C351.273 15.6079 350.759 15.6846 350.247 15.7623C348.925 15.9593 347.609 16.1837 346.282 16.361C347.434 15.7174 348.747 14.9457 349.282 14.0131C349.646 13.3794 349.349 12.8332 349.009 12.2279C348.483 11.2931 348.389 10.401 348.327 9.41585C348.251 8.20413 348.598 6.46153 347.047 5.49391C345.883 4.7682 344.346 4.13114 342.876 3.68126C339.251 2.57134 335.069 2.34258 331.092 2.24407C330.891 2.23969 330.691 2.23419 330.492 2.23091C323.143 2.08095 315.773 2.07 308.45 2.53302C307.561 2.58884 306.782 2.74429 305.925 2.84719C304.849 2.97635 303.581 2.81544 302.491 2.78041C300.001 2.69941 297.509 2.62936 295.017 2.56916C290.033 2.44985 285.046 2.37104 280.059 2.33383C276.32 2.30646 272.583 2.30206 268.845 2.29768C267.665 2.29659 266.485 2.2944 265.307 2.29331C263.035 2.29002 260.764 2.28785 258.492 2.28566C255.343 2.28237 252.195 2.27799 249.047 2.2747C248.898 2.2747 248.748 2.2747 248.599 2.2747C243.61 2.26923 238.621 2.26267 233.632 2.2572C231.138 2.25391 228.643 2.25173 226.149 2.24845C225.013 2.24735 223.74 2.34696 222.622 2.21561C221.487 2.08207 220.559 1.65625 219.356 1.58948C218.273 1.52928 217.151 1.64531 216.076 1.69894C213.356 1.83467 210.637 1.99558 207.924 2.18057C206.695 2.26485 205.353 2.38853 204.528 2.9621C204.245 3.16022 204.036 3.40432 203.689 3.55756C202.924 3.89908 201.873 3.6725 200.986 3.47766C199.221 3.08908 197.359 2.87125 195.488 2.82527C193.803 2.78477 192.129 2.9665 190.444 2.90411C189.38 2.8647 188.358 2.70488 187.317 2.57681C183.213 2.0733 178.917 2.04156 174.76 1.85548C171.675 1.71646 168.585 1.61575 165.496 1.54789C155.521 1.32678 145.536 1.44393 135.569 1.70663C130.578 1.83798 125.591 2.00654 120.606 2.18715C118.327 2.27034 115.787 2.57024 113.519 2.38744C112.863 2.3349 112.253 2.17071 111.604 2.09519C110.923 2.01638 110.237 2.02843 109.55 2.03172C106.78 2.04266 104.01 2.06125 101.241 2.0711C98.005 2.08205 94.7517 2.0711 91.4985 2.0711C90.4046 2.07329 89.3442 2.20793 88.275 2.20903C87.2991 2.21012 86.3248 2.07548 85.34 2.08096C83.2896 2.0919 81.2409 2.34256 79.3417 2.82527C78.6067 3.01245 77.8557 3.23685 77.0626 3.20839C75.6101 3.15585 74.6025 2.30318 73.2906 1.9135C70.1639 0.985285 66.9317 2.75522 63.7365 2.03716C62.1485 1.68033 60.5237 1.73398 58.8531 1.72303C56.7199 1.7088 54.5868 1.70333 52.4537 1.7088C45.2209 1.73069 37.9898 1.88503 30.7921 2.336C27.203 2.56696 23.6313 2.86469 20.0756 3.26093C18.361 3.44811 16.6095 3.76663 14.8774 3.88813C14.3287 3.93192 13.9401 3.92098 13.4618 4.13005C11.3445 5.05826 5.49035 10.2291 9.66687 12.0472C11.0227 12.6372 12.7988 12.646 14.4536 12.6318C25.1032 12.5409 35.7529 12.4501 46.4026 12.3592C34.9053 12.9273 23.4081 13.4965 11.9108 14.0646C11.1669 14.1018 10.3984 14.1423 9.74249 14.3634C7.52849 15.1088 8.29169 16.8448 7.97515 18.1025C7.5619 19.7488 8.07887 21.5308 8.33386 23.1814C8.66974 25.2951 9.07599 27.4077 9.58948 29.5104C9.07599 29.4666 8.56426 29.4338 8.05077 29.3889C7.55662 29.356 7.02553 29.3013 6.70723 29.0583C6.47687 28.8711 6.44171 28.6293 6.40654 28.3873C5.87546 24.4567 6.47686 20.4067 6.1234 16.4442Z" fill="#EB924D"/>
<path d="M341.001 72.0167C231.404 74.89 123.504 74.9338 17.3532 72.0277C12.6316 72.0277 8.22815 69.925 6.47841 67.2728C5.70114 66.1059 5.52354 64.8187 5.64664 63.5632C5.66423 63.3432 5.6994 63.1232 5.80667 62.9031C5.96494 62.5616 6.21289 62.265 6.28323 61.9125C6.54877 60.7348 6.60153 59.5241 6.76156 58.3354C6.93741 57.1357 7.22053 55.7817 8.77683 55.056C12.2781 53.4272 19.1029 53.4491 24.1957 53.3824C28.3511 53.4152 32.4889 53.4371 36.7146 53.5805C35.4819 53.5805 34.3899 53.9373 33.2046 54.0096C31.5727 54.1092 29.9179 54.1289 28.2807 54.1891C25.0485 54.3062 21.8164 54.4244 18.5859 54.5426C16.3438 54.6247 14.0735 54.709 11.9351 55.1381C11.1262 55.3001 10.3173 55.5212 9.73697 55.9076C9.1039 56.329 8.81023 56.9015 8.5781 57.4597C8.12968 58.5412 7.57399 59.8416 7.84481 60.9635C7.9257 61.2985 8.12264 61.617 8.19122 61.953C8.26508 62.3208 8.20707 62.6864 8.18596 63.0553C8.11386 64.2988 8.24749 65.5728 9.07752 66.7244C11.0576 69.4762 16.24 70.6759 20.9951 71.2264C26.8123 71.8865 31.7099 72.5137 37.5816 72.0189C46.1597 72.0758 54.7361 72.1317 63.3142 72.1842C68.3296 72.2149 73.3467 72.2619 78.362 72.275C79.1991 72.2772 79.964 72.1109 80.787 72.1087C81.9951 72.1054 83.2384 72.24 84.4448 72.2958C86.9102 72.4097 89.3792 72.4918 91.8499 72.5443C97.9063 72.6713 103.972 72.6122 110.019 72.367C111.459 72.309 112.859 72.1459 114.255 72.4042C116.272 72.7775 118.397 72.7643 120.491 72.8223C125.466 72.9602 130.448 72.9778 135.425 72.8738C136.619 72.8486 137.813 72.8169 139.007 72.7786C140.917 72.7162 142.86 72.6319 144.638 72.1941C145.556 71.9686 146.417 71.6511 147.369 71.4891C150.073 71.0272 152.841 71.8799 155.47 72.4852C158.878 73.2711 162.626 72.8968 166.197 73.0467C171.065 73.2525 175.744 73.4649 180.612 73.073C180.656 73.0697 180.7 73.0654 180.744 73.0621C183.035 72.8749 185.314 72.5476 187.409 71.9259C188.501 71.6008 189.598 71.1892 190.808 71.2035C192.266 71.2221 193.488 71.8493 194.74 72.3155C198.672 73.7779 203.561 73.7451 208.114 73.4309C212.002 73.1627 215.92 72.7151 219.843 72.9603C221.464 73.062 223.024 72.9198 224.663 72.9241C226.693 72.9307 228.72 72.9362 230.749 72.9427C247.477 72.9975 264.223 73.0314 280.933 72.679C287.988 72.5356 295.061 72.3156 302.116 72.0189C305.848 71.8646 309.578 71.6884 313.309 71.5012C315.166 71.4016 317.023 71.2921 318.896 71.1936C324.52 70.863 330.195 70.8849 335.836 70.6321C339.214 70.4777 342.75 70.2467 345.598 69.0909C347.224 68.4308 348.515 67.3954 349.081 66.2296C349.364 65.6681 349.47 65.0628 349.312 64.4794C349.224 64.1926 349.046 63.9288 349.028 63.654C348.993 62.6525 348.993 61.64 348.976 60.6384C348.958 59.0753 349.224 57.4575 348.87 55.9164C348.835 55.7401 348.782 55.5529 348.587 55.4325C348.427 55.334 348.198 55.2891 347.968 55.2454C347.013 55.0801 346.076 54.9148 345.139 54.7506C346.394 54.3653 347.79 53.9034 348.234 53.0781C348.446 52.7037 348.429 52.3075 348.411 51.9222C348.376 50.9863 348.323 50.0176 347.739 49.1594C347.138 48.3013 347.033 47.5963 345.582 47.3435C338.155 46.0672 330.091 44.8664 322.276 43.9316C331.046 44.3279 339.8 44.8784 348.517 45.5713C349.542 45.6479 350.674 45.7695 351.276 46.2872C351.737 46.6835 351.754 47.2121 351.754 47.6959C351.754 49.8534 351.719 52.0108 351.877 54.1683C352.125 57.3601 352.444 60.552 352.815 63.7438C353.325 68.0762 347.984 71.8295 341.001 72.0167Z" fill="#EB924D"/>
<path d="M150.701 13.0415C139.118 14.2828 127.176 14.2116 115.633 12.8324C127.309 12.4395 139.014 12.8007 150.701 13.0415Z" fill="#EB924D"/>
<path d="M245.317 18.9799C239.491 19.5808 233.514 19.4122 227.597 19.2415C211.395 18.773 194.84 18.2618 179.789 14.7865C188.969 14.7657 198.069 15.7147 207.161 16.4535C219.69 17.4704 232.731 18.2399 245.317 18.9799Z" fill="#EB924D"/>
<path d="M252.714 18.66C248.414 18.5757 244.132 18.2834 239.855 17.9923C220.536 16.6766 201.219 15.3598 181.899 14.044C160.946 12.6167 139.862 11.1872 118.835 12.0935C116.039 12.0716 113.051 12.2807 110.255 12.2588C123.138 13.1487 136.132 13.4256 149.082 13.0863C154.183 12.9527 159.304 12.724 164.384 13.0469C168.452 13.3052 172.438 13.9138 176.434 14.4567C183.93 15.4769 191.503 16.2726 199.105 16.9217C220.321 18.7311 241.765 19.389 263.179 19.3145C259.241 19.0212 256.676 18.7377 252.714 18.66Z" fill="url(#paint7_linear_83_1338)"/>
<path d="M82.6758 30.3647C72.4289 31.0718 62.0535 31.0575 51.8101 30.3242C62.1608 29.697 72.3058 29.8699 82.6758 30.3647Z" fill="#EB924D"/>
<path d="M90.7736 30.4194C76.2516 30.2388 61.7244 30.2015 47.2007 30.3088C48.9012 30.2968 50.7406 30.0527 52.4552 29.918C54.2612 29.7757 56.069 29.6335 57.8803 29.5185C61.5099 29.2887 65.1377 29.1956 68.7796 29.3696C69.418 29.4003 69.9156 29.328 70.5346 29.2755C71.3664 29.2055 72.2685 29.2985 73.1038 29.3303C74.9626 29.4014 76.8196 29.4868 78.6749 29.5853C82.3854 29.7823 86.0889 30.0319 89.78 30.3362C90.1089 30.3624 90.4412 30.3909 90.7736 30.4194Z" fill="url(#paint8_linear_83_1338)"/>
<path d="M118.928 45.1357C114.97 46.1012 111.009 47.0655 107.051 48.0299C104.561 48.6363 102.064 49.2449 99.4664 49.6444C96.1199 50.1589 92.6626 50.3176 89.2246 50.4664C80.5674 50.8419 71.7431 51.1604 63.3162 49.8644C82.0973 49.7495 100.523 47.4541 118.928 45.1357Z" fill="#EB924D"/>
<path d="M136.58 42.4238C126.553 44.0548 116.526 45.6857 106.499 47.3167C101.719 48.0938 96.9286 48.8732 92.0469 49.3417C85.9958 49.9229 79.8533 50.0214 73.7319 50.0707C68.3033 50.1145 62.8746 50.1188 57.446 50.0849C59.5422 49.8802 61.6472 49.7105 63.7575 49.5759C64.6139 49.5212 65.5388 49.5409 66.3811 49.4599C70.8162 49.0374 74.9945 49.2136 79.5121 49.1096C84.2162 49.0012 88.8658 48.2175 93.4837 47.7457C100.82 46.9959 108.125 46.1312 115.411 45.2107C122.477 44.3175 129.528 43.3707 136.58 42.4238Z" fill="url(#paint9_linear_83_1338)"/>
<path d="M311.406 54.6416C303.099 56.5046 293.995 56.1674 285.183 55.8183C283.335 55.7449 281.476 55.6727 279.633 55.7909C278.453 55.8664 277.289 56.0197 276.128 56.1697C270.897 56.8472 265.628 57.4755 260.291 57.6484C254.954 57.8214 249.52 57.5248 244.494 56.3951C258.418 57.7875 272.77 55.0773 286.871 54.8923C290.381 54.8463 293.897 54.9459 297.405 54.8353C302.195 54.6865 306.606 54.6821 311.406 54.6416Z" fill="#EB924D"/>
<path d="M239.113 56.0528C246.757 56.7173 254.476 57.3839 262.171 57.0029C267.135 56.7567 272.019 56.0769 276.971 55.7398C282.844 55.3403 288.769 55.4245 294.676 55.3676C305.28 55.2647 315.873 54.701 326.352 53.683C323.419 53.6393 320.482 53.6513 317.551 53.7181C314.969 53.7761 312.403 53.6841 309.811 53.7159C304.059 53.7859 298.318 54.018 292.585 54.3146C286.863 54.6102 281.149 54.9692 275.432 55.2976C269.726 55.6249 264.012 55.9226 258.286 56.0933C252.557 56.2641 246.812 56.3068 241.081 56.1251C240.432 56.1032 239.757 56.1087 239.113 56.0528Z" fill="url(#paint10_linear_83_1338)"/>
<path d="M35.2627 19.3721C36.3678 19.4984 37.2993 19.5931 38.0571 19.6562C38.8149 19.6878 39.4149 19.7194 39.8569 19.751C40.3937 19.7826 40.82 19.7983 41.1357 19.7983C41.6725 19.7983 42.2882 19.7826 42.9829 19.751C43.5828 19.7194 44.2775 19.672 45.0669 19.6089C45.8879 19.5142 46.772 19.3721 47.7192 19.1826C47.2772 19.6562 46.9141 20.1141 46.6299 20.5562C46.3457 20.9666 46.1247 21.3455 45.9668 21.6929C45.7773 22.0718 45.6195 22.4191 45.4932 22.7349C45.3669 23.1453 45.2248 23.7769 45.0669 24.6294C44.909 25.3556 44.7354 26.3818 44.5459 27.708C44.388 29.0342 44.1828 30.7708 43.9302 32.918C45.0037 32.9495 45.9352 32.9653 46.7246 32.9653C47.514 32.9338 48.1771 32.918 48.7139 32.918H50.2769C50.7189 32.8864 51.2241 32.8548 51.7925 32.8232C52.7397 32.7917 54.1764 32.6969 56.1025 32.5391C56.2604 31.0866 56.3394 29.8394 56.3394 28.7974C56.3709 27.7238 56.3551 26.8239 56.292 26.0977C56.2288 25.2767 56.1341 24.582 56.0078 24.0137C55.9131 23.6979 55.771 23.319 55.5815 22.877C55.4237 22.498 55.2026 22.0402 54.9185 21.5034C54.6659 20.9351 54.3185 20.2562 53.8765 19.4668C54.6974 19.5931 55.4237 19.6878 56.0552 19.751C56.7183 19.7826 57.2708 19.8141 57.7129 19.8457C58.2181 19.8773 58.6444 19.8931 58.9917 19.8931C59.339 19.8931 59.7969 19.8773 60.3652 19.8457C60.8389 19.8141 61.423 19.7983 62.1177 19.7983C62.8123 19.7668 63.6649 19.7194 64.6753 19.6562C64.4227 20.0983 64.2017 20.5562 64.0122 21.0298C63.8228 21.5034 63.6649 21.9297 63.5386 22.3086C63.4123 22.7507 63.286 23.1927 63.1597 23.6348C63.0018 24.2979 62.8597 25.2609 62.7334 26.5239C62.6387 27.7869 62.5439 29.1921 62.4492 30.7393C62.3861 32.2865 62.3229 33.8968 62.2598 35.5703C62.2282 37.2438 62.1966 38.8226 62.165 40.3066C62.165 41.7907 62.1808 43.1169 62.2124 44.2852C62.244 45.4219 62.3071 46.2271 62.4019 46.7007C62.4966 47.269 62.6545 47.8532 62.8755 48.4531C63.0649 48.9899 63.3175 49.5741 63.6333 50.2056C63.9491 50.8055 64.3595 51.3739 64.8647 51.9106L53.4502 52.7632C53.9238 52.3211 54.3027 51.8949 54.5869 51.4844C54.8711 51.0423 55.0921 50.6634 55.25 50.3477C55.4079 50.0003 55.5184 49.6688 55.5815 49.353C55.6131 48.9741 55.6605 48.311 55.7236 47.3638C55.7868 46.5744 55.8499 45.4535 55.9131 44.001C55.9762 42.5485 56.0394 40.6224 56.1025 38.2227C55.6605 38.2227 55.1237 38.2384 54.4922 38.27C53.8923 38.27 53.3239 38.2858 52.7871 38.3174C52.1556 38.349 51.4925 38.3647 50.7979 38.3647C50.1032 38.3963 49.377 38.4279 48.6191 38.4595C47.9876 38.5226 47.2772 38.5858 46.4878 38.6489C45.73 38.6805 44.9722 38.7279 44.2144 38.791C44.1512 40.1172 44.1512 41.2855 44.2144 42.2959C44.2775 43.2747 44.3722 44.1115 44.4985 44.8062C44.6248 45.6271 44.7827 46.3376 44.9722 46.9375C45.1616 47.5059 45.3669 48.0742 45.5879 48.6426C45.7773 49.1478 45.9984 49.6846 46.251 50.2529C46.5352 50.8213 46.8193 51.3265 47.1035 51.7686C46.5036 51.7054 45.951 51.658 45.4458 51.6265C44.9406 51.5633 44.4985 51.5002 44.1196 51.437C43.6776 51.4054 43.2513 51.3739 42.8408 51.3423C42.4303 51.3423 41.9409 51.3265 41.3726 51.2949C40.8674 51.2633 40.2358 51.2476 39.478 51.2476C38.7202 51.216 37.8361 51.2002 36.8257 51.2002C37.4256 50.6003 37.8993 50.0161 38.2466 49.4478C38.6255 48.8478 38.8939 48.311 39.0518 47.8374C39.2412 47.269 39.3675 46.748 39.4307 46.2744C39.4622 45.8639 39.478 45.0903 39.478 43.9536C39.5096 42.8169 39.5096 41.5223 39.478 40.0698C39.478 38.5858 39.4622 37.0386 39.4307 35.4282C39.3991 33.7863 39.3517 32.2549 39.2886 30.834C39.257 29.4131 39.2096 28.1974 39.1465 27.187C39.1149 26.145 39.0833 25.4977 39.0518 25.2451C38.8939 24.6768 38.6571 24.061 38.3413 23.3979C38.0571 22.8612 37.6782 22.2454 37.2046 21.5508C36.731 20.8245 36.0837 20.0983 35.2627 19.3721ZM78.7422 31.7812C79.5632 31.7812 80.4157 31.9391 81.2998 32.2549C82.1839 32.5391 83.0365 32.918 83.8574 33.3916C84.6784 33.8337 85.4204 34.3231 86.0835 34.8599C86.7782 35.3651 87.3465 35.8545 87.7886 36.3281C88.578 37.1807 89.1147 38.3332 89.3989 39.7856C89.7147 41.2065 89.7778 42.6748 89.5884 44.1904C89.3989 45.6745 88.9569 47.0796 88.2622 48.4058C87.5675 49.7319 86.6045 50.7108 85.373 51.3423C84.4889 51.7843 83.6206 52.1317 82.7681 52.3843C81.9155 52.6369 81.0946 52.8263 80.3052 52.9526C79.5158 53.0789 78.7738 53.1421 78.0791 53.1421C77.3844 53.1421 76.7845 53.1263 76.2793 53.0947C75.332 53.0316 74.3374 52.7 73.2954 52.1001C72.285 51.5002 71.3219 50.7581 70.4062 49.874C69.5221 48.9899 68.7643 48.0269 68.1328 46.9849C67.5013 45.9113 67.1224 44.9009 66.9961 43.9536C66.8066 42.659 66.7751 41.3013 66.9014 39.8804C67.0277 38.4595 67.4855 37.1491 68.2749 35.9492C69.0959 34.7493 70.3273 33.7547 71.9692 32.9653C73.6427 32.1759 75.9004 31.7812 78.7422 31.7812ZM77.1792 50.1582C77.5265 50.2214 78.0002 50.1424 78.6001 49.9214C79.2 49.6688 79.7842 49.2741 80.3525 48.7373C80.9525 48.2005 81.4735 47.5216 81.9155 46.7007C82.3892 45.8481 82.6733 44.8219 82.7681 43.6221C82.8628 42.4538 82.8628 41.3802 82.7681 40.4014C82.7049 39.4225 82.5628 38.57 82.3418 37.8438C82.1208 37.0859 81.8682 36.4702 81.584 35.9966C81.2998 35.5229 80.9998 35.1914 80.6841 35.002C80.1473 34.7178 79.5 34.4967 78.7422 34.3389C77.9844 34.1494 77.3371 34.181 76.8003 34.4336C76.5477 34.5599 76.2319 34.8283 75.853 35.2388C75.4741 35.6493 75.0952 36.1702 74.7163 36.8018C74.3374 37.4017 73.9901 38.0964 73.6743 38.8857C73.3901 39.6751 73.1849 40.4961 73.0586 41.3486C72.9323 42.2012 72.9007 43.1169 72.9639 44.0957C73.0586 45.0745 73.2638 46.006 73.5796 46.8901C73.8953 47.7427 74.3374 48.4847 74.9058 49.1162C75.5057 49.7161 76.2635 50.0635 77.1792 50.1582ZM88.9727 31.1655C89.9199 31.2287 90.7567 31.276 91.4829 31.3076C92.2407 31.3392 92.8722 31.3708 93.3774 31.4023C93.9458 31.4339 94.451 31.4497 94.8931 31.4497C95.3351 31.4497 95.8403 31.4339 96.4087 31.4023C96.9139 31.3708 97.5296 31.3234 98.2559 31.2603C99.0137 31.1655 99.882 31.0392 100.861 30.8813C100.103 31.355 99.4873 31.797 99.0137 32.2075C98.5716 32.5864 98.2243 32.9338 97.9717 33.2495C97.6875 33.5968 97.498 33.9126 97.4033 34.1968C97.3402 34.4494 97.277 34.9546 97.2139 35.7124C97.1823 36.4386 97.1507 37.2912 97.1191 38.27C97.1191 39.2173 97.1349 40.2277 97.1665 41.3013C97.1981 42.3748 97.2454 43.3537 97.3086 44.2378C97.3717 45.0903 97.4665 45.8166 97.5928 46.4165C97.7191 46.9849 97.877 47.2533 98.0664 47.2217C98.319 47.0007 98.7295 46.2586 99.2979 44.9956C99.5189 44.4588 99.7873 43.7799 100.103 42.959C100.419 42.1064 100.782 41.0802 101.192 39.8804C101.603 38.6489 102.061 37.2122 102.566 35.5703C103.103 33.9284 103.703 32.0181 104.366 29.8394H108.486C108.613 31.9865 108.755 33.8652 108.913 35.4756C109.07 37.0859 109.228 38.491 109.386 39.6909C109.544 40.8592 109.686 41.8538 109.812 42.6748C109.97 43.4642 110.128 44.1115 110.286 44.6167C110.633 45.8166 110.981 46.4639 111.328 46.5586C111.612 46.4954 111.912 46.1323 112.228 45.4692C112.575 44.8062 112.891 43.9852 113.175 43.0063C113.491 42.0275 113.775 40.9697 114.028 39.833C114.28 38.6647 114.501 37.5754 114.691 36.5649C114.88 35.5545 115.007 34.6704 115.07 33.9126C115.133 33.1548 115.133 32.6812 115.07 32.4917C114.975 32.3022 114.786 32.0339 114.501 31.6865C114.249 31.4023 113.902 31.055 113.459 30.6445C113.049 30.234 112.481 29.7446 111.754 29.1763C112.639 29.3341 113.475 29.4447 114.265 29.5078C115.086 29.5394 115.812 29.571 116.443 29.6025C117.17 29.6341 117.833 29.6341 118.433 29.6025C119.064 29.6025 119.838 29.5868 120.753 29.5552C121.543 29.5236 122.522 29.5078 123.69 29.5078C124.89 29.5078 126.295 29.4762 127.905 29.4131C126.484 29.8551 125.348 30.2814 124.495 30.6919C123.674 31.0708 123.043 31.4339 122.601 31.7812C122.064 32.1602 121.685 32.5233 121.464 32.8706C121.243 33.3442 120.896 34.3389 120.422 35.8545C120.232 36.486 119.996 37.2754 119.711 38.2227C119.427 39.1383 119.096 40.2277 118.717 41.4907C118.338 42.7537 117.912 44.222 117.438 45.8955C116.964 47.5374 116.428 49.4162 115.828 51.5317C115.48 51.4686 115.117 51.437 114.738 51.437C114.391 51.4054 114.059 51.3896 113.744 51.3896H112.654C112.275 51.4212 111.865 51.4528 111.423 51.4844C111.044 51.516 110.602 51.5633 110.097 51.6265C109.591 51.6896 109.039 51.7686 108.439 51.8633L105.597 40.354L100.956 51.8633L95.6509 51.7212C94.9878 48.1532 94.451 45.3114 94.0405 43.1958C93.6616 41.0487 93.3459 39.4067 93.0933 38.27C92.8091 36.9438 92.6196 36.0124 92.5249 35.4756C92.367 34.9072 92.1302 34.3547 91.8145 33.8179C91.5618 33.3758 91.1987 32.918 90.7251 32.4443C90.2515 31.9391 89.6673 31.5129 88.9727 31.1655ZM137.994 23.1611C138.941 23.2559 139.73 23.3348 140.362 23.3979C141.025 23.4611 141.562 23.5085 141.972 23.54C142.446 23.5716 142.825 23.5874 143.109 23.5874C143.393 23.619 143.772 23.619 144.246 23.5874C144.656 23.5558 145.193 23.5243 145.856 23.4927C146.519 23.4295 147.356 23.3348 148.366 23.2085C148.145 23.5243 147.972 23.8084 147.845 24.061C147.719 24.2821 147.608 24.4873 147.514 24.6768L147.229 25.2451C147.166 25.4346 147.103 25.624 147.04 25.8135C146.977 25.9714 146.914 26.1608 146.851 26.3818C146.819 26.6029 146.787 26.8397 146.756 27.0923H154.05L153.387 30.9287L146.708 30.5498C146.551 32.1602 146.44 33.4074 146.377 34.2915C146.314 35.1756 146.251 35.8229 146.188 36.2334L146.093 37.0859C145.998 38.2858 145.903 39.5962 145.809 41.0171C145.714 42.4064 145.682 43.701 145.714 44.9009C145.745 46.1007 145.856 47.1112 146.045 47.9321C146.235 48.7215 146.566 49.1162 147.04 49.1162C147.514 49.1162 147.956 48.9899 148.366 48.7373C148.777 48.4847 149.124 48.1847 149.408 47.8374C149.724 47.4901 149.961 47.1427 150.119 46.7954C150.277 46.4165 150.355 46.1323 150.355 45.9429C150.355 45.7534 150.308 45.5324 150.213 45.2798C150.056 44.8062 149.771 44.2062 149.361 43.48C150.277 43.701 151.082 43.922 151.776 44.1431C152.124 44.2694 152.439 44.3957 152.724 44.522C153.039 44.6483 153.403 44.7904 153.813 44.9482C154.16 45.1061 154.602 45.2956 155.139 45.5166C155.676 45.7376 156.307 46.006 157.034 46.3218C156.339 46.4481 155.834 46.6533 155.518 46.9375C155.329 47.0638 155.187 47.2059 155.092 47.3638C154.871 47.7111 154.618 48.1847 154.334 48.7847C154.05 49.353 153.624 49.9214 153.055 50.4897C152.487 51.0581 151.713 51.5633 150.734 52.0054C149.787 52.4474 148.508 52.7 146.898 52.7632C145.224 52.8263 143.946 52.5422 143.062 51.9106C142.209 51.2791 141.577 50.5529 141.167 49.7319C140.788 48.8794 140.567 48.0426 140.504 47.2217C140.441 46.4007 140.393 45.8481 140.362 45.564C140.33 45.2798 140.33 44.5693 140.362 43.4326C140.393 42.2959 140.441 41.0487 140.504 39.6909C140.567 38.3016 140.63 36.9754 140.693 35.7124C140.757 34.4178 140.788 33.4705 140.788 32.8706C140.788 32.5549 140.804 32.2233 140.835 31.876C140.835 31.5918 140.835 31.2918 140.835 30.9761C140.867 30.6287 140.883 30.2972 140.883 29.9814L134.015 29.9341L133.731 27.2344L140.646 27.4238C140.583 27.0765 140.504 26.7607 140.409 26.4766C140.346 26.1608 140.283 25.9082 140.22 25.7188C140.125 25.4977 140.03 25.3083 139.936 25.1504C139.809 24.9925 139.667 24.8188 139.509 24.6294C139.351 24.4715 139.146 24.2663 138.894 24.0137C138.641 23.7611 138.341 23.4769 137.994 23.1611ZM167.785 31.7812C168.606 31.7812 169.459 31.9391 170.343 32.2549C171.227 32.5391 172.079 32.918 172.9 33.3916C173.721 33.8337 174.463 34.3231 175.126 34.8599C175.821 35.3651 176.389 35.8545 176.832 36.3281C177.621 37.1807 178.158 38.3332 178.442 39.7856C178.758 41.2065 178.821 42.6748 178.631 44.1904C178.442 45.6745 178 47.0796 177.305 48.4058C176.611 49.7319 175.647 50.7108 174.416 51.3423C173.532 51.7843 172.664 52.1317 171.811 52.3843C170.958 52.6369 170.138 52.8263 169.348 52.9526C168.559 53.0789 167.817 53.1421 167.122 53.1421C166.427 53.1421 165.827 53.1263 165.322 53.0947C164.375 53.0316 163.38 52.7 162.338 52.1001C161.328 51.5002 160.365 50.7581 159.449 49.874C158.565 48.9899 157.807 48.0269 157.176 46.9849C156.544 45.9113 156.165 44.9009 156.039 43.9536C155.85 42.659 155.818 41.3013 155.944 39.8804C156.071 38.4595 156.528 37.1491 157.318 35.9492C158.139 34.7493 159.37 33.7547 161.012 32.9653C162.686 32.1759 164.943 31.7812 167.785 31.7812ZM166.222 50.1582C166.569 50.2214 167.043 50.1424 167.643 49.9214C168.243 49.6688 168.827 49.2741 169.396 48.7373C169.995 48.2005 170.516 47.5216 170.958 46.7007C171.432 45.8481 171.716 44.8219 171.811 43.6221C171.906 42.4538 171.906 41.3802 171.811 40.4014C171.748 39.4225 171.606 38.57 171.385 37.8438C171.164 37.0859 170.911 36.4702 170.627 35.9966C170.343 35.5229 170.043 35.1914 169.727 35.002C169.19 34.7178 168.543 34.4967 167.785 34.3389C167.027 34.1494 166.38 34.181 165.843 34.4336C165.591 34.5599 165.275 34.8283 164.896 35.2388C164.517 35.6493 164.138 36.1702 163.759 36.8018C163.38 37.4017 163.033 38.0964 162.717 38.8857C162.433 39.6751 162.228 40.4961 162.102 41.3486C161.975 42.2012 161.944 43.1169 162.007 44.0957C162.102 45.0745 162.307 46.006 162.623 46.8901C162.938 47.7427 163.38 48.4847 163.949 49.1162C164.549 49.7161 165.306 50.0635 166.222 50.1582ZM195.019 30.9287C196.029 30.7708 196.85 30.6445 197.482 30.5498C198.145 30.4235 198.682 30.3288 199.092 30.2656C199.566 30.1709 199.929 30.092 200.182 30.0288C200.434 29.9657 200.797 29.8709 201.271 29.7446C201.681 29.6183 202.218 29.4762 202.881 29.3184C203.544 29.1289 204.381 28.8763 205.392 28.5605C205.139 28.8763 204.934 29.1605 204.776 29.4131C204.65 29.6341 204.523 29.8236 204.397 29.9814C204.271 30.1709 204.16 30.3446 204.065 30.5024C203.971 30.6603 203.876 30.8971 203.781 31.2129C203.718 31.4655 203.639 31.8286 203.544 32.3022C203.45 32.7443 203.371 33.3285 203.308 34.0547C205.013 32.9811 206.576 32.1759 207.997 31.6392C209.449 31.1024 210.712 30.7235 211.786 30.5024C213.049 30.2498 214.185 30.1551 215.196 30.2183C216.459 30.313 217.627 30.5972 218.701 31.0708C219.806 31.5129 220.8 32.0496 221.685 32.6812C222.569 33.3127 223.342 34.0073 224.005 34.7651C224.668 35.5229 225.189 36.2808 225.568 37.0386C225.821 37.5438 225.979 38.27 226.042 39.2173C226.137 40.1646 226.042 41.175 225.758 42.2485C225.474 43.3221 224.968 44.3799 224.242 45.4219C223.548 46.4323 222.553 47.2375 221.258 47.8374C219.016 48.8478 216.79 49.4162 214.58 49.5425C213.633 49.6056 212.654 49.5741 211.644 49.4478C210.665 49.3215 209.67 49.0531 208.66 48.6426C207.681 48.2321 206.734 47.6479 205.818 46.8901C204.902 46.1007 204.065 45.0903 203.308 43.8589C203.055 45.4692 202.866 46.8743 202.739 48.0742C202.645 49.2425 202.581 50.2214 202.55 51.0107C202.518 51.9264 202.518 52.7 202.55 53.3315C202.613 53.9631 202.739 54.6419 202.929 55.3682C203.087 55.9997 203.308 56.7259 203.592 57.5469C203.908 58.3994 204.302 59.2835 204.776 60.1992C204.586 60.1361 204.318 60.0887 203.971 60.0571C203.655 60.0571 203.323 60.0887 202.976 60.1519C202.597 60.215 202.171 60.2782 201.697 60.3413C201.255 60.436 200.766 60.5465 200.229 60.6729C199.787 60.7676 199.266 60.8781 198.666 61.0044C198.098 61.1623 197.514 61.3359 196.914 61.5254C197.261 61.1149 197.529 60.6413 197.719 60.1045C197.94 59.5993 198.113 59.1257 198.24 58.6836C198.366 58.1468 198.477 57.61 198.571 57.0732C198.603 56.5996 198.65 55.6997 198.713 54.3735C198.808 53.0789 198.887 51.5791 198.95 49.874C199.013 48.1374 199.061 46.3218 199.092 44.4272C199.155 42.5327 199.187 40.7803 199.187 39.1699C199.219 37.528 199.219 36.1387 199.187 35.002C199.155 33.8652 199.092 33.2021 198.998 33.0127C198.871 32.7917 198.634 32.5549 198.287 32.3022C198.003 32.0812 197.592 31.8602 197.056 31.6392C196.55 31.4181 195.872 31.1813 195.019 30.9287ZM206.292 39.5488C206.07 40.2751 206.023 40.9855 206.149 41.6802C206.276 42.3748 206.591 43.0221 207.097 43.6221C207.633 44.222 208.375 44.7588 209.323 45.2324C210.302 45.6745 211.517 46.006 212.97 46.2271C214.422 46.4481 215.527 46.4165 216.285 46.1323C217.043 45.8481 217.596 45.4061 217.943 44.8062C218.322 44.1746 218.574 43.4484 218.701 42.6274C218.827 41.7749 218.985 40.8908 219.174 39.9751C219.364 39.091 219.332 38.1911 219.08 37.2754C218.827 36.3281 218.464 35.4756 217.99 34.7178C217.548 33.96 217.043 33.3442 216.475 32.8706C215.938 32.3654 215.464 32.1128 215.054 32.1128C214.075 32.1128 213.112 32.3654 212.165 32.8706C211.217 33.3758 210.349 34.0073 209.56 34.7651C208.77 35.5229 208.076 36.3439 207.476 37.228C206.907 38.0806 206.513 38.8542 206.292 39.5488ZM229.073 54.3262C229.389 53.8525 229.642 53.4105 229.831 53C230.021 52.5895 230.178 52.2422 230.305 51.958C230.431 51.6107 230.526 51.2949 230.589 51.0107C230.62 50.8213 230.636 50.2687 230.636 49.353C230.636 48.4373 230.605 47.2848 230.542 45.8955C230.51 44.5062 230.463 42.9432 230.399 41.2065C230.368 39.4699 230.305 37.7017 230.21 35.9019C230.147 34.1021 230.068 32.3496 229.973 30.6445C229.91 28.9395 229.847 27.408 229.784 26.0503C229.721 24.661 229.657 23.5243 229.594 22.6401C229.531 21.756 229.484 21.2508 229.452 21.1245C229.389 20.9351 229.278 20.7456 229.121 20.5562C228.805 20.1772 228.268 19.8141 227.51 19.4668C229.121 19.0563 230.352 18.7248 231.205 18.4722C231.71 18.3459 232.152 18.2196 232.531 18.0933C232.878 17.967 233.225 17.8407 233.573 17.7144C233.857 17.5881 234.173 17.446 234.52 17.2881C234.867 17.0986 235.183 16.8934 235.467 16.6724C235.309 17.5881 235.183 18.4722 235.088 19.3247C234.994 20.1772 234.915 20.9666 234.852 21.6929C234.788 22.5138 234.757 23.3032 234.757 24.061C234.599 25.6082 234.504 27.2975 234.473 29.1289C234.473 30.9287 234.488 32.7601 234.52 34.623C234.552 36.486 234.615 38.3016 234.709 40.0698C234.804 41.8381 234.899 43.4484 234.994 44.9009C235.12 46.3218 235.23 47.5374 235.325 48.5479C235.451 49.5267 235.546 50.1582 235.609 50.4424C235.736 50.916 235.862 51.3739 235.988 51.8159C236.115 52.1948 236.257 52.5895 236.415 53C236.572 53.4421 236.762 53.7894 236.983 54.042H232.389C231.978 54.042 231.583 54.0578 231.205 54.0894C230.857 54.1209 230.494 54.1525 230.115 54.1841C229.736 54.2157 229.389 54.263 229.073 54.3262ZM242.24 33.8179C242.398 33.6284 242.493 33.2811 242.524 32.7759C242.588 32.2391 242.714 31.6392 242.903 30.9761C243.124 30.313 243.487 29.6183 243.993 28.8921C244.498 28.1659 245.319 27.487 246.456 26.8555C247.561 26.224 248.634 25.8451 249.676 25.7188C250.718 25.5924 251.713 25.6398 252.66 25.8608C253.607 26.0819 254.492 26.4292 255.312 26.9028C256.165 27.3765 256.939 27.8975 257.633 28.4658C258.107 28.8447 258.486 29.3973 258.77 30.1235C259.054 30.8182 259.275 31.6076 259.433 32.4917C259.591 33.3758 259.701 34.3073 259.765 35.2861C259.859 36.2334 259.923 37.1649 259.954 38.0806C259.986 38.9647 260.001 39.7856 260.001 40.5435C260.033 41.2697 260.096 41.8696 260.191 42.3433C260.317 43.0379 260.538 43.6379 260.854 44.1431C261.17 44.6167 261.517 45.0272 261.896 45.3745C262.275 45.6903 262.654 45.9429 263.033 46.1323C263.412 46.3218 263.743 46.4639 264.027 46.5586C264.217 46.6533 264.39 46.7165 264.548 46.748C264.864 46.8743 265.085 46.8743 265.211 46.748C265.022 47.1901 264.848 47.569 264.69 47.8848C264.533 48.2005 264.406 48.4689 264.312 48.6899C264.185 48.9425 264.075 49.1478 263.98 49.3057C263.885 49.4951 263.775 49.6688 263.648 49.8267C263.554 49.9845 263.427 50.1582 263.27 50.3477C263.112 50.5371 262.954 50.7424 262.796 50.9634C262.385 50.8055 261.991 50.616 261.612 50.395C261.264 50.174 260.949 49.9688 260.665 49.7793C260.317 49.5583 260.001 49.3372 259.717 49.1162C259.433 48.8952 259.165 48.6426 258.912 48.3584C258.691 48.1058 258.454 47.8374 258.202 47.5532C257.981 47.269 257.791 46.9533 257.633 46.606C257.444 47.0164 256.986 47.6006 256.26 48.3584C255.565 49.1162 254.649 49.8109 253.513 50.4424C252.376 51.0423 251.05 51.4686 249.534 51.7212C248.05 51.9738 246.408 51.8001 244.608 51.2002C243.819 50.9476 243.077 50.5845 242.382 50.1108C241.688 49.6056 241.088 49.0057 240.583 48.311C240.109 47.6164 239.762 46.827 239.541 45.9429C239.351 45.0272 239.367 44.0168 239.588 42.9116C239.809 41.8065 240.204 40.875 240.772 40.1172C241.34 39.3594 242.019 38.7437 242.809 38.27C243.598 37.7964 244.482 37.4333 245.461 37.1807C246.44 36.9281 247.45 36.7544 248.492 36.6597C249.313 36.6281 250.134 36.6755 250.955 36.8018C251.65 36.9281 252.376 37.1649 253.134 37.5122C253.892 37.828 254.539 38.3174 255.076 38.9805C255.044 37.307 254.981 35.9808 254.886 35.002C254.823 33.9915 254.76 33.2179 254.697 32.6812C254.57 32.0496 254.46 31.6076 254.365 31.355C254.207 31.134 254.034 30.8813 253.844 30.5972C253.686 30.313 253.481 30.0604 253.229 29.8394C252.976 29.5868 252.66 29.3815 252.281 29.2236C251.902 29.0658 251.46 29.0026 250.955 29.0342C250.418 29.0658 249.992 29.2078 249.676 29.4604C249.361 29.7131 249.108 30.013 248.918 30.3604C248.761 30.6761 248.666 31.0234 248.634 31.4023C248.603 31.7812 248.618 32.1128 248.682 32.397C248.745 32.5864 248.84 32.7917 248.966 33.0127C249.092 33.2021 249.266 33.4074 249.487 33.6284C249.708 33.8494 250.008 34.0389 250.387 34.1968C249.66 34.2915 249.013 34.3704 248.445 34.4336C247.876 34.4652 247.387 34.5125 246.977 34.5757C246.503 34.6388 246.092 34.6862 245.745 34.7178C245.398 34.7493 244.987 34.8125 244.514 34.9072C244.103 34.9704 243.598 35.0493 242.998 35.144C242.398 35.2388 241.703 35.3651 240.914 35.5229C241.104 35.3019 241.277 35.0967 241.435 34.9072C241.593 34.6862 241.735 34.4967 241.861 34.3389C241.988 34.1494 242.114 33.9757 242.24 33.8179ZM249.345 39.4541C248.776 39.4857 248.208 39.6278 247.64 39.8804C247.071 40.1014 246.566 40.4329 246.124 40.875C245.682 41.2855 245.303 41.7749 244.987 42.3433C244.703 42.88 244.561 43.48 244.561 44.1431C244.561 44.8062 244.719 45.3903 245.035 45.8955C245.382 46.3691 245.824 46.7638 246.361 47.0796C246.929 47.3953 247.529 47.5848 248.161 47.6479C248.824 47.7111 249.471 47.6479 250.103 47.4585C250.702 47.2375 251.271 46.8901 251.808 46.4165C252.344 45.9113 252.802 45.3745 253.181 44.8062C253.56 44.2062 253.828 43.6221 253.986 43.0537C254.144 42.4538 254.16 41.9644 254.034 41.5854C253.781 40.7645 253.213 40.1961 252.329 39.8804C251.444 39.533 250.45 39.391 249.345 39.4541ZM262.322 28.7974C262.954 28.8921 263.522 28.971 264.027 29.0342C264.501 29.0658 264.927 29.0973 265.306 29.1289C265.717 29.1605 266.111 29.1763 266.49 29.1763C266.838 29.1763 267.28 29.1605 267.816 29.1289C268.258 29.0973 268.827 29.0658 269.521 29.0342C270.248 28.971 271.1 28.8921 272.079 28.7974C272.016 28.9237 271.89 29.3184 271.7 29.9814C271.511 30.613 271.321 31.4023 271.132 32.3496C270.942 33.2653 270.769 34.2915 270.611 35.4282C270.485 36.5334 270.421 37.6385 270.421 38.7437C270.453 39.8172 270.595 40.8434 270.848 41.8223C271.1 42.7695 271.511 43.5431 272.079 44.1431C273.279 45.3745 274.337 46.1165 275.252 46.3691C276.2 46.6217 277.021 46.5902 277.715 46.2744C278.41 45.9587 278.978 45.485 279.42 44.8535C279.862 44.222 280.178 43.6379 280.368 43.1011C280.841 41.6486 281.125 40.1172 281.22 38.5068C281.283 37.1175 281.173 35.5703 280.889 33.8652C280.604 32.1602 279.926 30.4235 278.852 28.6553C279.673 28.7184 280.383 28.7658 280.983 28.7974C281.583 28.8289 282.104 28.8605 282.546 28.8921C283.052 28.9237 283.494 28.9552 283.873 28.9868C284.22 29.0184 284.63 29.0184 285.104 28.9868C285.514 28.9868 286.004 28.971 286.572 28.9395C287.172 28.8763 287.835 28.8132 288.562 28.75C288.688 31.8444 288.798 34.6073 288.893 37.0386C288.988 39.4383 289.051 41.5697 289.083 43.4326C289.146 45.264 289.177 46.8586 289.177 48.2163C289.177 49.5425 289.177 50.6634 289.177 51.5791C289.146 53.7578 289.051 55.1945 288.893 55.8892C288.64 56.868 288.183 57.8468 287.52 58.8257C286.888 59.8045 286.083 60.6729 285.104 61.4307C284.125 62.2201 282.988 62.82 281.694 63.2305C280.431 63.6725 279.042 63.8304 277.526 63.7041C276.042 63.5778 274.858 63.3726 273.974 63.0884C273.121 62.8358 272.442 62.5358 271.937 62.1885C271.463 61.8411 271.116 61.478 270.895 61.0991C270.706 60.7202 270.563 60.3255 270.469 59.915C270.374 59.5361 270.279 59.173 270.185 58.8257C270.09 58.4784 269.9 58.1784 269.616 57.9258C269.269 57.6416 268.906 57.3574 268.527 57.0732C268.18 56.8206 267.801 56.568 267.39 56.3154C267.011 56.0628 266.632 55.8576 266.253 55.6997L276.342 55.1313C276.058 55.5103 275.852 55.8576 275.726 56.1733C275.6 56.4891 275.521 56.7575 275.489 56.9785C275.458 57.2627 275.473 57.4995 275.537 57.689C275.663 58.0679 275.884 58.4784 276.2 58.9204C276.547 59.394 276.989 59.7572 277.526 60.0098C278.063 60.2939 278.694 60.3887 279.42 60.2939C280.178 60.1992 281.031 59.8045 281.978 59.1099C282.767 58.5099 283.431 57.5469 283.967 56.2207C284.409 55.084 284.757 53.4894 285.009 51.437C285.262 49.3846 285.215 46.6849 284.867 43.3379C284.299 45.2956 283.525 46.7954 282.546 47.8374C281.568 48.8794 280.589 49.6372 279.61 50.1108C278.473 50.6792 277.289 50.9792 276.058 51.0107C274.416 50.9476 273.011 50.7424 271.842 50.395C270.674 50.0161 269.711 49.5109 268.953 48.8794C268.195 48.2479 267.595 47.5059 267.153 46.6533C266.743 45.7692 266.443 44.7904 266.253 43.7168C266.064 42.6432 265.969 41.5697 265.969 40.4961C265.969 39.391 265.969 38.3647 265.969 37.4175C266.001 36.4702 266.017 35.6177 266.017 34.8599C266.017 34.0705 265.938 33.439 265.78 32.9653C265.59 32.4917 265.338 32.0181 265.022 31.5444C264.769 31.134 264.422 30.6919 263.98 30.2183C263.506 29.7131 262.954 29.2394 262.322 28.7974ZM302.06 28.5132C301.492 28.6079 300.923 28.7026 300.355 28.7974C299.787 28.8921 299.281 28.971 298.839 29.0342C298.303 29.1289 297.797 29.2078 297.324 29.271C296.85 29.3657 296.329 29.4447 295.761 29.5078C295.287 29.571 294.735 29.6341 294.103 29.6973C293.472 29.7288 292.808 29.7604 292.114 29.792C292.177 29.5394 292.24 29.2236 292.303 28.8447C292.398 28.4658 292.477 28.1027 292.54 27.7554C292.635 27.3449 292.714 26.9186 292.777 26.4766C292.872 25.9082 292.935 25.4346 292.966 25.0557C293.029 24.6768 293.077 24.3452 293.108 24.061C293.172 23.7769 293.25 23.5243 293.345 23.3032C293.44 23.0822 293.614 22.8612 293.866 22.6401C294.245 22.2928 294.719 21.9139 295.287 21.5034C295.887 21.0614 296.597 20.6825 297.418 20.3667C298.271 20.0194 299.25 19.751 300.355 19.5615C301.492 19.3721 302.802 19.3247 304.286 19.4194C305.77 19.5142 307.002 19.672 307.98 19.8931C308.959 20.1141 309.78 20.3983 310.443 20.7456C311.106 21.0614 311.643 21.4403 312.054 21.8823C312.496 22.2928 312.906 22.7822 313.285 23.3506C313.664 23.9189 314.027 24.6136 314.375 25.4346C314.753 26.224 315.069 27.0607 315.322 27.9448C315.574 28.8289 315.716 29.7131 315.748 30.5972C315.811 31.4813 315.732 32.2707 315.511 32.9653C315.227 33.5337 314.674 34.1021 313.854 34.6704C313.127 35.1756 312.085 35.744 310.728 36.3755C309.401 37.007 307.554 37.6385 305.186 38.27C305.249 38.87 305.344 39.4067 305.47 39.8804C305.597 40.354 305.723 40.7645 305.849 41.1118C305.975 41.5223 306.133 41.8854 306.323 42.2012C306.512 42.4854 306.686 42.8011 306.844 43.1484C307.002 43.4326 307.16 43.7484 307.317 44.0957C307.507 44.4115 307.681 44.7114 307.838 44.9956L298.555 46.1323C298.839 45.785 299.06 45.4219 299.218 45.043C299.408 44.6325 299.55 44.2536 299.645 43.9062C299.771 43.4958 299.834 43.0853 299.834 42.6748C299.834 42.2327 299.802 41.696 299.739 41.0645C299.676 40.5277 299.581 39.8488 299.455 39.0278C299.36 38.1753 299.187 37.1807 298.934 36.0439C300.418 35.9808 301.634 35.8229 302.581 35.5703C303.56 35.2861 304.349 35.002 304.949 34.7178C305.644 34.3704 306.181 34.0073 306.56 33.6284C306.844 33.2811 307.081 32.7443 307.27 32.0181C307.491 31.2603 307.633 30.4235 307.696 29.5078C307.791 28.5921 307.791 27.6606 307.696 26.7134C307.602 25.7345 307.381 24.8662 307.033 24.1084C306.686 23.3506 306.196 22.7507 305.565 22.3086C304.965 21.835 304.191 21.6297 303.244 21.6929C301.823 21.8192 300.75 22.0876 300.023 22.498C299.297 22.877 298.792 23.3032 298.508 23.7769C298.224 24.2505 298.082 24.7241 298.082 25.1978C298.113 25.6714 298.16 26.0187 298.224 26.2397C298.255 26.4608 298.429 26.6818 298.745 26.9028C298.997 27.1239 299.376 27.3607 299.881 27.6133C300.418 27.8659 301.144 28.1659 302.06 28.5132ZM302.96 47.79C304.097 47.6322 304.981 47.8216 305.612 48.3584C306.275 48.8952 306.591 49.6372 306.56 50.5845C306.528 51.0581 306.433 51.437 306.275 51.7212C306.118 52.0054 305.896 52.2264 305.612 52.3843C305.36 52.5106 305.044 52.6211 304.665 52.7158C304.318 52.779 303.907 52.8421 303.434 52.9053C302.96 53 302.502 52.9842 302.06 52.8579C301.618 52.7 301.223 52.479 300.876 52.1948C300.529 51.9106 300.244 51.5949 300.023 51.2476C299.834 50.9002 299.739 50.5529 299.739 50.2056C299.739 49.8267 299.834 49.5109 300.023 49.2583C300.244 48.9741 300.513 48.7373 300.829 48.5479C301.176 48.3268 301.523 48.1689 301.871 48.0742C302.25 47.9479 302.613 47.8532 302.96 47.79Z" fill="white"/>
<defs>
<linearGradient id="paint0_linear_83_1338" x1="270.723" y1="-118.355" x2="245.024" y2="-7.24481" gradientUnits="userSpaceOnUse">
<stop stop-color="#CF5C2B"/>
<stop offset="1" stop-color="#59173E"/>
</linearGradient>
<linearGradient id="paint1_linear_83_1338" x1="201.129" y1="-35.3566" x2="178.968" y2="152.415" gradientUnits="userSpaceOnUse">
<stop stop-color="#CF5C2B"/>
<stop offset="1" stop-color="#59173E"/>
</linearGradient>
<linearGradient id="paint2_linear_83_1338" x1="200.221" y1="-29.6435" x2="171.765" y2="203.826" gradientUnits="userSpaceOnUse">
<stop stop-color="#CF5C2B"/>
<stop offset="1" stop-color="#59173E"/>
</linearGradient>
<linearGradient id="paint3_linear_83_1338" x1="265.605" y1="-1.22305" x2="258.361" y2="29.8897" gradientUnits="userSpaceOnUse">
<stop stop-color="#CF5C2B"/>
<stop offset="1" stop-color="#59173E"/>
</linearGradient>
<linearGradient id="paint4_linear_83_1338" x1="268.059" y1="-3.13043" x2="250.45" y2="62.4663" gradientUnits="userSpaceOnUse">
<stop stop-color="#CF5C2B"/>
<stop offset="1" stop-color="#59173E"/>
</linearGradient>
<linearGradient id="paint5_linear_83_1338" x1="139.993" y1="29.0334" x2="132.749" y2="60.1461" gradientUnits="userSpaceOnUse">
<stop stop-color="#CF5C2B"/>
<stop offset="1" stop-color="#59173E"/>
</linearGradient>
<linearGradient id="paint6_linear_83_1338" x1="178.373" y1="-22.5339" x2="135.137" y2="135.522" gradientUnits="userSpaceOnUse">
<stop stop-color="#CF5C2B"/>
<stop offset="1" stop-color="#59173E"/>
</linearGradient>
<linearGradient id="paint7_linear_83_1338" x1="231.218" y1="-36.6081" x2="218.193" y2="2.97259" gradientUnits="userSpaceOnUse">
<stop stop-color="#CF5C2B"/>
<stop offset="1" stop-color="#59173E"/>
</linearGradient>
<linearGradient id="paint8_linear_83_1338" x1="139.748" y1="-78.3739" x2="121.368" y2="-5.47841" gradientUnits="userSpaceOnUse">
<stop stop-color="#CF5C2B"/>
<stop offset="1" stop-color="#59173E"/>
</linearGradient>
<linearGradient id="paint9_linear_83_1338" x1="172.707" y1="-70.0638" x2="154.327" y2="2.8318" gradientUnits="userSpaceOnUse">
<stop stop-color="#CF5C2B"/>
<stop offset="1" stop-color="#59173E"/>
</linearGradient>
<linearGradient id="paint10_linear_83_1338" x1="340.677" y1="-27.6915" x2="320.82" y2="45.3331" gradientUnits="userSpaceOnUse">
<stop stop-color="#CF5C2B"/>
<stop offset="1" stop-color="#59173E"/>
</linearGradient>
</defs>
</svg>
