<svg width="200" height="80" viewBox="0 0 200 80" fill="none" xmlns="http://www.w3.org/2000/svg">
<path d="M199.894 63.7399C199.784 62.0881 199.685 60.4353 199.593 58.7814C199.497 57.0399 199.4 55.2984 199.31 53.5569C199.249 52.3671 199.161 51.1039 199.134 49.8834C199.111 48.8589 199.489 47.1765 198.988 46.2592C198.689 45.7097 198.044 45.5477 197.47 45.4372C196.716 45.2916 195.961 45.1471 195.207 45.0015C196.219 44.7465 197.214 44.417 198.184 44.0153C198.401 43.9255 198.629 43.8237 198.771 43.6234C198.899 43.4439 198.942 43.2097 198.975 42.9853C199.312 40.7184 199.099 38.3114 199.09 36.0215C199.081 33.6834 199.072 31.3465 199.063 29.0084C199.049 26.7842 199.044 24.5589 199.028 22.3347C199.023 21.598 199.303 19.9988 198.975 19.3475C198.705 18.8112 198.083 18.8462 197.585 18.7871C197.085 18.7291 196.582 18.7291 196.082 18.7619C195.334 18.8123 194.592 18.9371 193.852 19.063C194.822 18.7652 195.824 18.6251 196.802 18.3657C197.436 18.1971 198.063 17.976 198.641 17.6389C198.988 17.4364 199.379 17.2416 199.579 16.8464C199.663 16.68 199.701 16.4709 199.738 16.286C199.819 15.8755 199.846 15.4552 199.869 15.037C199.934 13.8844 199.974 12.7307 199.99 11.5759C199.998 10.9936 200.006 10.4091 199.995 9.82676C199.988 9.44693 199.857 9.0901 199.826 8.70918C199.698 7.13734 199.122 5.62791 198.196 4.42277C197.276 3.22309 196.026 2.34632 194.644 1.9457C194.132 1.79684 193.604 1.71363 193.075 1.69393C130.749 -0.522621 69.626 -0.600327 9.82592 1.67643C9.59378 1.68518 9.33174 1.66108 9.10856 1.72567C8.86446 1.79681 8.62334 1.90192 8.38621 1.99387C7.89502 2.18323 7.40783 2.39009 6.93756 2.63747C6.02292 3.118 5.16206 3.7649 4.57223 4.68546C4.23447 5.21415 3.99934 5.8118 3.6835 6.35581C3.52508 6.62946 3.31287 6.8418 3.18235 7.12859C2.54968 8.52091 1.91101 9.93076 1.03723 11.1644C0.184363 12.3706 -0.0776466 14.2752 0.018998 15.7507C0.150514 17.7582 0.194343 19.7887 0.356745 21.7885C0.615793 24.9825 0.378647 28.182 0.693489 31.3946C0.738324 31.8555 0.807078 32.359 1.12391 32.6644C1.34111 32.8734 1.63704 32.949 1.92 33.0168C2.84061 33.2379 3.76023 33.458 4.68084 33.6791C3.54203 34.4902 1.84326 34.5515 1.24347 35.888C1.05018 36.3181 1.01631 36.8107 0.986418 37.2901C0.877818 38.9999 0.73236 40.7064 0.626749 42.4172C0.579921 43.1856 0.541078 43.9551 0.517166 44.7246C0.495247 45.4602 0.438427 46.1618 0.375658 46.893C0.229196 48.5896 -0.164343 50.8062 0.308917 52.4656C0.766235 54.0702 2.58853 54.137 3.85089 54.5267C3.18733 54.6099 2.67919 55.2031 2.29162 55.8008C2.09633 56.1018 1.95785 56.4247 1.77253 56.7323C1.60913 57.0027 1.4597 57.2818 1.3242 57.5697C1.05319 58.1454 0.836961 58.7518 0.680536 59.3768C0.574925 59.7961 0.516157 60.1244 0.498223 60.5601C0.482282 60.9487 0.467331 61.3362 0.454378 61.7248C0.428474 62.5019 0.406566 63.278 0.391621 64.0551C0.360734 65.6084 0.349776 67.1627 0.361732 68.717C0.372692 70.221 0.0488713 71.6801 0.630732 73.1643C1.20661 74.6322 2.19698 75.9019 3.44041 76.7338C4.44671 77.407 5.58351 77.7682 6.75719 77.8394C66.902 80.7444 128.039 80.7017 190.131 77.8218C191.771 77.7452 193.352 77.0261 194.56 75.8034C195.141 75.2145 195.644 74.6979 196.075 73.9634C196.6 73.068 197.092 72.1497 197.551 71.2105C198.67 68.9184 200.068 66.3888 199.894 63.7399Z" fill="url(#paint0_linear_85_1816)"/>
<path d="M193.21 72.016C131.115 74.8893 69.9818 74.9331 9.83985 72.027C7.16468 72.027 4.66982 69.9243 3.67847 67.2721C3.23809 66.1052 3.13746 64.818 3.20721 63.5625C3.21717 63.3425 3.2371 63.1224 3.29788 62.9024C3.38755 62.5609 3.52803 62.2643 3.56788 61.9118C3.58781 61.7247 3.60773 61.5484 3.62766 61.3613C3.72829 60.3597 3.75818 59.3362 3.83789 58.3347C3.8877 57.7732 3.94849 57.1788 4.08797 56.6403C4.24838 56.0131 4.50842 55.4406 4.97969 55.0553C6.9634 53.4265 10.8302 53.4484 13.7156 53.3817C14.2765 53.3598 14.7976 53.3488 15.2689 53.316C16.5213 53.2273 17.7737 53.1945 19.036 53.2054C16.061 53.1945 13.0849 52.9077 10.1597 52.3473C8.76677 52.0944 7.38487 51.7638 6.02188 51.3785C5.69109 51.291 5.34036 51.1695 5.03049 51.0042C4.60008 50.7951 4.22944 50.4864 4.03814 50.0245C3.87773 49.6283 3.8877 49.1883 3.89766 48.7701C3.90763 48.3629 3.85782 47.9448 3.87775 47.5376C3.90764 46.6685 4.00827 45.8202 4.08797 44.962C4.16768 44.2681 4.23843 43.5642 4.27828 42.8593C4.37891 40.9887 4.48849 39.1279 4.61901 37.2681C4.65887 36.7066 4.71965 36.0904 5.07933 35.6941C5.29952 35.4522 5.58048 35.3307 5.86045 35.2213C6.62165 34.9137 7.40378 34.6816 8.20483 34.5382C8.57547 34.4616 8.97602 34.4616 9.33669 34.351C9.75714 34.2076 10.0879 34.1091 10.5492 34.0544C14.9371 33.4929 19.315 32.9314 23.7039 32.3709C24.225 32.3053 24.756 32.2385 25.2771 32.1728C18.6644 31.2928 12.0527 30.3897 5.44 29.5096C5.14907 29.4659 4.85913 29.433 4.5682 29.3882C4.30816 29.3553 4.02719 29.3115 3.84686 29.1025C3.82693 29.0915 3.81696 29.0696 3.80699 29.0587C3.67647 28.8715 3.65656 28.6296 3.63663 28.3877C3.33574 24.4581 3.67647 20.4081 3.47621 16.4457C3.45628 16.2257 3.40648 15.1136 3.34571 13.8592C3.25504 12.0432 3.14544 9.95147 3.09562 9.95147C2.81465 5.59279 5.86046 1.82849 9.83784 1.6862C69.6291 -0.592748 130.752 -0.515055 193.077 1.69712C197.075 1.84051 200.15 5.62672 199.84 10.0073C199.729 11.5036 200 12.9353 199.669 14.4426C199.599 14.795 199.489 15.1584 199.249 15.4003C199.029 15.6094 198.738 15.686 198.448 15.7638C197.696 15.9619 196.945 16.171 196.183 16.3691C195.181 16.6329 194.189 16.8748 193.177 16.9963C187.166 17.7012 181.165 18.405 175.163 19.1209C175.003 19.1318 174.842 19.1537 174.682 19.1756C174.492 19.1975 174.291 19.2194 174.101 19.2413C174.582 19.2303 175.053 19.2194 175.534 19.2194C183.058 19.076 190.602 18.9446 198.126 18.8012C198.336 18.8012 198.566 18.8013 198.737 18.9447C198.927 19.099 198.977 19.3847 199.008 19.6495C199.047 20.002 199.057 20.3424 199.047 20.673C199.038 21.7183 198.867 22.7308 198.867 23.7992C198.867 24.746 199.077 25.6698 199.067 26.6276C199.047 28.0144 199.008 29.4122 198.957 30.8319C198.836 34.0128 198.636 37.2375 198.315 40.4184C198.265 40.8803 198.205 41.3761 197.925 41.7166C197.704 41.9804 197.384 42.1237 197.073 42.2343C196.882 42.3109 196.682 42.3777 196.482 42.4215C192.064 43.8083 187.215 42.7072 182.677 43.5664C182.376 43.6102 182.076 43.6759 181.785 43.7536C181.684 43.7755 181.585 43.8083 181.484 43.8302C181.855 43.8631 182.225 43.8849 182.596 43.9287C187.565 44.325 192.524 44.8756 197.463 45.5685C198.044 45.6451 198.686 45.7666 199.027 46.2843C199.288 46.6805 199.298 47.2093 199.298 47.6931V49.2999C199.298 50.9177 199.298 52.5465 199.367 54.1654C199.458 56.3119 199.578 58.4463 199.708 60.5928C199.768 61.6382 199.829 62.6955 199.898 63.7409C200.192 68.0755 197.166 71.8288 193.21 72.016Z" fill="url(#paint1_linear_85_1816)"/>
<path d="M199.066 26.6249C199.046 28.0117 199.006 29.4095 198.955 30.8292C196.411 31.0821 193.906 31.3021 191.461 31.5998C190.893 31.6688 190.324 31.7366 189.755 31.8023C187.65 32.0464 185.542 32.2664 183.432 32.4667C182.377 32.5674 181.322 32.6572 180.267 32.7535C179.596 32.8148 178.99 33.1082 178.33 33.1892C177.41 33.3019 176.411 33.0392 175.488 32.979C174.457 32.9122 173.425 32.8893 172.394 32.9024C170.323 32.9287 168.254 33.1027 166.197 33.361C162.072 33.8798 157.991 34.738 153.898 35.49C147.338 36.694 140.734 37.6047 134.107 38.2199C137.717 38.6129 141.303 39.2598 144.838 40.1551C143.512 40.2745 142.186 40.3785 140.859 40.4693C136.647 40.7561 132.426 40.9039 128.206 40.9794C123.982 41.0549 119.758 41.0571 115.533 41.0516C111.309 41.0461 107.083 41.0319 102.859 41.0746C98.6386 41.1173 94.4171 41.2158 90.2006 41.4369C88.0934 41.5475 85.9871 41.6876 83.8839 41.866C83.3578 41.9109 82.8317 41.958 82.3067 42.0072C81.667 42.0674 81.0573 42.2677 80.4096 42.3498C75.3732 42.9945 70.3536 43.8078 65.378 44.8838C57.6434 46.5563 49.879 48.1862 42.015 48.7805C40.5922 48.8791 39.1695 48.9787 37.7467 49.0772C30.9746 50.5746 23.6605 50.8822 17.018 51.7743C14.7643 52.083 12.4597 52.2471 10.1552 52.3467C8.76235 52.0939 7.38045 51.7633 6.01746 51.378C5.68668 51.2905 5.33598 51.169 5.02612 51.0037C4.5957 50.7946 4.22506 50.4859 4.03377 50.024C3.87336 49.6278 3.8833 49.1877 3.89326 48.7696C3.90323 48.3624 3.85342 47.9443 3.87335 47.5371C3.90324 46.668 4.00387 45.8197 4.08357 44.9615C10.1652 44.4109 16.3963 42.4735 22.2467 41.5497C29.7611 40.3719 37.4049 39.6681 44.979 39.2051C53.5545 38.6873 62.101 39.7994 70.6466 39.7994C78.5615 39.7994 86.4663 39.0398 94.3404 38.3469C109.689 36.9819 125.017 35.5732 140.356 34.1097C137.019 34.0484 133.684 33.9499 130.349 33.8218C126.097 33.6587 121.847 33.4497 117.599 33.2099C116.608 33.1541 115.592 33.0107 114.613 33.1366C113.6 33.2669 112.569 33.2986 111.551 33.2833C109.527 33.2526 107.507 32.9691 105.542 32.4383C104.385 32.1252 103.246 31.7268 102.073 31.5013C100.094 31.1204 98.0676 31.2408 96.059 31.2123C88.5537 31.1062 81.1549 28.9235 73.6495 29.0089C71.6788 29.0319 69.713 29.2114 67.7502 29.4018C65.6639 29.6054 63.5766 29.8233 61.4813 29.8813C60.5587 29.9065 59.5883 29.9831 58.6916 29.75C57.9941 29.5693 57.2041 29.6602 56.4917 29.6394C55.2214 29.6011 53.951 29.5682 52.6817 29.5398C50.1411 29.4829 47.6004 29.4456 45.0588 29.4314C35.4312 29.3767 25.8236 29.9711 16.195 29.8824C12.0871 29.8496 7.90949 29.7499 3.84245 29.1008C3.82253 29.0899 3.81259 29.068 3.80262 29.0571C3.6721 28.8699 3.65216 28.628 3.63223 28.3861C3.33134 24.4565 3.6721 20.4065 3.47184 16.4441C3.45191 16.2241 3.40208 15.1119 3.34131 13.8575C8.25024 13.3956 13.2 13.2741 18.1089 12.8779C27.7265 12.0963 37.3441 11.7658 47.0026 11.8106C66.1382 11.9103 85.2229 13.2522 104.299 14.8481C123.384 16.4441 142.429 18.4034 161.514 19.8888C171.162 20.6375 180.82 21.0994 190.487 21.0994C193.323 21.0994 196.178 20.9122 199.043 20.6703C199.033 21.7156 198.863 22.7281 198.863 23.7965C198.866 24.7433 199.076 25.6682 199.066 26.6249ZM199.367 54.1638C199.297 52.5459 199.297 50.9172 199.297 49.2983C193.205 48.5715 187.104 47.8239 180.974 47.3609C170.464 46.5706 159.916 46.6943 149.398 47.1682C147.208 47.2667 145.055 47.3225 142.887 47.6279C141.839 47.7757 140.789 47.918 139.74 48.0537C135.542 48.5977 131.333 49.0465 127.118 49.399C125.474 49.5369 123.829 49.6595 122.183 49.7679C126.445 49.7339 130.707 49.7 134.969 49.6661C139.231 49.6321 143.493 49.5982 147.755 49.5643C149.886 49.5468 152.017 49.5303 154.148 49.5128C155.213 49.5041 156.279 49.4953 157.344 49.4877C157.794 49.4844 158.255 49.5161 158.698 49.41C158.968 49.3454 159.222 49.2239 159.497 49.179C160.449 49.0236 161.521 49.2326 162.48 49.2884C163.536 49.3508 164.592 49.4176 165.648 49.4888C167.762 49.6311 169.876 49.7909 171.989 49.9649C175.316 50.2385 178.641 50.5461 181.965 50.8734C185.592 51.2368 189.198 51.6987 192.805 52.1836C184.61 53.0418 176.414 53.9339 168.2 54.4287C149.294 55.5736 130.38 57.0152 111.444 56.608C92.7702 56.2008 74.1357 55.023 55.4505 55.0996C45.6028 55.1325 35.764 55.3087 25.9362 55.6283C18.6829 55.8593 11.3289 55.8155 4.08558 56.6408C3.9451 57.1805 3.88531 57.7748 3.83549 58.3353C3.75479 59.3368 3.7249 60.3603 3.62527 61.3618C11.6906 61.7252 19.8555 61.1199 27.8999 61.098C37.7387 61.0761 47.5765 61.1856 57.4143 61.4395C76.0587 61.9233 94.6831 63.0573 113.327 63.4207C132.293 63.7951 151.228 62.2977 170.152 61.2524C179.91 60.7127 189.738 60.7018 199.506 60.5923H199.707C199.577 58.4458 199.456 56.3103 199.367 54.1638Z" fill="url(#paint2_linear_85_1816)"/>
<path d="M148.702 16.4892C144.81 14.0986 138.349 14.8363 135.268 18.0544C133.327 20.0816 133.23 23.87 135.268 25.8841C139.759 30.3237 147.643 28.429 150.491 22.933C150.546 22.8794 150.6 22.8247 150.654 22.7711C152.828 20.6114 151.28 17.0255 148.702 16.4892Z" fill="#EB924D"/>
<path d="M149.635 14.3856C145.743 11.9951 139.282 12.7328 136.201 15.9509C134.26 17.9781 134.164 21.7665 136.201 23.7806C140.693 28.2202 148.577 26.3255 151.424 20.8295C151.479 20.7759 151.533 20.7212 151.588 20.6675C153.763 18.5079 152.213 14.922 149.635 14.3856Z" fill="url(#paint3_linear_85_1816)"/>
<path d="M148.702 15.7421C144.81 13.3515 138.349 14.0892 135.268 17.3074C133.327 19.3345 133.23 23.1229 135.268 25.137C139.759 29.5766 147.643 27.6819 150.491 22.186C150.546 22.1323 150.6 22.0776 150.654 22.0239C152.828 19.8643 151.28 16.2784 148.702 15.7421Z" fill="url(#paint4_linear_85_1816)"/>
<path d="M75.7182 52.0844C71.8265 49.6938 65.3653 50.4315 62.2846 53.6496C60.3437 55.6779 60.2471 59.4652 62.2846 61.4793C66.7761 65.9189 74.6601 64.0242 77.5076 58.5282C77.5624 58.4746 77.6162 58.4199 77.671 58.3662C79.845 56.2066 78.2967 52.6218 75.7182 52.0844Z" fill="#EB924D"/>
<path d="M76.6445 49.9809C72.7528 47.5903 66.2915 48.3281 63.2109 51.5451C61.27 53.5723 61.1734 57.3607 63.2109 59.3747C67.7023 63.8144 75.5863 61.9197 78.4339 56.4237C78.4887 56.3701 78.5425 56.3153 78.5973 56.2617C80.7713 54.1031 79.223 50.5184 76.6445 49.9809Z" fill="url(#paint5_linear_85_1816)"/>
<path d="M75.7182 51.3368C71.8265 48.9462 65.3653 49.684 62.2846 52.9021C60.3437 54.9304 60.2471 58.7177 62.2846 60.7317C66.7761 65.1714 74.6601 63.2766 77.5076 57.7807C77.5624 57.7271 77.6162 57.6723 77.671 57.6187C79.845 55.4602 78.2967 51.8743 75.7182 51.3368Z" fill="url(#paint6_linear_85_1816)"/>
<path d="M4.79621 48.605C4.77629 49.4084 4.77627 50.2447 5.01638 51.0044C4.58597 50.7953 4.21533 50.4866 4.02403 50.0247C3.86362 49.6284 3.87359 49.1884 3.88356 48.7703C3.89352 48.3631 3.84371 47.945 3.86364 47.5378C3.92342 45.9637 4.18447 44.4226 4.26417 42.8595C4.3648 40.9888 4.47438 39.128 4.6049 37.2683C4.64476 36.7068 4.70554 36.0905 5.06521 35.6943C5.2854 35.4524 5.56637 35.3309 5.84634 35.2214C6.60754 34.9138 7.38966 34.6818 8.19071 34.5384C8.56135 34.4618 8.96189 34.4618 9.32257 34.3512C9.74302 34.2078 10.0738 34.1093 10.5351 34.0546C14.923 33.493 19.3009 32.9315 23.6897 32.3711C18.981 33.4164 14.2724 34.4508 9.56369 35.4972C8.64606 35.6976 7.42156 35.6888 6.65538 36.3521C6.36544 36.6028 6.10339 36.9761 5.87224 37.2891C5.79752 37.3909 5.14293 38.8303 5.396 38.8401C8.85627 38.9671 12.3165 39.093 15.7758 39.22C13.2123 39.6775 10.6567 40.1876 8.11002 40.748C6.82574 41.0315 5.37009 41.4694 4.80217 42.7665C4.44449 43.583 4.46941 44.6864 4.58897 45.5653C4.62982 45.8631 4.72347 46.1444 4.77727 46.4388C4.90779 47.1459 4.81116 47.8924 4.79621 48.605Z" fill="#EB924D"/>
<path d="M174.668 19.1739C174.398 19.152 174.137 19.141 173.877 19.1191H175.149C174.989 19.1301 174.828 19.152 174.668 19.1739Z" fill="#EB924D"/>
<path d="M179.005 43.2119C180.227 43.3444 181.45 43.4648 182.671 43.5644C182.371 43.6082 182.071 43.6738 181.78 43.7516C180.848 43.5644 179.917 43.3772 179.005 43.2119Z" fill="#EB924D"/>
<path d="M197.048 41.2199C197.238 40.3836 197.189 39.5024 197.128 38.6443C197.017 37.0484 196.908 35.4524 196.797 33.8565C196.777 33.5479 196.737 33.2074 196.517 33.0202C196.337 32.8659 196.086 32.8659 195.865 32.8769C194.042 32.9426 192.229 33.0093 190.415 33.075C192.379 32.8878 194.323 32.3153 196.096 31.3795C196.607 31.1047 197.138 30.7632 197.328 30.1907C197.428 29.8941 197.428 29.5745 197.428 29.2549C197.398 26.745 196.997 23.9384 196.726 21.4515C195.864 20.5605 194.582 20.439 193.41 20.3624C188.662 20.0428 183.902 19.7242 179.154 19.4046C178.022 19.3159 176.75 19.2722 175.537 19.2174C183.061 19.074 190.605 18.9427 198.129 18.7993C198.339 18.7993 198.569 18.7993 198.74 18.9427C198.93 19.097 198.98 19.3827 199.011 19.6476C199.171 21.0673 198.87 22.3885 198.87 23.7972C198.87 24.744 199.081 25.6679 199.071 26.6257C199.001 31.1277 198.78 35.8268 198.319 40.4175C198.27 40.8795 198.209 41.3753 197.929 41.7157C197.709 41.9795 197.388 42.1229 197.077 42.2335C196.887 42.3101 196.686 42.3768 196.486 42.4206C196.757 42.078 196.947 41.649 197.048 41.2199Z" fill="#EB924D"/>
<path d="M3.47621 16.4442C3.44632 15.9046 3.17533 9.94998 3.09562 9.94998C2.81465 5.59131 5.86045 1.82701 9.83782 1.68471C69.6289 -0.59423 130.752 -0.516503 193.077 1.69567C197.074 1.83906 200.15 5.62527 199.839 10.0058C199.728 11.5021 199.999 12.9338 199.669 14.4411C199.599 14.7936 199.488 15.157 199.248 15.3989C199.028 15.6079 198.737 15.6846 198.447 15.7623C197.698 15.9593 196.953 16.1837 196.2 16.361C196.853 15.7174 197.597 14.9457 197.9 14.0131C198.106 13.3794 197.938 12.8332 197.746 12.2279C197.448 11.2931 197.394 10.401 197.359 9.41585C197.316 8.20413 197.513 6.46153 196.634 5.49391C195.974 4.7682 195.103 4.13114 194.271 3.68126C192.217 2.57134 189.848 2.34258 187.594 2.24407C187.481 2.23969 187.367 2.23419 187.254 2.23091C183.091 2.08095 178.915 2.07 174.766 2.53302C174.262 2.58884 173.821 2.74429 173.336 2.84719C172.726 2.97635 172.007 2.81544 171.39 2.78041C169.979 2.69941 168.567 2.62936 167.155 2.56916C164.332 2.44985 161.506 2.37104 158.68 2.33383C156.562 2.30646 154.445 2.30206 152.327 2.29768C151.658 2.29659 150.99 2.2944 150.322 2.29331C149.035 2.29002 147.749 2.28785 146.461 2.28566C144.677 2.28237 142.893 2.27799 141.11 2.2747C141.025 2.2747 140.941 2.2747 140.856 2.2747C138.029 2.26923 135.203 2.26267 132.376 2.2572C130.963 2.25391 129.55 2.25173 128.137 2.24845C127.493 2.24735 126.772 2.34696 126.138 2.21561C125.495 2.08207 124.969 1.65625 124.288 1.58948C123.674 1.52928 123.038 1.64531 122.43 1.69894C120.888 1.83467 119.348 1.99558 117.811 2.18057C117.114 2.26485 116.354 2.38853 115.887 2.9621C115.726 3.16022 115.608 3.40432 115.412 3.55756C114.978 3.89908 114.382 3.6725 113.88 3.47766C112.88 3.08908 111.825 2.87125 110.765 2.82527C109.81 2.78477 108.862 2.9665 107.907 2.90411C107.304 2.8647 106.726 2.70488 106.136 2.57681C103.81 2.0733 101.376 2.04156 99.0208 1.85548C97.2733 1.71646 95.5227 1.61575 93.7721 1.54789C88.1209 1.32678 82.4637 1.44393 76.8165 1.70663C73.9889 1.83798 71.1633 2.00654 68.3387 2.18715C67.0474 2.27034 65.6087 2.57024 64.3234 2.38744C63.9518 2.3349 63.6061 2.17071 63.2384 2.09519C62.8528 2.01638 62.4643 2.02843 62.0747 2.03172C60.5055 2.04266 58.9362 2.06125 57.367 2.0711C55.5337 2.08205 53.6905 2.0711 51.8473 2.0711C51.2276 2.07329 50.6268 2.20793 50.021 2.20903C49.4681 2.21012 48.9161 2.07548 48.3581 2.08096C47.1964 2.0919 46.0357 2.34256 44.9597 2.82527C44.5432 3.01245 44.1177 3.23685 43.6684 3.20839C42.8454 3.15585 42.2745 2.30318 41.5313 1.9135C39.7598 0.985285 37.9285 2.75522 36.1182 2.03716C35.2185 1.68033 34.2979 1.73398 33.3514 1.72303C32.1428 1.7088 30.9342 1.70333 29.7257 1.7088C25.6277 1.73069 21.5308 1.88503 17.4528 2.336C15.4193 2.56696 13.3957 2.86469 11.3811 3.26093C10.4097 3.44811 9.41735 3.76663 8.43596 3.88813C8.12511 3.93192 7.90492 3.92098 7.63392 4.13005C6.43433 5.05826 3.11754 10.2291 5.48384 12.0472C6.25201 12.6372 7.2583 12.646 8.19585 12.6318C14.2297 12.5409 20.2635 12.4501 26.2973 12.3592C19.7832 12.9273 13.2692 13.4965 6.75516 14.0646C6.33371 14.1018 5.89831 14.1423 5.52668 14.3634C4.27229 15.1088 4.7047 16.8448 4.52536 18.1025C4.29122 19.7488 4.58412 21.5308 4.72859 23.1814C4.91889 25.2951 5.14906 27.4077 5.43999 29.5104C5.14906 29.4666 4.85913 29.4338 4.5682 29.3889C4.28823 29.356 3.98733 29.3013 3.80699 29.0583C3.67647 28.8711 3.65655 28.6293 3.63663 28.3873C3.33573 24.4567 3.67647 20.4067 3.47621 16.4442Z" fill="#EB924D"/>
<path d="M193.195 72.0167C131.1 74.89 69.967 74.9338 9.82513 72.0277C7.14997 72.0277 4.65512 69.925 3.66377 67.2728C3.22339 66.1059 3.12277 64.8187 3.19251 63.5632C3.20247 63.3432 3.2224 63.1232 3.28318 62.9031C3.37285 62.5616 3.51333 62.265 3.55318 61.9125C3.70363 60.7348 3.73352 59.5241 3.82419 58.3354C3.92382 57.1357 4.08423 55.7817 4.96599 55.056C6.94969 53.4272 10.8165 53.4491 13.7019 53.3824C16.0562 53.4152 18.4006 53.4371 20.7948 53.5805C20.0963 53.5805 19.4776 53.9373 18.8061 54.0096C17.8815 54.1092 16.9439 54.1289 16.0164 54.1891C14.1851 54.3062 12.3538 54.4244 10.5236 54.5426C9.25323 54.6247 7.96694 54.709 6.7554 55.1381C6.29708 55.3001 5.83877 55.5212 5.50998 55.9076C5.1513 56.329 4.98491 56.9015 4.85339 57.4597C4.59933 58.5412 4.28449 59.8416 4.43793 60.9635C4.48376 61.2985 4.59534 61.617 4.6342 61.953C4.67605 62.3208 4.64318 62.6864 4.63122 63.0553C4.59037 64.2988 4.66608 65.5728 5.13635 66.7244C6.25823 69.4762 9.19444 70.6759 11.8885 71.2264C15.1844 71.8865 17.9592 72.5137 21.286 72.0189C26.1461 72.0758 31.0052 72.1317 35.8654 72.1842C38.7069 72.2149 41.5495 72.2619 44.391 72.275C44.8653 72.2772 45.2987 72.1109 45.765 72.1087C46.4495 72.1054 47.1539 72.24 47.8373 72.2958C49.2342 72.4097 50.6331 72.4918 52.0329 72.5443C55.4643 72.6713 58.9007 72.6122 62.3271 72.367C63.1431 72.309 63.9362 72.1459 64.7272 72.4042C65.87 72.7775 67.0736 72.7643 68.2603 72.8223C71.0789 72.9602 73.9015 72.9778 76.7212 72.8738C77.3977 72.8486 78.0742 72.8169 78.7507 72.7786C79.8327 72.7162 80.9337 72.6319 81.941 72.1941C82.461 71.9686 82.9493 71.6511 83.4883 71.4891C85.0206 71.0272 86.5889 71.8799 88.0784 72.4852C90.0093 73.2711 92.1325 72.8968 94.1561 73.0467C96.9139 73.2525 99.5652 73.4649 102.323 73.073C102.348 73.0697 102.373 73.0654 102.398 73.0621C103.696 72.8749 104.987 72.5476 106.174 71.9259C106.793 71.6008 107.414 71.1892 108.1 71.2035C108.926 71.2221 109.618 71.8493 110.328 72.3155C112.555 73.7779 115.325 73.7451 117.905 73.4309C120.108 73.1627 122.327 72.7151 124.55 72.9603C125.469 73.062 126.353 72.9198 127.281 72.9241C128.431 72.9307 129.58 72.9362 130.73 72.9427C140.207 72.9975 149.695 73.0314 159.162 72.679C163.159 72.5356 167.167 72.3156 171.164 72.0189C173.278 71.8646 175.391 71.6884 177.506 71.5012C178.558 71.4016 179.61 71.2921 180.671 71.1936C183.857 70.863 187.072 70.8849 190.269 70.6321C192.183 70.4777 194.186 70.2467 195.799 69.0909C196.721 68.4308 197.452 67.3954 197.773 66.2296C197.933 65.6681 197.993 65.0628 197.904 64.4794C197.854 64.1926 197.753 63.9288 197.743 63.654C197.723 62.6525 197.723 61.64 197.713 60.6384C197.703 59.0753 197.854 57.4575 197.654 55.9164C197.634 55.7401 197.604 55.5529 197.493 55.4325C197.402 55.334 197.273 55.2891 197.142 55.2454C196.601 55.0801 196.07 54.9148 195.539 54.7506C196.251 54.3653 197.042 53.9034 197.293 53.0781C197.413 52.7037 197.403 52.3075 197.393 51.9222C197.374 50.9863 197.344 50.0176 197.013 49.1594C196.672 48.3013 196.612 47.5963 195.79 47.3435C191.583 46.0672 187.014 44.8664 182.586 43.9316C187.555 44.3279 192.514 44.8784 197.453 45.5713C198.034 45.6479 198.676 45.7695 199.016 46.2872C199.278 46.6835 199.288 47.2121 199.288 47.6959C199.288 49.8534 199.268 52.0108 199.357 54.1683C199.498 57.3601 199.678 60.552 199.888 63.7438C200.177 68.0762 197.151 71.8295 193.195 72.0167Z" fill="#EB924D"/>
<path d="M85.3796 13.0415C78.8168 14.2828 72.0507 14.2116 65.5107 12.8324C72.1264 12.4395 78.758 12.8007 85.3796 13.0415Z" fill="#EB924D"/>
<path d="M138.992 18.9799C135.691 19.5808 132.305 19.4122 128.952 19.2415C119.773 18.773 110.393 18.2618 101.866 14.7865C107.067 14.7657 112.223 15.7147 117.374 16.4535C124.473 17.4704 131.861 18.2399 138.992 18.9799Z" fill="#EB924D"/>
<path d="M143.172 18.66C140.736 18.5757 138.31 18.2834 135.887 17.9923C124.941 16.6766 113.996 15.3598 103.051 14.044C91.1794 12.6167 79.2333 11.1872 67.3201 12.0935C65.7359 12.0716 64.0432 12.2807 62.459 12.2588C69.7581 13.1487 77.1201 13.4256 84.4571 13.0863C87.3475 12.9527 90.2488 12.724 93.1272 13.0469C95.4317 13.3052 97.6904 13.9138 99.9541 14.4567C104.201 15.4769 108.492 16.2726 112.799 16.9217C124.82 18.7311 136.969 19.389 149.101 19.3145C146.871 19.0212 145.417 18.7377 143.172 18.66Z" fill="url(#paint7_linear_85_1816)"/>
<path d="M46.8353 30.3647C41.0297 31.0718 35.1513 31.0575 29.3477 30.3242C35.2121 29.697 40.96 29.8699 46.8353 30.3647Z" fill="#EB924D"/>
<path d="M51.426 30.4194C43.1982 30.2388 34.9675 30.2015 26.7388 30.3088C27.7022 30.2968 28.7444 30.0527 29.7158 29.918C30.7391 29.7757 31.7633 29.6335 32.7895 29.5185C34.846 29.2887 36.9014 29.1956 38.9648 29.3696C39.3265 29.4003 39.6084 29.328 39.9591 29.2755C40.4304 29.2055 40.9415 29.2985 41.4148 29.3303C42.4679 29.4014 43.52 29.4868 44.5712 29.5853C46.6734 29.7823 48.7717 30.0319 50.863 30.3362C51.0494 30.3624 51.2377 30.3909 51.426 30.4194Z" fill="url(#paint8_linear_85_1816)"/>
<path d="M67.39 45.1357C65.1473 46.1012 62.9035 47.0655 60.6608 48.0299C59.25 48.6363 57.8352 49.2449 56.3636 49.6444C54.4675 50.1589 52.5087 50.3176 50.5609 50.4664C45.6559 50.8419 40.6563 51.1604 35.8818 49.8644C46.5227 49.7495 56.9624 47.4541 67.39 45.1357Z" fill="#EB924D"/>
<path d="M77.3899 42.4238C71.7088 44.0548 66.0277 45.6857 60.3465 47.3167C57.6385 48.0938 54.9245 48.8732 52.1586 49.3417C48.7302 49.9229 45.25 50.0214 41.7818 50.0707C38.7061 50.1145 35.6304 50.1188 32.5547 50.0849C33.7423 49.8802 34.935 49.7105 36.1306 49.5759C36.6158 49.5212 37.1398 49.5409 37.6171 49.4599C40.1298 49.0374 42.4971 49.2136 45.0567 49.1096C47.7219 49.0012 50.3563 48.2175 52.9726 47.7457C57.1294 46.9959 61.2681 46.1312 65.396 45.2107C69.3993 44.3175 73.3946 43.3707 77.3899 42.4238Z" fill="url(#paint9_linear_85_1816)"/>
<path d="M176.436 54.6416C171.729 56.5046 166.571 56.1674 161.579 55.8183C160.531 55.7449 159.478 55.6727 158.434 55.7909C157.766 55.8664 157.106 56.0197 156.449 56.1697C153.484 56.8472 150.499 57.4755 147.475 57.6484C144.452 57.8214 141.373 57.5248 138.525 56.3951C146.414 57.7875 154.546 55.0773 162.535 54.8923C164.524 54.8463 166.516 54.9459 168.503 54.8353C171.217 54.6865 173.716 54.6821 176.436 54.6416Z" fill="#EB924D"/>
<path d="M135.481 56.0528C139.813 56.7173 144.185 57.3839 148.545 57.0029C151.358 56.7567 154.125 56.0769 156.931 55.7398C160.258 55.3403 163.615 55.4245 166.962 55.3676C172.969 55.2647 178.971 54.701 184.909 53.683C183.247 53.6393 181.583 53.6513 179.922 53.7181C178.459 53.7761 177.006 53.6841 175.537 53.7159C172.278 53.7859 169.025 54.018 165.777 54.3146C162.535 54.6102 159.298 54.9692 156.059 55.2976C152.826 55.6249 149.589 55.9226 146.344 56.0933C143.098 56.2641 139.843 56.3068 136.596 56.1251C136.229 56.1032 135.846 56.1087 135.481 56.0528Z" fill="url(#paint10_linear_85_1816)"/>
<path d="M43.3906 19.0405C44.401 19.0721 45.2852 19.0879 46.043 19.0879C46.8008 19.0563 47.4165 19.0405 47.8901 19.0405H49.2637C49.611 19.009 50.0373 18.9932 50.5425 18.9932C50.9845 18.9932 51.5213 18.9932 52.1528 18.9932C52.7843 18.9932 53.5106 19.009 54.3315 19.0405C54.5841 19.9246 54.8683 20.793 55.1841 21.6455C55.5314 22.4665 55.8314 23.2085 56.084 23.8716C56.3997 24.661 56.7155 25.403 57.0312 26.0977C57.347 26.7923 57.7259 27.6291 58.168 28.6079C58.5469 29.4289 59.0047 30.4393 59.5415 31.6392C60.0783 32.8075 60.7098 34.1494 61.436 35.665C61.7834 34.6862 62.0991 33.7863 62.3833 32.9653C62.6991 32.1444 62.9674 31.4339 63.1885 30.834C63.4411 30.1393 63.6463 29.5078 63.8042 28.9395C63.9621 28.3711 64.1357 27.6764 64.3252 26.8555C64.4831 26.1608 64.6567 25.3241 64.8462 24.3452C65.0672 23.3664 65.2882 22.2297 65.5093 20.9351C66.425 20.9351 67.2459 20.9351 67.9722 20.9351C68.6984 20.9351 69.3299 20.9193 69.8667 20.8877C70.4666 20.8877 71.0034 20.8719 71.4771 20.8403C71.9823 20.8403 72.6611 20.8088 73.5137 20.7456C74.2399 20.6825 75.203 20.6351 76.4028 20.6035C77.6343 20.5404 79.1499 20.4614 80.9497 20.3667C80.2866 20.8403 79.7498 21.314 79.3394 21.7876C78.9604 22.2297 78.6605 22.6243 78.4395 22.9717C78.1868 23.3822 78.029 23.7769 77.9658 24.1558C77.9027 24.4715 77.8395 25.1978 77.7764 26.3345C77.7448 27.4712 77.6974 28.8289 77.6343 30.4077C77.6027 31.9549 77.5711 33.6126 77.5396 35.3809C77.5396 37.1491 77.5553 38.8226 77.5869 40.4014C77.6185 41.9801 77.6659 43.3537 77.729 44.522C77.8237 45.6587 77.95 46.3849 78.1079 46.7007C78.3289 47.0796 78.6289 47.5216 79.0078 48.0269C79.3551 48.4689 79.7972 48.9741 80.334 49.5425C80.9023 50.1108 81.6444 50.7424 82.5601 51.437C81.1076 51.5002 79.8919 51.5475 78.9131 51.5791C77.9658 51.6107 77.1764 51.6423 76.5449 51.6738C75.8187 51.7054 75.2345 51.7212 74.7925 51.7212C74.3188 51.7212 73.6715 51.737 72.8506 51.7686C72.1243 51.8001 71.1613 51.8475 69.9614 51.9106C68.7616 51.9422 67.2144 52.0054 65.3198 52.1001C65.7619 51.5949 66.1724 51.0897 66.5513 50.5845C66.9302 50.0793 67.2459 49.6214 67.4985 49.2109C67.8143 48.7373 68.0827 48.2795 68.3037 47.8374C68.5247 47.2375 68.6984 46.1481 68.8247 44.5693C68.951 43.2116 69.0457 41.2697 69.1089 38.7437C69.172 36.186 69.172 32.7601 69.1089 28.4658C68.509 29.4447 67.9722 30.4235 67.4985 31.4023C67.0565 32.3496 66.6618 33.2179 66.3145 34.0073C65.9355 34.923 65.5882 35.8071 65.2725 36.6597C64.9567 37.5438 64.6252 38.5226 64.2778 39.5962C63.9621 40.5119 63.5832 41.6012 63.1411 42.8643C62.7306 44.1273 62.257 45.5166 61.7202 47.0322L59.9204 47.127C59.6678 45.8639 59.4152 44.7272 59.1626 43.7168C58.91 42.6748 58.6574 41.7907 58.4048 41.0645C58.1206 40.2119 57.8364 39.4541 57.5522 38.791C57.2365 38.1279 56.8892 37.3859 56.5103 36.5649C56.1629 35.8703 55.7367 35.0493 55.2314 34.1021C54.7578 33.1548 54.2052 32.097 53.5737 30.9287C53.258 34.1494 53.0685 36.7702 53.0054 38.791C52.9422 40.7803 52.9422 42.3275 53.0054 43.4326C53.0685 44.7588 53.1632 45.7218 53.2896 46.3218C53.479 46.8586 53.779 47.4585 54.1895 48.1216C54.5368 48.6899 55.0104 49.3688 55.6104 50.1582C56.2419 50.916 57.047 51.7686 58.0259 52.7158C57.3312 52.7158 56.605 52.7158 55.8472 52.7158C55.0894 52.7158 54.3947 52.7316 53.7632 52.7632C53.0054 52.7948 52.2633 52.8105 51.5371 52.8105C50.7793 52.8421 49.8952 52.8895 48.8848 52.9526C48.0007 53.0158 46.9429 53.0789 45.7114 53.1421C44.48 53.2052 43.0591 53.3158 41.4487 53.4736C42.1434 53.0316 42.7118 52.6053 43.1538 52.1948C43.5959 51.7528 43.9432 51.3581 44.1958 51.0107C44.5116 50.6003 44.7484 50.1898 44.9062 49.7793C45.001 49.5267 45.0799 48.9741 45.1431 48.1216C45.2378 47.269 45.3167 46.2271 45.3799 44.9956C45.4746 43.7642 45.5378 42.3906 45.5693 40.875C45.6325 39.3594 45.6799 37.828 45.7114 36.2808C45.7746 34.702 45.8219 33.1706 45.8535 31.6865C45.8851 30.1709 45.9009 28.8132 45.9009 27.6133C45.9325 26.3818 45.9482 25.3556 45.9482 24.5347C45.9482 23.7137 45.9482 23.1927 45.9482 22.9717C45.8535 22.498 45.7114 22.0244 45.522 21.5508C45.3641 21.1403 45.1115 20.714 44.7642 20.272C44.4168 19.8299 43.959 19.4194 43.3906 19.0405ZM93.4062 45.3745C94.2904 45.3745 95.1113 45.2798 95.8691 45.0903C96.5007 44.9325 97.1006 44.6799 97.6689 44.3325C98.2689 43.9536 98.6636 43.401 98.853 42.6748C99.4845 42.8011 100.021 42.9116 100.463 43.0063C100.905 43.0695 101.284 43.1326 101.6 43.1958C101.947 43.2905 102.247 43.3537 102.5 43.3853C102.753 43.4484 103.053 43.5116 103.4 43.5747C103.716 43.6379 104.095 43.7168 104.537 43.8115C105.01 43.8747 105.563 43.9694 106.194 44.0957C105.721 44.0326 105.231 44.0799 104.726 44.2378C104.252 44.3957 103.795 44.5693 103.353 44.7588C102.847 44.9798 102.374 45.2482 101.932 45.564C101.647 45.7534 101.316 46.0376 100.937 46.4165C100.59 46.7954 100.084 47.1585 99.4214 47.5059C98.7583 47.8532 97.8742 48.1532 96.769 48.4058C95.6955 48.6268 94.3062 48.7057 92.6011 48.6426C90.5487 48.5794 88.8278 48.2163 87.4385 47.5532C86.0492 46.8586 84.9282 46.0218 84.0757 45.043C83.2231 44.0326 82.6074 42.9432 82.2285 41.7749C81.8496 40.6066 81.6444 39.5173 81.6128 38.5068C81.5812 37.4964 81.8812 36.4386 82.5127 35.3335C83.1442 34.2284 84.0283 33.2179 85.165 32.3022C86.3333 31.3866 87.7384 30.6445 89.3804 30.0762C91.0223 29.4762 92.8221 29.1763 94.7798 29.1763C95.9165 29.1763 96.9585 29.3184 97.9058 29.6025C98.8846 29.8551 99.7687 30.2025 100.558 30.6445C101.379 31.0866 102.09 31.5918 102.689 32.1602C103.289 32.6969 103.795 33.2495 104.205 33.8179C104.616 34.4178 104.963 35.0493 105.247 35.7124C105.5 36.2808 105.705 36.9281 105.863 37.6543C106.021 38.3805 106.068 39.1226 106.005 39.8804C103.605 39.9435 101.663 39.9909 100.179 40.0225C98.7267 40.054 97.59 40.0698 96.769 40.0698H94.6377H93.0273C92.459 40.0698 91.717 40.0856 90.8013 40.1172C89.8856 40.1488 88.7646 40.1961 87.4385 40.2593C87.5964 41.5223 87.991 42.5011 88.6226 43.1958C89.2856 43.8589 89.9803 44.3641 90.7065 44.7114C91.5275 45.0903 92.4274 45.3114 93.4062 45.3745ZM89.1436 36.8491C90.154 36.9123 90.9907 36.9596 91.6538 36.9912C92.3485 37.0228 92.9168 37.0544 93.3589 37.0859C93.8325 37.1175 94.2114 37.1333 94.4956 37.1333H95.6797C96.4691 37.1333 97.9373 37.0859 100.084 36.9912C99.9897 35.6019 99.6898 34.5441 99.1846 33.8179C98.7109 33.0916 98.2057 32.5549 97.6689 32.2075C97.0374 31.8286 96.3428 31.6076 95.585 31.5444C93.5326 31.576 92.0011 32.0023 90.9907 32.8232C90.0119 33.6442 89.3962 34.9862 89.1436 36.8491ZM109.368 47.79C109.589 46.748 109.747 45.8324 109.841 45.043C109.968 44.222 110.062 43.5431 110.125 43.0063C110.189 42.3748 110.22 41.8381 110.22 41.396C110.189 40.8592 110.157 40.2277 110.125 39.5015C110.125 38.7437 110.094 38.0016 110.031 37.2754C109.999 36.5176 109.952 35.8545 109.889 35.2861C109.826 34.6862 109.747 34.2599 109.652 34.0073C109.526 33.7547 109.352 33.4863 109.131 33.2021C108.689 32.6654 108.042 32.1444 107.189 31.6392C107.915 31.4813 108.531 31.355 109.036 31.2603C109.573 31.134 110.015 31.0234 110.362 30.9287C110.741 30.8024 111.073 30.6919 111.357 30.5972C111.61 30.5024 111.91 30.4077 112.257 30.313C112.541 30.2498 112.888 30.1709 113.299 30.0762C113.709 29.9814 114.183 29.8709 114.72 29.7446L114.578 34.0547C115.588 32.8548 116.614 31.9549 117.656 31.355C118.698 30.755 119.677 30.3288 120.593 30.0762C121.635 29.7604 122.661 29.6025 123.671 29.6025C124.934 29.6657 126.103 29.8709 127.176 30.2183C128.281 30.5656 129.229 30.9761 130.018 31.4497C130.839 31.8918 131.502 32.3654 132.007 32.8706C132.513 33.3758 132.812 33.8179 132.907 34.1968C133.286 35.4282 133.381 36.5649 133.191 37.6069C133.002 38.6174 132.749 39.612 132.434 40.5908C132.149 41.5381 131.897 42.4854 131.676 43.4326C131.486 44.3799 131.565 45.4061 131.913 46.5112C132.039 46.7954 132.165 47.0796 132.292 47.3638C132.418 47.6164 132.576 47.869 132.765 48.1216C132.955 48.3742 133.176 48.5794 133.428 48.7373C133.081 48.7057 132.734 48.6899 132.386 48.6899C132.039 48.6584 131.723 48.6268 131.439 48.5952C131.092 48.5636 130.776 48.5321 130.492 48.5005C130.176 48.4689 129.75 48.4531 129.213 48.4531C128.297 48.4531 126.876 48.5005 124.95 48.5952C125.234 47.9321 125.455 47.3796 125.613 46.9375C125.803 46.4639 125.961 46.085 126.087 45.8008C126.213 45.4535 126.308 45.1851 126.371 44.9956C126.75 44.0799 126.971 43.0379 127.034 41.8696C127.129 40.7013 127.05 39.5173 126.797 38.3174C126.703 37.9069 126.545 37.4175 126.324 36.8491C126.103 36.2808 125.803 35.7282 125.424 35.1914C125.076 34.6546 124.65 34.1968 124.145 33.8179C123.671 33.439 123.119 33.2179 122.487 33.1548C121.856 33.0916 121.145 33.2495 120.356 33.6284C119.598 34.0073 118.777 34.702 117.893 35.7124C117.23 36.5649 116.709 37.6069 116.33 38.8384C115.983 39.8804 115.746 41.1908 115.62 42.7695C115.493 44.3167 115.683 46.1323 116.188 48.2163C115.746 48.1532 115.335 48.1216 114.957 48.1216C114.578 48.09 114.262 48.0584 114.009 48.0269C113.694 47.9953 113.409 47.9637 113.157 47.9321C112.873 47.9321 112.557 47.9163 112.209 47.8848C111.894 47.8848 111.499 47.8848 111.025 47.8848C110.552 47.8532 109.999 47.8216 109.368 47.79ZM136.554 31.2129C137.375 31.3708 138.086 31.4971 138.686 31.5918C139.317 31.6549 139.854 31.7181 140.296 31.7812C140.801 31.8444 141.243 31.8918 141.622 31.9233C142.001 31.9549 142.443 31.9865 142.948 32.0181C143.801 32.0496 145.001 32.0496 146.548 32.0181C145.632 31.9549 144.906 32.1917 144.369 32.7285C143.864 33.2337 143.485 33.8179 143.232 34.481C142.917 35.2703 142.743 36.186 142.711 37.228C142.648 38.6174 142.68 39.8804 142.806 41.0171C142.964 42.1222 143.232 43.0695 143.611 43.8589C144.022 44.6167 144.559 45.1851 145.222 45.564C145.885 45.9113 146.737 46.006 147.779 45.8481C148.821 45.6903 149.611 45.3271 150.147 44.7588C150.716 44.1589 151.126 43.4326 151.379 42.5801C151.632 41.696 151.774 40.7013 151.805 39.5962C151.868 38.491 151.916 37.3385 151.947 36.1387C151.947 34.9388 151.931 34.0863 151.9 33.5811C151.9 33.0443 151.884 32.6969 151.853 32.5391C151.821 32.3812 151.774 32.318 151.71 32.3496C151.647 32.3496 151.568 32.2707 151.474 32.1128C151.41 31.9865 151.316 31.8602 151.189 31.7339C151.095 31.6076 150.968 31.4655 150.811 31.3076C150.653 31.1182 150.479 30.9287 150.29 30.7393C151.111 30.7708 151.837 30.8024 152.468 30.834C153.131 30.834 153.684 30.8498 154.126 30.8813C154.631 30.9129 155.073 30.9445 155.452 30.9761C155.799 31.0076 156.257 31.055 156.826 31.1182C157.299 31.1813 157.915 31.2445 158.673 31.3076C159.431 31.3708 160.331 31.4655 161.373 31.5918C160.646 31.7497 160.062 31.9865 159.62 32.3022C159.178 32.618 158.831 32.9338 158.578 33.2495C158.294 33.5968 158.089 33.9757 157.962 34.3862C157.868 34.923 157.868 35.744 157.962 36.8491C158.026 37.828 158.183 39.1699 158.436 40.875C158.689 42.5801 159.083 44.8219 159.62 47.6006L155.878 49.8267L155.121 43.5273C154.205 45.0745 153.226 46.2744 152.184 47.127C151.174 47.9479 150.226 48.5479 149.342 48.9268C148.3 49.3688 147.29 49.6214 146.311 49.6846C145.016 49.6846 143.896 49.6056 142.948 49.4478C142.033 49.2583 141.243 49.0215 140.58 48.7373C139.917 48.4531 139.38 48.1374 138.97 47.79C138.591 47.4111 138.307 47.0322 138.117 46.6533C137.675 45.8639 137.438 44.8535 137.407 43.6221C137.375 42.359 137.423 41.1118 137.549 39.8804C137.675 38.6174 137.817 37.4648 137.975 36.4229C138.133 35.3809 138.18 34.6704 138.117 34.2915C138.054 34.0073 137.959 33.6916 137.833 33.3442C137.707 33.0601 137.549 32.7443 137.359 32.397C137.17 32.0181 136.902 31.6234 136.554 31.2129Z" fill="white"/>
<defs>
<linearGradient id="paint0_linear_85_1816" x1="153.384" y1="-118.355" x2="112.425" y2="-18.0217" gradientUnits="userSpaceOnUse">
<stop stop-color="#CF5C2B"/>
<stop offset="1" stop-color="#59173E"/>
</linearGradient>
<linearGradient id="paint1_linear_85_1816" x1="113.962" y1="-35.3566" x2="75.9535" y2="147.113" gradientUnits="userSpaceOnUse">
<stop stop-color="#CF5C2B"/>
<stop offset="1" stop-color="#59173E"/>
</linearGradient>
<linearGradient id="paint2_linear_85_1816" x1="113.444" y1="-29.6435" x2="64.7272" y2="196.814" gradientUnits="userSpaceOnUse">
<stop stop-color="#CF5C2B"/>
<stop offset="1" stop-color="#59173E"/>
</linearGradient>
<linearGradient id="paint3_linear_85_1816" x1="150.493" y1="-1.22305" x2="138.962" y2="26.8375" gradientUnits="userSpaceOnUse">
<stop stop-color="#CF5C2B"/>
<stop offset="1" stop-color="#59173E"/>
</linearGradient>
<linearGradient id="paint4_linear_85_1816" x1="151.872" y1="-3.13043" x2="124.661" y2="54.3004" gradientUnits="userSpaceOnUse">
<stop stop-color="#CF5C2B"/>
<stop offset="1" stop-color="#59173E"/>
</linearGradient>
<linearGradient id="paint5_linear_85_1816" x1="79.3202" y1="29.0334" x2="67.7887" y2="57.0939" gradientUnits="userSpaceOnUse">
<stop stop-color="#CF5C2B"/>
<stop offset="1" stop-color="#59173E"/>
</linearGradient>
<linearGradient id="paint6_linear_85_1816" x1="101.062" y1="-22.5339" x2="34.5454" y2="115.234" gradientUnits="userSpaceOnUse">
<stop stop-color="#CF5C2B"/>
<stop offset="1" stop-color="#59173E"/>
</linearGradient>
<linearGradient id="paint7_linear_85_1816" x1="130.994" y1="-36.6081" x2="111.942" y2="-3.80688" gradientUnits="userSpaceOnUse">
<stop stop-color="#CF5C2B"/>
<stop offset="1" stop-color="#59173E"/>
</linearGradient>
<linearGradient id="paint8_linear_85_1816" x1="79.1733" y1="-78.3739" x2="50.3747" y2="-13.6602" gradientUnits="userSpaceOnUse">
<stop stop-color="#CF5C2B"/>
<stop offset="1" stop-color="#59173E"/>
</linearGradient>
<linearGradient id="paint9_linear_85_1816" x1="97.8582" y1="-70.0638" x2="69.0598" y2="-5.34987" gradientUnits="userSpaceOnUse">
<stop stop-color="#CF5C2B"/>
<stop offset="1" stop-color="#59173E"/>
</linearGradient>
<linearGradient id="paint10_linear_85_1816" x1="193.024" y1="-27.6915" x2="162.432" y2="36.0503" gradientUnits="userSpaceOnUse">
<stop stop-color="#CF5C2B"/>
<stop offset="1" stop-color="#59173E"/>
</linearGradient>
</defs>
</svg>
