<svg width="82" height="80" viewBox="0 0 82 80" fill="none" xmlns="http://www.w3.org/2000/svg">
<path d="M0.514684 37.7476C0.070245 39.8837 -0.0845286 42.0675 0.0432653 44.2416C0.163959 46.3073 0.249134 48.4083 1.50293 50.152C1.99707 50.8397 2.60906 51.4429 3.30909 51.9225C3.77341 52.2403 4.32578 52.4006 4.78726 52.7029C4.89802 52.7746 5.01018 52.8337 5.00592 52.9799C5.00024 53.2584 4.46065 53.5481 4.27606 53.6985C3.90546 53.9995 3.53348 54.3426 3.4 54.8151C3.16287 55.6476 3.57323 56.518 3.93815 57.2493C4.77733 58.9368 5.72156 60.5722 6.76237 62.1444C10.9512 68.4725 15.7846 74.9622 23.1526 77.8225C27.3684 79.4594 31.8242 79.6099 36.287 79.8236C40.9685 80.057 45.6614 80.0641 50.3259 79.8152C54.5161 79.5916 59.1138 79.2541 62.6921 77.0983C65.3431 75.4896 67.4502 73.0905 69.0803 70.6746C71.7668 66.695 74.1126 62.4875 76.1019 58.124C76.2879 57.7148 76.5506 57.3196 76.5676 56.8668C76.5747 56.6516 76.5975 56.4477 76.5676 56.2312C76.5094 55.8079 76.3291 55.4015 76.0451 55.0795C76.8374 54.7054 77.4466 54.0163 77.8584 53.2485C78.0827 52.8323 78.2545 52.3893 78.3965 51.9393C78.5158 51.5625 78.6067 51.1982 78.831 50.8664C79.318 50.1436 79.4955 49.2323 79.7312 48.4026C80.2879 46.4522 80.7451 44.4722 81.083 42.4725C81.1313 42.1829 81.1781 41.8918 81.2222 41.6007C81.4124 40.3224 81.5488 39.0315 81.4835 37.7448C81.4806 37.6196 81.4678 37.4917 81.4621 37.3749C81.2719 42.173 79.6077 46.3721 77.6283 50.8537C75.5467 55.5717 73.0647 60.0927 70.1978 64.3691C68.5777 66.7878 66.4818 69.1896 63.8408 70.8012C60.281 72.971 55.7074 73.3043 51.5485 73.5349C46.9039 73.7894 42.2436 73.7894 37.5934 73.563C33.1632 73.3563 28.7259 73.2199 24.5442 71.5816C20.0657 69.8323 16.381 66.6219 13.4133 63.0852C10.1887 59.2293 7.6257 54.7659 5.42339 50.6568C1.9332 44.1361 0.626873 37.4213 2.32227 30.625C1.49445 32.9636 0.99462 35.4625 0.514684 37.7476Z" fill="url(#paint0_linear_85_1667)"/>
<path d="M81.4744 37.019C81.4744 37.1441 81.4744 37.2594 81.4644 37.3733C81.3693 39.7344 80.9164 41.9703 80.2405 44.143C79.5546 46.3789 78.6374 48.5825 77.6349 50.8493C77.0016 52.2696 76.3371 53.6702 75.6413 55.0596C75.5987 55.1426 75.5575 55.2368 75.5036 55.3211C73.9218 58.4444 72.1497 61.4636 70.1987 64.3675C69.5129 65.401 68.7319 66.4361 67.8572 67.3965C66.6971 68.6917 65.3582 69.8827 63.8388 70.8024C60.2847 72.975 55.7069 73.2985 51.5508 73.5389C46.9104 73.7893 42.2474 73.7893 37.5957 73.56C33.1655 73.3505 28.7253 73.2155 24.5479 71.5857C20.0652 69.8307 16.3833 66.6231 13.4199 63.0822C13.4085 63.0611 13.3887 63.0512 13.3773 63.0302C11.1934 60.4075 9.30635 57.5149 7.64929 54.6321C7.17504 53.8277 6.72065 53.0234 6.27763 52.2288C5.98229 51.6959 5.69685 51.1742 5.42281 50.651C5.07492 50.0028 4.7583 49.3657 4.45302 48.7189C2.99759 45.5956 2.05899 42.4203 1.72105 39.224C1.53078 37.386 1.53078 35.5466 1.75229 33.6974C1.87867 32.6737 2.06894 31.65 2.32169 30.6262C2.62697 29.4352 3.0288 28.2244 3.513 27.0122C3.64931 26.6888 3.77711 26.3541 3.92479 26.0306C4.35787 24.9647 4.81083 23.9101 5.29645 22.8652C5.56055 22.2915 5.82325 21.7262 6.09871 21.1524C6.65817 19.9824 7.2588 18.8124 7.89209 17.6635C8.31381 16.9014 8.7469 16.149 9.2098 15.4079C9.77919 14.4573 10.3812 13.5278 11.0131 12.6081C11.0443 12.5462 11.0869 12.4928 11.1295 12.4309C11.4462 11.9711 11.7628 11.5225 12.0894 11.0725C12.3634 10.6971 12.6276 10.3314 12.9116 9.97566C12.9542 9.91238 13.0067 9.8505 13.0592 9.78722C15.4958 6.65272 18.3854 3.89507 22.4677 2.5479C31.1378 -0.313795 40.1558 -0.27301 49.5444 0.333078C53.32 0.583388 57.5287 1.27385 60.5148 3.60257C66.717 8.47097 72.1284 14.1536 76.4308 20.5463C76.4834 20.6195 76.5359 20.6827 76.5784 20.7559C78.2667 23.2632 79.5419 26.0095 80.3654 28.8726C80.3654 28.8825 80.3754 28.8937 80.3754 28.9148C80.5344 29.4478 80.6707 29.9808 80.7872 30.5236C80.8823 30.9314 80.966 31.3378 81.0399 31.7569C81.0399 31.7779 81.0498 31.7878 81.0498 31.8089C81.0498 31.8089 81.0498 31.8089 81.0498 31.8187C81.2614 32.9578 81.3878 34.1165 81.4502 35.2766C81.4857 35.8701 81.4857 36.4551 81.4744 37.019Z" fill="url(#paint1_linear_85_1667)"/>
<path d="M81.4729 37.0186C81.4729 37.1438 81.4729 37.2591 81.463 37.373C81.3678 39.734 80.9149 41.97 80.239 44.1426C77.8663 44.0273 75.4609 43.8599 73.003 43.7137C63.3205 43.0978 53.6366 42.5437 43.9441 42.0318C29.7576 41.2908 15.7074 40.852 1.72105 39.2222C1.53078 37.3842 1.53078 35.5449 1.75229 33.6957C15.75 32.693 29.7462 33.0586 43.9441 33.361C44.1344 33.3708 44.3232 33.3708 44.5135 33.3821C43.7013 33.2569 42.8891 33.1205 42.0769 33.0066C29.7249 31.1265 16.1078 29.8623 3.92479 26.0289C4.35787 24.963 4.81083 23.9083 5.29645 22.8634C5.56055 22.2897 5.82324 21.7244 6.09871 21.1506C6.65816 19.9806 7.25879 18.8106 7.89208 17.6618C8.3138 16.8996 8.74685 16.1473 9.20975 15.4062C20.981 15.0715 33.1328 16.7533 44.4184 17.7152C53.7431 18.4985 63.1203 19.1158 72.4223 20.0763C73.7613 20.2113 75.1017 20.3688 76.4307 20.546C76.4833 20.6191 76.5358 20.6824 76.5784 20.7555C78.2667 23.2628 79.5418 26.0092 80.3654 28.8723C80.3654 28.8821 80.3753 28.8934 80.3753 28.9145C80.5344 29.4474 80.6707 29.9804 80.7871 30.5232C80.8822 30.931 80.966 31.3374 81.0398 31.7565C81.0398 31.7776 81.0498 31.7874 81.0498 31.8085C81.0498 31.8085 81.0498 31.8085 81.0498 31.8183C81.2614 32.9574 81.3877 34.1161 81.4502 35.2763C81.4843 35.8697 81.4843 36.4547 81.4729 37.0186ZM75.3559 55.3109C71.2523 54.8722 67.2026 54.4756 63.0777 54.3702C54.8932 54.1508 46.7187 53.8161 38.5427 53.3675C30.3582 52.9189 22.2888 52.4591 14.0716 52.4802C11.6662 52.4802 8.96694 52.2706 6.27759 52.2299C6.72061 53.0244 7.17357 53.8288 7.64925 54.6331C9.30489 57.5159 11.1934 60.4099 13.3772 63.0312C21.4041 64.5035 29.3472 65.298 37.5317 65.8929C45.6963 66.4779 53.8709 66.9475 62.0554 67.3132C64.0177 67.3961 65.9374 67.4172 67.8572 67.3961C68.7333 66.4357 69.5129 65.4007 70.1987 64.3671C72.1497 61.4632 73.9217 58.444 75.5035 55.3208C75.451 55.3208 75.4084 55.3208 75.3559 55.3109Z" fill="url(#paint2_linear_85_1667)"/>
<path d="M76.5785 20.7544C78.2668 23.2617 79.5419 26.0081 80.3655 28.8712C80.1752 28.4845 79.9537 28.1188 79.7649 27.7743C79.0904 26.5312 78.3733 25.2993 77.6236 24.097C76.1781 21.8091 74.5963 19.6055 72.8881 17.506C72.1597 16.6074 71.3063 15.803 70.8846 14.7062C70.5253 13.7865 69.7671 13.0665 69.0813 12.376C66.7824 10.0571 64.0703 8.21918 61.5713 6.13936C60.1258 4.93843 58.713 3.64329 57.0147 2.82767C55.3477 2.03456 53.4918 1.7519 51.6559 1.65768C50.9814 1.6155 50.3169 1.60566 49.641 1.59441C49.3669 1.59441 49.1029 1.60425 48.8388 1.51004C48.5434 1.41582 48.2267 1.40597 47.9214 1.36378C47.0666 1.26956 46.2232 1.19645 45.3684 1.13457C38.2702 0.612859 31.0868 1.2077 24.1774 2.91065C22.9108 3.22424 21.6357 3.5786 20.4756 4.18469C20.3066 4.27891 20.149 4.37313 19.9801 4.46735C18.8938 5.13531 17.9439 5.98187 16.9627 6.78623C16.4771 7.19404 15.9815 7.5906 15.4547 7.94638C15.2446 8.09262 15.0429 8.19669 14.8115 8.30216C14.4423 8.47935 14.2307 8.86605 14.0092 9.20074C13.535 9.92214 13.2396 10.6731 12.8804 11.4366C12.8165 11.5618 12.764 11.656 12.7327 11.8023C12.6376 12.2101 12.5751 12.6277 12.4899 13.0454C11.973 13.0243 11.4562 12.878 11.0132 12.6066C11.0444 12.5448 11.087 12.4913 11.1296 12.4295C11.4463 11.9696 11.7629 11.521 12.0895 11.071C12.3635 10.6956 12.6277 10.3299 12.9116 9.97417C12.9542 9.91089 13.0067 9.84901 13.0593 9.78573C15.4959 6.65123 18.3855 3.89361 22.4678 2.54643C31.1379 -0.31526 40.1558 -0.274475 49.5444 0.331613C53.32 0.581923 57.5287 1.27238 60.5148 3.60111C66.7796 8.52294 72.2435 14.2787 76.5785 20.7544Z" fill="#EB924D"/>
<path d="M81.0378 31.7538C81.0165 31.8902 80.9853 32.0153 80.9541 32.1503C80.8703 31.6286 80.7325 31.1055 80.7851 30.5725V30.5205C80.8788 30.9297 80.964 31.3361 81.0378 31.7538Z" fill="#EB924D"/>
<path d="M75.7768 35.1319C76.7707 35.1403 77.803 35.1572 78.6905 35.5987C80.1559 36.3286 80.8417 38.0076 81.2648 39.577C81.4366 38.189 81.4139 36.7786 81.2009 35.3962C81.164 35.1586 81.1186 34.9139 80.9837 34.7142C80.8275 34.4836 80.5705 34.3415 80.3149 34.2276C78.1921 33.2869 75.7427 33.7917 73.4467 34.1587C72.0296 34.3851 70.6011 34.5525 69.1699 34.6608C67.7329 34.769 66.2902 34.8169 64.849 34.8042C64.5749 34.8014 64.2327 34.7311 63.9828 34.8703C63.6378 35.0615 64.0652 35.0362 64.2384 35.0376C64.9725 35.0433 65.708 35.0489 66.4421 35.0559C67.9061 35.0672 69.3701 35.0798 70.8326 35.0911C72.3022 35.1023 73.7704 35.115 75.2401 35.1262C75.4176 35.129 75.5979 35.1305 75.7768 35.1319Z" fill="#EB924D"/>
<path d="M70.195 64.3679C68.5805 66.7908 66.4818 69.1941 63.8351 70.8028C60.281 72.9754 55.7032 73.2989 51.547 73.5393C46.9067 73.7896 42.2436 73.7896 37.5919 73.5604C33.1618 73.3509 28.7216 73.2159 24.5442 71.5861C20.0615 69.8311 16.3796 66.6235 13.4162 63.0826C11.211 60.4501 9.31257 57.5364 7.64699 54.6311C6.85609 53.2937 6.11775 51.9564 5.42198 50.6514C5.0741 50.0031 4.75743 49.3661 4.45215 48.7193C1.6989 42.8074 0.791567 36.748 2.32225 30.6266C2.62754 29.4355 3.02941 28.2248 3.5136 27.0126C3.82031 26.2518 4.13408 25.4953 4.45782 24.7429C4.84973 23.8359 5.30696 22.9711 5.6662 22.0584C6.01977 21.157 6.42585 20.2753 6.88165 19.4189C7.78614 17.7146 8.88517 16.11 10.1503 14.649C10.3463 14.4226 10.555 14.1933 10.8333 14.0794C11.0861 13.9754 11.3687 13.9782 11.6413 13.9866C12.5571 14.0133 13.4716 14.0851 14.3846 14.1666C17.2628 14.4226 20.1566 15.3591 23.076 15.3029C24.5285 15.2747 25.967 15.0075 27.4181 14.9414C28.1607 14.9077 28.9048 14.926 29.646 14.9696C30.018 14.9907 30.3886 15.0188 30.7592 15.0483C30.9438 15.0638 31.1298 15.0821 31.3158 15.0947C31.4323 15.1018 31.5416 15.0708 31.6552 15.075C31.7432 15.0793 31.8398 15.1032 31.925 15.1257C31.2505 15.331 30.5264 15.4393 29.832 15.556C29.1292 15.6741 28.422 15.7697 27.712 15.8442C26.2893 15.9947 24.858 16.0664 23.4281 16.0918C21.9897 16.1171 20.5513 16.0946 19.1144 16.0594C17.8648 16.0285 16.6139 15.9863 15.3643 15.9539C14.085 15.9216 12.7772 15.9033 11.5618 16.2999C9.94873 16.8258 8.64094 18.045 7.70237 19.4456C7.66829 19.4963 7.63424 19.5483 7.60158 19.5989C7.04497 20.4581 6.60478 21.3862 6.21146 22.3284C6.01835 22.7925 5.87352 23.2973 5.64207 23.7431C5.56823 23.8865 5.45178 23.9878 5.35806 24.1157C5.18909 24.3478 5.08689 24.6304 4.96478 24.8864C4.69357 25.4573 4.43085 26.0338 4.18946 26.6188C3.79898 27.5695 3.44118 28.5299 3.14584 29.5129C2.89309 30.3482 2.49125 31.3719 2.57644 32.2607C2.65028 32.9708 2.49264 33.7021 2.43869 34.4122C2.42875 34.6006 2.30095 36.6889 2.43869 36.7002C3.84158 36.7733 5.23456 37.0545 6.5622 37.5355C5.98287 37.5973 5.41348 37.6916 4.84266 37.8069C4.30451 37.9152 3.64705 38.1697 3.28355 38.6084C3.12736 38.7969 3.08337 39.1301 3.04361 39.3636C2.94706 39.9331 2.98113 40.5153 3.04218 41.0862C3.30771 43.5527 4.10713 45.9419 5.09824 48.2032C5.34673 48.7699 5.59521 49.3366 5.8437 49.9047C6.05242 50.3814 6.28244 50.8835 6.71694 51.1746C7.06056 51.4038 7.49651 51.4839 7.89693 51.5571C8.72759 51.7089 9.48864 52.0534 10.3278 52.2194C11.9806 52.5442 13.6533 52.8016 15.3388 52.8438C18.3675 52.9197 21.47 52.3038 24.3866 53.1138C23.9109 53.1503 23.4366 53.1855 22.9609 53.2206C19.9905 53.4372 17.0171 53.6256 14.0438 53.7845C12.5756 53.8633 11.1074 53.9463 9.63918 53.9997C9.33673 54.0109 8.64805 53.9378 8.48618 54.2795C8.445 54.3653 8.46062 54.4567 8.4805 54.5453C8.59551 55.0937 8.96613 55.6675 9.2416 56.1484C10.0453 57.5532 11.0605 58.8217 12.0204 60.121C12.959 61.3923 13.9699 62.6115 15.0718 63.7477C15.583 64.275 16.107 64.8263 16.6834 65.2875C16.7814 65.3649 16.8808 65.4254 16.9916 65.483C17.4815 65.7432 17.8421 66.2283 18.2539 66.5967C19.1754 67.4236 20.1921 68.145 21.2656 68.7666C22.7877 69.6469 24.4249 70.3275 26.1089 70.8394C29.5097 71.8729 33.0794 72.2414 36.6292 72.4579C44.0143 72.9079 51.4902 72.7223 58.7105 71.1192C60.6715 70.6833 62.6324 70.1348 64.3747 69.1434C67.3523 67.4503 69.4594 64.6083 71.3678 61.7804C72.5251 60.0648 73.6766 58.2254 73.8186 56.1681C72.4385 55.7279 71.0285 55.375 69.6029 55.112C71.0384 54.9812 72.4725 54.8209 73.9038 54.6747C74.07 54.6578 74.2389 54.6325 74.4051 54.6634C74.5314 54.6873 74.6322 54.7126 74.7643 54.7084C74.946 54.7028 75.1264 54.6831 75.3067 54.655C75.3649 54.6465 75.7952 54.5987 75.808 54.5495C75.6021 55.299 75.3053 56.0247 74.9276 56.7067C74.7572 57.0132 74.5754 57.317 74.3568 57.594C74.0132 58.0314 73.7831 58.5545 73.5091 59.0354C73.1555 59.6542 72.7948 60.2673 72.4271 60.8776C71.7072 62.0546 70.9646 63.2204 70.195 64.3679Z" fill="#EB924D"/>
<path d="M61.2915 34.9635C66.4572 34.8608 71.6229 34.7581 76.7872 34.6653C77.7868 34.6456 78.8305 34.6246 79.7605 34.9845C80.6892 35.3445 81.5028 36.177 81.463 37.115C81.4602 37.0827 81.4673 37.0531 81.4744 37.0236C81.49 36.4541 81.4886 35.8705 81.4545 35.2798C81.3921 34.1197 81.2629 32.9553 81.0513 31.8135C80.9973 31.9878 80.9249 32.1482 80.8013 32.2874C80.391 32.7768 79.4084 32.8203 78.8134 32.923C78.2909 33.0003 77.7613 33.0664 77.2444 33.1241C71.9197 33.733 66.6063 34.3433 61.2915 34.9635Z" fill="url(#paint3_linear_85_1667)"/>
<path d="M7.08757 53.17C7.26648 53.651 7.45672 54.1418 7.64699 54.6325C6.85609 53.2952 6.11775 51.9579 5.42198 50.6529C5.0741 50.0046 4.75743 49.3676 4.45215 48.7207C4.53734 48.8037 4.63107 48.8768 4.70491 48.9401C5.19053 49.3479 5.7074 49.7023 6.25549 50.006C8.1014 51.0396 10.2426 51.2702 12.31 51.5627C13.4602 51.7188 14.6941 51.9705 15.8542 51.9705C20.4633 52.4402 25.0724 52.879 29.6929 53.2769C22.1601 53.0969 14.6189 53.0646 7.08757 53.17Z" fill="url(#paint4_linear_85_1667)"/>
<path d="M76.0493 52.3541C74.0117 53.7997 71.3593 54.4325 68.7949 55.0287C71.0555 55.0161 73.3159 55.0358 75.5765 55.0906C75.3024 55.4787 75.2172 55.9582 75.345 56.397C75.7937 55.3761 76.2424 54.3566 76.6911 53.3356C77.1271 52.3456 77.4835 51.2797 78.0216 50.3291C78.006 50.6638 77.4451 51.1321 77.1952 51.3852C76.8459 51.7353 76.4625 52.0602 76.0493 52.3541Z" fill="url(#paint5_linear_85_1667)"/>
<path d="M34.5129 14.9041C28.0053 15.9377 21.1598 15.7507 14.6296 15.0715C13.532 14.9562 12.0354 14.6018 11.0116 15.2796C10.4521 15.6452 9.89411 16.0207 9.33466 16.3975C8.7965 16.7632 8.31088 17.1808 7.88916 17.6618C8.88027 15.8646 9.95659 14.1209 11.128 12.4277C11.4447 11.9679 11.7613 11.5193 12.0879 11.0693C12.078 11.1523 12.0666 11.2367 12.078 11.3196C12.1305 12.0509 12.6473 12.6879 13.2806 13.0746C13.9139 13.4501 14.6523 13.6287 15.3793 13.7637C21.5602 14.9984 28.2055 14.3824 34.5129 14.9041Z" fill="url(#paint6_linear_85_1667)"/>
<path d="M1.61807 34.3232C1.34402 34.9589 1.73164 35.7224 2.31239 36.1063C2.89172 36.4902 3.61308 36.5887 4.306 36.6702C6.94565 36.9852 9.61512 37.2341 12.2619 36.9796C9.25304 37.1076 5.95029 37.4127 2.94145 37.5407C2.73982 37.5491 2.53251 37.559 2.3536 37.649C1.9759 37.8388 1.84809 38.3141 1.85519 38.7332C1.86228 39.1523 1.96025 39.5769 1.86654 39.9861C1.43772 38.1102 1.42496 36.2399 1.61807 34.3232Z" fill="url(#paint7_linear_85_1667)"/>
<path d="M65.8606 43.8089C65.8592 43.8398 65.8563 43.8708 65.8535 43.9003C65.4374 43.9397 65.0228 44.003 64.6125 44.093C64.1496 44.1942 63.6994 44.3531 63.2366 44.4431C62.7779 44.5317 62.2426 44.5416 61.8592 44.8242C61.4702 45.1111 61.0512 45.2841 60.5685 45.3614C60.4577 45.3797 60.3385 45.3951 60.2547 45.4697C60.2007 45.5175 60.1695 45.585 60.1411 45.6511C59.5461 47.0939 60.55 48.9614 59.6086 50.2087C59.0761 49.6167 58.9029 48.787 58.8589 47.9953C58.8149 47.2036 58.8802 46.4006 58.7339 45.6202C58.7027 45.45 58.6487 45.2644 58.5025 45.1673C58.2923 45.0281 58.0723 45.1505 57.8692 45.232C57.5866 45.3445 57.2785 45.3431 56.9704 45.3741C56.6452 45.4064 56.3201 45.4359 55.9949 45.4627C55.8969 45.4711 55.3176 45.4444 55.2594 45.5175C52.2235 49.3832 48.5814 52.3785 44.793 54.4569C44.573 54.5779 44.333 54.6862 44.1342 54.5174C43.9567 54.3599 43.9042 54.0224 43.8616 53.7327C43.6855 52.4545 43.3546 51.0581 43.5605 49.7728C43.6471 49.2257 43.5932 48.7392 43.5023 48.1936C43.3802 47.4665 43.295 46.7339 43.2481 45.9984C43.2354 45.7945 43.2354 45.5639 43.383 45.4219C43.4824 45.3262 43.6244 45.2953 43.7593 45.2672C45.2588 44.9564 46.7568 44.6456 48.2562 44.3363C47.1998 44.2055 46.1448 44.0522 45.0941 43.8764C44.4963 43.7766 43.863 43.6514 43.4256 43.2352C43.0309 42.8597 42.8846 42.3239 42.8506 41.798C42.8335 41.521 42.8463 41.2411 42.8704 40.9641C42.9343 40.2244 42.8861 39.4805 42.8832 38.7352C42.8804 37.9294 42.9613 37.0899 42.8861 36.2884C42.8648 36.0563 42.7682 35.8426 42.7441 35.612C42.7043 35.2337 42.7767 34.8301 42.8037 34.4518C42.8634 33.6179 42.923 32.784 42.9826 31.9501C42.9897 31.8517 43.0011 31.7448 43.0706 31.6759C43.136 31.6112 43.2354 31.5972 43.3277 31.5859C45.7472 31.3018 48.1824 31.1556 50.619 31.15C48.8484 30.8673 47.0763 30.5861 45.3056 30.3034C44.7675 30.2176 44.2052 30.122 43.7736 29.7944C43.2155 29.3711 43.1743 28.6033 43.2055 27.9606C43.2978 26.0017 43.4569 24.0443 43.6131 22.091C43.704 20.9477 43.8019 19.8045 43.9042 18.6612C43.9553 18.0903 44.0078 17.5207 44.0604 16.9512C44.0746 16.8007 44.2804 15.5323 44.1981 15.4873C45.9148 16.4168 47.6201 17.6501 49.1593 19.0746C51.1686 20.9351 53.52 23.8122 55.488 25.7697C58.8376 26.3617 62.0793 26.7977 65.3622 26.9636C65.436 26.9763 65.5184 26.9875 65.5822 26.951C65.5794 26.9524 65.7796 27.6288 65.7967 27.692C66.0537 28.6778 66.2227 29.6861 66.3206 30.6986C66.3419 30.9151 66.3675 31.1331 66.332 31.3497C66.2908 31.5957 66.1928 31.8208 66.1701 32.0725C66.0934 32.9275 66.0821 33.781 65.9713 34.6332C65.933 34.9299 65.8833 35.2393 65.7087 35.484C65.3466 35.9945 64.5855 36.0563 64.151 36.5077C64.8268 36.609 65.49 36.796 66.119 37.0632C66.0509 37.921 65.9344 38.7887 65.9145 39.6493C65.9088 39.9108 65.994 40.1372 66.0253 40.3918C66.0721 40.7869 66.0026 41.2102 65.9869 41.6068C65.9529 42.3436 65.9117 43.0763 65.8606 43.8089Z" fill="#FCEBC5"/>
<path d="M29.366 53.3317C29.1771 52.8156 28.8761 52.3234 28.6716 51.8087C28.4572 51.2701 28.2712 50.7217 28.1022 50.1676C27.76 49.0455 27.4902 47.9022 27.219 46.7631C26.4394 43.4894 26.2577 40.0737 26.2364 36.6846C26.2293 35.4261 26.2932 34.1675 26.421 32.9159C26.7391 29.7856 27.4462 26.7032 28.3805 23.6994C28.8448 22.206 29.3673 20.7295 29.9311 19.2698C30.1256 18.7664 30.6779 17.9311 30.3897 17.3868C30.1071 16.8567 29.1956 17.0494 28.7909 17.2898C28.311 17.5739 27.9716 18.0351 27.6351 18.4781C26.8811 19.4695 26.0759 20.4243 25.224 21.337C25.5094 19.6495 26.5999 18.2194 27.6677 16.8736C27.7401 16.7822 27.814 16.6865 27.8338 16.5726C27.8736 16.335 27.6649 16.1353 27.4732 15.989C27.0429 15.6628 26.5388 15.4111 26.154 15.0314C25.5321 14.4183 24.7611 14.1342 23.9574 13.77C21.1232 17.1815 19.753 21.8179 18.9721 26.4079C17.6884 33.9495 17.7921 41.7865 19.2759 49.2817C19.5982 50.9073 20.0143 52.5807 20.8804 54.0151C21.3093 54.7252 21.9369 55.5957 22.7476 55.929C23.2929 56.1526 24.0767 55.7715 24.5453 55.5071C24.47 54.9263 24.2485 54.3273 24.1008 53.7578C23.9461 53.1573 23.7899 52.5568 23.6351 51.955C23.3284 50.7695 23.0217 49.5841 22.715 48.3986C23.4448 50.4264 24.4047 52.3726 25.5705 54.1895C25.8033 54.5523 26.0831 54.932 26.5474 54.9868C26.9464 55.0346 27.4363 54.8588 27.7756 54.6535C28.0185 54.5059 28.2016 54.2978 28.3976 54.0967C28.6915 53.7971 29.0465 53.5974 29.366 53.3317Z" fill="#FCEBC5"/>
<path d="M40.2122 48.8189C39.3886 47.2847 38.9811 45.5438 38.5679 43.8113C37.9744 41.3181 37.8352 38.7151 37.8196 36.1333C37.8026 33.4375 38.2243 30.753 38.9059 28.1487C39.3034 26.6285 39.789 25.1323 40.3357 23.6571C40.4706 23.2915 40.6098 22.9273 40.7518 22.5645C40.8568 22.2959 41.067 21.9753 40.9292 21.687C40.854 21.5295 39.6981 20.2189 39.5803 20.3919C38.2867 22.2861 37.1238 24.2703 36.1057 26.3234C35.8033 25.6456 36.0404 24.8595 36.3074 24.1676C36.5814 23.4532 36.8853 22.7501 37.2161 22.0596C37.388 21.6996 37.5683 21.3439 37.7557 20.9923C37.9105 20.7012 38.1618 20.3525 37.8594 20.0755C37.6606 19.8926 37.4121 19.7816 37.2204 19.5791C37.0528 19.4019 36.9109 19.2036 36.7518 19.018C36.4877 18.71 36.2335 18.5427 35.914 18.8858C35.3972 19.4398 34.9968 20.1669 34.639 20.8278C34.2385 21.5647 33.9006 22.3339 33.6095 23.1185C32.989 24.7962 32.5829 26.5456 32.2833 28.3048C31.305 34.0506 31.3845 40.0215 32.5147 45.7322C32.8939 47.6517 33.5101 49.7217 35.0124 50.723C35.3759 50.6906 35.7578 50.6597 36.1157 50.6021C36.2506 50.581 36.4295 50.453 36.5544 50.5725C36.6013 50.6175 36.6169 50.6864 36.6269 50.7511C36.8327 51.9928 36.4763 53.3105 36.8895 54.5015C37.2147 54.472 37.3283 54.0642 37.3595 53.7422C37.476 52.5623 37.5924 51.3839 37.7088 50.2041C37.7032 50.2589 38.2583 50.0536 38.3024 50.0241C38.4813 49.9045 38.5863 49.7569 38.778 49.657C39.2707 49.4011 39.7479 49.1227 40.2122 48.8189Z" fill="#FCEBC5"/>
<defs>
<linearGradient id="paint0_linear_85_1667" x1="40.306" y1="-2.10882" x2="40.7023" y2="36.6975" gradientUnits="userSpaceOnUse">
<stop stop-color="#CF5C2B"/>
<stop offset="1" stop-color="#59173E"/>
</linearGradient>
<linearGradient id="paint1_linear_85_1667" x1="69.6736" y1="-14.8617" x2="0.169264" y2="115.322" gradientUnits="userSpaceOnUse">
<stop stop-color="#CF5C2B"/>
<stop offset="1" stop-color="#59173E"/>
</linearGradient>
<linearGradient id="paint2_linear_85_1667" x1="61.7353" y1="-0.281666" x2="-7.76891" y2="129.902" gradientUnits="userSpaceOnUse">
<stop stop-color="#CF5C2B"/>
<stop offset="1" stop-color="#59173E"/>
</linearGradient>
<linearGradient id="paint3_linear_85_1667" x1="70.9918" y1="-2.4221" x2="71.388" y2="36.3845" gradientUnits="userSpaceOnUse">
<stop stop-color="#CF5C2B"/>
<stop offset="1" stop-color="#59173E"/>
</linearGradient>
<linearGradient id="paint4_linear_85_1667" x1="16.5207" y1="-1.86569" x2="16.9169" y2="36.9406" gradientUnits="userSpaceOnUse">
<stop stop-color="#CF5C2B"/>
<stop offset="1" stop-color="#59173E"/>
</linearGradient>
<linearGradient id="paint5_linear_85_1667" x1="72.8335" y1="-2.44118" x2="73.2297" y2="36.3652" gradientUnits="userSpaceOnUse">
<stop stop-color="#CF5C2B"/>
<stop offset="1" stop-color="#59173E"/>
</linearGradient>
<linearGradient id="paint6_linear_85_1667" x1="30.7387" y1="-16.9718" x2="18.0421" y2="28.1665" gradientUnits="userSpaceOnUse">
<stop stop-color="#CF5C2B"/>
<stop offset="1" stop-color="#59173E"/>
</linearGradient>
<linearGradient id="paint7_linear_85_1667" x1="14.3309" y1="8.05352" x2="6.92559" y2="36.2273" gradientUnits="userSpaceOnUse">
<stop stop-color="#CF5C2B"/>
<stop offset="1" stop-color="#59173E"/>
</linearGradient>
</defs>
</svg>
