<svg width="82" height="80" viewBox="0 0 82 80" fill="none" xmlns="http://www.w3.org/2000/svg">
<path d="M0.514684 37.7467C0.070245 39.8829 -0.0845286 42.0668 0.0432653 44.2408C0.163959 46.3066 0.249177 48.4076 1.50298 50.1514C1.99711 50.839 2.60906 51.4423 3.30909 51.9219C3.77341 52.2397 4.32578 52.4 4.78726 52.7023C4.89802 52.774 5.01018 52.8331 5.00592 52.9794C5.00024 53.2578 4.46065 53.5475 4.27606 53.698C3.90546 53.9989 3.53348 54.342 3.4 54.8145C3.16287 55.647 3.57323 56.5175 3.93815 57.2488C4.77733 58.9363 5.72156 60.5718 6.76237 62.144C10.9512 68.4721 15.7846 74.962 23.1526 77.8224C27.3684 79.4593 31.8242 79.6097 36.287 79.8235C40.9685 80.0569 45.6614 80.0639 50.3259 79.815C54.5161 79.5914 59.1138 79.2539 62.6921 77.0981C65.3431 75.4894 67.4502 73.0903 69.0803 70.6743C71.7668 66.6946 74.1126 62.4871 76.1019 58.1235C76.2879 57.7143 76.5506 57.3191 76.5676 56.8663C76.5762 56.6511 76.5975 56.4472 76.5676 56.2306C76.5094 55.8073 76.3291 55.4009 76.0451 55.0789C76.8374 54.7048 77.4452 54.0158 77.8584 53.248C78.0827 52.8317 78.2545 52.3887 78.3965 51.9387C78.5158 51.5618 78.6067 51.1976 78.831 50.8657C79.318 50.1429 79.4941 49.2317 79.7312 48.402C80.2879 46.4515 80.7451 44.4715 81.083 42.4718C81.1327 42.1821 81.1781 41.891 81.2222 41.5999C81.4124 40.3216 81.5488 39.0307 81.4834 37.7439C81.4806 37.6188 81.4678 37.4908 81.4621 37.3741C81.2719 42.1722 79.6063 46.3714 77.6283 50.8531C75.5467 55.5711 73.0661 60.0922 70.1978 64.3687C68.5777 66.7874 66.4818 69.1893 63.8408 70.8009C60.281 72.9708 55.7074 73.3041 51.5485 73.5347C46.9039 73.7892 42.2436 73.7892 37.5934 73.5628C33.1618 73.3561 28.7259 73.2197 24.5442 71.5814C20.0657 69.832 16.381 66.6215 13.4134 63.0848C10.1887 59.2288 7.6257 54.7653 5.42339 50.6562C1.9332 44.1354 0.626873 37.4205 2.32227 30.624C1.49587 32.9626 0.99604 35.4616 0.514684 37.7467Z" fill="url(#paint0_linear_89_169)"/>
<path d="M81.4734 37.0182C81.4734 37.1433 81.4734 37.2586 81.4621 37.3725C81.3669 39.7336 80.914 41.9696 80.2381 44.1423C79.5523 46.3782 78.635 48.5819 77.6325 50.8487C76.9992 52.2691 76.3347 53.6697 75.639 55.0591C75.5964 55.1421 75.5552 55.2363 75.5026 55.3206C73.9208 58.444 72.1488 61.4632 70.1964 64.3671C69.5105 65.4007 68.7295 66.4357 67.8549 67.3962C66.6948 68.6914 65.3544 69.8825 63.8365 70.8022C60.2824 72.9749 55.7045 73.2983 51.5484 73.5388C46.9066 73.7891 42.245 73.7891 37.5933 73.5599C33.1631 73.3503 28.723 73.2153 24.5456 71.5855C20.0628 69.8305 16.381 66.6228 13.4176 63.0818C13.4076 63.0607 13.3863 63.0509 13.375 63.0298C11.1911 60.4071 9.30403 57.5144 7.64697 54.6316C7.17271 53.8272 6.71833 53.0228 6.27531 52.2283C5.97997 51.6953 5.69453 51.1736 5.42048 50.6505C5.0726 50.0022 4.75598 49.3651 4.45069 48.7183C2.99526 45.595 2.05667 42.4196 1.71873 39.2232C1.52846 37.3852 1.52846 35.5458 1.74997 33.6966C1.87635 32.6728 2.06662 31.6491 2.31937 30.6253C2.62465 29.4342 3.02648 28.2234 3.51067 27.0112C3.64841 26.6878 3.77479 26.3531 3.92247 26.0296C4.35555 24.9637 4.80851 23.909 5.29413 22.8642C5.55823 22.2904 5.82092 21.7251 6.09639 21.1513C6.65584 19.9813 7.25647 18.8113 7.88976 17.6624C8.31148 16.9002 8.74454 16.1478 9.20886 15.4067C9.77825 14.4561 10.3803 13.5266 11.0122 12.6069C11.0434 12.545 11.086 12.4916 11.1286 12.4297C11.4453 11.9698 11.7619 11.5213 12.0885 11.0712C12.3625 10.6958 12.6267 10.3301 12.9107 9.97437C12.9533 9.91108 13.0058 9.8492 13.0583 9.78592C15.4949 6.65137 18.3845 3.89367 22.4668 2.54648C31.1369 -0.315266 40.1548 -0.27448 49.5434 0.331619C53.319 0.581933 57.5277 1.2724 60.5138 3.60117C66.7161 8.46965 72.1274 14.1524 76.4313 20.5452C76.4838 20.6184 76.5363 20.6802 76.5789 20.7533C78.2672 23.2607 79.5423 26.0071 80.3659 28.8703C80.3659 28.8801 80.3759 28.8914 80.3759 28.9125C80.5335 29.4455 80.6712 29.9784 80.7876 30.5212C80.8827 30.9291 80.9665 31.3355 81.0404 31.7545C81.0404 31.7756 81.0503 31.7855 81.0503 31.8066C81.0503 31.8066 81.0503 31.8066 81.0503 31.8164C81.2619 32.9555 81.3882 34.1142 81.4507 35.2744C81.4834 35.8693 81.4834 36.4542 81.4734 37.0182Z" fill="url(#paint1_linear_89_169)"/>
<path d="M81.4735 37.0182C81.4735 37.1434 81.4735 37.2587 81.4621 37.3726C81.367 39.7337 80.914 41.9697 80.2381 44.1424C77.8654 44.0271 75.46 43.8597 73.0021 43.7135C63.3196 43.0975 53.6371 42.5435 43.9433 42.0316C29.7567 41.2905 15.7065 40.8517 1.7202 39.2219C1.52992 37.3839 1.52993 35.5445 1.75144 33.6953C15.7491 32.6926 29.7454 33.0582 43.9433 33.3606C44.1335 33.3704 44.3224 33.3704 44.5127 33.3817C43.7005 33.2565 42.8882 33.1201 42.076 33.0062C29.7241 31.126 16.107 29.8618 3.92536 26.0283C4.35844 24.9624 4.8114 23.9077 5.29702 22.8628C5.56113 22.2891 5.82382 21.7238 6.09928 21.15C6.65874 19.98 7.25937 18.81 7.89266 17.6611C8.31438 16.8989 8.74744 16.1465 9.21175 15.4054C20.983 15.0707 33.1347 16.7526 44.4204 17.7145C53.745 18.4978 63.1223 19.1152 72.4243 20.0756C73.7633 20.2106 75.1037 20.3681 76.4327 20.5453C76.4853 20.6184 76.5378 20.6803 76.5804 20.7534C78.2687 23.2608 79.5438 26.0072 80.3673 28.8704C80.3673 28.8802 80.3773 28.8915 80.3773 28.9126C80.5349 29.4455 80.6726 29.9785 80.7891 30.5213C80.8842 30.9291 80.968 31.3356 81.0418 31.7546C81.0418 31.7757 81.0517 31.7856 81.0517 31.8067C81.0517 31.8067 81.0517 31.8067 81.0517 31.8165C81.2633 32.9556 81.3897 34.1143 81.4522 35.2745C81.4834 35.8693 81.4834 36.4543 81.4735 37.0182ZM75.355 55.3109C71.2514 54.8722 67.2017 54.4756 63.0768 54.3701C54.8924 54.1507 46.7164 53.816 38.5419 53.3674C30.3574 52.9189 22.2879 52.459 14.0708 52.4801C11.6654 52.4801 8.96612 52.2706 6.27535 52.2298C6.71836 53.0243 7.17133 53.8287 7.647 54.6331C9.30264 57.5159 11.1911 60.41 13.375 63.0313C21.4019 64.5036 29.3449 65.2982 37.5294 65.893C45.694 66.478 53.8686 66.9477 62.0531 67.3133C64.0154 67.3963 65.9352 67.4174 67.8549 67.3963C68.731 66.4358 69.5106 65.4008 70.1964 64.3672C72.1474 61.4633 73.9194 58.444 75.5027 55.3207C75.4501 55.3207 75.4075 55.3208 75.355 55.3109Z" fill="url(#paint2_linear_89_169)"/>
<path d="M76.5789 20.7533C78.2672 23.2607 79.5423 26.0071 80.3659 28.8703C80.1756 28.4836 79.9541 28.1179 79.7653 27.7734C79.0894 26.5303 78.3723 25.2984 77.624 24.096C76.1785 21.808 74.5967 19.6044 72.8885 17.5049C72.1601 16.6063 71.3067 15.8019 70.885 14.705C70.5258 13.7853 69.7675 13.0653 69.0817 12.3748C66.7828 10.0559 64.0708 8.21793 61.5717 6.13807C60.1262 4.93712 58.7134 3.64196 57.0152 2.82633C55.3482 2.0332 53.4923 1.75054 51.6563 1.65632C50.9818 1.61413 50.3173 1.60429 49.6414 1.59304C49.3674 1.59304 49.1033 1.60288 48.8406 1.51006C48.5452 1.41584 48.2286 1.40601 47.9233 1.36383C47.0685 1.26961 46.2251 1.19647 45.3703 1.13459C38.272 0.61287 31.0886 1.20772 24.1792 2.9107C22.9141 3.2243 21.6375 3.57868 20.4774 4.18478C20.3085 4.279 20.1509 4.37323 19.9819 4.46745C18.8956 5.13542 17.9457 5.98197 16.9645 6.78635C16.4789 7.19417 15.9834 7.59075 15.4566 7.94654C15.2464 8.09279 15.0448 8.19684 14.8134 8.30231C14.4442 8.4795 14.2326 8.86623 14.0111 9.20092C13.5368 9.92233 13.2415 10.6733 12.8822 11.4369C12.8183 11.562 12.7658 11.6562 12.7345 11.8025C12.6394 12.2103 12.577 12.628 12.4918 13.0456C11.9749 13.0245 11.458 12.8783 11.015 12.6069C11.0463 12.545 11.0889 12.4916 11.1315 12.4297C11.4481 11.9698 11.7648 11.5213 12.0914 11.0712C12.3654 10.6958 12.6295 10.3301 12.9135 9.97437C12.9561 9.91108 13.0086 9.8492 13.0611 9.78592C15.4978 6.65137 18.3873 3.89367 22.4696 2.54648C31.1397 -0.315266 40.1577 -0.27448 49.5463 0.331619C53.3219 0.581933 57.5305 1.2724 60.5167 3.60117C66.78 8.52168 72.2439 14.2775 76.5789 20.7533Z" fill="#EB924D"/>
<path d="M81.0403 31.7533C81.019 31.8897 80.9877 32.0149 80.9565 32.1499C80.8727 31.6281 80.735 31.105 80.7875 30.572V30.52C80.8812 30.9292 80.9664 31.3356 81.0403 31.7533Z" fill="#EB924D"/>
<path d="M75.7768 35.1312C76.7693 35.1396 77.803 35.1565 78.6905 35.598C80.1558 36.3279 80.8417 38.0069 81.2648 39.5763C81.4366 38.1884 81.4139 36.7779 81.2009 35.3955C81.164 35.1579 81.1185 34.9132 80.9836 34.7135C80.8275 34.4829 80.5705 34.3408 80.3149 34.2269C78.1921 33.2861 75.7427 33.791 73.4467 34.158C72.0296 34.3844 70.6011 34.5518 69.1699 34.66C67.7329 34.7683 66.2902 34.8161 64.849 34.8035C64.575 34.8007 64.2327 34.7304 63.9828 34.8696C63.6378 35.0608 64.0652 35.0355 64.2384 35.0369C64.9725 35.0426 65.708 35.0482 66.4421 35.0552C67.9061 35.0665 69.37 35.0791 70.8326 35.0904C72.3022 35.1016 73.7704 35.1143 75.2401 35.1255C75.4175 35.1283 75.5979 35.1297 75.7768 35.1312Z" fill="#EB924D"/>
<path d="M70.1963 64.367C68.5819 66.79 66.4832 69.1933 63.8365 70.8021C60.2824 72.9747 55.7045 73.2982 51.5484 73.5387C46.9066 73.789 42.245 73.789 37.5933 73.5598C33.1631 73.3502 28.723 73.2152 24.5456 71.5854C20.0628 69.8304 16.3809 66.6227 13.4175 63.0817C11.2138 60.4492 9.31392 57.534 7.64834 54.6301C6.85744 53.2927 6.11909 51.9554 5.42332 50.6503C5.07544 50.0021 4.75878 49.365 4.45349 48.7182C1.70024 42.8062 0.792909 36.7467 2.32359 30.6252C2.62888 29.4341 3.03075 28.2233 3.51495 27.0111C3.82023 26.2503 4.13547 25.4937 4.45921 24.7414C4.85111 23.8344 5.30831 22.9695 5.66755 22.0568C6.02111 21.1554 6.42719 20.2737 6.88299 19.4173C7.78749 17.7129 8.8851 16.1084 10.1517 14.6473C10.3476 14.4209 10.5564 14.1916 10.8347 14.0777C11.0874 13.9737 11.37 13.9765 11.6426 13.9849C12.5585 14.0116 13.4729 14.0833 14.3859 14.1649C17.2642 14.4209 20.158 15.3574 23.0774 15.3012C24.5299 15.273 25.9683 15.0058 27.4195 14.9398C28.1621 14.906 28.9061 14.9243 29.6474 14.9679C30.0194 14.989 30.39 15.0171 30.7606 15.0466C30.9466 15.0621 31.1312 15.0804 31.3172 15.0931C31.4336 15.1001 31.5416 15.0691 31.6566 15.0734C31.7446 15.0776 31.8412 15.1015 31.9249 15.124C31.2505 15.3293 30.5263 15.4376 29.8319 15.5543C29.1291 15.6724 28.4219 15.768 27.712 15.8426C26.2892 15.993 24.8579 16.0648 23.428 16.0901C21.9897 16.1154 20.5513 16.0929 19.1143 16.0577C17.8648 16.0268 16.6152 15.9846 15.3643 15.9523C14.0849 15.9199 12.7771 15.9016 11.5617 16.2968C9.94864 16.8227 8.64091 18.042 7.70233 19.4426C7.66825 19.4932 7.63415 19.5453 7.60149 19.5959C7.04488 20.4551 6.6047 21.3832 6.21138 22.3254C6.01827 22.7895 5.87343 23.2943 5.64198 23.7401C5.56815 23.8836 5.45174 23.9848 5.35802 24.1128C5.18905 24.3448 5.0868 24.6275 4.96469 24.8834C4.69348 25.4544 4.43081 26.031 4.18942 26.616C3.79894 27.5666 3.4411 28.5271 3.14575 29.51C2.893 30.3454 2.49116 31.3691 2.57636 32.2579C2.65019 32.968 2.49257 33.6993 2.44003 34.4094C2.42867 34.5979 2.3023 36.6862 2.44003 36.6974C3.84292 36.7706 5.23591 37.0518 6.56354 37.5328C5.98421 37.5946 5.41482 37.6888 4.84401 37.8042C4.30585 37.9124 3.64843 38.167 3.2835 38.6057C3.12731 38.7942 3.0833 39.1274 3.04496 39.3609C2.94982 39.9304 2.98247 40.5126 3.04353 41.0836C3.30763 43.5501 4.10847 45.9394 5.09959 48.2007C5.34807 48.7674 5.59655 49.3341 5.84504 49.9022C6.05377 50.3789 6.28379 50.881 6.71828 51.1721C7.06191 51.4013 7.49786 51.4815 7.89828 51.5546C8.72894 51.7065 9.48999 52.051 10.3292 52.2169C11.982 52.5418 13.6547 52.7991 15.3401 52.8413C18.3689 52.9172 21.4714 52.3013 24.3879 53.1113C23.9122 53.1479 23.438 53.183 22.9623 53.2182C19.9918 53.4348 17.0199 53.6232 14.0451 53.7821C12.5769 53.8608 11.1087 53.9438 9.64052 53.9973C9.33808 54.0085 8.64939 53.9354 8.48752 54.2771C8.44634 54.3629 8.46197 54.4543 8.48185 54.5429C8.59686 55.0913 8.96748 55.6651 9.24294 56.146C10.0466 57.5509 11.0619 58.8193 12.0218 60.1187C12.9603 61.3886 13.9713 62.6092 15.0732 63.7455C15.5843 64.2728 16.1083 64.8241 16.6848 65.2839C16.7828 65.3627 16.8822 65.4217 16.9929 65.4794C17.4828 65.7395 17.8434 66.2247 18.2552 66.5931C19.1768 67.42 20.1934 68.1414 21.2669 68.763C22.7891 69.6433 24.4263 70.3239 26.1103 70.8358C29.511 71.8694 33.0807 72.2379 36.6306 72.4544C44.0156 72.9044 51.4916 72.7188 58.7119 71.1157C60.6728 70.6797 62.6338 70.1313 64.3775 69.1399C67.3551 67.4467 69.4622 64.6047 71.3706 61.7767C72.5279 60.0611 73.6794 58.2217 73.8214 56.1643C72.4413 55.7241 71.0312 55.3712 69.6056 55.1082C71.0412 54.9774 72.4753 54.8171 73.9066 54.6709C74.0728 54.654 74.2417 54.6287 74.4079 54.6596C74.5342 54.6835 74.635 54.7088 74.7671 54.7046C74.9488 54.699 75.1292 54.6793 75.3095 54.6512C75.3677 54.6427 75.7966 54.5949 75.8108 54.5457C75.6049 55.2952 75.3081 56.0209 74.9304 56.7029C74.76 57.0095 74.5783 57.3132 74.3596 57.5903C74.016 58.0276 73.7859 58.5507 73.5119 59.0317C73.1583 59.6504 72.7977 60.2636 72.4299 60.8739C71.71 62.0537 70.9674 63.2195 70.1963 64.367Z" fill="#EB924D"/>
<path d="M61.2892 34.9623C66.4549 34.8596 71.622 34.757 76.7849 34.6642C77.7845 34.6445 78.8282 34.6234 79.7583 34.9834C80.6869 35.3434 81.5005 36.1759 81.4607 37.1139C81.4579 37.0815 81.465 37.052 81.4721 37.0225C81.4877 36.4529 81.4863 35.8693 81.4522 35.2787C81.3898 34.1185 81.2605 32.9541 81.049 31.8123C80.995 31.9866 80.9226 32.147 80.7991 32.2862C80.3887 32.7756 79.4061 32.8191 78.8111 32.9218C78.2886 32.9991 77.759 33.0652 77.2421 33.1229C71.9174 33.7318 66.604 34.3421 61.2892 34.9623Z" fill="url(#paint3_linear_89_169)"/>
<path d="M7.08903 53.1691C7.26794 53.6501 7.45819 54.1409 7.64846 54.6317C6.85756 53.2943 6.11921 51.957 5.42345 50.6519C5.07556 50.0037 4.7589 49.3666 4.45361 48.7197C4.53739 48.8027 4.63254 48.8758 4.70637 48.9391C5.19199 49.3469 5.70886 49.7013 6.25695 50.0051C8.10286 51.0387 10.2441 51.2693 12.3116 51.5618C13.4617 51.7179 14.6956 51.9696 15.8557 51.9696C20.4648 52.4393 25.0739 52.878 29.6943 53.276C22.1616 53.096 14.6203 53.0637 7.08903 53.1691Z" fill="url(#paint4_linear_89_169)"/>
<path d="M76.0507 52.3534C74.0131 53.799 71.3607 54.4318 68.7963 55.0281C71.0568 55.0154 73.3187 55.0351 75.5779 55.09C75.3038 55.4781 75.2186 55.9576 75.3464 56.3964C75.7951 55.3754 76.2438 54.3559 76.6925 53.335C77.1284 52.3449 77.4848 51.279 78.023 50.3284C78.0073 50.6631 77.4465 51.1313 77.1966 51.3845C76.8473 51.7346 76.4639 52.0595 76.0507 52.3534Z" fill="url(#paint5_linear_89_169)"/>
<path d="M34.5134 14.9032C28.0058 15.9368 21.1603 15.7498 14.6301 15.0706C13.5325 14.9553 12.0359 14.6009 11.0121 15.2787C10.4526 15.6443 9.8946 16.0198 9.33515 16.3967C8.79699 16.7623 8.31279 17.18 7.88965 17.6609C8.88076 15.8637 9.95708 14.1199 11.1285 12.4268C11.4452 11.9669 11.7618 11.5184 12.0884 11.0684C12.0784 11.1513 12.0671 11.2357 12.0785 11.3187C12.131 12.0499 12.6478 12.687 13.2811 13.0737C13.9144 13.4492 14.6528 13.6278 15.3798 13.7628C21.5607 14.9975 28.206 14.3815 34.5134 14.9032Z" fill="url(#paint6_linear_89_169)"/>
<path d="M1.61785 34.3223C1.34381 34.9579 1.73143 35.7215 2.31218 36.1054C2.89293 36.4893 3.61287 36.5877 4.30579 36.6693C6.94544 36.9843 9.61491 37.2332 12.2617 36.9787C9.25425 37.1067 5.95007 37.4118 2.94124 37.5398C2.73961 37.5482 2.5323 37.5581 2.35339 37.6481C1.97568 37.8379 1.84787 38.3132 1.85497 38.7323C1.86207 39.1514 1.96004 39.576 1.86633 39.9853C1.43609 38.1093 1.42474 36.239 1.61785 34.3223Z" fill="url(#paint7_linear_89_169)"/>
<path d="M67.6931 44.1C67.6903 44.1309 67.6888 44.1619 67.686 44.1914C67.2699 44.2308 66.8553 44.2941 66.445 44.3841C65.9821 44.4853 65.532 44.6442 65.0691 44.7342C64.6104 44.8228 64.0737 44.8341 63.6917 45.1153C63.3027 45.4022 62.8838 45.5752 62.401 45.6525C62.2903 45.6708 62.171 45.6863 62.0872 45.7608C62.0332 45.8086 62.002 45.8761 61.9736 45.9422C61.3786 47.385 62.3825 49.2525 61.4411 50.4999C60.9086 49.9064 60.7354 49.0782 60.6914 48.2864C60.6474 47.4947 60.7127 46.6917 60.5664 45.9113C60.5352 45.7397 60.4812 45.5555 60.335 45.4584C60.1248 45.3192 59.9048 45.4416 59.7017 45.5231C59.4177 45.6356 59.1096 45.6342 58.8015 45.6652C58.4763 45.6975 58.1511 45.727 57.826 45.7538C57.7266 45.7622 57.1487 45.7355 57.0904 45.8086C54.0546 49.6744 50.4125 52.6697 46.6241 54.7482C46.404 54.8691 46.1641 54.9774 45.9653 54.8087C45.7878 54.6512 45.7352 54.3137 45.6926 54.024C45.5166 52.7457 45.1858 51.3493 45.3917 50.064C45.4783 49.5169 45.4243 49.0303 45.3334 48.4847C45.2113 47.7577 45.1261 47.025 45.0793 46.2895C45.0665 46.0856 45.0665 45.855 45.2142 45.713C45.3121 45.6173 45.4555 45.5864 45.5904 45.5583C47.0899 45.2475 48.5879 44.9367 50.0873 44.6273C49.0309 44.4966 47.9759 44.3433 46.9266 44.1675C46.3288 44.0676 45.6955 43.9425 45.2582 43.5262C44.8634 43.1508 44.7157 42.615 44.6831 42.089C44.666 41.812 44.6788 41.5322 44.703 41.2551C44.7669 40.5154 44.7186 39.7715 44.7158 39.0262C44.7129 38.2204 44.7939 37.3809 44.7186 36.5793C44.6973 36.3473 44.6007 36.1335 44.5766 35.9029C44.5369 35.5246 44.6093 35.1196 44.6362 34.7427C44.6959 33.9088 44.7555 33.0749 44.8152 32.241C44.8223 32.1426 44.8336 32.0357 44.9032 31.9668C44.9685 31.9021 45.0679 31.888 45.1602 31.8768C47.5797 31.5927 50.0149 31.4465 52.4515 31.4408C50.6809 31.1596 48.9088 30.8769 47.1381 30.5957C46.6 30.5099 46.0377 30.4143 45.6061 30.0866C45.048 29.6633 45.0068 28.8955 45.0381 28.2528C45.1304 26.2939 45.2894 24.3364 45.4456 22.3831C45.5365 21.2398 45.6344 20.0965 45.7367 18.9532C45.7878 18.3823 45.8404 17.8128 45.8929 17.2432C45.9071 17.0927 46.113 15.8243 46.0306 15.7793C47.7473 16.7088 49.4527 17.9421 50.9919 19.3667C53.0011 21.2271 55.3525 24.1044 57.3205 26.0619C60.6701 26.6539 63.9118 27.0898 67.1947 27.2558C67.2685 27.2684 67.3523 27.2797 67.4148 27.2431C67.4119 27.2446 67.6121 27.921 67.6292 27.9842C67.8862 28.97 68.0552 29.9783 68.1532 30.9922C68.1745 31.2088 68.2 31.4268 68.1645 31.6433C68.1233 31.8894 68.0253 32.1158 68.0026 32.3661C67.9259 33.2212 67.9146 34.0748 67.8038 34.9269C67.7655 35.2237 67.7158 35.5331 67.5412 35.7777C67.1791 36.2882 66.418 36.3501 65.9835 36.8015C66.6594 36.9028 67.3225 37.0898 67.9515 37.357C67.8834 38.2148 67.7669 39.0839 67.747 39.9431C67.7414 40.2046 67.8266 40.4311 67.8578 40.6856C67.9047 41.0807 67.8351 41.5026 67.8194 41.8992C67.7854 42.6347 67.7442 43.3673 67.6931 44.1Z" fill="#FCEBC5"/>
<path d="M41.9723 27.4554L36.6022 23.3547C34.5134 26.0379 32.3523 28.6816 30.1571 31.3001C27.8682 28.6648 25.5679 26.0407 23.2562 23.4489C23.0347 23.643 20.4533 25.6919 20.4362 25.6624C21.0823 26.8268 21.646 28.0362 22.1231 29.2779C21.4032 28.3821 20.6095 27.5468 19.7518 26.7818C19.4181 26.966 19.022 27.1235 18.7196 27.3527C18.6301 27.4202 18.5747 27.4962 18.4952 27.5707C18.2666 27.7873 18.1956 27.8407 18.393 28.1585C18.6386 28.5537 19.0845 28.9193 19.3954 29.2695C19.7206 29.6365 20.0458 30.0035 20.3709 30.372C21.0213 31.1088 21.6702 31.8457 22.3177 32.5854C22.6116 32.9215 25.7922 36.388 25.7042 36.4878C23.384 39.1273 21.0326 41.736 18.6301 44.2729C18.7295 44.1688 20.9162 46.5777 21.115 46.9448C21.6403 46.5482 22.241 46.2515 22.8771 46.0743C22.5391 46.558 22.2026 47.0418 21.8647 47.5255C22.4483 47.9699 23.0404 48.3707 23.5757 48.8671C23.4635 48.7617 24.8991 47.586 25.1987 47.2738C25.5352 46.9237 25.7283 46.3668 25.9541 45.9435C26.0492 45.7649 26.2196 45.554 26.4113 45.6257C26.576 45.6876 26.5987 45.9041 26.593 46.0785C26.5774 46.5609 26.5633 47.0418 26.5476 47.5241C26.5363 47.8926 26.532 48.2892 26.7422 48.5943C26.9523 48.8995 27.4621 49.0204 27.6907 48.7279C27.8227 48.5592 27.8128 48.3257 27.7986 48.112C27.7375 47.2457 27.6779 46.3809 27.6168 45.5146C27.5615 44.7215 27.8099 44.218 28.3495 43.6569C28.97 43.0115 29.555 42.3308 30.1486 41.66C30.0733 41.7444 33.8404 46.0054 34.184 46.416C34.4978 46.7901 34.8116 47.1641 35.124 47.5382C35.5031 47.9924 35.8638 48.5732 36.3011 48.9684C36.6987 49.327 36.6987 48.9895 37.0679 48.8235C37.7339 48.5254 38.4211 48.344 39.0714 47.9699C38.2138 47.0165 37.5521 45.8901 37.1389 44.6793C37.7154 45.2572 38.2905 45.8338 38.867 46.4118C39.2915 46.8379 39.8126 46.454 40.284 46.2754C40.6816 46.1249 41.1175 46.011 41.4839 45.7902C42.4267 45.2193 41.2198 44.301 40.7768 43.768C39.1751 41.8471 37.562 39.9359 35.9419 38.0305C35.8269 37.8955 34.5901 36.5258 34.6242 36.4836C37.1332 33.515 39.5968 30.5084 41.9723 27.4554Z" fill="#FCEBC5"/>
<defs>
<linearGradient id="paint0_linear_89_169" x1="40.3064" y1="-2.11036" x2="40.7027" y2="36.6966" gradientUnits="userSpaceOnUse">
<stop stop-color="#CF5C2B"/>
<stop offset="1" stop-color="#59173E"/>
</linearGradient>
<linearGradient id="paint1_linear_89_169" x1="69.6715" y1="-14.8635" x2="0.165417" y2="115.321" gradientUnits="userSpaceOnUse">
<stop stop-color="#CF5C2B"/>
<stop offset="1" stop-color="#59173E"/>
</linearGradient>
<linearGradient id="paint2_linear_89_169" x1="61.7347" y1="-0.282534" x2="-7.77124" y2="129.902" gradientUnits="userSpaceOnUse">
<stop stop-color="#CF5C2B"/>
<stop offset="1" stop-color="#59173E"/>
</linearGradient>
<linearGradient id="paint3_linear_89_169" x1="70.9897" y1="-2.42392" x2="71.386" y2="36.3834" gradientUnits="userSpaceOnUse">
<stop stop-color="#CF5C2B"/>
<stop offset="1" stop-color="#59173E"/>
</linearGradient>
<linearGradient id="paint4_linear_89_169" x1="16.5226" y1="-1.86754" x2="16.9188" y2="36.9394" gradientUnits="userSpaceOnUse">
<stop stop-color="#CF5C2B"/>
<stop offset="1" stop-color="#59173E"/>
</linearGradient>
<linearGradient id="paint5_linear_89_169" x1="72.8351" y1="-2.44283" x2="73.2313" y2="36.3642" gradientUnits="userSpaceOnUse">
<stop stop-color="#CF5C2B"/>
<stop offset="1" stop-color="#59173E"/>
</linearGradient>
<linearGradient id="paint6_linear_89_169" x1="30.7396" y1="-16.9734" x2="18.0424" y2="28.1658" gradientUnits="userSpaceOnUse">
<stop stop-color="#CF5C2B"/>
<stop offset="1" stop-color="#59173E"/>
</linearGradient>
<linearGradient id="paint7_linear_89_169" x1="14.3295" y1="8.05223" x2="6.92401" y2="36.2263" gradientUnits="userSpaceOnUse">
<stop stop-color="#CF5C2B"/>
<stop offset="1" stop-color="#59173E"/>
</linearGradient>
</defs>
</svg>
