<svg width="569" height="300" viewBox="0 0 569 300" fill="none" xmlns="http://www.w3.org/2000/svg">
<path d="M49.4163 155.638C49.5173 155.689 49.6223 155.736 49.7303 155.779C50.6543 156.146 51.7213 156.175 52.6733 155.86L325.324 65.5909C326.174 65.31 326.866 64.7755 327.264 64.0919C327.42 63.8234 331.131 57.4362 333.972 50.4639C338.434 39.5101 338.226 33.2621 333.318 30.8026C333.192 30.7397 333.064 30.68 332.932 30.6228C332.041 30.2375 330.999 30.172 330.048 30.4422C329.097 30.7123 328.322 31.294 327.903 32.0506C324.972 37.3531 318.76 42.5943 313.29 46.5038C316.863 40.4431 322.971 32.0779 333.068 23.005C334.21 21.9792 334.361 20.4412 333.434 19.2753C333.127 18.8883 332.727 18.5759 332.271 18.3472C331.355 17.8882 330.215 17.7713 329.153 18.0813C318.049 21.3279 310.438 27.88 303.076 34.2175C300.356 36.5584 297.597 38.9342 294.62 41.1906C296.641 33.4386 295.149 25.8407 295.046 25.3377C294.863 24.4461 294.219 23.6928 293.328 23.247C292.878 23.0216 292.366 22.8741 291.817 22.8261C290.183 22.6835 288.634 23.4583 288.027 24.7228C288.006 24.7626 286.625 27.4217 282.323 31.594C284.556 27.3803 285.787 24.1842 285.908 23.8644C286.418 22.5203 285.744 21.0743 284.311 20.355C284.23 20.3144 284.148 20.2771 284.062 20.2407C282.459 19.5703 280.506 19.9614 279.449 21.1646C272.346 29.2456 260.847 33.7294 253.906 35.8325C255.828 26.0926 254.066 15.002 253.976 14.446C253.821 13.4988 253.155 12.7124 252.238 12.2534C251.553 11.9095 250.728 11.7495 249.872 11.8415C247.872 12.057 246.457 13.5692 246.705 15.2274C246.744 15.5547 247.494 23.0913 236.028 29.6135C238.054 22.628 247.475 11.8821 255.1 5.10876C256.397 3.95694 256.416 2.17452 255.143 1.00447C254.897 0.777423 254.617 0.588474 254.316 0.43766C253.064 -0.189626 251.435 -0.152338 250.212 0.612503C249.739 0.90833 238.814 7.77288 211.652 27.6737C211.263 21.4273 218.821 14.7724 218.914 14.6921C220.29 13.498 220.264 11.6087 218.853 10.4428C218.639 10.2663 218.406 10.1155 218.159 9.99199C216.773 9.29675 214.95 9.42934 213.73 10.3997C213.361 10.693 205.84 16.7687 197.39 30.7463C193.67 23.6622 186.481 15.5588 178.715 11.6667C174.478 9.54286 170.353 8.7838 166.454 9.41025C165.089 9.62902 163.992 10.4693 163.62 11.578C163.248 12.6876 163.665 13.8758 164.696 14.6473C170.007 18.6165 172.583 22.9902 172.574 28.0184C172.559 35.9146 166.08 43.5547 161.491 47.9763C160.151 42.1567 158.851 32.5917 162.188 24.9458C162.729 23.7069 162.244 22.3206 160.988 21.5127C160.875 21.4398 160.758 21.3734 160.637 21.313C159.421 20.7039 157.872 20.7279 156.676 21.4033C146.938 26.9055 141.518 39.9807 138.798 49.1713C134.618 39.8109 130.674 26.8616 134.913 19.1543C135.563 17.9719 135.234 16.5789 134.096 15.6873C133.903 15.5365 133.695 15.4064 133.475 15.2953C132.392 14.7526 131.025 14.7037 129.873 15.2067C105.341 25.8971 104.286 47.7932 106.118 60.6961C103.087 58.4737 99.4143 56.083 95.3453 54.0437C86.8803 49.801 78.9453 48.2001 71.7603 49.2848C70.2623 49.511 69.0883 50.4822 68.8123 51.7235C68.5373 52.9648 69.2173 54.2185 70.5203 54.8715C76.4533 57.8447 80.5853 66.1096 83.2993 74.5933C80.0973 70.5363 76.2613 66.4941 71.8553 63.2641C71.6893 63.1423 71.5113 63.0345 71.3243 62.94C70.6723 62.6127 69.9073 62.4603 69.1363 62.5108C68.1443 62.5763 67.2263 62.9732 66.5943 63.6112C65.6553 64.5584 65.0003 65.8188 64.5793 67.3195C63.9123 62.0965 63.6543 56.3697 64.0093 50.164C64.0733 49.0453 63.3883 47.9946 62.2453 47.422C62.1593 47.3789 62.0713 47.3383 61.9803 47.301C60.6793 46.764 59.1183 46.9157 58.0013 47.6863C39.1583 60.6936 39.8633 89.3507 41.5423 103.54C37.7303 100.922 32.7873 97.7938 27.4863 95.1371C17.4643 90.1139 9.1233 88.3066 2.6973 89.7659C1.0873 90.1321 -0.0207065 91.3519 0.000293463 92.7349C0.0172935 93.8047 0.706291 94.7626 1.76929 95.2954C2.07929 95.4512 2.42229 95.5705 2.78929 95.6451C4.6463 96.0238 6.5623 96.7049 8.4833 97.6678C30.9523 108.929 47.6403 153.482 47.8063 153.93C48.0743 154.646 48.6493 155.253 49.4163 155.638Z" fill="url(#paint0_linear_83_1267)"/>
<path d="M61.2362 114.441C61.2362 114.441 52.4702 74.2828 73.6672 59.6497C71.7792 92.7036 88.5712 110.841 88.5712 110.841C88.5712 110.841 75.6152 79.7751 81.7942 73.5403C93.9292 82.4342 101.2 99.0834 101.2 99.0834C101.2 99.0834 98.2032 68.5477 84.4712 61.665C101.599 59.078 119.881 77.4706 119.881 77.4706C119.881 77.4706 107.362 43.9958 137.427 30.8932C130.307 43.8391 145.061 68.0588 145.061 68.0588C145.061 68.0588 148.987 43.4869 161.742 36.2802C156.697 47.8373 162.394 63.3214 162.394 63.3214C162.394 63.3214 190.968 42.186 169.27 25.9677C181.745 23.9632 196.379 44.2858 195.386 50.5984C204.241 33.2954 213.235 26.1459 213.235 26.1459C213.235 26.1459 201.481 36.2769 207.55 44.4225C234.815 24.3336 245.596 17.5942 245.596 17.5942C245.596 17.5942 223.923 36.8462 227.754 46.0516C245.332 38.8333 243.737 28.1711 243.737 28.1711C243.737 28.1711 246.007 42.0857 242.399 50.963C242.399 50.963 262.069 47.2217 272.442 35.4209C272.442 35.4209 266.091 52.1521 255.569 58.536C276.003 47.4065 280.516 38.0112 280.516 38.0112C280.516 38.0112 283.818 54.1268 273.63 60.9764C291.203 53.0819 298.232 38.6336 315.371 33.6236C296.633 50.4608 292.788 64.5619 292.788 64.5619C292.788 64.5619 310.466 54.9654 316.142 44.6959C323.223 47.7594 309.633 71.0627 309.633 71.0627L65.5782 151.864C65.5782 151.864 47.4532 102.854 22.9302 97.8486C36.9352 94.6674 61.2362 114.441 61.2362 114.441Z" fill="#318063"/>
<path d="M160.522 198.672C160.591 198.605 160.665 198.541 160.742 198.479C161.408 197.951 162.309 197.679 163.229 197.727L426.688 211.53C427.509 211.573 428.282 211.869 428.852 212.36C429.077 212.553 434.407 217.148 439.192 222.445C446.709 230.767 448.644 236.153 445.283 239.394C445.197 239.477 445.107 239.558 445.014 239.638C444.383 240.174 443.515 240.472 442.611 240.463C441.707 240.453 440.848 240.136 440.235 239.587C435.938 235.737 428.858 232.702 422.863 230.632C427.965 234.98 436.012 240.709 447.707 246.115C449.03 246.725 449.679 248.005 449.281 249.216C449.149 249.617 448.913 249.977 448.601 250.278C447.973 250.883 447.039 251.247 446.028 251.229C435.444 251.034 426.725 247.204 418.293 243.499C415.178 242.131 412.017 240.742 408.711 239.505C413.059 245.659 414.354 252.496 414.436 252.949C414.581 253.754 414.286 254.546 413.676 255.135C413.368 255.431 412.98 255.676 412.528 255.846C411.181 256.347 409.595 256.044 408.648 255.105C408.617 255.076 406.538 253.124 401.452 250.559C404.784 253.64 406.917 256.084 407.129 256.329C408.02 257.359 407.933 258.752 406.951 259.699C406.896 259.752 406.838 259.803 406.777 259.854C405.634 260.798 403.834 260.918 402.523 260.136C393.722 254.882 382.382 253.722 375.74 253.537C380.676 261.412 382.922 271.296 383.033 271.791C383.221 272.636 382.918 273.463 382.29 274.068C381.821 274.521 381.17 274.85 380.408 274.97C378.627 275.251 376.906 274.287 376.558 272.813C376.481 272.524 374.573 265.912 362.572 263.002C366.666 268.499 378.348 275.492 387.153 279.508C388.65 280.19 389.269 281.708 388.578 283.004C388.444 283.256 388.269 283.482 388.064 283.681C387.207 284.508 385.803 284.853 384.498 284.484C383.994 284.341 372.339 281.014 342.403 270.32C344.183 275.746 352.891 279.677 352.997 279.724C354.576 280.425 355.193 282.045 354.382 283.368C354.259 283.569 354.11 283.752 353.941 283.914C352.992 284.83 351.39 285.14 350.019 284.595C349.605 284.43 341.124 280.985 329.179 271.006C328.397 277.922 324.995 286.515 319.677 291.643C316.776 294.441 313.508 296.048 309.966 296.418C308.726 296.548 307.505 296.085 306.812 295.224C306.119 294.363 306.073 293.25 306.693 292.352C309.887 287.728 310.61 283.392 308.901 279.099C306.218 272.357 298.099 267.335 292.683 264.623C293.506 269.905 295.631 278.379 301.068 284.136C301.949 285.069 302.004 286.366 301.203 287.348C301.131 287.437 301.053 287.521 300.971 287.6C300.138 288.403 298.807 288.742 297.557 288.443C287.376 286.003 278.325 276.092 272.892 268.872C272.486 277.839 273.496 289.818 279.724 295.418C280.679 296.277 280.87 297.544 280.198 298.571C280.085 298.744 279.95 298.904 279.8 299.05C279.058 299.765 277.907 300.124 276.752 299.962C252.179 296.526 243.872 278.065 241.074 266.616C239.236 269.219 236.907 272.114 234.12 274.802C228.323 280.393 222.085 283.603 215.58 284.344C214.223 284.499 212.892 283.942 212.236 282.946C211.581 281.949 211.738 280.721 212.631 279.86C216.694 275.942 217.429 267.921 216.878 260.043C215.514 264.253 213.605 268.597 210.933 272.38C210.832 272.522 210.717 272.656 210.588 272.779C210.141 273.21 209.54 273.518 208.864 273.653C207.994 273.828 207.076 273.702 206.321 273.304C205.199 272.713 204.213 271.787 203.345 270.603C204.542 275.22 206.258 280.172 208.66 285.392C209.093 286.333 208.863 287.389 208.081 288.144C208.022 288.2 207.96 288.256 207.895 288.309C206.965 289.069 205.58 289.302 204.366 288.904C183.869 282.167 174.78 257.521 171.415 245.009C169.044 248.132 165.879 251.952 162.249 255.453C155.386 262.072 148.871 265.552 142.888 265.798C141.389 265.859 140.03 265.074 139.58 263.888C139.233 262.969 139.498 261.991 140.225 261.29C140.438 261.085 140.69 260.904 140.978 260.754C142.436 260 143.843 258.974 145.159 257.704C160.546 242.866 159.736 200.928 159.726 200.507C159.711 199.831 159.996 199.179 160.522 198.672Z" fill="url(#paint1_linear_83_1267)"/>
<path d="M179.978 237.806C179.978 237.806 186.402 276.133 210.719 284.124C197.229 254.807 205.89 234.355 205.89 234.355C205.89 234.355 205.297 265.516 213.087 269.619C220.848 258.635 221.461 241.855 221.461 241.855C221.461 241.855 229.652 270.099 219.734 279.663C236.088 277.799 245.999 256.752 245.999 256.752C245.999 256.752 246.659 289.977 278.419 294.418C267.387 284.499 272.041 259.065 272.041 259.065C272.041 259.065 284.341 280.241 298.403 283.61C289.736 274.433 289.346 259.088 289.346 259.088C289.346 259.088 322.627 271.133 308.863 291.057C320.817 289.809 326.754 267.915 323.607 262.471C337.756 275.891 348.408 280.13 348.408 280.13C348.408 280.13 334.205 273.881 336.768 265.056C368.496 276.478 380.613 279.91 380.613 279.91C380.613 279.91 354.221 267.873 354.389 258.641C372.8 260.839 375.165 270.836 375.165 270.836C375.165 270.836 372.248 257.743 365.831 250.629C365.831 250.629 384.887 249.183 398.441 257.274C398.441 257.274 386.752 243.756 374.996 240.581C397.375 245.604 404.792 252.964 404.792 252.964C404.792 252.964 402.019 237.635 390.398 233.96C409.045 236.769 420.531 248.065 437.759 248.381C414.873 237.801 406.379 226.038 406.379 226.038C406.379 226.038 425.728 230.356 434.505 238.217C439.792 233.722 419.237 216.057 419.237 216.057L170.542 203.027C170.542 203.027 171.691 251.62 151.383 262.135C165.136 261.572 179.978 237.806 179.978 237.806Z" fill="#318063"/>
<path d="M430.556 250.971C416.277 249.935 402.696 240.113 388.397 239.422C374.092 238.731 359.351 247.184 345.034 246.839C330.714 246.493 316.533 237.341 302.209 237.341C287.885 237.341 273.704 246.493 259.384 246.839C245.067 247.184 230.326 238.731 216.021 239.422C201.722 240.113 188.14 249.934 173.862 250.971C163.693 251.693 154.005 242.414 144.216 241.053C134.211 239.662 121.704 245.814 112.506 242.462C103.199 239.071 99.4613 226.976 91.4073 221.798C83.3243 216.602 68.9373 217.027 62.5503 210.258C56.2193 203.547 59.4953 191.395 55.2573 183.359C51.1463 175.564 38.3553 169.834 36.6063 160.996C36.5833 160.87 36.4803 160.308 36.4573 160.182C36.4343 160.056 36.3433 159.552 36.3203 159.426C36.2973 159.3 36.2173 158.858 36.1943 158.733C34.3293 149.337 44.4813 139.913 46.1053 130.845C47.7543 121.642 41.3993 110.022 46.2273 101.656C50.9663 93.4451 65.5143 90.8356 72.9183 83.9115C80.0623 77.2309 81.8503 64.3926 91.1153 59.3462C99.9553 54.5309 113.999 58.6369 124.454 55.6902C134.312 52.9126 142.807 42.3009 153.835 41.5062C170.24 40.3163 187.371 48.2821 203.8 47.4882C220.235 46.6944 236.251 37.1268 252.7 36.7299C269.152 36.333 285.752 45.1125 302.209 45.1125C318.666 45.1125 335.266 36.3322 351.718 36.7299C368.167 37.1268 384.183 46.6944 400.618 47.4882C417.047 48.2821 434.178 40.3163 450.583 41.5062C461.61 42.3009 470.104 52.9118 479.962 55.6894C490.417 58.6352 504.461 54.5301 513.302 59.3454C522.567 64.3918 524.355 77.2309 531.5 83.9115C538.904 90.8356 553.452 93.4459 558.192 101.658C563.021 110.024 556.665 121.643 558.313 130.846C559.937 139.914 570.089 149.338 568.224 158.733C568.201 158.858 568.121 159.3 568.098 159.426C568.075 159.552 567.983 160.056 567.961 160.182C567.938 160.308 567.835 160.87 567.812 160.996C566.063 169.834 553.272 175.564 549.161 183.359C544.923 191.395 548.199 203.548 541.867 210.259C535.48 217.028 521.094 216.603 513.01 221.799C504.956 226.976 501.218 239.072 491.911 242.462C482.713 245.813 470.206 239.662 460.201 241.053C450.412 242.414 440.724 251.693 430.556 250.971Z" fill="url(#paint2_linear_83_1267)"/>
<path opacity="0.5" d="M555.34 149.987C555.314 150.094 555.237 150.5 555.211 150.628C555.211 150.735 555.108 151.205 555.082 151.333C555.056 151.44 554.979 151.975 554.953 152.082C553.689 158.13 546.596 162.619 541.335 167.449C539.452 169.158 537.801 170.933 536.744 172.835C535.583 174.93 534.99 177.323 534.629 179.846C533.675 186.236 534.062 193.332 529.625 197.82C523.383 204.103 509.352 203.697 501.46 208.528C493.619 213.336 489.957 224.557 480.878 227.699C471.902 230.82 459.703 225.113 449.927 226.395C440.384 227.656 430.944 236.269 421.014 235.607C407.086 234.646 393.829 225.519 379.875 224.878C365.921 224.236 351.529 232.08 337.55 231.76C323.571 231.439 309.746 222.954 295.766 222.954C281.787 222.954 267.962 231.44 253.983 231.76C240.004 232.08 225.612 224.236 211.658 224.878C197.704 225.519 184.447 234.645 170.519 235.607C160.589 236.269 151.149 227.656 141.606 226.395C131.831 225.113 119.631 230.819 110.655 227.699C101.576 224.557 97.9144 213.336 90.0734 208.528C82.1814 203.697 68.1504 204.103 61.9084 197.82C55.7184 191.579 58.9164 180.294 54.7894 172.835C50.7654 165.611 38.3084 160.289 36.5804 152.083C36.5544 151.976 36.4774 151.441 36.4514 151.334C36.4254 151.206 36.3224 150.736 36.3224 150.629C36.2964 150.501 36.2194 150.095 36.1934 149.988C34.3624 141.268 44.2664 132.505 45.8654 124.106C47.4644 115.557 41.2744 104.763 45.9684 97.0049C50.6114 89.3747 64.7964 86.96 72.0184 80.5264C78.9824 74.3281 80.7364 62.4022 89.7894 57.722C98.4044 53.2548 112.099 57.0591 122.313 54.3237C131.933 51.759 140.213 41.9064 150.994 41.1581C166.985 40.0685 183.698 47.4633 199.741 46.715C215.784 45.9883 231.414 37.097 247.457 36.734C263.5 36.3711 279.697 44.5133 295.766 44.5133C311.835 44.5133 328.032 36.3702 344.075 36.734C360.118 37.097 375.748 45.9883 391.791 46.715C407.834 47.4633 424.547 40.0685 440.538 41.1581C451.319 41.9064 459.598 51.759 469.219 54.3237C479.433 57.0591 493.128 53.2548 501.743 57.722C510.796 62.4022 512.55 74.3289 519.514 80.5264C526.736 86.96 540.921 89.3747 545.564 97.0049C547.034 99.4411 547.447 102.199 547.344 105.084C547.267 107.905 546.673 110.833 546.183 113.762C545.564 117.352 545.074 120.879 545.667 124.106C547.267 132.505 557.171 141.267 555.34 149.987Z" fill="url(#paint3_linear_83_1267)"/>
<path d="M551.187 149.069C551.161 149.198 551.084 149.604 551.058 149.711C551.032 149.839 550.955 150.287 550.929 150.416C550.903 150.523 550.8 151.035 550.8 151.164C549.51 157.298 542.211 161.786 536.95 166.68C535.222 168.305 533.726 169.972 532.746 171.746C531.482 174.033 530.889 176.683 530.528 179.44C529.703 185.595 529.909 192.242 525.679 196.517C519.489 202.757 505.561 202.373 497.746 207.16C489.957 211.926 486.32 223.061 477.319 226.181C468.421 229.259 456.298 223.595 446.626 224.878C437.134 226.139 427.772 234.667 417.919 234.004C404.094 233.063 390.966 224.023 377.116 223.381C363.266 222.74 349.003 230.52 335.152 230.2C321.276 229.879 307.554 221.458 293.678 221.458C279.828 221.458 266.106 229.879 252.23 230.2C238.38 230.52 224.116 222.741 210.266 223.381C196.416 224.023 183.262 233.063 169.437 234.004C159.61 234.666 150.222 226.138 140.756 224.878C131.058 223.595 118.962 229.259 110.063 226.181C101.036 223.061 97.4253 211.926 89.6363 207.138C84.5293 204.039 76.8173 203.12 70.3953 201.09C66.9393 200.043 63.8443 198.696 61.7033 196.516C58.5823 193.374 57.8603 188.971 57.3703 184.398C56.9063 179.974 56.6733 175.399 54.6363 171.745C50.6643 164.564 38.2843 159.306 36.5823 151.163C36.5563 151.035 36.4533 150.522 36.4533 150.415C36.4273 150.286 36.3243 149.837 36.2983 149.71C36.2983 149.603 36.2213 149.197 36.1953 149.068C34.3903 140.434 44.2163 131.735 45.7903 123.399C46.5383 119.467 45.6093 115.064 44.8613 110.704C44.3973 108.01 44.0103 105.317 44.1393 102.753C44.2423 100.551 44.7323 98.4355 45.8933 96.5122C50.4843 88.9466 64.5663 86.5527 71.7373 80.1837C78.6493 74.0285 80.3773 62.2095 89.3533 57.55C97.9163 53.1258 111.509 56.9086 121.619 54.1948C131.162 51.6301 139.39 41.8629 150.068 41.1361C161.623 40.3241 173.565 43.9999 185.352 45.7956C189.737 46.437 194.121 46.843 198.429 46.6292C204.748 46.3516 210.964 44.7913 217.18 42.9956C226.672 40.2603 236.137 36.9473 245.758 36.7336C261.698 36.3706 277.766 44.4491 293.68 44.4491C309.619 44.4491 325.688 36.3706 341.602 36.7336C357.541 37.0965 373.043 45.9025 388.956 46.6292C404.844 47.3775 421.428 40.0249 437.316 41.1361C447.994 41.8629 456.196 51.6301 465.739 54.1948C475.875 56.9094 489.468 53.1258 498.031 57.55C506.981 62.2095 508.735 74.0285 515.647 80.1837C522.817 86.5527 536.9 88.9466 541.465 96.5122C546.159 104.228 539.995 114.914 541.594 123.399C543.166 131.757 552.993 140.434 551.187 149.069Z" fill="url(#paint4_linear_83_1267)"/>
<path d="M541.335 167.456C539.452 169.166 537.801 170.94 536.744 172.842C535.583 174.937 534.99 177.33 534.629 179.853C439.765 186.564 384.183 172.394 381.423 171.667C432.027 179.98 493.026 174.766 541.335 167.456Z" fill="url(#paint5_linear_83_1267)"/>
<path d="M221.408 191.241C186.64 202.996 108.154 202.247 70.3954 201.093C66.9394 200.046 63.8444 198.699 61.7034 196.519C58.5824 193.378 57.8604 188.974 57.3704 184.401C84.1164 189.445 148.261 198.935 221.408 191.241Z" fill="url(#paint6_linear_83_1267)"/>
<path d="M266.165 214.059C266.165 214.059 393.736 206.623 407.167 202.809C420.598 198.995 408.5 202.849 408.5 202.849C408.5 202.849 348.403 224.688 266.165 214.059Z" fill="url(#paint7_linear_83_1267)"/>
<path d="M79.8094 108.528C65.8554 110.452 53.3464 110.794 44.8604 110.709C44.3964 108.016 44.0094 105.322 44.1384 102.758C52.8044 104.724 65.8814 107.267 79.8094 108.528Z" fill="url(#paint8_linear_83_1267)"/>
<path d="M217.178 42.9956C207.996 51.7585 170.958 53.0405 145.656 51.3525C156.153 50.4551 172.918 47.8689 185.35 45.7956C189.735 46.437 194.119 46.843 198.427 46.6292C204.746 46.3508 210.962 44.7905 217.178 42.9956Z" fill="url(#paint9_linear_83_1267)"/>
<path d="M547.344 105.096C547.267 107.917 546.673 110.845 546.183 113.774C529.057 111.551 515.387 105.096 515.387 105.096C515.387 105.096 535.531 105.096 547.344 105.096Z" fill="url(#paint10_linear_83_1267)"/>
<path d="M514.609 145.471C506.809 187.28 465.865 216.217 420.715 216.217C417.946 216.217 415.151 216.106 412.329 215.884C336.032 209.659 259.255 209.659 182.957 215.884C134.612 219.739 88.9832 189.851 80.7032 145.471C79.9582 141.439 79.5852 137.428 79.5852 133.44C79.5852 132.62 79.6122 131.8 79.6382 130.98C81.1022 92.2285 117.174 57.6863 167.303 53.6317C254.036 46.5642 341.275 46.5642 428.009 53.6317C478.111 57.6863 514.21 92.2285 515.674 131.002C515.86 135.766 515.514 140.618 514.609 145.471Z" fill="#562500"/>
<path d="M512.937 130.126C512.858 133.414 512.487 136.746 511.879 140.078C504.128 181.422 463.467 210.073 418.627 210.073C415.849 210.073 413.045 209.963 410.241 209.744C334.422 203.584 258.127 203.584 182.309 209.744C134.267 213.581 88.9242 183.986 80.6972 140.077C80.0892 136.745 79.7182 133.413 79.6392 130.102C81.0942 91.7617 116.94 57.5858 166.754 53.5743C252.943 46.5813 339.634 46.5813 425.823 53.5743C475.609 57.5875 511.482 91.7634 512.937 130.126Z" fill="url(#paint11_linear_83_1267)"/>
<path d="M506.482 125.061C506.482 128.481 506.112 131.945 505.397 135.386C497.91 171.645 458.546 196.744 415.134 196.744C412.436 196.744 409.737 196.657 407.039 196.459C333.628 191.067 259.793 191.067 186.382 196.459C149.451 199.133 114.135 183.306 97.1771 157.418C92.7861 150.71 89.6371 143.3 87.9971 135.386C87.2831 131.901 86.9121 128.416 86.9121 124.974C86.9121 90.4471 122.097 59.319 171.302 55.7019C254.74 49.5857 338.68 49.5857 422.091 55.7019C471.377 59.319 506.535 90.5134 506.482 125.061Z" fill="url(#paint12_linear_83_1267)"/>
<path opacity="0.49" d="M506.482 125.06C506.482 128.479 506.112 131.943 505.397 135.384C497.91 171.643 458.546 196.743 415.134 196.743C412.436 196.743 409.737 196.655 407.039 196.458C333.628 191.065 259.793 191.065 186.382 196.458C149.451 199.132 114.135 183.304 97.1772 157.416C230.189 187.878 473.147 157.276 506.482 125.06Z" fill="#96440C"/>
<path opacity="0.55" d="M189.216 78.0383C204.51 78.0383 216.908 75.0314 216.908 71.3222C216.908 67.6129 204.51 64.606 189.216 64.606C173.922 64.606 161.524 67.6129 161.524 71.3222C161.524 75.0314 173.922 78.0383 189.216 78.0383Z" fill="#F9BE93"/>
<path opacity="0.55" d="M145.632 78.3947C146.724 81.1416 142.568 84.7454 136.348 86.4433C130.128 88.1412 124.201 87.291 123.109 84.5441C122.017 81.7971 126.173 78.1941 132.393 76.4954C138.612 74.7975 144.539 75.6477 145.632 78.3947Z" fill="#F9BE93"/>
<path d="M194.884 93.9858C197.123 94.5161 199.126 94.9285 200.894 95.2231C202.72 95.4588 204.252 95.6356 205.489 95.7534C206.962 95.9302 208.258 95.9891 209.378 95.9302C210.792 95.8713 212.56 95.665 214.681 95.3115C216.802 94.958 219.041 94.6045 221.397 94.251C223.754 93.8975 226.082 93.6029 228.379 93.3672C230.677 93.1315 232.681 93.1021 234.389 93.2788C236.098 93.4556 237.895 93.868 239.78 94.5161C241.666 95.1053 243.433 95.9302 245.083 96.9907C246.733 97.9924 248.147 99.2297 249.325 100.703C250.562 102.176 251.328 103.884 251.623 105.829C251.918 107.714 251.741 109.747 251.093 111.927C250.445 114.048 249.414 116.139 248 118.202C246.585 120.205 244.818 122.061 242.697 123.77C240.576 125.478 238.219 126.863 235.626 127.923C233.564 128.689 231.325 129.278 228.91 129.691C226.847 130.044 224.432 130.28 221.663 130.398C218.952 130.457 216.065 130.162 213.001 129.514C212.589 131.223 212.353 132.814 212.294 134.287C212.294 135.701 212.353 136.967 212.471 138.087C212.648 139.383 212.884 140.562 213.178 141.622C213.532 142.683 213.974 143.92 214.504 145.334C214.975 146.512 215.506 147.956 216.095 149.665C216.743 151.314 217.509 153.17 218.393 155.232C217.332 155.232 216.301 155.262 215.299 155.321C214.298 155.321 213.384 155.35 212.56 155.409C211.617 155.468 210.733 155.527 209.908 155.586C208.965 155.645 207.905 155.763 206.727 155.939C205.725 156.057 204.458 156.234 202.926 156.47C201.453 156.705 199.774 157 197.889 157.354C199.126 155.586 200.098 153.966 200.805 152.493C201.571 150.961 202.131 149.635 202.484 148.516C202.897 147.219 203.162 146.041 203.28 144.98C203.339 144.097 203.339 142.535 203.28 140.296C203.28 138.057 203.25 135.465 203.191 132.519C203.132 129.573 203.044 126.48 202.926 123.239C202.808 119.999 202.661 116.964 202.484 114.136C202.308 111.249 202.101 108.775 201.866 106.712C201.689 104.65 201.512 103.295 201.335 102.647C201.1 101.881 200.687 101.056 200.098 100.172C199.627 99.4064 198.949 98.5226 198.065 97.521C197.241 96.4604 196.18 95.2821 194.884 93.9858ZM213.178 111.396C213.119 111.986 213.09 112.604 213.09 113.252C213.09 114.49 213.178 116.081 213.355 118.025C213.767 119.027 214.268 119.851 214.857 120.5C215.506 121.148 216.183 121.648 216.89 122.002C217.656 122.355 218.422 122.591 219.188 122.709C219.954 122.827 220.72 122.886 221.486 122.886C223.253 122.827 225.109 122.414 227.054 121.648C229.646 120.529 231.473 118.938 232.533 116.876C233.594 114.814 234.153 112.693 234.212 110.513C234.271 108.333 233.888 106.329 233.063 104.503C232.298 102.676 231.355 101.439 230.235 100.791C229.293 100.379 228.085 100.202 226.612 100.261C225.316 100.32 223.695 100.644 221.751 101.233C219.807 101.822 217.42 102.883 214.592 104.415C214.298 105.475 214.062 106.418 213.885 107.243C213.708 108.068 213.561 108.804 213.443 109.452C213.326 110.159 213.237 110.807 213.178 111.396ZM254.186 159.74C254.775 158.856 255.247 158.031 255.6 157.265C255.954 156.499 256.248 155.851 256.484 155.321C256.72 154.673 256.896 154.083 257.014 153.553C257.073 153.2 257.103 152.169 257.103 150.46C257.103 148.751 257.044 146.601 256.926 144.008C256.867 141.416 256.778 138.499 256.661 135.259C256.602 132.018 256.484 128.719 256.307 125.36C256.189 122.002 256.042 118.732 255.865 115.55C255.747 112.369 255.63 109.511 255.512 106.978C255.394 104.385 255.276 102.264 255.158 100.614C255.04 98.9645 254.952 98.0218 254.893 97.7861C254.775 97.4326 254.569 97.0791 254.274 96.7256C253.685 96.0186 252.684 95.341 251.27 94.6929C254.274 93.9269 256.572 93.3083 258.163 92.8369C259.106 92.6012 259.931 92.3656 260.638 92.1299C261.286 91.8942 261.934 91.6585 262.582 91.4229C263.112 91.1872 263.701 90.922 264.35 90.6274C264.998 90.2739 265.587 89.891 266.117 89.4785C265.823 91.1872 265.587 92.8369 265.41 94.4277C265.233 96.0186 265.086 97.4915 264.968 98.8467C264.85 100.379 264.792 101.852 264.792 103.266C264.497 106.153 264.32 109.305 264.261 112.722C264.261 116.081 264.291 119.498 264.35 122.974C264.409 126.45 264.526 129.838 264.703 133.138C264.88 136.437 265.057 139.442 265.233 142.152C265.469 144.804 265.675 147.072 265.852 148.958C266.088 150.784 266.264 151.962 266.382 152.493C266.618 153.376 266.854 154.231 267.089 155.056C267.325 155.763 267.59 156.499 267.885 157.265C268.179 158.09 268.533 158.738 268.945 159.209H260.373C259.607 159.209 258.87 159.239 258.163 159.298C257.515 159.357 256.837 159.416 256.13 159.475C255.423 159.534 254.775 159.622 254.186 159.74ZM278.755 121.472C279.05 121.118 279.227 120.47 279.286 119.527C279.403 118.526 279.639 117.406 279.993 116.169C280.405 114.932 281.083 113.635 282.025 112.28C282.968 110.925 284.5 109.658 286.621 108.48C288.683 107.302 290.687 106.595 292.631 106.359C294.575 106.123 296.431 106.212 298.199 106.624C299.966 107.036 301.616 107.685 303.148 108.568C304.739 109.452 306.182 110.424 307.479 111.485C308.362 112.192 309.069 113.223 309.6 114.578C310.13 115.874 310.542 117.347 310.837 118.997C311.132 120.647 311.338 122.385 311.456 124.211C311.632 125.979 311.75 127.717 311.809 129.426C311.868 131.076 311.897 132.607 311.897 134.021C311.956 135.377 312.074 136.496 312.251 137.38C312.487 138.676 312.899 139.796 313.488 140.738C314.077 141.622 314.726 142.388 315.433 143.036C316.14 143.625 316.847 144.097 317.554 144.45C318.261 144.804 318.879 145.069 319.41 145.246C319.763 145.422 320.087 145.54 320.382 145.599C320.971 145.835 321.383 145.835 321.619 145.599C321.266 146.424 320.942 147.131 320.647 147.72C320.352 148.309 320.117 148.81 319.94 149.223C319.704 149.694 319.498 150.077 319.321 150.372C319.145 150.725 318.938 151.049 318.703 151.344C318.526 151.638 318.29 151.962 317.996 152.316C317.701 152.669 317.406 153.052 317.112 153.465C316.346 153.17 315.609 152.817 314.902 152.404C314.254 151.992 313.665 151.609 313.135 151.255C312.487 150.843 311.897 150.431 311.367 150.018C310.837 149.606 310.336 149.134 309.865 148.604C309.452 148.133 309.01 147.632 308.539 147.102C308.127 146.571 307.773 145.982 307.479 145.334C307.125 146.1 306.271 147.19 304.916 148.604C303.619 150.018 301.911 151.314 299.79 152.493C297.668 153.612 295.194 154.408 292.366 154.879C289.597 155.35 286.533 155.026 283.174 153.907C281.701 153.435 280.317 152.758 279.021 151.874C277.724 150.931 276.605 149.812 275.662 148.516C274.778 147.219 274.13 145.746 273.718 144.097C273.364 142.388 273.394 140.503 273.806 138.44C274.219 136.378 274.955 134.64 276.016 133.226C277.076 131.812 278.343 130.663 279.816 129.779C281.289 128.896 282.939 128.218 284.765 127.747C286.592 127.275 288.477 126.951 290.421 126.774C291.953 126.715 293.485 126.804 295.017 127.04C296.313 127.275 297.668 127.717 299.083 128.365C300.497 128.954 301.704 129.868 302.706 131.105C302.647 127.982 302.529 125.508 302.353 123.681C302.235 121.796 302.117 120.352 301.999 119.351C301.763 118.172 301.557 117.347 301.38 116.876C301.086 116.464 300.762 115.992 300.408 115.462C300.114 114.932 299.731 114.46 299.259 114.048C298.788 113.576 298.199 113.194 297.492 112.899C296.785 112.604 295.96 112.486 295.017 112.545C294.015 112.604 293.22 112.869 292.631 113.341C292.042 113.812 291.57 114.372 291.217 115.02C290.922 115.609 290.745 116.257 290.687 116.964C290.628 117.671 290.657 118.29 290.775 118.82C290.893 119.174 291.069 119.557 291.305 119.969C291.541 120.323 291.865 120.706 292.277 121.118C292.69 121.531 293.25 121.884 293.957 122.179C292.601 122.355 291.394 122.503 290.333 122.621C289.272 122.68 288.359 122.768 287.593 122.886C286.709 123.004 285.944 123.092 285.295 123.151C284.647 123.21 283.881 123.328 282.998 123.504C282.232 123.622 281.289 123.77 280.169 123.946C279.05 124.123 277.754 124.359 276.281 124.653C276.634 124.241 276.958 123.858 277.253 123.504C277.548 123.092 277.813 122.738 278.048 122.444C278.284 122.09 278.52 121.766 278.755 121.472ZM292.012 131.989C290.952 132.048 289.891 132.313 288.831 132.784C287.77 133.197 286.827 133.815 286.002 134.64C285.178 135.406 284.471 136.319 283.881 137.38C283.351 138.382 283.086 139.501 283.086 140.738C283.086 141.976 283.381 143.066 283.97 144.008C284.618 144.892 285.443 145.629 286.444 146.218C287.505 146.807 288.624 147.16 289.803 147.278C291.04 147.396 292.248 147.278 293.426 146.925C294.546 146.512 295.606 145.864 296.608 144.98C297.61 144.038 298.464 143.036 299.171 141.976C299.878 140.856 300.379 139.766 300.673 138.706C300.968 137.586 300.997 136.673 300.762 135.966C300.29 134.434 299.23 133.373 297.58 132.784C295.93 132.136 294.074 131.871 292.012 131.989ZM316.228 112.104C317.406 112.28 318.467 112.428 319.41 112.545C320.293 112.604 321.089 112.663 321.796 112.722C322.562 112.781 323.298 112.811 324.005 112.811C324.653 112.811 325.478 112.781 326.48 112.722C327.305 112.663 328.365 112.604 329.662 112.545C331.017 112.428 332.608 112.28 334.434 112.104C334.316 112.339 334.081 113.076 333.727 114.313C333.374 115.491 333.02 116.964 332.667 118.732C332.313 120.441 331.989 122.355 331.694 124.477C331.459 126.539 331.341 128.601 331.341 130.663C331.4 132.666 331.665 134.581 332.136 136.408C332.608 138.175 333.374 139.619 334.434 140.738C336.673 143.036 338.647 144.421 340.355 144.892C342.123 145.363 343.655 145.305 344.951 144.715C346.247 144.126 347.308 143.242 348.133 142.064C348.958 140.886 349.547 139.796 349.9 138.794C350.784 136.084 351.314 133.226 351.491 130.221C351.609 127.629 351.403 124.742 350.873 121.56C350.342 118.378 349.076 115.138 347.072 111.838C348.604 111.956 349.93 112.045 351.049 112.104C352.169 112.162 353.141 112.221 353.966 112.28C354.909 112.339 355.733 112.398 356.44 112.457C357.089 112.516 357.854 112.516 358.738 112.457C359.504 112.457 360.417 112.428 361.478 112.369C362.597 112.251 363.835 112.133 365.19 112.015C365.426 117.789 365.632 122.945 365.809 127.481C365.985 131.959 366.103 135.936 366.162 139.413C366.28 142.83 366.339 145.805 366.339 148.339C366.339 150.813 366.339 152.905 366.339 154.614C366.28 158.679 366.103 161.36 365.809 162.656C365.337 164.483 364.483 166.309 363.246 168.136C362.067 169.962 360.565 171.583 358.738 172.997C356.912 174.47 354.791 175.589 352.375 176.355C350.018 177.18 347.426 177.474 344.598 177.239C341.828 177.003 339.619 176.62 337.969 176.09C336.378 175.618 335.112 175.059 334.169 174.411C333.285 173.763 332.637 173.085 332.225 172.378C331.871 171.671 331.606 170.934 331.429 170.168C331.252 169.461 331.076 168.784 330.899 168.136C330.722 167.488 330.369 166.928 329.838 166.457C329.19 165.926 328.513 165.396 327.806 164.866C327.158 164.394 326.451 163.923 325.685 163.452C324.978 162.98 324.271 162.597 323.563 162.303L342.388 161.242C341.858 161.949 341.475 162.597 341.239 163.187C341.004 163.776 340.856 164.277 340.797 164.689C340.738 165.219 340.768 165.661 340.886 166.015C341.121 166.722 341.534 167.488 342.123 168.312C342.771 169.196 343.596 169.874 344.598 170.345C345.599 170.875 346.778 171.052 348.133 170.875C349.547 170.699 351.138 169.962 352.905 168.666C354.378 167.547 355.616 165.75 356.617 163.275C357.442 161.154 358.09 158.178 358.562 154.349C359.033 150.519 358.944 145.481 358.296 139.236C357.236 142.889 355.792 145.688 353.966 147.632C352.139 149.576 350.313 150.99 348.486 151.874C346.365 152.935 344.156 153.494 341.858 153.553C338.794 153.435 336.172 153.052 333.992 152.404C331.812 151.697 330.015 150.755 328.601 149.576C327.187 148.398 326.068 147.013 325.243 145.422C324.477 143.773 323.917 141.946 323.563 139.943C323.21 137.94 323.033 135.936 323.033 133.933C323.033 131.871 323.033 129.956 323.033 128.188C323.092 126.421 323.122 124.83 323.122 123.416C323.122 121.943 322.974 120.765 322.68 119.881C322.326 118.997 321.855 118.113 321.266 117.229C320.794 116.464 320.146 115.639 319.321 114.755C318.438 113.812 317.406 112.928 316.228 112.104Z" fill="white" fill-opacity="0.8"/>
<defs>
<linearGradient id="paint0_linear_83_1267" x1="159.851" y1="-42.3145" x2="172.808" y2="189.714" gradientUnits="userSpaceOnUse">
<stop offset="2.7e-07" stop-color="#95D543"/>
<stop offset="0.2613" stop-color="#72B74E"/>
<stop offset="0.5762" stop-color="#4F9959"/>
<stop offset="0.8338" stop-color="#398760"/>
<stop offset="1" stop-color="#318063"/>
</linearGradient>
<linearGradient id="paint1_linear_83_1267" x1="62.7601" y1="279.382" x2="412.783" y2="187.315" gradientUnits="userSpaceOnUse">
<stop offset="2.7e-07" stop-color="#95D543"/>
<stop offset="0.2613" stop-color="#72B74E"/>
<stop offset="0.5762" stop-color="#4F9959"/>
<stop offset="0.8338" stop-color="#398760"/>
<stop offset="1" stop-color="#318063"/>
</linearGradient>
<linearGradient id="paint2_linear_83_1267" x1="188.485" y1="-32.0738" x2="384.656" y2="409.054" gradientUnits="userSpaceOnUse">
<stop stop-color="#F8A45B"/>
<stop offset="0.2171" stop-color="#C97F40"/>
<stop offset="0.4733" stop-color="#985825"/>
<stop offset="0.6987" stop-color="#743C11"/>
<stop offset="0.8819" stop-color="#5E2B04"/>
<stop offset="1" stop-color="#562500"/>
</linearGradient>
<linearGradient id="paint3_linear_83_1267" x1="298.818" y1="164.655" x2="329.486" y2="412.368" gradientUnits="userSpaceOnUse">
<stop stop-color="#F8A45B"/>
<stop offset="0.3936" stop-color="#CC7937"/>
<stop offset="0.7917" stop-color="#A55318"/>
<stop offset="1" stop-color="#96440C"/>
</linearGradient>
<linearGradient id="paint4_linear_83_1267" x1="257.407" y1="-18.1019" x2="300.089" y2="258.259" gradientUnits="userSpaceOnUse">
<stop stop-color="#F8A45B"/>
<stop offset="0.3936" stop-color="#CC7937"/>
<stop offset="0.7917" stop-color="#A55318"/>
<stop offset="1" stop-color="#96440C"/>
</linearGradient>
<linearGradient id="paint5_linear_83_1267" x1="461.445" y1="170.563" x2="462.244" y2="188.24" gradientUnits="userSpaceOnUse">
<stop offset="0.3844" stop-color="#96440C"/>
<stop offset="0.3989" stop-color="#9A4810"/>
<stop offset="0.5039" stop-color="#B76427"/>
</linearGradient>
<linearGradient id="paint6_linear_83_1267" x1="139.547" y1="183.945" x2="138.614" y2="217.357" gradientUnits="userSpaceOnUse">
<stop offset="0.3844" stop-color="#96440C"/>
<stop offset="0.3989" stop-color="#9A4810"/>
<stop offset="0.5039" stop-color="#B76427"/>
</linearGradient>
<linearGradient id="paint7_linear_83_1267" x1="339.88" y1="208.886" x2="340.151" y2="219.997" gradientUnits="userSpaceOnUse">
<stop offset="0.3844" stop-color="#96440C"/>
<stop offset="0.3989" stop-color="#9A4810"/>
<stop offset="0.5039" stop-color="#B76427"/>
</linearGradient>
<linearGradient id="paint8_linear_83_1267" x1="62.4282" y1="100.852" x2="61.3093" y2="118.037" gradientUnits="userSpaceOnUse">
<stop offset="0.3844" stop-color="#96440C"/>
<stop offset="0.3989" stop-color="#9A4810"/>
<stop offset="0.5039" stop-color="#B76427"/>
</linearGradient>
<linearGradient id="paint9_linear_83_1267" x1="181.196" y1="45.1182" x2="181.874" y2="54.2889" gradientUnits="userSpaceOnUse">
<stop offset="0.3844" stop-color="#96440C"/>
<stop offset="0.3989" stop-color="#9A4810"/>
<stop offset="0.5039" stop-color="#B76427"/>
</linearGradient>
<linearGradient id="paint10_linear_83_1267" x1="532.565" y1="99.4418" x2="530.154" y2="119.161" gradientUnits="userSpaceOnUse">
<stop offset="0.3844" stop-color="#96440C"/>
<stop offset="0.3989" stop-color="#9A4810"/>
<stop offset="0.5039" stop-color="#B76427"/>
</linearGradient>
<linearGradient id="paint11_linear_83_1267" x1="290.043" y1="86.1271" x2="304.111" y2="231.257" gradientUnits="userSpaceOnUse">
<stop stop-color="#F8A45B"/>
<stop offset="0.2171" stop-color="#C97F40"/>
<stop offset="0.4733" stop-color="#985825"/>
<stop offset="0.6987" stop-color="#743C11"/>
<stop offset="0.8819" stop-color="#5E2B04"/>
<stop offset="1" stop-color="#562500"/>
</linearGradient>
<linearGradient id="paint12_linear_83_1267" x1="296.697" y1="58.125" x2="296.697" y2="219.127" gradientUnits="userSpaceOnUse">
<stop stop-color="#F8A45B"/>
<stop offset="0.3936" stop-color="#CC7937"/>
<stop offset="0.7917" stop-color="#A55318"/>
<stop offset="1" stop-color="#96440C"/>
</linearGradient>
</defs>
</svg>
