<svg width="353" height="80" viewBox="0 0 353 80" fill="none" xmlns="http://www.w3.org/2000/svg">
<path d="M352.813 63.7399C352.619 62.0881 352.444 60.4353 352.282 58.7814C352.113 57.0399 351.941 55.2984 351.782 53.5569C351.675 52.3671 351.519 51.1039 351.471 49.8834C351.431 48.8589 352.097 47.1765 351.214 46.2592C350.687 45.7097 349.547 45.5477 348.534 45.4372C347.203 45.2916 345.872 45.1471 344.541 45.0015C346.326 44.7465 348.082 44.417 349.795 44.0153C350.179 43.9255 350.58 43.8237 350.831 43.6234C351.056 43.4439 351.132 43.2097 351.192 42.9853C351.786 40.7184 351.41 38.3114 351.394 36.0215C351.378 33.6834 351.362 31.3465 351.346 29.0084C351.322 26.7842 351.313 24.5589 351.285 22.3347C351.276 21.598 351.77 19.9988 351.192 19.3475C350.715 18.8112 349.616 18.8462 348.737 18.7871C347.856 18.7291 346.968 18.7291 346.085 18.762C344.764 18.8123 343.454 18.9371 342.149 19.063C343.86 18.7652 345.629 18.6251 347.356 18.3657C348.475 18.1971 349.581 17.976 350.601 17.6389C351.214 17.4364 351.904 17.2416 352.257 16.8464C352.405 16.68 352.472 16.4709 352.537 16.286C352.681 15.8755 352.729 15.4552 352.769 15.037C352.883 13.8844 352.954 12.7307 352.982 11.5759C352.996 10.9936 353.01 10.4091 352.991 9.82676C352.978 9.44693 352.748 9.0901 352.693 8.70918C352.466 7.13734 351.45 5.62791 349.816 4.42277C348.191 3.22309 345.986 2.34632 343.547 1.9457C342.643 1.79684 341.711 1.71363 340.778 1.69393C230.772 -0.522621 122.89 -0.600327 17.3428 1.67643C16.933 1.68518 16.4705 1.66108 16.0766 1.72567C15.6458 1.79681 15.2202 1.90192 14.8017 1.99387C13.9347 2.18323 13.0748 2.39009 12.2448 2.63747C10.6305 3.118 9.11104 3.7649 8.06999 4.68546C7.47385 5.21415 7.05884 5.8118 6.50138 6.35581C6.22177 6.62946 5.84722 6.8418 5.61685 7.12859C4.50019 8.52091 3.37294 9.93076 1.8307 11.1644C0.3254 12.3706 -0.137046 14.2752 0.0335316 15.7507C0.265658 17.7582 0.343015 19.7887 0.629656 21.7885C1.08687 24.9825 0.668312 28.182 1.22401 31.3946C1.30314 31.8555 1.42449 32.359 1.98371 32.6644C2.36707 32.8734 2.88937 32.949 3.38879 33.0168C5.01368 33.2379 6.6368 33.458 8.26168 33.6791C6.25168 34.4902 3.25336 34.5515 2.19472 35.888C1.85357 36.3181 1.79378 36.8107 1.74103 37.2901C1.54935 38.9999 1.29262 40.7064 1.10621 42.4172C1.02356 43.1856 0.955003 43.9551 0.912798 44.7246C0.874111 45.4602 0.773823 46.1618 0.663036 46.893C0.404531 48.5896 -0.290065 50.8062 0.545239 52.4656C1.35241 54.0702 4.56875 54.137 6.79681 54.5267C5.62563 54.6099 4.72877 55.2031 4.0447 55.8008C3.70003 56.1018 3.4556 56.4247 3.12851 56.7323C2.84011 57.0027 2.57637 57.2818 2.33721 57.5697C1.85888 58.1454 1.47724 58.7518 1.20115 59.3768C1.01474 59.7961 0.911018 60.1244 0.879364 60.5601C0.851228 60.9487 0.824839 61.3362 0.801978 61.7248C0.756256 62.5019 0.717589 63.278 0.691211 64.0551C0.636696 65.6084 0.617354 67.1627 0.638457 68.717C0.657801 70.221 0.0862579 71.6801 1.11324 73.1643C2.12967 74.6322 3.87767 75.9019 6.07232 76.7338C7.84844 77.407 9.85489 77.7682 11.9264 77.8394C118.082 80.7444 225.989 80.7017 335.581 77.8218C338.476 77.7452 341.266 77.0261 343.398 75.8034C344.425 75.2145 345.311 74.6979 346.072 73.9634C346.999 73.068 347.868 72.1497 348.677 71.2105C350.652 68.9184 353.121 66.3888 352.813 63.7399Z" fill="url(#paint0_linear_104_298)"/>
<path d="M341.001 72.016C231.404 74.8893 123.504 74.9331 17.3532 72.027C12.6316 72.027 8.22817 69.9243 6.47843 67.2721C5.70116 66.1052 5.52356 64.818 5.64666 63.5625C5.66425 63.3425 5.69942 63.1224 5.80669 62.9024C5.96496 62.5609 6.21291 62.2643 6.28325 61.9118C6.31842 61.7247 6.35359 61.5484 6.38876 61.3613C6.56637 60.3597 6.61912 59.3362 6.75981 58.3347C6.84773 57.7732 6.95501 57.1788 7.20121 56.6403C7.48433 56.0131 7.94329 55.4406 8.77508 55.0553C12.2763 53.4265 19.1012 53.4484 24.1939 53.3817C25.184 53.3598 26.1037 53.3488 26.9354 53.316C29.1459 53.2273 31.3564 53.1945 33.5845 53.2054C28.3335 53.1945 23.0808 52.9077 17.9177 52.3473C15.4593 52.0944 13.0202 51.7638 10.6145 51.3785C10.0307 51.291 9.41166 51.1695 8.86475 51.0042C8.10507 50.7951 7.45089 50.4864 7.11325 50.0245C6.83013 49.6283 6.84773 49.1883 6.86531 48.7701C6.8829 48.3629 6.79499 47.9448 6.83016 47.5376C6.88292 46.6685 7.06053 45.8202 7.20121 44.962C7.34189 44.2681 7.46676 43.5642 7.53711 42.8593C7.71472 40.9887 7.90812 39.1279 8.13849 37.2681C8.20883 36.7066 8.31611 36.0904 8.95094 35.6941C9.33958 35.4522 9.83548 35.3307 10.3296 35.2213C11.6731 34.9137 13.0536 34.6816 14.4674 34.5382C15.1216 34.4616 15.8286 34.4616 16.4652 34.351C17.2073 34.2076 17.7911 34.1091 18.6053 34.0544C26.3499 33.4929 34.0769 32.9314 41.8232 32.3709C42.7429 32.3053 43.6802 32.2385 44.5999 32.1728C32.9286 31.2928 21.2589 30.3897 9.58753 29.5096C9.07404 29.4659 8.56231 29.433 8.04881 29.3882C7.58984 29.3553 7.09393 29.3115 6.77564 29.1025C6.74047 29.0915 6.72287 29.0696 6.70528 29.0587C6.47491 28.8715 6.43976 28.6296 6.40459 28.3877C5.87351 24.4581 6.47491 20.4081 6.12145 16.4457C6.08628 16.2257 5.99838 15.1136 5.89111 13.8592C5.73108 12.0432 5.53763 9.95147 5.44971 9.95147C4.9538 5.59279 10.3296 1.82849 17.3497 1.6862C122.881 -0.592748 230.764 -0.515055 340.767 1.69712C347.822 1.84051 353.251 5.62672 352.702 10.0073C352.507 11.5036 352.985 12.9353 352.401 14.4426C352.278 14.795 352.083 15.1584 351.659 15.4004C351.271 15.6094 350.757 15.686 350.245 15.7638C348.919 15.9619 347.593 16.171 346.248 16.3691C344.479 16.6329 342.729 16.8748 340.943 16.9963C330.333 17.7012 319.742 18.405 309.148 19.1209C308.865 19.1318 308.582 19.1537 308.299 19.1756C307.963 19.1975 307.61 19.2194 307.274 19.2413C308.123 19.2303 308.953 19.2194 309.803 19.2194C323.083 19.076 336.397 18.9446 349.677 18.8012C350.048 18.8012 350.455 18.8013 350.755 18.9447C351.091 19.099 351.179 19.3847 351.234 19.6496C351.304 20.002 351.322 20.3424 351.304 20.673C351.286 21.7183 350.986 22.7308 350.986 23.7992C350.986 24.746 351.357 25.6698 351.339 26.6276C351.304 28.0144 351.234 29.4122 351.144 30.8319C350.931 34.0128 350.578 37.2375 350.012 40.4184C349.924 40.8803 349.816 41.3761 349.322 41.7166C348.934 41.9804 348.367 42.1237 347.819 42.2343C347.483 42.3109 347.129 42.3777 346.776 42.4215C338.978 43.8083 330.42 42.7072 322.41 43.5664C321.878 43.6102 321.349 43.6759 320.836 43.7536C320.658 43.7755 320.482 43.8083 320.305 43.8302C320.959 43.8631 321.613 43.8849 322.267 43.9287C331.037 44.325 339.791 44.8756 348.508 45.5685C349.533 45.6451 350.666 45.7666 351.267 46.2843C351.728 46.6806 351.745 47.2093 351.745 47.6931V49.2999C351.745 50.9177 351.745 52.5465 351.869 54.1654C352.029 56.3119 352.24 58.4463 352.47 60.5928C352.575 61.6382 352.683 62.6955 352.806 63.7409C353.325 68.0755 347.984 71.8288 341.001 72.016Z" fill="url(#paint1_linear_104_298)"/>
<path d="M351.345 26.6249C351.31 28.0117 351.239 29.4095 351.15 30.8292C346.658 31.0821 342.237 31.3021 337.922 31.5998C336.92 31.6688 335.915 31.7366 334.911 31.8023C331.195 32.0464 327.474 32.2664 323.752 32.4667C321.889 32.5674 320.027 32.6572 318.165 32.7535C316.979 32.8148 315.91 33.1082 314.746 33.1892C313.121 33.3019 311.359 33.0392 309.729 32.979C307.911 32.9122 306.089 32.8893 304.269 32.9024C300.613 32.9287 296.962 33.1027 293.331 33.361C286.05 33.8798 278.847 34.738 271.623 35.49C260.045 36.694 248.388 37.6047 236.692 38.2199C243.063 38.6129 249.392 39.2598 255.631 40.1551C253.292 40.2745 250.952 40.3785 248.609 40.4693C241.174 40.7561 233.725 40.9039 226.276 40.9794C218.822 41.0549 211.366 41.0571 203.909 41.0516C196.453 41.0461 188.995 41.0319 181.539 41.0746C174.09 41.1173 166.639 41.2158 159.197 41.4369C155.478 41.5475 151.76 41.6876 148.048 41.866C147.119 41.9109 146.191 41.958 145.264 42.0072C144.135 42.0674 143.059 42.2677 141.916 42.3498C133.026 42.9945 124.167 43.8078 115.385 44.8838C101.733 46.5563 88.029 48.1862 74.1489 48.7805C71.6377 48.8791 69.1265 48.9787 66.6153 49.0772C54.6626 50.5746 41.7532 50.8822 30.029 51.7743C26.0512 52.083 21.9837 52.2471 17.9162 52.3467C15.4578 52.0939 13.0188 51.7633 10.6131 51.378C10.0292 51.2905 9.41025 51.169 8.86335 51.0037C8.10366 50.7946 7.44948 50.4859 7.11184 50.024C6.82872 49.6278 6.84627 49.1877 6.86385 48.7696C6.88144 48.3624 6.79353 47.9443 6.8287 47.5371C6.88146 46.668 7.05906 45.8197 7.19975 44.9615C17.9338 44.4109 28.9317 42.4735 39.2578 41.5497C52.5207 40.3719 66.0121 39.6681 79.3805 39.2051C94.5162 38.6873 109.601 39.7994 124.684 39.7994C138.654 39.7994 152.606 39.0398 166.504 38.3469C193.594 36.9819 220.649 35.5732 247.721 34.1097C241.832 34.0484 235.945 33.9499 230.059 33.8218C222.555 33.6587 215.053 33.4497 207.555 33.2099C205.807 33.1541 204.013 33.0107 202.284 33.1366C200.498 33.2669 198.678 33.2986 196.88 33.2833C193.309 33.2526 189.743 32.9691 186.275 32.4383C184.233 32.1252 182.221 31.7268 180.152 31.5013C176.659 31.1204 173.082 31.2408 169.537 31.2123C156.29 31.1062 143.231 28.9235 129.984 29.0089C126.506 29.0319 123.036 29.2114 119.572 29.4018C115.889 29.6054 112.205 29.8233 108.507 29.8813C106.879 29.9065 105.166 29.9831 103.583 29.75C102.352 29.5693 100.958 29.6602 99.7004 29.6394C97.4583 29.6011 95.2161 29.5682 92.9757 29.5398C88.4915 29.4829 84.0072 29.4456 79.5212 29.4314C62.5285 29.3767 45.571 29.9711 28.5765 29.8824C21.3261 29.8496 13.9525 29.7499 6.77417 29.1008C6.739 29.0899 6.72146 29.068 6.70387 29.0571C6.4735 28.8699 6.4383 28.628 6.40313 28.3861C5.87205 24.4565 6.4735 20.4065 6.12004 16.4441C6.08487 16.2241 5.99692 15.1119 5.88965 13.8575C14.5539 13.3956 23.2903 13.2741 31.9546 12.8779C48.9297 12.0963 65.9049 11.7658 82.9521 11.8106C116.726 11.9103 150.411 13.2522 184.08 14.8481C217.767 16.4441 251.381 18.4034 285.066 19.8888C302.094 20.6375 319.141 21.0994 336.204 21.0994C341.209 21.0994 346.247 20.9122 351.304 20.6703C351.287 21.7156 350.986 22.7281 350.986 23.7965C350.991 24.7433 351.362 25.6682 351.345 26.6249ZM351.876 54.1638C351.753 52.5459 351.753 50.9172 351.753 49.2983C341.001 48.5715 330.232 47.8239 319.412 47.3609C300.863 46.5706 282.245 46.6943 263.68 47.1682C259.815 47.2667 256.015 47.3225 252.188 47.6279C250.338 47.7757 248.486 47.918 246.635 48.0537C239.224 48.5977 231.796 49.0465 224.356 49.399C221.454 49.5369 218.551 49.6595 215.646 49.7679C223.169 49.7339 230.69 49.7 238.213 49.6661C245.736 49.6321 253.259 49.5982 260.78 49.5643C264.542 49.5468 268.303 49.5304 272.065 49.5128C273.945 49.5041 275.826 49.4953 277.706 49.4877C278.499 49.4844 279.313 49.5161 280.094 49.41C280.571 49.3454 281.019 49.2239 281.505 49.179C283.186 49.0236 285.078 49.2326 286.77 49.2884C288.634 49.3508 290.498 49.4176 292.362 49.4888C296.093 49.631 299.825 49.7909 303.553 49.9649C309.427 50.2385 315.295 50.5461 321.161 50.8734C327.562 51.2368 333.928 51.6987 340.294 52.1836C325.83 53.0418 311.364 53.9339 296.865 54.4287C263.497 55.5736 230.113 57.0152 196.692 56.608C163.732 56.2008 130.842 55.023 97.8627 55.0996C80.4814 55.1325 63.1159 55.3087 45.7697 55.6283C32.9676 55.8593 19.9878 55.8155 7.20329 56.6408C6.95534 57.1805 6.84981 57.7748 6.76188 58.3353C6.61944 59.3368 6.56669 60.3603 6.39084 61.3618C20.6262 61.7252 35.0373 61.1199 49.2357 61.098C66.6012 61.0761 83.965 61.1856 101.329 61.4395C134.236 61.9233 167.108 63.0573 200.016 63.4207C233.49 63.7951 266.911 62.2977 300.312 61.2524C317.535 60.7127 334.881 60.7018 352.122 60.5923H352.476C352.247 58.4458 352.034 56.3103 351.876 54.1638Z" fill="url(#paint2_linear_104_298)"/>
<path d="M262.463 16.4892C255.594 14.0986 244.19 14.8363 238.753 18.0544C235.327 20.0816 235.157 23.87 238.753 25.8841C246.68 30.3237 260.595 28.429 265.621 22.933C265.718 22.8794 265.813 22.8247 265.91 22.7711C269.747 20.6114 267.014 17.0255 262.463 16.4892Z" fill="#EB924D"/>
<path d="M264.09 14.3856C257.221 11.9951 245.817 12.7328 240.38 15.9509C236.954 17.9781 236.783 21.7665 240.38 23.7806C248.307 28.2202 262.222 26.3255 267.248 20.8295C267.345 20.7759 267.44 20.7212 267.537 20.6675C271.376 18.5079 268.641 14.922 264.09 14.3856Z" fill="url(#paint3_linear_104_298)"/>
<path d="M262.463 15.7421C255.594 13.3515 244.19 14.0892 238.753 17.3074C235.327 19.3345 235.157 23.1229 238.753 25.137C246.68 29.5766 260.595 27.6819 265.621 22.186C265.718 22.1323 265.813 22.0776 265.91 22.0239C269.747 19.8643 267.014 16.2784 262.463 15.7421Z" fill="url(#paint4_linear_104_298)"/>
<path d="M133.642 52.0844C126.773 49.6938 115.369 50.4315 109.931 53.6496C106.506 55.6779 106.335 59.4652 109.931 61.4793C117.859 65.9189 131.774 64.0242 136.8 58.5282C136.897 58.4746 136.992 58.4199 137.088 58.3662C140.926 56.2066 138.193 52.6218 133.642 52.0844Z" fill="#EB924D"/>
<path d="M135.271 49.9809C128.402 47.5903 116.998 48.3281 111.56 51.5451C108.135 53.5723 107.964 57.3607 111.56 59.3747C119.488 63.8144 133.403 61.9197 138.429 56.4237C138.526 56.3701 138.621 56.3153 138.717 56.2617C142.554 54.1031 139.822 50.5184 135.271 49.9809Z" fill="url(#paint5_linear_104_298)"/>
<path d="M133.642 51.3368C126.773 48.9462 115.369 49.684 109.931 52.9021C106.506 54.9304 106.335 58.7177 109.931 60.7317C117.859 65.1714 131.774 63.2766 136.8 57.7807C136.897 57.7271 136.992 57.6723 137.088 57.6187C140.926 55.4602 138.193 51.8743 133.642 51.3368Z" fill="url(#paint6_linear_104_298)"/>
<path d="M8.47665 48.605C8.44148 49.4084 8.44144 50.2447 8.86525 51.0044C8.10556 50.7953 7.45138 50.4866 7.11374 50.0247C6.83062 49.6284 6.84822 49.1884 6.86581 48.7703C6.88339 48.3631 6.79548 47.945 6.83065 47.5378C6.93617 45.9637 7.39692 44.4226 7.5376 42.8595C7.71521 40.9888 7.90861 39.128 8.13898 37.2683C8.20932 36.7068 8.3166 36.0905 8.95143 35.6943C9.34007 35.4524 9.83597 35.3309 10.3301 35.2214C11.6736 34.9138 13.0541 34.6818 14.4679 34.5384C15.1221 34.4618 15.8291 34.4618 16.4657 34.3512C17.2078 34.2078 17.7916 34.1093 18.6058 34.0546C26.3503 33.493 34.0773 32.9315 41.8237 32.3711C33.5129 33.4164 25.2021 34.4508 16.8912 35.4972C15.2716 35.6976 13.1104 35.6888 11.7581 36.3521C11.2463 36.6028 10.7838 36.9761 10.3758 37.2891C10.244 37.3909 9.0886 38.8303 9.53527 38.8401C15.6427 38.9671 21.75 39.093 27.8557 39.22C23.331 39.6775 18.8203 40.1876 14.3255 40.748C12.0588 41.0315 9.48953 41.4694 8.48717 42.7665C7.85586 43.583 7.89984 44.6864 8.11086 45.5653C8.18296 45.8631 8.34826 46.1444 8.44322 46.4388C8.67358 47.1459 8.50303 47.8924 8.47665 48.605Z" fill="#EB924D"/>
<path d="M308.304 19.1739C307.828 19.152 307.367 19.141 306.908 19.1191H309.154C308.871 19.1301 308.588 19.152 308.304 19.1739Z" fill="#EB924D"/>
<path d="M315.943 43.2119C318.101 43.3444 320.259 43.4648 322.415 43.5644C321.884 43.6082 321.354 43.6738 320.841 43.7516C319.197 43.5644 317.552 43.3772 315.943 43.2119Z" fill="#EB924D"/>
<path d="M347.773 41.2199C348.109 40.3836 348.021 39.5024 347.914 38.6443C347.719 37.0484 347.525 35.4524 347.33 33.8565C347.295 33.5479 347.225 33.2074 346.836 33.0202C346.518 32.8659 346.075 32.8659 345.686 32.8769C342.468 32.9426 339.267 33.0093 336.067 33.075C339.533 32.8878 342.964 32.3153 346.092 31.3795C346.994 31.1047 347.932 30.7632 348.268 30.1907C348.443 29.8941 348.443 29.5745 348.443 29.2549C348.391 26.745 347.684 23.9384 347.205 21.4515C345.684 20.5605 343.421 20.439 341.353 20.3624C332.972 20.0428 324.571 19.7242 316.19 19.4046C314.192 19.3159 311.947 19.2722 309.807 19.2174C323.087 19.074 336.401 18.9427 349.681 18.7993C350.052 18.7993 350.459 18.7993 350.759 18.9427C351.095 19.097 351.183 19.3827 351.238 19.6476C351.521 21.0673 350.99 22.3885 350.99 23.7972C350.99 24.744 351.361 25.6679 351.343 26.6257C351.22 31.1277 350.83 35.8268 350.017 40.4175C349.929 40.8795 349.822 41.3753 349.328 41.7157C348.939 41.9795 348.373 42.1229 347.824 42.2335C347.488 42.3101 347.135 42.3768 346.782 42.4206C347.26 42.078 347.596 41.649 347.773 41.2199Z" fill="#EB924D"/>
<path d="M6.1234 16.4442C6.07064 15.9046 5.59234 9.94998 5.45166 9.94998C4.95575 5.59131 10.3316 1.82701 17.3517 1.68471C122.883 -0.59423 230.765 -0.516503 340.769 1.69567C347.824 1.83906 353.253 5.62527 352.704 10.0058C352.509 11.5021 352.987 12.9338 352.403 14.4411C352.28 14.7936 352.085 15.157 351.661 15.3989C351.273 15.6079 350.759 15.6846 350.247 15.7623C348.925 15.9593 347.61 16.1837 346.282 16.361C347.434 15.7174 348.747 14.9457 349.282 14.0131C349.646 13.3794 349.349 12.8332 349.009 12.2279C348.483 11.2931 348.389 10.401 348.327 9.41585C348.251 8.20413 348.598 6.46153 347.047 5.49391C345.883 4.7682 344.346 4.13114 342.876 3.68126C339.251 2.57134 335.069 2.34258 331.092 2.24407C330.891 2.23969 330.691 2.23419 330.492 2.23091C323.143 2.08095 315.773 2.07 308.45 2.53302C307.561 2.58884 306.782 2.74429 305.925 2.84719C304.849 2.97635 303.581 2.81544 302.491 2.78041C300.001 2.69941 297.509 2.62936 295.017 2.56916C290.033 2.44985 285.046 2.37104 280.059 2.33383C276.32 2.30646 272.583 2.30206 268.845 2.29768C267.665 2.29659 266.485 2.2944 265.307 2.29331C263.035 2.29002 260.764 2.28785 258.492 2.28566C255.343 2.28237 252.195 2.27799 249.047 2.2747C248.898 2.2747 248.748 2.2747 248.599 2.2747C243.61 2.26923 238.621 2.26267 233.632 2.2572C231.138 2.25391 228.643 2.25173 226.149 2.24845C225.013 2.24735 223.74 2.34696 222.622 2.21561C221.487 2.08207 220.559 1.65625 219.356 1.58948C218.273 1.52928 217.151 1.64531 216.076 1.69894C213.356 1.83467 210.637 1.99558 207.924 2.18057C206.695 2.26485 205.353 2.38853 204.528 2.9621C204.245 3.16022 204.036 3.40432 203.689 3.55756C202.924 3.89908 201.873 3.6725 200.986 3.47766C199.221 3.08908 197.359 2.87125 195.488 2.82527C193.803 2.78477 192.129 2.9665 190.444 2.90411C189.38 2.8647 188.358 2.70488 187.317 2.57681C183.213 2.0733 178.917 2.04156 174.76 1.85548C171.675 1.71646 168.585 1.61575 165.496 1.54789C155.521 1.32678 145.536 1.44393 135.569 1.70663C130.578 1.83798 125.591 2.00654 120.606 2.18715C118.327 2.27034 115.787 2.57024 113.519 2.38744C112.863 2.3349 112.253 2.17071 111.604 2.09519C110.923 2.01638 110.237 2.02843 109.55 2.03172C106.78 2.04266 104.01 2.06125 101.241 2.0711C98.005 2.08205 94.7517 2.0711 91.4985 2.0711C90.4046 2.07329 89.3442 2.20793 88.275 2.20903C87.2991 2.21012 86.3248 2.07548 85.34 2.08096C83.2896 2.0919 81.2409 2.34256 79.3417 2.82527C78.6067 3.01245 77.8557 3.23685 77.0626 3.20839C75.6101 3.15585 74.6025 2.30318 73.2906 1.9135C70.1639 0.985285 66.9317 2.75522 63.7365 2.03716C62.1485 1.68033 60.5237 1.73398 58.853 1.72303C56.7199 1.7088 54.5868 1.70333 52.4537 1.7088C45.2209 1.73069 37.9898 1.88503 30.7921 2.336C27.203 2.56696 23.6313 2.86469 20.0756 3.26093C18.361 3.44811 16.6095 3.76663 14.8774 3.88813C14.3287 3.93192 13.9401 3.92098 13.4618 4.13005C11.3445 5.05826 5.49035 10.2291 9.66687 12.0472C11.0227 12.6372 12.7988 12.646 14.4536 12.6318C25.1032 12.5409 35.7529 12.4501 46.4026 12.3592C34.9053 12.9273 23.4081 13.4965 11.9108 14.0646C11.1669 14.1018 10.3984 14.1423 9.74249 14.3634C7.52849 15.1088 8.29169 16.8448 7.97515 18.1025C7.5619 19.7488 8.07887 21.5308 8.33386 23.1814C8.66974 25.2951 9.07599 27.4077 9.58948 29.5104C9.07599 29.4666 8.56426 29.4338 8.05077 29.3889C7.55662 29.356 7.02553 29.3013 6.70723 29.0583C6.47687 28.8711 6.44171 28.6293 6.40654 28.3873C5.87546 24.4567 6.47686 20.4067 6.1234 16.4442Z" fill="#EB924D"/>
<path d="M341.001 72.0167C231.404 74.89 123.504 74.9338 17.3535 72.0277C12.6318 72.0277 8.2284 69.925 6.47866 67.2728C5.70139 66.1059 5.52379 64.8187 5.64689 63.5632C5.66447 63.3432 5.69965 63.1232 5.80692 62.9031C5.96519 62.5616 6.21313 62.265 6.28347 61.9125C6.54901 60.7347 6.60177 59.5241 6.7618 58.3354C6.93765 57.1357 7.22077 55.7817 8.77707 55.056C12.2783 53.4272 19.1032 53.4491 24.1959 53.3824C28.3513 53.4152 32.4891 53.4371 36.7149 53.5805C35.4822 53.5805 34.3901 53.9373 33.2048 54.0096C31.5729 54.1092 29.9182 54.1289 28.281 54.1891C25.0488 54.3062 21.8166 54.4244 18.5862 54.5426C16.344 54.6247 14.0738 54.709 11.9354 55.1381C11.1265 55.3001 10.3175 55.5212 9.73721 55.9076C9.10414 56.329 8.81047 56.9015 8.57835 57.4597C8.12992 58.5412 7.57424 59.8416 7.84505 60.9635C7.92595 61.2985 8.12288 61.617 8.19147 61.953C8.26533 62.3208 8.20731 62.6864 8.18621 63.0553C8.11411 64.2988 8.24774 65.5728 9.07776 66.7244C11.0579 69.4762 16.2403 70.6759 20.9954 71.2264C26.8126 71.8865 31.7101 72.5137 37.5819 72.0189C46.16 72.0758 54.7363 72.1317 63.3145 72.1842C68.3298 72.2149 73.3469 72.2619 78.3623 72.275C79.1993 72.2772 79.9643 72.1109 80.7873 72.1087C81.9954 72.1054 83.2386 72.24 84.445 72.2958C86.9105 72.4097 89.3794 72.4918 91.8502 72.5443C97.9066 72.6713 103.972 72.6122 110.019 72.367C111.46 72.309 112.859 72.1459 114.256 72.4042C116.273 72.7775 118.397 72.7643 120.491 72.8223C125.466 72.9602 130.448 72.9778 135.425 72.8738C136.619 72.8486 137.813 72.8169 139.007 72.7786C140.917 72.7162 142.86 72.6319 144.638 72.1941C145.556 71.9686 146.417 71.6511 147.369 71.4891C150.073 71.0272 152.841 71.8799 155.47 72.4852C158.878 73.2711 162.626 72.8968 166.197 73.0467C171.065 73.2525 175.745 73.4649 180.612 73.073C180.656 73.0697 180.7 73.0654 180.744 73.0621C183.035 72.8749 185.314 72.5476 187.409 71.9259C188.501 71.6008 189.598 71.1892 190.808 71.2035C192.266 71.2221 193.488 71.8493 194.74 72.3155C198.672 73.7779 203.561 73.7451 208.114 73.4309C212.002 73.1627 215.92 72.7151 219.843 72.9603C221.465 73.062 223.025 72.9198 224.663 72.9241C226.693 72.9307 228.72 72.9362 230.75 72.9427C247.477 72.9975 264.223 73.0314 280.933 72.679C287.988 72.5356 295.061 72.3156 302.116 72.0189C305.848 71.8646 309.578 71.6884 313.309 71.5012C315.166 71.4016 317.023 71.2921 318.896 71.1936C324.52 70.863 330.195 70.8849 335.836 70.6321C339.214 70.4777 342.751 70.2468 345.598 69.0909C347.224 68.4308 348.515 67.3954 349.081 66.2296C349.365 65.6681 349.47 65.0628 349.312 64.4794C349.224 64.1926 349.046 63.9288 349.029 63.654C348.993 62.6525 348.993 61.64 348.976 60.6384C348.958 59.0753 349.224 57.4575 348.87 55.9164C348.835 55.7401 348.782 55.5529 348.587 55.4325C348.427 55.334 348.199 55.2891 347.968 55.2454C347.013 55.0801 346.076 54.9148 345.139 54.7506C346.394 54.3653 347.791 53.9034 348.234 53.0781C348.447 52.7037 348.429 52.3075 348.411 51.9222C348.376 50.9863 348.323 50.0176 347.74 49.1594C347.138 48.3013 347.033 47.5963 345.582 47.3435C338.156 46.0672 330.091 44.8664 322.276 43.9316C331.046 44.3279 339.8 44.8784 348.517 45.5713C349.542 45.6479 350.675 45.7695 351.276 46.2872C351.737 46.6835 351.754 47.2121 351.754 47.6959C351.754 49.8534 351.719 52.0108 351.877 54.1683C352.125 57.3601 352.444 60.552 352.815 63.7438C353.325 68.0762 347.984 71.8295 341.001 72.0167Z" fill="#EB924D"/>
<path d="M150.701 13.0415C139.118 14.2828 127.176 14.2116 115.633 12.8324C127.309 12.4395 139.014 12.8007 150.701 13.0415Z" fill="#EB924D"/>
<path d="M245.317 18.9799C239.491 19.5808 233.514 19.4122 227.597 19.2415C211.395 18.773 194.84 18.2618 179.789 14.7865C188.969 14.7657 198.069 15.7147 207.161 16.4535C219.69 17.4704 232.731 18.2399 245.317 18.9799Z" fill="#EB924D"/>
<path d="M252.714 18.66C248.414 18.5757 244.132 18.2834 239.855 17.9923C220.536 16.6766 201.219 15.3598 181.899 14.044C160.946 12.6167 139.862 11.1872 118.835 12.0935C116.039 12.0716 113.051 12.2807 110.255 12.2588C123.138 13.1487 136.132 13.4256 149.082 13.0863C154.183 12.9527 159.304 12.724 164.384 13.0469C168.452 13.3052 172.438 13.9138 176.434 14.4567C183.93 15.4769 191.503 16.2726 199.105 16.9217C220.321 18.7311 241.765 19.389 263.179 19.3145C259.241 19.0212 256.676 18.7377 252.714 18.66Z" fill="url(#paint7_linear_104_298)"/>
<path d="M82.6754 30.3647C72.4284 31.0718 62.053 31.0575 51.8096 30.3242C62.1603 29.697 72.3053 29.8699 82.6754 30.3647Z" fill="#EB924D"/>
<path d="M90.7741 30.4194C76.2521 30.2388 61.7249 30.2015 47.2012 30.3088C48.9017 30.2968 50.7411 30.0527 52.4557 29.918C54.2617 29.7757 56.0695 29.6335 57.8807 29.5185C61.5104 29.2887 65.1382 29.1956 68.7801 29.3696C69.4185 29.4003 69.9161 29.328 70.5351 29.2755C71.3669 29.2055 72.269 29.2985 73.1043 29.3303C74.9631 29.4014 76.8201 29.4868 78.6754 29.5853C82.3859 29.7823 86.0893 30.0319 89.7805 30.3362C90.1094 30.3624 90.4417 30.3909 90.7741 30.4194Z" fill="url(#paint8_linear_104_298)"/>
<path d="M118.928 45.1357C114.97 46.1012 111.01 47.0655 107.051 48.0299C104.561 48.6363 102.064 49.2449 99.4666 49.6444C96.1201 50.1589 92.6628 50.3176 89.2249 50.4664C80.5676 50.8419 71.7433 51.1604 63.3164 49.8644C82.0975 49.7495 100.523 47.4541 118.928 45.1357Z" fill="#EB924D"/>
<path d="M136.58 42.4238C126.553 44.0548 116.526 45.6857 106.499 47.3167C101.719 48.0938 96.9289 48.8732 92.0472 49.3417C85.9961 49.9229 79.8536 50.0214 73.7321 50.0707C68.3035 50.1145 62.8749 50.1188 57.4463 50.0849C59.5425 49.8802 61.6475 49.7105 63.7577 49.5759C64.6141 49.5212 65.539 49.5409 66.3814 49.4599C70.8164 49.0374 74.9947 49.2136 79.5124 49.1096C84.2165 49.0012 88.866 48.2175 93.4839 47.7457C100.821 46.9959 108.125 46.1312 115.411 45.2107C122.477 44.3175 129.529 43.3707 136.58 42.4238Z" fill="url(#paint9_linear_104_298)"/>
<path d="M311.406 54.6416C303.099 56.5046 293.995 56.1674 285.183 55.8183C283.335 55.7449 281.476 55.6727 279.633 55.7909C278.453 55.8664 277.289 56.0197 276.128 56.1697C270.897 56.8472 265.628 57.4755 260.291 57.6484C254.954 57.8214 249.52 57.5248 244.494 56.3951C258.418 57.7875 272.77 55.0773 286.871 54.8923C290.381 54.8463 293.897 54.9459 297.405 54.8353C302.195 54.6865 306.606 54.6821 311.406 54.6416Z" fill="#EB924D"/>
<path d="M239.113 56.0528C246.758 56.7173 254.476 57.3839 262.171 57.0029C267.136 56.7567 272.019 56.0769 276.971 55.7398C282.845 55.3403 288.769 55.4245 294.676 55.3676C305.28 55.2647 315.873 54.701 326.352 53.683C323.419 53.6393 320.482 53.6513 317.551 53.7181C314.969 53.7761 312.404 53.6841 309.812 53.7159C304.059 53.7859 298.318 54.018 292.585 54.3146C286.863 54.6102 281.149 54.9692 275.432 55.2976C269.726 55.6249 264.012 55.9226 258.287 56.0933C252.557 56.2641 246.812 56.3068 241.081 56.1251C240.432 56.1032 239.757 56.1087 239.113 56.0528Z" fill="url(#paint10_linear_104_298)"/>
<path d="M56.9551 19.0879C58.1549 19.3721 59.2285 19.5931 60.1758 19.751C61.1546 19.8773 61.9756 19.972 62.6387 20.0352C63.4281 20.1299 64.1227 20.1615 64.7227 20.1299C65.4805 20.0983 66.4277 19.9878 67.5645 19.7983C68.7012 19.6089 69.901 19.4194 71.1641 19.23C72.4271 19.0405 73.6743 18.8826 74.9058 18.7563C76.1372 18.63 77.2108 18.6143 78.1265 18.709C79.0422 18.8037 80.0052 19.0247 81.0156 19.3721C82.026 19.6878 82.9733 20.1299 83.8574 20.6982C84.7415 21.235 85.4993 21.8981 86.1309 22.6875C86.7939 23.4769 87.2044 24.3926 87.3623 25.4346C87.5202 26.445 87.4255 27.5343 87.0781 28.7026C86.7308 29.8394 86.1782 30.9603 85.4204 32.0654C84.6626 33.139 83.7153 34.1336 82.5786 35.0493C81.4419 35.965 80.1789 36.707 78.7896 37.2754C77.6844 37.6859 76.4845 38.0016 75.1899 38.2227C74.0848 38.4121 72.7902 38.5384 71.3062 38.6016C69.8537 38.6331 68.3065 38.4753 66.6646 38.1279C66.4435 39.0436 66.3172 39.8962 66.2856 40.6855C66.2856 41.4434 66.3172 42.1222 66.3804 42.7222C66.4751 43.4168 66.6014 44.0483 66.7593 44.6167C66.9487 45.1851 67.1855 45.8481 67.4697 46.606C67.7223 47.2375 68.0065 48.0111 68.3223 48.9268C68.6696 49.8109 69.0801 50.8055 69.5537 51.9106C68.9854 51.9106 68.4328 51.9264 67.896 51.958C67.3592 51.958 66.8698 51.9738 66.4277 52.0054C65.9225 52.0369 65.4489 52.0685 65.0068 52.1001C64.5016 52.1317 63.9333 52.1948 63.3018 52.2896C62.765 52.3527 62.0861 52.4474 61.2651 52.5737C60.4757 52.7 59.5758 52.8579 58.5654 53.0474C59.2285 52.1001 59.7495 51.2318 60.1284 50.4424C60.5389 49.6214 60.8389 48.911 61.0283 48.311C61.2493 47.6164 61.3914 46.9849 61.4546 46.4165C61.4862 45.9429 61.4862 45.1061 61.4546 43.9062C61.4546 42.7064 61.4388 41.3171 61.4072 39.7383C61.3757 38.1595 61.3283 36.5018 61.2651 34.7651C61.202 33.0285 61.123 31.4023 61.0283 29.8867C60.9336 28.3395 60.8231 27.0133 60.6968 25.9082C60.6021 24.8031 60.5073 24.0768 60.4126 23.7295C60.2863 23.319 60.0653 22.877 59.7495 22.4033C59.4969 21.9928 59.1338 21.5192 58.6602 20.9824C58.2181 20.4141 57.6497 19.7826 56.9551 19.0879ZM66.7593 28.4185C66.7277 28.7342 66.7119 29.0658 66.7119 29.4131C66.7119 30.0762 66.7593 30.9287 66.854 31.9707C67.075 32.5075 67.3434 32.9495 67.6592 33.2969C68.0065 33.6442 68.3696 33.9126 68.7485 34.1021C69.159 34.2915 69.5695 34.4178 69.98 34.481C70.3905 34.5441 70.8009 34.5757 71.2114 34.5757C72.1587 34.5441 73.1533 34.3231 74.1953 33.9126C75.5846 33.3127 76.5635 32.4601 77.1318 31.355C77.7002 30.2498 78.0002 29.1131 78.0317 27.9448C78.0633 26.7765 77.8581 25.703 77.416 24.7241C77.0055 23.7453 76.5003 23.0822 75.9004 22.7349C75.3952 22.5138 74.7479 22.4191 73.9585 22.4507C73.2638 22.4823 72.3955 22.6559 71.3535 22.9717C70.3115 23.2874 69.0327 23.8558 67.5171 24.6768C67.3592 25.2451 67.2329 25.7503 67.1382 26.1924C67.0435 26.6344 66.9645 27.0291 66.9014 27.3765C66.8382 27.7554 66.7909 28.1027 66.7593 28.4185ZM88.7358 54.3262C89.0516 53.8525 89.3042 53.4105 89.4937 53C89.6831 52.5895 89.841 52.2422 89.9673 51.958C90.0936 51.6107 90.1883 51.2949 90.2515 51.0107C90.283 50.8213 90.2988 50.2687 90.2988 49.353C90.2988 48.4373 90.2673 47.2848 90.2041 45.8955C90.1725 44.5062 90.1252 42.9432 90.062 41.2065C90.0304 39.4699 89.9673 37.7017 89.8726 35.9019C89.8094 34.1021 89.7305 32.3496 89.6357 30.6445C89.5726 28.9395 89.5094 27.408 89.4463 26.0503C89.3831 24.661 89.32 23.5243 89.2568 22.6401C89.1937 21.756 89.1463 21.2508 89.1147 21.1245C89.0516 20.9351 88.9411 20.7456 88.7832 20.5562C88.4674 20.1772 87.9307 19.8141 87.1729 19.4668C88.7832 19.0563 90.0146 18.7248 90.8672 18.4722C91.3724 18.3459 91.8145 18.2196 92.1934 18.0933C92.5407 17.967 92.888 17.8407 93.2354 17.7144C93.5195 17.5881 93.8353 17.446 94.1826 17.2881C94.5299 17.0986 94.8457 16.8934 95.1299 16.6724C94.972 17.5881 94.8457 18.4722 94.751 19.3247C94.6562 20.1772 94.5773 20.9666 94.5142 21.6929C94.451 22.5138 94.4194 23.3032 94.4194 24.061C94.2616 25.6082 94.1668 27.2975 94.1353 29.1289C94.1353 30.9287 94.151 32.7601 94.1826 34.623C94.2142 36.486 94.2773 38.3016 94.3721 40.0698C94.4668 41.8381 94.5615 43.4484 94.6562 44.9009C94.7826 46.3218 94.8931 47.5374 94.9878 48.5479C95.1141 49.5267 95.2088 50.1582 95.272 50.4424C95.3983 50.916 95.5246 51.3739 95.6509 51.8159C95.7772 52.1948 95.9193 52.5895 96.0771 53C96.235 53.4421 96.4245 53.7894 96.6455 54.042H92.0513C91.6408 54.042 91.2461 54.0578 90.8672 54.0894C90.5199 54.1209 90.1567 54.1525 89.7778 54.1841C89.3989 54.2157 89.0516 54.263 88.7358 54.3262ZM101.903 33.8179C102.061 33.6284 102.155 33.2811 102.187 32.7759C102.25 32.2391 102.376 31.6392 102.566 30.9761C102.787 30.313 103.15 29.6183 103.655 28.8921C104.16 28.1659 104.981 27.487 106.118 26.8555C107.223 26.224 108.297 25.8451 109.339 25.7188C110.381 25.5924 111.375 25.6398 112.323 25.8608C113.27 26.0819 114.154 26.4292 114.975 26.9028C115.828 27.3765 116.601 27.8975 117.296 28.4658C117.77 28.8447 118.148 29.3973 118.433 30.1235C118.717 30.8182 118.938 31.6076 119.096 32.4917C119.254 33.3758 119.364 34.3073 119.427 35.2861C119.522 36.2334 119.585 37.1649 119.617 38.0806C119.648 38.9647 119.664 39.7856 119.664 40.5435C119.696 41.2697 119.759 41.8696 119.854 42.3433C119.98 43.0379 120.201 43.6379 120.517 44.1431C120.832 44.6167 121.18 45.0272 121.559 45.3745C121.938 45.6903 122.316 45.9429 122.695 46.1323C123.074 46.3218 123.406 46.4639 123.69 46.5586C123.879 46.6533 124.053 46.7165 124.211 46.748C124.527 46.8743 124.748 46.8743 124.874 46.748C124.685 47.1901 124.511 47.569 124.353 47.8848C124.195 48.2005 124.069 48.4689 123.974 48.6899C123.848 48.9425 123.737 49.1478 123.643 49.3057C123.548 49.4951 123.437 49.6688 123.311 49.8267C123.216 49.9845 123.09 50.1582 122.932 50.3477C122.774 50.5371 122.616 50.7424 122.458 50.9634C122.048 50.8055 121.653 50.616 121.274 50.395C120.927 50.174 120.611 49.9688 120.327 49.7793C119.98 49.5583 119.664 49.3372 119.38 49.1162C119.096 48.8952 118.827 48.6426 118.575 48.3584C118.354 48.1058 118.117 47.8374 117.864 47.5532C117.643 47.269 117.454 46.9533 117.296 46.606C117.106 47.0164 116.649 47.6006 115.922 48.3584C115.228 49.1162 114.312 49.8109 113.175 50.4424C112.039 51.0423 110.712 51.4686 109.197 51.7212C107.713 51.9738 106.071 51.8001 104.271 51.2002C103.482 50.9476 102.74 50.5845 102.045 50.1108C101.35 49.6056 100.75 49.0057 100.245 48.311C99.7715 47.6164 99.4242 46.827 99.2031 45.9429C99.0137 45.0272 99.0295 44.0168 99.2505 42.9116C99.4715 41.8065 99.8662 40.875 100.435 40.1172C101.003 39.3594 101.682 38.7437 102.471 38.27C103.261 37.7964 104.145 37.4333 105.124 37.1807C106.102 36.9281 107.113 36.7544 108.155 36.6597C108.976 36.6281 109.797 36.6755 110.618 36.8018C111.312 36.9281 112.039 37.1649 112.796 37.5122C113.554 37.828 114.201 38.3174 114.738 38.9805C114.707 37.307 114.644 35.9808 114.549 35.002C114.486 33.9915 114.423 33.2179 114.359 32.6812C114.233 32.0496 114.123 31.6076 114.028 31.355C113.87 31.134 113.696 30.8813 113.507 30.5972C113.349 30.313 113.144 30.0604 112.891 29.8394C112.639 29.5868 112.323 29.3815 111.944 29.2236C111.565 29.0658 111.123 29.0026 110.618 29.0342C110.081 29.0658 109.655 29.2078 109.339 29.4604C109.023 29.7131 108.771 30.013 108.581 30.3604C108.423 30.6761 108.328 31.0234 108.297 31.4023C108.265 31.7812 108.281 32.1128 108.344 32.397C108.407 32.5864 108.502 32.7917 108.628 33.0127C108.755 33.2021 108.928 33.4074 109.149 33.6284C109.37 33.8494 109.67 34.0389 110.049 34.1968C109.323 34.2915 108.676 34.3704 108.107 34.4336C107.539 34.4652 107.05 34.5125 106.639 34.5757C106.166 34.6388 105.755 34.6862 105.408 34.7178C105.06 34.7493 104.65 34.8125 104.176 34.9072C103.766 34.9704 103.261 35.0493 102.661 35.144C102.061 35.2388 101.366 35.3651 100.577 35.5229C100.766 35.3019 100.94 35.0967 101.098 34.9072C101.256 34.6862 101.398 34.4967 101.524 34.3389C101.65 34.1494 101.777 33.9757 101.903 33.8179ZM109.007 39.4541C108.439 39.4857 107.871 39.6278 107.302 39.8804C106.734 40.1014 106.229 40.4329 105.787 40.875C105.345 41.2855 104.966 41.7749 104.65 42.3433C104.366 42.88 104.224 43.48 104.224 44.1431C104.224 44.8062 104.382 45.3903 104.697 45.8955C105.045 46.3691 105.487 46.7638 106.023 47.0796C106.592 47.3953 107.192 47.5848 107.823 47.6479C108.486 47.7111 109.134 47.6479 109.765 47.4585C110.365 47.2375 110.933 46.8901 111.47 46.4165C112.007 45.9113 112.465 45.3745 112.844 44.8062C113.223 44.2062 113.491 43.6221 113.649 43.0537C113.807 42.4538 113.823 41.9644 113.696 41.5854C113.444 40.7645 112.875 40.1961 111.991 39.8804C111.107 39.533 110.112 39.391 109.007 39.4541ZM121.985 28.7974C122.616 28.8921 123.185 28.971 123.69 29.0342C124.164 29.0658 124.59 29.0973 124.969 29.1289C125.379 29.1605 125.774 29.1763 126.153 29.1763C126.5 29.1763 126.942 29.1605 127.479 29.1289C127.921 29.0973 128.489 29.0658 129.184 29.0342C129.91 28.971 130.763 28.8921 131.742 28.7974C131.679 28.9237 131.552 29.3184 131.363 29.9814C131.173 30.613 130.984 31.4023 130.794 32.3496C130.605 33.2653 130.431 34.2915 130.273 35.4282C130.147 36.5334 130.084 37.6385 130.084 38.7437C130.116 39.8172 130.258 40.8434 130.51 41.8223C130.763 42.7695 131.173 43.5431 131.742 44.1431C132.942 45.3745 133.999 46.1165 134.915 46.3691C135.862 46.6217 136.683 46.5902 137.378 46.2744C138.073 45.9587 138.641 45.485 139.083 44.8535C139.525 44.222 139.841 43.6379 140.03 43.1011C140.504 41.6486 140.788 40.1172 140.883 38.5068C140.946 37.1175 140.835 35.5703 140.551 33.8652C140.267 32.1602 139.588 30.4235 138.515 28.6553C139.336 28.7184 140.046 28.7658 140.646 28.7974C141.246 28.8289 141.767 28.8605 142.209 28.8921C142.714 28.9237 143.156 28.9552 143.535 28.9868C143.882 29.0184 144.293 29.0184 144.767 28.9868C145.177 28.9868 145.667 28.971 146.235 28.9395C146.835 28.8763 147.498 28.8132 148.224 28.75C148.35 31.8444 148.461 34.6073 148.556 37.0386C148.65 39.4383 148.714 41.5697 148.745 43.4326C148.808 45.264 148.84 46.8586 148.84 48.2163C148.84 49.5425 148.84 50.6634 148.84 51.5791C148.808 53.7578 148.714 55.1945 148.556 55.8892C148.303 56.868 147.845 57.8468 147.182 58.8257C146.551 59.8045 145.745 60.6729 144.767 61.4307C143.788 62.2201 142.651 62.82 141.356 63.2305C140.093 63.6725 138.704 63.8304 137.188 63.7041C135.704 63.5778 134.52 63.3726 133.636 63.0884C132.784 62.8358 132.105 62.5358 131.6 62.1885C131.126 61.8411 130.779 61.478 130.558 61.0991C130.368 60.7202 130.226 60.3255 130.131 59.915C130.037 59.5361 129.942 59.173 129.847 58.8257C129.752 58.4784 129.563 58.1784 129.279 57.9258C128.931 57.6416 128.568 57.3574 128.189 57.0732C127.842 56.8206 127.463 56.568 127.053 56.3154C126.674 56.0628 126.295 55.8576 125.916 55.6997L136.004 55.1313C135.72 55.5103 135.515 55.8576 135.389 56.1733C135.262 56.4891 135.183 56.7575 135.152 56.9785C135.12 57.2627 135.136 57.4995 135.199 57.689C135.326 58.0679 135.547 58.4784 135.862 58.9204C136.21 59.394 136.652 59.7572 137.188 60.0098C137.725 60.2939 138.357 60.3887 139.083 60.2939C139.841 60.1992 140.693 59.8045 141.641 59.1099C142.43 58.5099 143.093 57.5469 143.63 56.2207C144.072 55.084 144.419 53.4894 144.672 51.437C144.924 49.3846 144.877 46.6849 144.53 43.3379C143.961 45.2956 143.188 46.7954 142.209 47.8374C141.23 48.8794 140.251 49.6372 139.272 50.1108C138.136 50.6792 136.952 50.9792 135.72 51.0107C134.078 50.9476 132.673 50.7424 131.505 50.395C130.337 50.0161 129.374 49.5109 128.616 48.8794C127.858 48.2479 127.258 47.5059 126.816 46.6533C126.405 45.7692 126.105 44.7904 125.916 43.7168C125.727 42.6432 125.632 41.5697 125.632 40.4961C125.632 39.391 125.632 38.3647 125.632 37.4175C125.663 36.4702 125.679 35.6177 125.679 34.8599C125.679 34.0705 125.6 33.439 125.442 32.9653C125.253 32.4917 125 32.0181 124.685 31.5444C124.432 31.134 124.085 30.6919 123.643 30.2183C123.169 29.7131 122.616 29.2394 121.985 28.7974ZM174.511 20.9351C176.09 21.0298 177.416 21.1087 178.489 21.1719C179.594 21.2035 180.51 21.235 181.236 21.2666C182.057 21.2982 182.752 21.2982 183.32 21.2666C183.889 21.235 184.662 21.1561 185.641 21.0298C186.462 20.9351 187.551 20.793 188.909 20.6035C190.299 20.3825 192.019 20.0983 194.072 19.751C193.346 20.4772 192.777 21.1403 192.367 21.7402C191.988 22.3086 191.688 22.798 191.467 23.2085C191.214 23.7137 191.041 24.14 190.946 24.4873C190.883 24.8031 190.946 25.5924 191.135 26.8555C191.325 28.1185 191.593 29.6183 191.94 31.355C192.288 33.0601 192.667 34.8914 193.077 36.8491C193.488 38.7752 193.898 40.5908 194.309 42.2959C194.719 43.9694 195.082 45.4061 195.398 46.606C195.745 47.7743 195.998 48.4689 196.156 48.6899C196.629 49.353 196.929 49.7951 197.056 50.0161C197.182 50.2056 197.403 50.3792 197.719 50.5371C197.845 50.6003 198.05 50.695 198.334 50.8213C198.587 50.9476 198.919 51.1055 199.329 51.2949C199.771 51.4844 200.324 51.7054 200.987 51.958C199.755 52.0212 198.698 52.0685 197.813 52.1001C196.929 52.1001 196.203 52.1159 195.635 52.1475C194.972 52.179 194.403 52.2106 193.93 52.2422C193.456 52.2422 192.888 52.2738 192.225 52.3369C191.656 52.4001 190.914 52.4632 189.999 52.5264C189.114 52.5895 188.072 52.6527 186.873 52.7158C187.504 52.2738 188.009 51.8791 188.388 51.5317C188.799 51.1528 189.114 50.8371 189.335 50.5845C189.588 50.2687 189.762 49.9845 189.856 49.7319C189.92 49.4478 189.967 49.0215 189.999 48.4531C190.03 47.9479 190.03 47.2848 189.999 46.4639C189.967 45.6113 189.888 44.5062 189.762 43.1484L177.305 44.4272C176.989 44.964 176.753 45.4377 176.595 45.8481C176.437 46.2271 176.326 46.5586 176.263 46.8428C176.168 47.1901 176.137 47.4743 176.168 47.6953C176.232 47.9479 176.342 48.2479 176.5 48.5952C176.658 48.911 176.879 49.2899 177.163 49.7319C177.479 50.1424 177.937 50.6318 178.537 51.2002C177.747 51.1686 176.942 51.1528 176.121 51.1528C175.3 51.1528 174.542 51.1686 173.848 51.2002C173.027 51.2318 172.222 51.2633 171.432 51.2949C170.643 51.3265 169.743 51.3739 168.732 51.437C167.88 51.5002 166.885 51.5791 165.749 51.6738C164.58 51.737 163.333 51.8317 162.007 51.958C162.828 51.5791 163.522 51.2002 164.091 50.8213C164.659 50.4108 165.133 50.0319 165.512 49.6846C165.954 49.3057 166.333 48.9425 166.648 48.5952C166.869 48.2795 167.312 47.5532 167.975 46.4165C168.638 45.2482 169.38 43.8747 170.201 42.2959C171.053 40.7171 171.937 39.0278 172.853 37.228C173.8 35.4282 174.653 33.7389 175.411 32.1602C176.168 30.5498 176.784 29.1605 177.258 27.9922C177.731 26.8239 177.968 26.0661 177.968 25.7188C177.905 25.3083 177.747 24.8504 177.495 24.3452C177.274 23.9032 176.926 23.3979 176.453 22.8296C176.011 22.2612 175.363 21.6297 174.511 20.9351ZM189.193 39.6436C189.004 38.5384 188.83 37.5911 188.672 36.8018C188.514 35.9808 188.388 35.3019 188.293 34.7651C188.167 34.1336 188.072 33.5811 188.009 33.1074C187.915 32.6654 187.804 32.097 187.678 31.4023C187.551 30.8024 187.394 30.0604 187.204 29.1763C187.046 28.2606 186.841 27.1712 186.588 25.9082C184.789 29.5078 183.383 32.3022 182.373 34.2915C181.394 36.2492 180.684 37.6859 180.242 38.6016C179.705 39.6751 179.405 40.3066 179.342 40.4961L189.193 39.6436ZM220.643 32.918C220.548 32.2865 220.469 31.7655 220.406 31.355C220.343 30.9129 220.279 30.5656 220.216 30.313C220.153 29.9972 220.106 29.7604 220.074 29.6025C220.011 29.4447 219.932 29.271 219.837 29.0815C219.774 28.9237 219.664 28.7342 219.506 28.5132C219.38 28.2922 219.222 28.0396 219.032 27.7554C219.443 27.8817 219.853 27.9606 220.264 27.9922C220.706 28.0238 221.116 28.0553 221.495 28.0869C221.906 28.1185 222.332 28.1185 222.774 28.0869C223.216 28.0869 223.721 28.0711 224.29 28.0396C224.795 28.008 225.395 27.9922 226.089 27.9922C226.816 27.9606 227.637 27.9132 228.552 27.8501C228.015 27.9764 227.558 28.1974 227.179 28.5132C226.831 28.7974 226.531 29.1131 226.279 29.4604C225.995 29.8394 225.758 30.2498 225.568 30.6919C225.41 31.1024 225.316 31.8918 225.284 33.0601C225.253 34.1968 225.253 35.5545 225.284 37.1333C225.316 38.6805 225.347 40.354 225.379 42.1538C225.442 43.9536 225.474 45.6745 225.474 47.3164C225.505 48.9583 225.505 50.4582 225.474 51.8159C225.442 53.1421 225.363 54.1209 225.237 54.7524C224.795 56.7417 223.974 58.3521 222.774 59.5835C221.574 60.8465 219.995 61.5254 218.038 61.6201C215.669 61.7148 213.791 61.4938 212.401 60.957C211.044 60.4202 209.986 59.7572 209.228 58.9678C208.47 58.21 207.902 57.4364 207.523 56.647C207.144 55.8576 206.749 55.2576 206.339 54.8472C205.96 54.4998 205.581 54.1683 205.202 53.8525C204.855 53.5999 204.492 53.3473 204.113 53.0947C203.765 52.8421 203.418 52.6842 203.071 52.6211C203.986 52.6527 204.807 52.6685 205.534 52.6685C206.26 52.6685 206.876 52.6685 207.381 52.6685C207.949 52.6685 208.454 52.6527 208.896 52.6211H210.412H214.722C214.091 52.8105 213.617 53.0158 213.301 53.2368C212.986 53.4894 212.764 53.742 212.638 53.9946C212.512 54.2788 212.449 54.563 212.449 54.8472C212.575 55.605 212.986 56.1576 213.68 56.5049C214.375 56.8522 215.322 57.0575 216.522 57.1206C217.69 57.1838 218.495 57.1522 218.938 57.0259C219.38 56.9312 219.727 56.7417 219.979 56.4575C220.485 55.6997 220.911 54.7209 221.258 53.521C221.511 52.5106 221.685 51.2002 221.779 49.5898C221.906 47.9479 221.764 45.9429 221.353 43.5747C220.343 44.964 219.174 46.006 217.848 46.7007C216.522 47.3953 215.259 47.9006 214.059 48.2163C212.638 48.5636 211.201 48.7373 209.749 48.7373C205.928 48.5794 203.071 47.6953 201.176 46.085C199.282 44.4746 198.413 42.3117 198.571 39.5962C198.666 38.2384 199.076 36.8807 199.803 35.5229C200.561 34.1652 201.539 32.9495 202.739 31.876C203.971 30.8024 205.376 29.9499 206.955 29.3184C208.533 28.6868 210.175 28.4185 211.88 28.5132C213.175 28.6395 214.391 28.8763 215.527 29.2236C216.506 29.5394 217.469 29.9814 218.417 30.5498C219.395 31.1182 220.137 31.9076 220.643 32.918ZM205.581 37.6543C205.392 38.8857 205.471 40.0382 205.818 41.1118C206.197 42.1854 206.718 43.1169 207.381 43.9062C208.044 44.6641 208.786 45.264 209.607 45.7061C210.428 46.1165 211.201 46.306 211.928 46.2744C213.443 46.2428 214.754 45.564 215.859 44.2378C216.964 42.88 217.627 40.8592 217.848 38.1753C217.943 36.8491 217.769 35.7124 217.327 34.7651C216.917 33.7863 216.396 32.9969 215.764 32.397C215.133 31.797 214.47 31.3708 213.775 31.1182C213.08 30.8656 212.528 30.755 212.117 30.7866C211.549 30.8498 210.917 31.0234 210.223 31.3076C209.56 31.5602 208.912 31.9549 208.281 32.4917C207.649 32.9969 207.081 33.6758 206.576 34.5283C206.102 35.3809 205.771 36.4229 205.581 37.6543ZM232.531 33.8179C232.689 33.6284 232.783 33.2811 232.815 32.7759C232.878 32.2391 233.004 31.6392 233.194 30.9761C233.415 30.313 233.778 29.6183 234.283 28.8921C234.788 28.1659 235.609 27.487 236.746 26.8555C237.851 26.224 238.925 25.8451 239.967 25.7188C241.009 25.5924 242.003 25.6398 242.951 25.8608C243.898 26.0819 244.782 26.4292 245.603 26.9028C246.456 27.3765 247.229 27.8975 247.924 28.4658C248.397 28.8447 248.776 29.3973 249.061 30.1235C249.345 30.8182 249.566 31.6076 249.724 32.4917C249.882 33.3758 249.992 34.3073 250.055 35.2861C250.15 36.2334 250.213 37.1649 250.245 38.0806C250.276 38.9647 250.292 39.7856 250.292 40.5435C250.324 41.2697 250.387 41.8696 250.481 42.3433C250.608 43.0379 250.829 43.6379 251.145 44.1431C251.46 44.6167 251.808 45.0272 252.187 45.3745C252.565 45.6903 252.944 45.9429 253.323 46.1323C253.702 46.3218 254.034 46.4639 254.318 46.5586C254.507 46.6533 254.681 46.7165 254.839 46.748C255.155 46.8743 255.376 46.8743 255.502 46.748C255.312 47.1901 255.139 47.569 254.981 47.8848C254.823 48.2005 254.697 48.4689 254.602 48.6899C254.476 48.9425 254.365 49.1478 254.271 49.3057C254.176 49.4951 254.065 49.6688 253.939 49.8267C253.844 49.9845 253.718 50.1582 253.56 50.3477C253.402 50.5371 253.244 50.7424 253.086 50.9634C252.676 50.8055 252.281 50.616 251.902 50.395C251.555 50.174 251.239 49.9688 250.955 49.7793C250.608 49.5583 250.292 49.3372 250.008 49.1162C249.724 48.8952 249.455 48.6426 249.203 48.3584C248.982 48.1058 248.745 47.8374 248.492 47.5532C248.271 47.269 248.082 46.9533 247.924 46.606C247.734 47.0164 247.277 47.6006 246.55 48.3584C245.856 49.1162 244.94 49.8109 243.803 50.4424C242.667 51.0423 241.34 51.4686 239.825 51.7212C238.341 51.9738 236.699 51.8001 234.899 51.2002C234.11 50.9476 233.368 50.5845 232.673 50.1108C231.978 49.6056 231.378 49.0057 230.873 48.311C230.399 47.6164 230.052 46.827 229.831 45.9429C229.642 45.0272 229.657 44.0168 229.878 42.9116C230.099 41.8065 230.494 40.875 231.062 40.1172C231.631 39.3594 232.31 38.7437 233.099 38.27C233.889 37.7964 234.773 37.4333 235.751 37.1807C236.73 36.9281 237.741 36.7544 238.783 36.6597C239.604 36.6281 240.425 36.6755 241.246 36.8018C241.94 36.9281 242.667 37.1649 243.424 37.5122C244.182 37.828 244.829 38.3174 245.366 38.9805C245.335 37.307 245.271 35.9808 245.177 35.002C245.114 33.9915 245.05 33.2179 244.987 32.6812C244.861 32.0496 244.75 31.6076 244.656 31.355C244.498 31.134 244.324 30.8813 244.135 30.5972C243.977 30.313 243.772 30.0604 243.519 29.8394C243.266 29.5868 242.951 29.3815 242.572 29.2236C242.193 29.0658 241.751 29.0026 241.246 29.0342C240.709 29.0658 240.283 29.2078 239.967 29.4604C239.651 29.7131 239.398 30.013 239.209 30.3604C239.051 30.6761 238.956 31.0234 238.925 31.4023C238.893 31.7812 238.909 32.1128 238.972 32.397C239.035 32.5864 239.13 32.7917 239.256 33.0127C239.383 33.2021 239.556 33.4074 239.777 33.6284C239.998 33.8494 240.298 34.0389 240.677 34.1968C239.951 34.2915 239.304 34.3704 238.735 34.4336C238.167 34.4652 237.678 34.5125 237.267 34.5757C236.793 34.6388 236.383 34.6862 236.036 34.7178C235.688 34.7493 235.278 34.8125 234.804 34.9072C234.394 34.9704 233.889 35.0493 233.289 35.144C232.689 35.2388 231.994 35.3651 231.205 35.5229C231.394 35.3019 231.568 35.0967 231.726 34.9072C231.883 34.6862 232.026 34.4967 232.152 34.3389C232.278 34.1494 232.404 33.9757 232.531 33.8179ZM239.635 39.4541C239.067 39.4857 238.499 39.6278 237.93 39.8804C237.362 40.1014 236.857 40.4329 236.415 40.875C235.972 41.2855 235.594 41.7749 235.278 42.3433C234.994 42.88 234.852 43.48 234.852 44.1431C234.852 44.8062 235.009 45.3903 235.325 45.8955C235.673 46.3691 236.115 46.7638 236.651 47.0796C237.22 47.3953 237.82 47.5848 238.451 47.6479C239.114 47.7111 239.762 47.6479 240.393 47.4585C240.993 47.2375 241.561 46.8901 242.098 46.4165C242.635 45.9113 243.093 45.3745 243.472 44.8062C243.851 44.2062 244.119 43.6221 244.277 43.0537C244.435 42.4538 244.451 41.9644 244.324 41.5854C244.072 40.7645 243.503 40.1961 242.619 39.8804C241.735 39.533 240.74 39.391 239.635 39.4541ZM255.028 31.8286L263.743 31.9233C263.238 33.8494 262.859 35.4914 262.606 36.8491C262.385 38.2069 262.243 39.3436 262.18 40.2593C262.054 41.3013 262.022 42.1854 262.085 42.9116C262.18 43.5747 262.338 44.2852 262.559 45.043C262.749 45.6745 263.033 46.4007 263.412 47.2217C263.791 48.0426 264.296 48.8636 264.927 49.6846C264.548 49.5583 264.138 49.4635 263.696 49.4004C263.254 49.3372 262.843 49.2899 262.464 49.2583C262.022 49.2267 261.58 49.2267 261.138 49.2583C260.696 49.2899 260.207 49.3372 259.67 49.4004C259.228 49.4635 258.691 49.5425 258.06 49.6372C257.428 49.7319 256.765 49.8582 256.07 50.0161C256.544 48.5952 256.907 47.3638 257.16 46.3218C257.444 45.2798 257.649 44.4115 257.775 43.7168C257.902 42.8958 257.981 42.2327 258.012 41.7275C258.012 41.096 258.012 40.3856 258.012 39.5962C258.012 38.7752 258.012 37.9858 258.012 37.228C258.012 36.4702 257.996 35.8071 257.965 35.2388C257.933 34.6388 257.87 34.2599 257.775 34.1021L257.302 33.6284C257.112 33.4705 256.828 33.2495 256.449 32.9653C256.102 32.6496 255.628 32.2707 255.028 31.8286ZM258.391 24.5347C259.054 24.1873 259.717 24.0926 260.38 24.2505C261.075 24.4084 261.612 24.7083 261.991 25.1504C262.37 25.5924 262.496 26.1134 262.37 26.7134C262.275 27.3133 261.77 27.8975 260.854 28.4658C259.938 29.0026 259.133 29.1921 258.438 29.0342C257.744 28.8763 257.254 28.5448 256.97 28.0396C256.686 27.5343 256.639 26.9502 256.828 26.2871C257.018 25.5924 257.539 25.0083 258.391 24.5347ZM268.101 47.79C268.322 46.748 268.479 45.8324 268.574 45.043C268.701 44.222 268.795 43.5431 268.858 43.0063C268.922 42.3748 268.953 41.8381 268.953 41.396C268.922 40.8592 268.89 40.2277 268.858 39.5015C268.858 38.7437 268.827 38.0016 268.764 37.2754C268.732 36.5176 268.685 35.8545 268.622 35.2861C268.558 34.6862 268.479 34.2599 268.385 34.0073C268.258 33.7547 268.085 33.4863 267.864 33.2021C267.422 32.6654 266.774 32.1444 265.922 31.6392C266.648 31.4813 267.264 31.355 267.769 31.2603C268.306 31.134 268.748 31.0234 269.095 30.9287C269.474 30.8024 269.806 30.6919 270.09 30.5972C270.342 30.5024 270.642 30.4077 270.99 30.313C271.274 30.2498 271.621 30.1709 272.032 30.0762C272.442 29.9814 272.916 29.8709 273.453 29.7446L273.311 34.0547C274.321 32.8548 275.347 31.9549 276.389 31.355C277.431 30.755 278.41 30.3288 279.326 30.0762C280.368 29.7604 281.394 29.6025 282.404 29.6025C283.667 29.6657 284.836 29.8709 285.909 30.2183C287.014 30.5656 287.962 30.9761 288.751 31.4497C289.572 31.8918 290.235 32.3654 290.74 32.8706C291.245 33.3758 291.545 33.8179 291.64 34.1968C292.019 35.4282 292.114 36.5649 291.924 37.6069C291.735 38.6174 291.482 39.612 291.167 40.5908C290.882 41.5381 290.63 42.4854 290.409 43.4326C290.219 44.3799 290.298 45.4061 290.646 46.5112C290.772 46.7954 290.898 47.0796 291.024 47.3638C291.151 47.6164 291.309 47.869 291.498 48.1216C291.688 48.3742 291.909 48.5794 292.161 48.7373C291.814 48.7057 291.466 48.6899 291.119 48.6899C290.772 48.6584 290.456 48.6268 290.172 48.5952C289.825 48.5636 289.509 48.5321 289.225 48.5005C288.909 48.4689 288.483 48.4531 287.946 48.4531C287.03 48.4531 285.609 48.5005 283.683 48.5952C283.967 47.9321 284.188 47.3796 284.346 46.9375C284.536 46.4639 284.694 46.085 284.82 45.8008C284.946 45.4535 285.041 45.1851 285.104 44.9956C285.483 44.0799 285.704 43.0379 285.767 41.8696C285.862 40.7013 285.783 39.5173 285.53 38.3174C285.436 37.9069 285.278 37.4175 285.057 36.8491C284.836 36.2808 284.536 35.7282 284.157 35.1914C283.809 34.6546 283.383 34.1968 282.878 33.8179C282.404 33.439 281.852 33.2179 281.22 33.1548C280.589 33.0916 279.878 33.2495 279.089 33.6284C278.331 34.0073 277.51 34.702 276.626 35.7124C275.963 36.5649 275.442 37.6069 275.063 38.8384C274.716 39.8804 274.479 41.1908 274.353 42.7695C274.226 44.3167 274.416 46.1323 274.921 48.2163C274.479 48.1532 274.068 48.1216 273.689 48.1216C273.311 48.09 272.995 48.0584 272.742 48.0269C272.426 47.9953 272.142 47.9637 271.89 47.9321C271.605 47.9321 271.29 47.9163 270.942 47.8848C270.627 47.8848 270.232 47.8848 269.758 47.8848C269.285 47.8532 268.732 47.8216 268.101 47.79Z" fill="white"/>
<defs>
<linearGradient id="paint0_linear_104_298" x1="270.723" y1="-118.355" x2="245.024" y2="-7.24481" gradientUnits="userSpaceOnUse">
<stop stop-color="#CF5C2B"/>
<stop offset="1" stop-color="#59173E"/>
</linearGradient>
<linearGradient id="paint1_linear_104_298" x1="201.128" y1="-35.3566" x2="178.968" y2="152.415" gradientUnits="userSpaceOnUse">
<stop stop-color="#CF5C2B"/>
<stop offset="1" stop-color="#59173E"/>
</linearGradient>
<linearGradient id="paint2_linear_104_298" x1="200.221" y1="-29.6435" x2="171.765" y2="203.826" gradientUnits="userSpaceOnUse">
<stop stop-color="#CF5C2B"/>
<stop offset="1" stop-color="#59173E"/>
</linearGradient>
<linearGradient id="paint3_linear_104_298" x1="265.605" y1="-1.22305" x2="258.361" y2="29.8897" gradientUnits="userSpaceOnUse">
<stop stop-color="#CF5C2B"/>
<stop offset="1" stop-color="#59173E"/>
</linearGradient>
<linearGradient id="paint4_linear_104_298" x1="268.059" y1="-3.13043" x2="250.45" y2="62.4663" gradientUnits="userSpaceOnUse">
<stop stop-color="#CF5C2B"/>
<stop offset="1" stop-color="#59173E"/>
</linearGradient>
<linearGradient id="paint5_linear_104_298" x1="139.993" y1="29.0334" x2="132.749" y2="60.1461" gradientUnits="userSpaceOnUse">
<stop stop-color="#CF5C2B"/>
<stop offset="1" stop-color="#59173E"/>
</linearGradient>
<linearGradient id="paint6_linear_104_298" x1="178.373" y1="-22.5339" x2="135.137" y2="135.522" gradientUnits="userSpaceOnUse">
<stop stop-color="#CF5C2B"/>
<stop offset="1" stop-color="#59173E"/>
</linearGradient>
<linearGradient id="paint7_linear_104_298" x1="231.218" y1="-36.6081" x2="218.193" y2="2.97259" gradientUnits="userSpaceOnUse">
<stop stop-color="#CF5C2B"/>
<stop offset="1" stop-color="#59173E"/>
</linearGradient>
<linearGradient id="paint8_linear_104_298" x1="139.748" y1="-78.3739" x2="121.369" y2="-5.47841" gradientUnits="userSpaceOnUse">
<stop stop-color="#CF5C2B"/>
<stop offset="1" stop-color="#59173E"/>
</linearGradient>
<linearGradient id="paint9_linear_104_298" x1="172.707" y1="-70.0638" x2="154.328" y2="2.8318" gradientUnits="userSpaceOnUse">
<stop stop-color="#CF5C2B"/>
<stop offset="1" stop-color="#59173E"/>
</linearGradient>
<linearGradient id="paint10_linear_104_298" x1="340.677" y1="-27.6915" x2="320.82" y2="45.3331" gradientUnits="userSpaceOnUse">
<stop stop-color="#CF5C2B"/>
<stop offset="1" stop-color="#59173E"/>
</linearGradient>
</defs>
</svg>
