<svg width="353" height="80" viewBox="0 0 353 80" fill="none" xmlns="http://www.w3.org/2000/svg">
<path d="M352.813 63.7399C352.619 62.0881 352.444 60.4353 352.282 58.7814C352.113 57.0399 351.941 55.2984 351.782 53.5569C351.675 52.3671 351.519 51.1039 351.471 49.8834C351.431 48.8589 352.097 47.1765 351.214 46.2592C350.687 45.7097 349.547 45.5477 348.534 45.4372C347.203 45.2916 345.872 45.1471 344.541 45.0015C346.326 44.7465 348.082 44.417 349.795 44.0153C350.179 43.9255 350.58 43.8237 350.831 43.6234C351.056 43.4439 351.132 43.2097 351.192 42.9853C351.786 40.7184 351.41 38.3114 351.394 36.0215C351.378 33.6834 351.362 31.3465 351.346 29.0084C351.322 26.7842 351.313 24.5589 351.285 22.3347C351.276 21.598 351.77 19.9988 351.192 19.3475C350.715 18.8112 349.616 18.8462 348.737 18.7871C347.856 18.7291 346.968 18.7291 346.085 18.7619C344.764 18.8123 343.454 18.9371 342.149 19.063C343.86 18.7652 345.629 18.6251 347.356 18.3657C348.475 18.1971 349.581 17.976 350.601 17.6389C351.214 17.4364 351.904 17.2416 352.257 16.8464C352.405 16.68 352.472 16.4709 352.537 16.286C352.681 15.8755 352.729 15.4552 352.769 15.037C352.883 13.8844 352.954 12.7307 352.982 11.5759C352.996 10.9936 353.01 10.4091 352.991 9.82676C352.978 9.44693 352.748 9.0901 352.693 8.70918C352.466 7.13734 351.45 5.62791 349.816 4.42277C348.191 3.22309 345.986 2.34632 343.547 1.9457C342.643 1.79684 341.711 1.71363 340.778 1.69393C230.772 -0.522621 122.89 -0.600327 17.3428 1.67643C16.933 1.68518 16.4705 1.66108 16.0766 1.72567C15.6458 1.79681 15.2202 1.90192 14.8017 1.99387C13.9347 2.18323 13.0748 2.39009 12.2448 2.63747C10.6305 3.118 9.11104 3.7649 8.06999 4.68546C7.47385 5.21415 7.05884 5.8118 6.50138 6.35581C6.22177 6.62946 5.84722 6.8418 5.61685 7.12859C4.50019 8.52091 3.37294 9.93076 1.8307 11.1644C0.3254 12.3706 -0.137046 14.2752 0.0335316 15.7507C0.265658 17.7582 0.343015 19.7887 0.629656 21.7885C1.08687 24.9825 0.668312 28.182 1.22401 31.3946C1.30314 31.8555 1.42449 32.359 1.98371 32.6644C2.36707 32.8734 2.88937 32.949 3.38879 33.0168C5.01368 33.2379 6.6368 33.458 8.26168 33.6791C6.25168 34.4902 3.25336 34.5515 2.19472 35.888C1.85357 36.3181 1.79378 36.8107 1.74103 37.2901C1.54935 38.9999 1.29262 40.7064 1.10621 42.4172C1.02356 43.1856 0.955003 43.9551 0.912798 44.7246C0.874111 45.4602 0.773823 46.1618 0.663036 46.893C0.404531 48.5896 -0.290065 50.8062 0.545239 52.4656C1.35241 54.0702 4.56875 54.137 6.79681 54.5267C5.62563 54.6099 4.72877 55.2031 4.0447 55.8008C3.70003 56.1018 3.4556 56.4247 3.12851 56.7323C2.84011 57.0027 2.57637 57.2818 2.33721 57.5697C1.85888 58.1454 1.47724 58.7518 1.20115 59.3768C1.01474 59.7961 0.911018 60.1244 0.879364 60.5601C0.851228 60.9487 0.824839 61.3362 0.801978 61.7248C0.756256 62.5019 0.717589 63.278 0.691211 64.0551C0.636696 65.6084 0.617354 67.1627 0.638457 68.717C0.657801 70.221 0.0862579 71.6801 1.11324 73.1643C2.12967 74.6322 3.87767 75.9019 6.07232 76.7338C7.84844 77.407 9.85489 77.7682 11.9264 77.8394C118.082 80.7444 225.989 80.7017 335.581 77.8218C338.476 77.7452 341.266 77.0261 343.398 75.8034C344.425 75.2145 345.311 74.6979 346.072 73.9634C346.999 73.068 347.868 72.1497 348.677 71.2105C350.652 68.9184 353.121 66.3888 352.813 63.7399Z" fill="url(#paint0_linear_85_1579)"/>
<path d="M341.001 72.016C231.404 74.8893 123.504 74.9331 17.3532 72.027C12.6316 72.027 8.22817 69.9243 6.47843 67.2721C5.70116 66.1052 5.52356 64.818 5.64666 63.5625C5.66425 63.3425 5.69942 63.1224 5.80669 62.9024C5.96496 62.5609 6.21291 62.2643 6.28325 61.9118C6.31842 61.7247 6.35359 61.5484 6.38876 61.3613C6.56637 60.3597 6.61912 59.3362 6.75981 58.3347C6.84773 57.7732 6.95501 57.1788 7.20121 56.6403C7.48433 56.0131 7.94329 55.4406 8.77508 55.0553C12.2763 53.4265 19.1012 53.4484 24.1939 53.3817C25.184 53.3598 26.1037 53.3488 26.9354 53.316C29.1459 53.2273 31.3564 53.1945 33.5845 53.2054C28.3335 53.1945 23.0808 52.9077 17.9177 52.3473C15.4593 52.0944 13.0202 51.7638 10.6145 51.3785C10.0307 51.291 9.41166 51.1695 8.86475 51.0042C8.10507 50.7951 7.45089 50.4864 7.11325 50.0245C6.83013 49.6283 6.84773 49.1883 6.86531 48.7701C6.8829 48.3629 6.79499 47.9448 6.83016 47.5376C6.88292 46.6685 7.06053 45.8202 7.20121 44.962C7.34189 44.2681 7.46676 43.5642 7.53711 42.8593C7.71472 40.9887 7.90812 39.1279 8.13849 37.2681C8.20883 36.7066 8.31611 36.0904 8.95094 35.6941C9.33958 35.4522 9.83548 35.3307 10.3296 35.2213C11.6731 34.9137 13.0536 34.6816 14.4675 34.5382C15.1216 34.4616 15.8286 34.4616 16.4652 34.351C17.2073 34.2076 17.7911 34.1091 18.6053 34.0544C26.3499 33.4929 34.0769 32.9314 41.8232 32.3709C42.7429 32.3053 43.6802 32.2385 44.5999 32.1728C32.9286 31.2928 21.2589 30.3897 9.58753 29.5096C9.07404 29.4659 8.56231 29.433 8.04881 29.3882C7.58984 29.3553 7.09393 29.3115 6.77564 29.1025C6.74047 29.0915 6.72287 29.0696 6.70528 29.0587C6.47491 28.8715 6.43976 28.6296 6.40459 28.3877C5.87351 24.4581 6.47491 20.4081 6.12145 16.4457C6.08628 16.2257 5.99838 15.1136 5.89111 13.8592C5.73108 12.0432 5.53763 9.95147 5.44971 9.95147C4.9538 5.59279 10.3296 1.82849 17.3497 1.6862C122.881 -0.592748 230.764 -0.515055 340.767 1.69712C347.822 1.84051 353.251 5.62672 352.702 10.0073C352.507 11.5036 352.985 12.9353 352.401 14.4426C352.278 14.795 352.083 15.1584 351.659 15.4003C351.271 15.6094 350.757 15.686 350.245 15.7638C348.919 15.9619 347.594 16.171 346.248 16.3691C344.479 16.6329 342.729 16.8748 340.943 16.9963C330.333 17.7012 319.742 18.405 309.148 19.1209C308.865 19.1318 308.582 19.1537 308.299 19.1756C307.963 19.1975 307.61 19.2194 307.274 19.2413C308.123 19.2303 308.953 19.2194 309.803 19.2194C323.083 19.076 336.397 18.9446 349.677 18.8012C350.048 18.8012 350.455 18.8013 350.755 18.9447C351.091 19.099 351.179 19.3847 351.234 19.6495C351.304 20.002 351.322 20.3424 351.304 20.673C351.286 21.7183 350.986 22.7308 350.986 23.7992C350.986 24.746 351.357 25.6698 351.339 26.6276C351.304 28.0144 351.234 29.4122 351.144 30.8319C350.931 34.0128 350.578 37.2375 350.012 40.4184C349.924 40.8803 349.816 41.3761 349.322 41.7166C348.934 41.9804 348.367 42.1237 347.819 42.2343C347.483 42.3109 347.129 42.3777 346.776 42.4215C338.978 43.8083 330.42 42.7072 322.41 43.5664C321.878 43.6102 321.349 43.6759 320.836 43.7536C320.658 43.7755 320.482 43.8083 320.305 43.8302C320.959 43.8631 321.613 43.8849 322.267 43.9287C331.037 44.325 339.791 44.8756 348.508 45.5685C349.533 45.6451 350.666 45.7666 351.267 46.2843C351.728 46.6805 351.745 47.2093 351.745 47.6931V49.2999C351.745 50.9177 351.745 52.5465 351.869 54.1654C352.029 56.3119 352.24 58.4463 352.47 60.5928C352.575 61.6382 352.683 62.6955 352.806 63.7409C353.325 68.0755 347.984 71.8288 341.001 72.016Z" fill="url(#paint1_linear_85_1579)"/>
<path d="M351.345 26.6249C351.31 28.0117 351.239 29.4095 351.15 30.8292C346.658 31.0821 342.237 31.3021 337.922 31.5998C336.92 31.6688 335.915 31.7366 334.911 31.8023C331.195 32.0464 327.474 32.2664 323.752 32.4667C321.889 32.5674 320.027 32.6572 318.165 32.7535C316.979 32.8148 315.91 33.1082 314.746 33.1892C313.121 33.3019 311.359 33.0392 309.729 32.979C307.911 32.9122 306.089 32.8893 304.269 32.9024C300.613 32.9287 296.962 33.1027 293.331 33.361C286.05 33.8798 278.847 34.738 271.623 35.49C260.045 36.694 248.388 37.6047 236.692 38.2199C243.063 38.6129 249.392 39.2598 255.631 40.1551C253.292 40.2745 250.952 40.3785 248.609 40.4693C241.174 40.7561 233.725 40.9039 226.276 40.9794C218.822 41.0549 211.366 41.0571 203.909 41.0516C196.453 41.0461 188.995 41.0319 181.539 41.0746C174.09 41.1173 166.639 41.2158 159.197 41.4369C155.478 41.5475 151.76 41.6876 148.048 41.866C147.119 41.9109 146.191 41.958 145.264 42.0072C144.135 42.0674 143.059 42.2677 141.916 42.3498C133.026 42.9945 124.167 43.8078 115.385 44.8838C101.733 46.5563 88.029 48.1862 74.1489 48.7805C71.6377 48.8791 69.1265 48.9787 66.6153 49.0772C54.6626 50.5746 41.7532 50.8822 30.029 51.7743C26.0512 52.083 21.9837 52.2471 17.9162 52.3467C15.4578 52.0939 13.0188 51.7633 10.6131 51.378C10.0292 51.2905 9.41025 51.169 8.86335 51.0037C8.10366 50.7946 7.44948 50.4859 7.11184 50.024C6.82872 49.6278 6.84627 49.1877 6.86385 48.7696C6.88144 48.3624 6.79353 47.9443 6.8287 47.5371C6.88146 46.668 7.05906 45.8197 7.19975 44.9615C17.9338 44.4109 28.9317 42.4735 39.2578 41.5497C52.5207 40.3719 66.0121 39.6681 79.3805 39.2051C94.5162 38.6873 109.601 39.7994 124.684 39.7994C138.654 39.7994 152.606 39.0398 166.504 38.3469C193.594 36.9819 220.649 35.5732 247.721 34.1097C241.832 34.0484 235.945 33.9499 230.059 33.8218C222.555 33.6587 215.053 33.4497 207.555 33.2099C205.807 33.1541 204.013 33.0107 202.284 33.1366C200.498 33.2669 198.678 33.2986 196.88 33.2833C193.309 33.2526 189.743 32.9691 186.275 32.4383C184.233 32.1252 182.221 31.7268 180.152 31.5013C176.659 31.1204 173.082 31.2408 169.537 31.2123C156.29 31.1062 143.231 28.9235 129.984 29.0089C126.506 29.0319 123.036 29.2114 119.572 29.4018C115.889 29.6054 112.205 29.8233 108.507 29.8813C106.879 29.9065 105.166 29.9831 103.583 29.75C102.352 29.5693 100.958 29.6602 99.7004 29.6394C97.4583 29.6011 95.2161 29.5682 92.9757 29.5398C88.4915 29.4829 84.0072 29.4456 79.5212 29.4314C62.5285 29.3767 45.571 29.9711 28.5765 29.8824C21.3261 29.8496 13.9525 29.7499 6.77417 29.1008C6.739 29.0899 6.72146 29.068 6.70387 29.0571C6.4735 28.8699 6.4383 28.628 6.40313 28.3861C5.87205 24.4565 6.4735 20.4065 6.12004 16.4441C6.08487 16.2241 5.99692 15.1119 5.88965 13.8575C14.5539 13.3956 23.2903 13.2741 31.9546 12.8779C48.9297 12.0963 65.9049 11.7658 82.9521 11.8106C116.726 11.9103 150.411 13.2522 184.08 14.8481C217.767 16.4441 251.381 18.4034 285.066 19.8888C302.094 20.6375 319.141 21.0994 336.204 21.0994C341.209 21.0994 346.247 20.9122 351.304 20.6703C351.287 21.7156 350.986 22.7281 350.986 23.7965C350.991 24.7433 351.362 25.6682 351.345 26.6249ZM351.876 54.1638C351.753 52.5459 351.753 50.9172 351.753 49.2983C341.001 48.5715 330.232 47.8239 319.412 47.3609C300.863 46.5706 282.245 46.6943 263.68 47.1682C259.815 47.2667 256.015 47.3225 252.188 47.6279C250.338 47.7757 248.486 47.918 246.635 48.0537C239.224 48.5977 231.796 49.0465 224.356 49.399C221.454 49.5369 218.551 49.6595 215.646 49.7679C223.169 49.7339 230.69 49.7 238.213 49.6661C245.736 49.6321 253.259 49.5982 260.78 49.5643C264.542 49.5468 268.303 49.5303 272.065 49.5128C273.945 49.5041 275.826 49.4953 277.706 49.4877C278.499 49.4844 279.313 49.5161 280.094 49.41C280.571 49.3454 281.019 49.2239 281.505 49.179C283.186 49.0236 285.078 49.2326 286.77 49.2884C288.634 49.3508 290.498 49.4176 292.362 49.4888C296.093 49.6311 299.825 49.7909 303.553 49.9649C309.427 50.2385 315.295 50.5461 321.161 50.8734C327.562 51.2368 333.928 51.6987 340.294 52.1836C325.83 53.0418 311.365 53.9339 296.865 54.4287C263.497 55.5736 230.113 57.0152 196.692 56.608C163.732 56.2008 130.842 55.023 97.8627 55.0996C80.4814 55.1325 63.1159 55.3087 45.7697 55.6283C32.9676 55.8593 19.9878 55.8155 7.20329 56.6408C6.95534 57.1805 6.84981 57.7748 6.76188 58.3353C6.61944 59.3368 6.56669 60.3603 6.39084 61.3618C20.6262 61.7252 35.0373 61.1199 49.2357 61.098C66.6012 61.0761 83.965 61.1856 101.329 61.4395C134.236 61.9233 167.108 63.0573 200.016 63.4207C233.49 63.7951 266.911 62.2977 300.312 61.2524C317.535 60.7127 334.881 60.7018 352.122 60.5923H352.476C352.247 58.4458 352.034 56.3103 351.876 54.1638Z" fill="url(#paint2_linear_85_1579)"/>
<path d="M262.463 16.4892C255.594 14.0986 244.19 14.8363 238.753 18.0544C235.327 20.0816 235.157 23.87 238.753 25.8841C246.68 30.3237 260.595 28.429 265.621 22.933C265.718 22.8794 265.813 22.8247 265.91 22.7711C269.747 20.6114 267.014 17.0255 262.463 16.4892Z" fill="#EB924D"/>
<path d="M264.09 14.3856C257.221 11.9951 245.817 12.7328 240.38 15.9509C236.954 17.9781 236.783 21.7665 240.38 23.7806C248.307 28.2202 262.222 26.3255 267.248 20.8295C267.345 20.7759 267.44 20.7212 267.537 20.6675C271.376 18.5079 268.641 14.922 264.09 14.3856Z" fill="url(#paint3_linear_85_1579)"/>
<path d="M262.463 15.7421C255.594 13.3515 244.19 14.0892 238.753 17.3074C235.327 19.3345 235.157 23.1229 238.753 25.137C246.68 29.5766 260.595 27.6819 265.621 22.186C265.718 22.1323 265.813 22.0776 265.91 22.0239C269.747 19.8643 267.014 16.2784 262.463 15.7421Z" fill="url(#paint4_linear_85_1579)"/>
<path d="M133.642 52.0844C126.773 49.6938 115.369 50.4315 109.931 53.6496C106.506 55.6779 106.335 59.4652 109.931 61.4793C117.859 65.9189 131.774 64.0242 136.8 58.5282C136.897 58.4746 136.992 58.4199 137.088 58.3662C140.926 56.2066 138.193 52.6218 133.642 52.0844Z" fill="#EB924D"/>
<path d="M135.27 49.9809C128.401 47.5903 116.997 48.3281 111.56 51.5451C108.134 53.5723 107.964 57.3607 111.56 59.3747C119.487 63.8144 133.403 61.9197 138.428 56.4237C138.525 56.3701 138.62 56.3153 138.717 56.2617C142.554 54.1031 139.821 50.5184 135.27 49.9809Z" fill="url(#paint5_linear_85_1579)"/>
<path d="M133.642 51.3368C126.773 48.9462 115.369 49.684 109.931 52.9021C106.506 54.9304 106.335 58.7177 109.931 60.7317C117.859 65.1714 131.774 63.2766 136.8 57.7807C136.897 57.7271 136.992 57.6723 137.088 57.6187C140.926 55.4602 138.193 51.8743 133.642 51.3368Z" fill="url(#paint6_linear_85_1579)"/>
<path d="M8.47616 48.605C8.44099 49.4084 8.44095 50.2447 8.86476 51.0044C8.10507 50.7953 7.45089 50.4866 7.11326 50.0247C6.83013 49.6284 6.84773 49.1884 6.86532 48.7703C6.8829 48.3631 6.795 47.945 6.83017 47.5378C6.93568 45.9637 7.39643 44.4226 7.53711 42.8595C7.71472 40.9888 7.90813 39.128 8.13849 37.2683C8.20884 36.7068 8.31612 36.0905 8.95095 35.6943C9.33958 35.4524 9.83548 35.3309 10.3296 35.2214C11.6732 34.9138 13.0536 34.6818 14.4675 34.5384C15.1216 34.4618 15.8286 34.4618 16.4652 34.3512C17.2073 34.2078 17.7911 34.1093 18.6053 34.0546C26.3499 33.493 34.0769 32.9315 41.8232 32.3711C33.5124 33.4164 25.2016 34.4508 16.8908 35.4972C15.2711 35.6976 13.1099 35.6888 11.7576 36.3521C11.2458 36.6028 10.7833 36.9761 10.3754 37.2891C10.2435 37.3909 9.08811 38.8303 9.53478 38.8401C15.6422 38.9671 21.7496 39.093 27.8552 39.22C23.3305 39.6775 18.8198 40.1876 14.325 40.748C12.0583 41.0315 9.48904 41.4694 8.48668 42.7665C7.85537 43.583 7.89935 44.6864 8.11037 45.5653C8.18247 45.8631 8.34777 46.1444 8.44273 46.4388C8.6731 47.1459 8.50254 47.8924 8.47616 48.605Z" fill="#EB924D"/>
<path d="M308.304 19.1739C307.828 19.152 307.367 19.141 306.908 19.1191H309.154C308.871 19.1301 308.588 19.152 308.304 19.1739Z" fill="#EB924D"/>
<path d="M315.943 43.2119C318.101 43.3444 320.259 43.4648 322.415 43.5644C321.884 43.6082 321.354 43.6738 320.841 43.7516C319.197 43.5644 317.552 43.3772 315.943 43.2119Z" fill="#EB924D"/>
<path d="M347.773 41.2199C348.109 40.3836 348.021 39.5024 347.914 38.6443C347.718 37.0484 347.525 35.4524 347.33 33.8565C347.295 33.5479 347.224 33.2074 346.836 33.0202C346.517 32.8659 346.074 32.8659 345.685 32.8769C342.467 32.9426 339.267 33.0093 336.066 33.075C339.532 32.8878 342.963 32.3153 346.092 31.3795C346.994 31.1047 347.931 30.7632 348.267 30.1907C348.443 29.8941 348.443 29.5745 348.443 29.2549C348.39 26.745 347.683 23.9384 347.205 21.4515C345.684 20.5605 343.421 20.439 341.352 20.3624C332.971 20.0428 324.571 19.7242 316.19 19.4046C314.192 19.3159 311.946 19.2722 309.806 19.2174C323.087 19.074 336.4 18.9427 349.681 18.7993C350.052 18.7993 350.458 18.7993 350.759 18.9427C351.095 19.097 351.183 19.3827 351.237 19.6476C351.52 21.0673 350.989 22.3885 350.989 23.7972C350.989 24.744 351.36 25.6679 351.343 26.6257C351.22 31.1277 350.829 35.8268 350.017 40.4175C349.929 40.8795 349.822 41.3753 349.327 41.7157C348.939 41.9795 348.373 42.1229 347.824 42.2335C347.488 42.3101 347.135 42.3768 346.781 42.4206C347.259 42.078 347.595 41.649 347.773 41.2199Z" fill="#EB924D"/>
<path d="M6.1234 16.4442C6.07064 15.9046 5.59234 9.94998 5.45166 9.94998C4.95575 5.59131 10.3316 1.82701 17.3517 1.68471C122.883 -0.59423 230.766 -0.516503 340.769 1.69567C347.824 1.83906 353.253 5.62527 352.704 10.0058C352.509 11.5021 352.987 12.9338 352.403 14.4411C352.28 14.7936 352.085 15.157 351.661 15.3989C351.273 15.6079 350.759 15.6846 350.247 15.7623C348.925 15.9593 347.609 16.1837 346.282 16.361C347.434 15.7174 348.747 14.9457 349.282 14.0131C349.646 13.3794 349.349 12.8332 349.009 12.2279C348.483 11.2931 348.389 10.401 348.327 9.41585C348.251 8.20413 348.598 6.46153 347.047 5.49391C345.883 4.7682 344.346 4.13114 342.876 3.68126C339.251 2.57134 335.069 2.34258 331.092 2.24407C330.891 2.23969 330.691 2.23419 330.492 2.23091C323.143 2.08095 315.773 2.07 308.45 2.53302C307.561 2.58884 306.782 2.74429 305.925 2.84719C304.849 2.97635 303.581 2.81544 302.491 2.78041C300.001 2.69941 297.509 2.62936 295.017 2.56916C290.033 2.44985 285.046 2.37104 280.059 2.33383C276.32 2.30646 272.583 2.30206 268.845 2.29768C267.665 2.29659 266.485 2.2944 265.307 2.29331C263.035 2.29002 260.764 2.28785 258.492 2.28566C255.343 2.28237 252.195 2.27799 249.047 2.2747C248.898 2.2747 248.748 2.2747 248.599 2.2747C243.61 2.26923 238.621 2.26267 233.632 2.2572C231.138 2.25391 228.643 2.25173 226.149 2.24845C225.013 2.24735 223.74 2.34696 222.622 2.21561C221.487 2.08207 220.559 1.65625 219.356 1.58948C218.273 1.52928 217.151 1.64531 216.076 1.69894C213.356 1.83467 210.637 1.99558 207.924 2.18057C206.695 2.26485 205.353 2.38853 204.528 2.9621C204.245 3.16022 204.036 3.40432 203.689 3.55756C202.924 3.89908 201.873 3.6725 200.986 3.47766C199.221 3.08908 197.359 2.87125 195.488 2.82527C193.803 2.78477 192.129 2.9665 190.444 2.90411C189.38 2.8647 188.358 2.70488 187.317 2.57681C183.213 2.0733 178.917 2.04156 174.76 1.85548C171.675 1.71646 168.585 1.61575 165.496 1.54789C155.521 1.32678 145.536 1.44393 135.569 1.70663C130.578 1.83798 125.591 2.00654 120.606 2.18715C118.327 2.27034 115.787 2.57024 113.519 2.38744C112.863 2.3349 112.253 2.17071 111.604 2.09519C110.923 2.01638 110.237 2.02843 109.55 2.03172C106.78 2.04266 104.01 2.06125 101.241 2.0711C98.005 2.08205 94.7517 2.0711 91.4985 2.0711C90.4046 2.07329 89.3442 2.20793 88.275 2.20903C87.2991 2.21012 86.3248 2.07548 85.34 2.08096C83.2896 2.0919 81.2409 2.34256 79.3417 2.82527C78.6067 3.01245 77.8557 3.23685 77.0626 3.20839C75.6101 3.15585 74.6025 2.30318 73.2906 1.9135C70.1639 0.985285 66.9317 2.75522 63.7365 2.03716C62.1485 1.68033 60.5237 1.73398 58.8531 1.72303C56.7199 1.7088 54.5868 1.70333 52.4537 1.7088C45.2209 1.73069 37.9898 1.88503 30.7921 2.336C27.203 2.56696 23.6313 2.86469 20.0756 3.26093C18.361 3.44811 16.6095 3.76663 14.8774 3.88813C14.3287 3.93192 13.9401 3.92098 13.4618 4.13005C11.3445 5.05826 5.49035 10.2291 9.66687 12.0472C11.0227 12.6372 12.7988 12.646 14.4536 12.6318C25.1032 12.5409 35.7529 12.4501 46.4026 12.3592C34.9053 12.9273 23.4081 13.4965 11.9108 14.0646C11.1669 14.1018 10.3984 14.1423 9.74249 14.3634C7.52849 15.1088 8.29169 16.8448 7.97515 18.1025C7.5619 19.7488 8.07887 21.5308 8.33386 23.1814C8.66974 25.2951 9.07599 27.4077 9.58948 29.5104C9.07599 29.4666 8.56426 29.4338 8.05077 29.3889C7.55662 29.356 7.02553 29.3013 6.70723 29.0583C6.47687 28.8711 6.44171 28.6293 6.40654 28.3873C5.87546 24.4567 6.47686 20.4067 6.1234 16.4442Z" fill="#EB924D"/>
<path d="M341.001 72.0167C231.404 74.89 123.504 74.9338 17.3535 72.0277C12.6318 72.0277 8.2284 69.925 6.47866 67.2728C5.70139 66.1059 5.52379 64.8187 5.64689 63.5632C5.66447 63.3432 5.69965 63.1232 5.80692 62.9031C5.96519 62.5616 6.21313 62.265 6.28347 61.9125C6.54901 60.7348 6.60177 59.5241 6.7618 58.3354C6.93765 57.1357 7.22077 55.7817 8.77707 55.056C12.2783 53.4272 19.1032 53.4491 24.1959 53.3824C28.3513 53.4152 32.4891 53.4371 36.7149 53.5805C35.4822 53.5805 34.3901 53.9373 33.2048 54.0096C31.5729 54.1092 29.9182 54.1289 28.281 54.1891C25.0488 54.3062 21.8166 54.4244 18.5862 54.5426C16.344 54.6247 14.0738 54.709 11.9354 55.1381C11.1265 55.3001 10.3175 55.5212 9.73722 55.9076C9.10414 56.329 8.81047 56.9015 8.57835 57.4597C8.12992 58.5412 7.57424 59.8416 7.84505 60.9635C7.92595 61.2985 8.12288 61.617 8.19147 61.953C8.26533 62.3208 8.20731 62.6864 8.18621 63.0553C8.11411 64.2988 8.24774 65.5728 9.07776 66.7244C11.0579 69.4762 16.2403 70.6759 20.9954 71.2264C26.8126 71.8865 31.7101 72.5137 37.5819 72.0189C46.16 72.0758 54.7364 72.1317 63.3145 72.1842C68.3298 72.2149 73.3469 72.2619 78.3623 72.275C79.1993 72.2772 79.9643 72.1109 80.7873 72.1087C81.9954 72.1054 83.2386 72.24 84.445 72.2958C86.9105 72.4097 89.3794 72.4918 91.8502 72.5443C97.9066 72.6713 103.972 72.6122 110.019 72.367C111.46 72.309 112.859 72.1459 114.256 72.4042C116.273 72.7775 118.397 72.7643 120.491 72.8223C125.466 72.9602 130.448 72.9778 135.425 72.8738C136.619 72.8486 137.813 72.8169 139.007 72.7786C140.917 72.7162 142.86 72.6319 144.638 72.1941C145.556 71.9686 146.417 71.6511 147.369 71.4891C150.073 71.0272 152.841 71.8799 155.47 72.4852C158.878 73.2711 162.626 72.8968 166.197 73.0467C171.065 73.2525 175.745 73.4649 180.612 73.073C180.656 73.0697 180.7 73.0654 180.744 73.0621C183.035 72.8749 185.314 72.5476 187.409 71.9259C188.501 71.6008 189.598 71.1892 190.808 71.2035C192.266 71.2221 193.488 71.8493 194.74 72.3155C198.672 73.7779 203.561 73.7451 208.114 73.4309C212.002 73.1627 215.92 72.7151 219.843 72.9603C221.465 73.062 223.025 72.9198 224.663 72.9241C226.693 72.9307 228.72 72.9362 230.75 72.9427C247.477 72.9975 264.223 73.0314 280.933 72.679C287.988 72.5356 295.061 72.3156 302.116 72.0189C305.848 71.8646 309.578 71.6884 313.309 71.5012C315.166 71.4016 317.023 71.2921 318.896 71.1936C324.52 70.863 330.195 70.8849 335.836 70.6321C339.214 70.4777 342.751 70.2467 345.598 69.0909C347.224 68.4308 348.515 67.3954 349.081 66.2296C349.365 65.6681 349.47 65.0628 349.312 64.4794C349.224 64.1926 349.046 63.9288 349.029 63.654C348.993 62.6525 348.993 61.64 348.976 60.6384C348.958 59.0753 349.224 57.4575 348.87 55.9164C348.835 55.7401 348.782 55.5529 348.587 55.4325C348.427 55.334 348.199 55.2891 347.968 55.2454C347.013 55.0801 346.076 54.9148 345.139 54.7506C346.394 54.3653 347.791 53.9034 348.234 53.0781C348.447 52.7037 348.429 52.3075 348.411 51.9222C348.376 50.9863 348.323 50.0176 347.74 49.1594C347.138 48.3013 347.033 47.5963 345.582 47.3435C338.156 46.0672 330.091 44.8664 322.276 43.9316C331.046 44.3279 339.8 44.8784 348.517 45.5713C349.542 45.6479 350.675 45.7695 351.276 46.2872C351.737 46.6835 351.754 47.2121 351.754 47.6959C351.754 49.8534 351.719 52.0108 351.877 54.1683C352.125 57.3601 352.444 60.552 352.815 63.7438C353.325 68.0762 347.984 71.8295 341.001 72.0167Z" fill="#EB924D"/>
<path d="M150.701 13.0415C139.118 14.2828 127.176 14.2116 115.633 12.8324C127.309 12.4395 139.014 12.8007 150.701 13.0415Z" fill="#EB924D"/>
<path d="M245.317 18.9799C239.491 19.5808 233.514 19.4122 227.597 19.2415C211.395 18.773 194.84 18.2618 179.789 14.7865C188.969 14.7657 198.069 15.7147 207.161 16.4535C219.69 17.4704 232.731 18.2399 245.317 18.9799Z" fill="#EB924D"/>
<path d="M252.714 18.66C248.414 18.5757 244.132 18.2834 239.855 17.9923C220.536 16.6766 201.219 15.3598 181.899 14.044C160.946 12.6167 139.862 11.1872 118.835 12.0935C116.039 12.0716 113.051 12.2807 110.255 12.2588C123.138 13.1487 136.132 13.4256 149.082 13.0863C154.183 12.9527 159.304 12.724 164.384 13.0469C168.452 13.3052 172.438 13.9138 176.434 14.4567C183.93 15.4769 191.503 16.2726 199.105 16.9217C220.321 18.7311 241.765 19.389 263.179 19.3145C259.241 19.0212 256.676 18.7377 252.714 18.66Z" fill="url(#paint7_linear_85_1579)"/>
<path d="M82.6758 30.3647C72.4289 31.0718 62.0535 31.0575 51.8101 30.3242C62.1608 29.697 72.3058 29.8699 82.6758 30.3647Z" fill="#EB924D"/>
<path d="M90.7736 30.4194C76.2516 30.2388 61.7244 30.2015 47.2007 30.3088C48.9012 30.2968 50.7406 30.0527 52.4552 29.918C54.2612 29.7757 56.069 29.6335 57.8803 29.5185C61.5099 29.2887 65.1377 29.1956 68.7796 29.3696C69.418 29.4003 69.9156 29.328 70.5346 29.2755C71.3664 29.2055 72.2685 29.2985 73.1038 29.3303C74.9626 29.4014 76.8196 29.4868 78.6749 29.5853C82.3854 29.7823 86.0889 30.0319 89.78 30.3362C90.1089 30.3624 90.4412 30.3909 90.7736 30.4194Z" fill="url(#paint8_linear_85_1579)"/>
<path d="M118.928 45.1357C114.97 46.1012 111.01 47.0655 107.051 48.0299C104.561 48.6363 102.064 49.2449 99.4666 49.6444C96.1201 50.1589 92.6628 50.3176 89.2249 50.4664C80.5676 50.8419 71.7433 51.1604 63.3164 49.8644C82.0975 49.7495 100.523 47.4541 118.928 45.1357Z" fill="#EB924D"/>
<path d="M136.58 42.4238C126.553 44.0548 116.526 45.6857 106.499 47.3167C101.719 48.0938 96.9289 48.8732 92.0472 49.3417C85.9961 49.9229 79.8536 50.0214 73.7321 50.0707C68.3035 50.1145 62.8749 50.1188 57.4463 50.0849C59.5425 49.8802 61.6475 49.7105 63.7577 49.5759C64.6141 49.5212 65.539 49.5409 66.3814 49.4599C70.8164 49.0374 74.9947 49.2136 79.5124 49.1096C84.2165 49.0012 88.866 48.2175 93.4839 47.7457C100.821 46.9959 108.125 46.1312 115.411 45.2107C122.477 44.3175 129.529 43.3707 136.58 42.4238Z" fill="url(#paint9_linear_85_1579)"/>
<path d="M311.406 54.6416C303.099 56.5046 293.995 56.1674 285.183 55.8183C283.335 55.7449 281.476 55.6727 279.633 55.7909C278.453 55.8664 277.289 56.0197 276.128 56.1697C270.897 56.8472 265.628 57.4755 260.291 57.6484C254.954 57.8214 249.52 57.5248 244.494 56.3951C258.418 57.7875 272.77 55.0773 286.871 54.8923C290.381 54.8463 293.897 54.9459 297.405 54.8353C302.195 54.6865 306.606 54.6821 311.406 54.6416Z" fill="#EB924D"/>
<path d="M239.113 56.0528C246.758 56.7173 254.476 57.3839 262.171 57.0029C267.136 56.7567 272.019 56.0769 276.971 55.7398C282.845 55.3403 288.769 55.4245 294.676 55.3676C305.28 55.2647 315.873 54.701 326.352 53.683C323.419 53.6393 320.482 53.6513 317.551 53.7181C314.969 53.7761 312.404 53.6841 309.812 53.7159C304.059 53.7859 298.318 54.018 292.585 54.3146C286.863 54.6102 281.149 54.9692 275.432 55.2976C269.726 55.6249 264.012 55.9226 258.287 56.0933C252.557 56.2641 246.812 56.3068 241.081 56.1251C240.432 56.1032 239.757 56.1087 239.113 56.0528Z" fill="url(#paint10_linear_85_1579)"/>
<path d="M88.3096 18.4248C89.32 18.5827 90.2357 18.7248 91.0566 18.8511C91.8776 18.9458 92.5881 19.0247 93.188 19.0879C93.8826 19.1826 94.4984 19.2616 95.0352 19.3247C95.6982 19.4194 96.6929 19.3089 98.019 18.9932C99.3452 18.6458 100.798 18.3301 102.376 18.0459C103.987 17.7301 105.629 17.5565 107.302 17.5249C108.976 17.4618 110.507 17.7617 111.896 18.4248C113.286 19.0879 114.423 19.751 115.307 20.4141C116.191 21.0771 116.885 21.7876 117.391 22.5454C117.927 23.2716 118.306 24.0452 118.527 24.8662C118.748 25.6872 118.875 26.5871 118.906 27.5659C118.875 29.0184 118.527 30.4235 117.864 31.7812C117.58 32.3496 117.201 32.9495 116.728 33.5811C116.285 34.181 115.733 34.7651 115.07 35.3335C114.407 35.9019 113.617 36.4386 112.702 36.9438C111.818 37.4491 110.776 37.8911 109.576 38.27C110.744 38.6174 111.707 39.0278 112.465 39.5015C113.254 39.9751 113.886 40.4172 114.359 40.8276C114.928 41.3328 115.354 41.8223 115.638 42.2959C115.986 42.959 116.222 43.5273 116.349 44.001C116.475 44.4746 116.554 44.9325 116.585 45.3745C116.649 45.785 116.728 46.2113 116.822 46.6533C116.917 47.0954 117.122 47.6006 117.438 48.1689C117.691 48.611 117.991 49.0688 118.338 49.5425C118.654 49.953 119.017 50.395 119.427 50.8687C119.869 51.3423 120.406 51.8001 121.038 52.2422C120.153 52.2738 119.333 52.2896 118.575 52.2896C117.848 52.2896 117.217 52.2896 116.68 52.2896C116.049 52.2896 115.449 52.2738 114.88 52.2422C114.312 52.2106 113.602 52.1948 112.749 52.1948C112.023 52.1948 111.091 52.1948 109.955 52.1948C108.849 52.1948 107.507 52.2106 105.929 52.2422C106.623 51.7054 107.192 51.1686 107.634 50.6318C108.076 50.0951 108.423 49.6056 108.676 49.1636C108.96 48.6584 109.165 48.1689 109.292 47.6953C109.449 46.8428 109.465 45.9587 109.339 45.043C109.244 44.2536 108.992 43.3853 108.581 42.438C108.171 41.4591 107.507 40.4803 106.592 39.5015C105.676 39.6593 104.903 39.7856 104.271 39.8804C103.671 39.9435 103.15 40.0067 102.708 40.0698C102.203 40.133 101.792 40.1803 101.477 40.2119C101.192 40.2435 100.877 40.2751 100.529 40.3066C100.245 40.3382 99.9294 40.3856 99.582 40.4487C99.2663 40.4803 98.9663 40.5277 98.6821 40.5908C98.619 41.9486 98.619 43.1326 98.6821 44.1431C98.7453 45.1219 98.8242 45.9429 98.9189 46.606C99.0452 47.3953 99.1873 48.0742 99.3452 48.6426C99.5031 49.2109 99.7241 49.7635 100.008 50.3003C100.229 50.7424 100.514 51.216 100.861 51.7212C101.208 52.1948 101.603 52.5895 102.045 52.9053C101.224 52.9053 100.435 52.9053 99.6768 52.9053C98.9505 52.9053 98.2874 52.8895 97.6875 52.8579C96.9928 52.8579 96.3298 52.8421 95.6982 52.8105C95.0667 52.779 94.3563 52.7632 93.5669 52.7632C92.9038 52.7632 92.1144 52.7632 91.1987 52.7632C90.3146 52.7632 89.3516 52.779 88.3096 52.8105C89.1305 51.958 89.7778 51.2318 90.2515 50.6318C90.7251 50.0319 91.0882 49.5267 91.3408 49.1162C91.625 48.6742 91.7987 48.2952 91.8618 47.9795C91.925 47.4743 91.9723 46.5744 92.0039 45.2798C92.0671 43.9536 92.1144 42.438 92.146 40.7329C92.1776 39.0278 92.1934 37.2438 92.1934 35.3809C92.1934 33.5179 92.1776 31.7812 92.146 30.1709C92.1144 28.529 92.0828 27.1239 92.0513 25.9556C92.0197 24.7873 91.9881 24.0452 91.9565 23.7295C91.8618 23.1611 91.6566 22.5928 91.3408 22.0244C91.0882 21.5192 90.7251 20.9508 90.2515 20.3193C89.7778 19.6878 89.1305 19.0563 88.3096 18.4248ZM106.213 35.0967C106.529 34.9072 106.797 34.7178 107.018 34.5283C107.239 34.3389 107.429 34.0389 107.586 33.6284C107.744 33.1864 107.871 32.5706 107.965 31.7812C108.092 30.9919 108.234 29.9183 108.392 28.5605C108.518 27.2028 108.423 26.0819 108.107 25.1978C107.823 24.3136 107.429 23.619 106.923 23.1138C106.45 22.577 105.913 22.2139 105.313 22.0244C104.745 21.8034 104.239 21.6929 103.797 21.6929C102.913 21.6929 102.045 21.9613 101.192 22.498C100.34 23.0348 99.6925 23.7611 99.2505 24.6768C99.0926 25.0872 98.9505 25.7661 98.8242 26.7134C98.7295 27.5343 98.6663 28.6711 98.6348 30.1235C98.6032 31.576 98.6506 33.4863 98.7769 35.8545C99.9767 36.0439 101.035 36.1229 101.95 36.0913C102.866 36.0282 103.639 35.9176 104.271 35.7598C105.029 35.6019 105.676 35.3809 106.213 35.0967ZM132.168 45.3745C133.052 45.3745 133.873 45.2798 134.631 45.0903C135.262 44.9325 135.862 44.6799 136.431 44.3325C137.031 43.9536 137.425 43.401 137.615 42.6748C138.246 42.8011 138.783 42.9116 139.225 43.0063C139.667 43.0695 140.046 43.1326 140.362 43.1958C140.709 43.2905 141.009 43.3537 141.262 43.3853C141.514 43.4484 141.814 43.5116 142.162 43.5747C142.477 43.6379 142.856 43.7168 143.298 43.8115C143.772 43.8747 144.325 43.9694 144.956 44.0957C144.482 44.0326 143.993 44.0799 143.488 44.2378C143.014 44.3957 142.556 44.5693 142.114 44.7588C141.609 44.9798 141.135 45.2482 140.693 45.564C140.409 45.7534 140.078 46.0376 139.699 46.4165C139.351 46.7954 138.846 47.1585 138.183 47.5059C137.52 47.8532 136.636 48.1532 135.531 48.4058C134.457 48.6268 133.068 48.7057 131.363 48.6426C129.31 48.5794 127.59 48.2163 126.2 47.5532C124.811 46.8586 123.69 46.0218 122.837 45.043C121.985 44.0326 121.369 42.9432 120.99 41.7749C120.611 40.6066 120.406 39.5173 120.375 38.5068C120.343 37.4964 120.643 36.4386 121.274 35.3335C121.906 34.2284 122.79 33.2179 123.927 32.3022C125.095 31.3866 126.5 30.6445 128.142 30.0762C129.784 29.4762 131.584 29.1763 133.542 29.1763C134.678 29.1763 135.72 29.3184 136.667 29.6025C137.646 29.8551 138.53 30.2025 139.32 30.6445C140.141 31.0866 140.851 31.5918 141.451 32.1602C142.051 32.6969 142.556 33.2495 142.967 33.8179C143.377 34.4178 143.725 35.0493 144.009 35.7124C144.261 36.2808 144.467 36.9281 144.625 37.6543C144.782 38.3805 144.83 39.1226 144.767 39.8804C142.367 39.9435 140.425 39.9909 138.941 40.0225C137.488 40.054 136.352 40.0698 135.531 40.0698H133.399H131.789C131.221 40.0698 130.479 40.0856 129.563 40.1172C128.647 40.1488 127.526 40.1961 126.2 40.2593C126.358 41.5223 126.753 42.5011 127.384 43.1958C128.047 43.8589 128.742 44.3641 129.468 44.7114C130.289 45.0903 131.189 45.3114 132.168 45.3745ZM127.905 36.8491C128.916 36.9123 129.752 36.9596 130.416 36.9912C131.11 37.0228 131.679 37.0544 132.121 37.0859C132.594 37.1175 132.973 37.1333 133.257 37.1333H134.441C135.231 37.1333 136.699 37.0859 138.846 36.9912C138.751 35.6019 138.451 34.5441 137.946 33.8179C137.473 33.0916 136.967 32.5549 136.431 32.2075C135.799 31.8286 135.104 31.6076 134.347 31.5444C132.294 31.576 130.763 32.0023 129.752 32.8232C128.774 33.6442 128.158 34.9862 127.905 36.8491ZM167.548 25.9556C167.264 26.6502 167.012 27.2817 166.791 27.8501C166.601 28.4185 166.427 28.9237 166.27 29.3657C166.112 29.8709 165.97 30.313 165.843 30.6919C165.717 31.134 165.575 31.6392 165.417 32.2075C165.259 32.7127 165.054 33.3442 164.801 34.1021C164.58 34.8283 164.312 35.6966 163.996 36.707C163.743 35.1914 163.286 33.9915 162.623 33.1074C161.959 32.1917 161.281 31.4813 160.586 30.9761C159.765 30.4077 158.881 29.9972 157.934 29.7446C156.229 29.4604 154.997 29.492 154.239 29.8394C153.481 30.1867 152.976 30.6287 152.724 31.1655C152.597 31.3866 152.455 31.6707 152.297 32.0181C152.171 32.3338 152.061 32.6654 151.966 33.0127C151.903 33.36 151.887 33.7074 151.918 34.0547C151.95 34.402 152.092 34.6862 152.345 34.9072C152.503 35.0651 152.913 35.2861 153.576 35.5703C154.239 35.8229 155.029 36.1229 155.944 36.4702C156.892 36.786 157.886 37.1333 158.928 37.5122C160.002 37.8911 161.012 38.27 161.959 38.6489C162.907 39.0278 163.728 39.4067 164.422 39.7856C165.117 40.1646 165.575 40.5119 165.796 40.8276C165.985 41.1434 166.191 41.5697 166.412 42.1064C166.664 42.6117 166.838 43.18 166.933 43.8115C167.059 44.4115 167.09 45.043 167.027 45.7061C166.996 46.3376 166.822 46.9691 166.506 47.6006C166.191 48.2321 165.685 48.8162 164.991 49.353C164.328 49.8898 163.428 50.3319 162.291 50.6792C160.965 51.0897 159.686 51.2002 158.455 51.0107C157.223 50.8213 156.086 50.5371 155.044 50.1582C154.034 49.7793 153.15 49.4162 152.392 49.0688C151.634 48.6899 151.097 48.5321 150.782 48.5952C150.434 48.6584 150.04 48.832 149.598 49.1162C149.156 49.4004 148.729 49.7004 148.319 50.0161C147.94 50.3003 147.608 50.5687 147.324 50.8213C147.04 51.0423 146.898 51.1213 146.898 51.0581C146.898 50.995 146.945 50.8055 147.04 50.4897C147.166 50.174 147.293 49.7951 147.419 49.353C147.577 48.8794 147.719 48.3742 147.845 47.8374C148.003 47.269 148.114 46.7323 148.177 46.2271C148.24 45.8166 148.319 45.3114 148.414 44.7114C148.477 44.1746 148.556 43.5273 148.65 42.7695C148.777 41.9801 148.919 41.0329 149.077 39.9277C149.235 40.7487 149.456 41.4591 149.74 42.0591C150.056 42.659 150.355 43.18 150.64 43.6221C150.987 44.1273 151.319 44.5535 151.634 44.9009C152.108 45.3429 152.66 45.7534 153.292 46.1323C153.955 46.5112 154.618 46.8428 155.281 47.127C155.944 47.3796 156.576 47.5374 157.176 47.6006C157.776 47.6637 158.281 47.6006 158.691 47.4111C159.102 47.2217 159.449 46.8743 159.733 46.3691C160.049 45.8639 160.27 45.3114 160.396 44.7114C160.523 44.1115 160.57 43.5431 160.539 43.0063C160.507 42.438 160.365 41.9801 160.112 41.6328C159.923 41.4118 159.481 41.1276 158.786 40.7803C158.123 40.4329 157.318 40.054 156.371 39.6436C155.455 39.2331 154.476 38.8068 153.434 38.3647C152.424 37.9227 151.461 37.4806 150.545 37.0386C149.661 36.5649 148.919 36.1229 148.319 35.7124C147.75 35.2703 147.435 34.8757 147.372 34.5283C147.308 34.0231 147.261 33.4705 147.229 32.8706C147.198 32.2391 147.229 31.6234 147.324 31.0234C147.451 30.3919 147.672 29.792 147.987 29.2236C148.335 28.6553 148.84 28.1816 149.503 27.8027C149.945 27.5501 150.529 27.3607 151.255 27.2344C151.982 27.1081 152.787 27.0449 153.671 27.0449C154.555 27.0133 155.471 27.0449 156.418 27.1396C157.365 27.2028 158.265 27.2975 159.118 27.4238C160.002 27.5186 160.791 27.6449 161.486 27.8027C162.212 27.9606 162.765 28.1027 163.144 28.229C163.586 28.3869 164.059 28.4027 164.564 28.2764C165.007 28.1816 165.48 27.9764 165.985 27.6606C166.491 27.3449 167.012 26.7765 167.548 25.9556ZM169.49 31.2129C170.311 31.3708 171.022 31.4971 171.622 31.5918C172.253 31.6549 172.79 31.7181 173.232 31.7812C173.737 31.8444 174.179 31.8918 174.558 31.9233C174.937 31.9549 175.379 31.9865 175.884 32.0181C176.737 32.0496 177.937 32.0496 179.484 32.0181C178.568 31.9549 177.842 32.1917 177.305 32.7285C176.8 33.2337 176.421 33.8179 176.168 34.481C175.853 35.2703 175.679 36.186 175.647 37.228C175.584 38.6174 175.616 39.8804 175.742 41.0171C175.9 42.1222 176.168 43.0695 176.547 43.8589C176.958 44.6167 177.495 45.1851 178.158 45.564C178.821 45.9113 179.673 46.006 180.715 45.8481C181.757 45.6903 182.547 45.3271 183.083 44.7588C183.652 44.1589 184.062 43.4326 184.315 42.5801C184.568 41.696 184.71 40.7013 184.741 39.5962C184.804 38.491 184.852 37.3385 184.883 36.1387C184.883 34.9388 184.868 34.0863 184.836 33.5811C184.836 33.0443 184.82 32.6969 184.789 32.5391C184.757 32.3812 184.71 32.318 184.646 32.3496C184.583 32.3496 184.504 32.2707 184.41 32.1128C184.347 31.9865 184.252 31.8602 184.125 31.7339C184.031 31.6076 183.904 31.4655 183.747 31.3076C183.589 31.1182 183.415 30.9287 183.226 30.7393C184.047 30.7708 184.773 30.8024 185.404 30.834C186.067 30.834 186.62 30.8498 187.062 30.8813C187.567 30.9129 188.009 30.9445 188.388 30.9761C188.736 31.0076 189.193 31.055 189.762 31.1182C190.235 31.1813 190.851 31.2445 191.609 31.3076C192.367 31.3708 193.267 31.4655 194.309 31.5918C193.582 31.7497 192.998 31.9865 192.556 32.3022C192.114 32.618 191.767 32.9338 191.514 33.2495C191.23 33.5968 191.025 33.9757 190.898 34.3862C190.804 34.923 190.804 35.744 190.898 36.8491C190.962 37.828 191.119 39.1699 191.372 40.875C191.625 42.5801 192.019 44.8219 192.556 47.6006L188.814 49.8267L188.057 43.5273C187.141 45.0745 186.162 46.2744 185.12 47.127C184.11 47.9479 183.162 48.5479 182.278 48.9268C181.236 49.3688 180.226 49.6214 179.247 49.6846C177.952 49.6846 176.832 49.6056 175.884 49.4478C174.969 49.2583 174.179 49.0215 173.516 48.7373C172.853 48.4531 172.316 48.1374 171.906 47.79C171.527 47.4111 171.243 47.0322 171.053 46.6533C170.611 45.8639 170.374 44.8535 170.343 43.6221C170.311 42.359 170.359 41.1118 170.485 39.8804C170.611 38.6174 170.753 37.4648 170.911 36.4229C171.069 35.3809 171.116 34.6704 171.053 34.2915C170.99 34.0073 170.895 33.6916 170.769 33.3442C170.643 33.0601 170.485 32.7443 170.295 32.397C170.106 32.0181 169.838 31.6234 169.49 31.2129ZM194.782 30.5498C195.508 30.4867 196.124 30.4235 196.629 30.3604C197.166 30.2972 197.608 30.234 197.956 30.1709C198.366 30.1077 198.713 30.0446 198.998 29.9814C199.282 29.9499 199.597 29.8867 199.945 29.792C200.261 29.7288 200.608 29.6499 200.987 29.5552C201.397 29.4289 201.839 29.2868 202.313 29.1289L202.029 35.144C202.723 34.0389 203.529 33.2021 204.444 32.6338C205.36 32.0339 206.228 31.5918 207.049 31.3076C208.028 30.9603 209.007 30.755 209.986 30.6919C210.996 30.7235 211.928 30.8813 212.78 31.1655C213.507 31.4181 214.233 31.8128 214.959 32.3496C215.717 32.8864 216.301 33.6758 216.711 34.7178C217.785 33.6126 218.843 32.7601 219.885 32.1602C220.958 31.5286 221.906 31.055 222.727 30.7393C223.705 30.3919 224.621 30.1867 225.474 30.1235C226.61 30.092 227.652 30.2814 228.6 30.6919C229.578 31.1024 230.431 31.6234 231.157 32.2549C231.883 32.8548 232.468 33.5021 232.91 34.1968C233.352 34.8599 233.604 35.444 233.667 35.9492C233.762 36.6439 233.715 37.5438 233.525 38.6489C233.336 39.7225 233.115 40.8276 232.862 41.9644C232.61 43.0695 232.373 44.0957 232.152 45.043C231.962 45.9587 231.883 46.606 231.915 46.9849C232.01 47.3006 232.231 47.6795 232.578 48.1216C232.894 48.5005 233.352 48.9741 233.952 49.5425C234.583 50.0793 235.483 50.7108 236.651 51.437C235.641 51.4054 234.741 51.3739 233.952 51.3423C233.194 51.3107 232.547 51.2633 232.01 51.2002C231.378 51.137 230.826 51.0897 230.352 51.0581C229.973 51.0581 229.515 51.0265 228.979 50.9634C228.536 50.9318 227.952 50.8844 227.226 50.8213C226.531 50.7581 225.726 50.695 224.811 50.6318C225.158 50.5371 225.442 50.3634 225.663 50.1108C225.884 49.8267 226.074 49.5583 226.231 49.3057C226.389 48.9899 226.516 48.6426 226.61 48.2637C226.674 47.9479 226.737 47.4427 226.8 46.748C226.863 46.0534 226.91 45.264 226.942 44.3799C227.005 43.4958 227.037 42.5643 227.037 41.5854C227.068 40.6066 227.068 39.6751 227.037 38.791C227.005 37.9069 226.942 37.1017 226.847 36.3755C226.752 35.6493 226.626 35.0967 226.468 34.7178C226.342 34.4336 226.121 34.2126 225.805 34.0547C225.489 33.8652 225.126 33.7547 224.716 33.7231C224.305 33.66 223.895 33.6758 223.484 33.7705C223.074 33.8337 222.711 33.96 222.395 34.1494C222.111 34.3704 221.732 34.6704 221.258 35.0493C220.848 35.3966 220.311 35.8703 219.648 36.4702C218.985 37.0701 218.148 37.828 217.138 38.7437C217.043 40.7329 216.964 42.3433 216.901 43.5747C216.869 44.7746 216.838 45.6903 216.806 46.3218C216.775 47.0796 216.759 47.6006 216.759 47.8848C216.727 48.1374 216.743 48.3742 216.806 48.5952C216.869 49.0688 217.059 49.5109 217.375 49.9214C216.996 49.8267 216.585 49.7635 216.143 49.7319C215.733 49.7004 215.354 49.6688 215.006 49.6372C214.596 49.6056 214.185 49.5898 213.775 49.5898C213.428 49.5898 213.049 49.6056 212.638 49.6372C212.291 49.6688 211.865 49.7161 211.359 49.7793C210.854 49.8109 210.302 49.8582 209.702 49.9214C209.954 49.7635 210.16 49.5741 210.317 49.353C210.475 49.132 210.602 48.9268 210.696 48.7373C210.823 48.5163 210.917 48.311 210.98 48.1216C211.012 47.9321 211.075 47.4743 211.17 46.748C211.265 45.9902 211.328 45.1061 211.359 44.0957C211.391 43.0853 211.391 42.0275 211.359 40.9224C211.328 39.7856 211.217 38.7594 211.028 37.8438C210.838 36.8965 210.538 36.1229 210.128 35.5229C209.749 34.923 209.244 34.6546 208.612 34.7178C207.854 34.7809 207.081 34.9704 206.292 35.2861C205.628 35.5387 204.918 35.9176 204.16 36.4229C203.402 36.9281 202.692 37.6069 202.029 38.4595C201.903 40.8276 201.824 42.7064 201.792 44.0957C201.792 45.485 201.808 46.5428 201.839 47.269C201.871 48.1216 201.903 48.7057 201.934 49.0215C201.966 49.2425 202.045 49.4635 202.171 49.6846C202.266 49.874 202.376 50.0951 202.502 50.3477C202.66 50.6003 202.834 50.8371 203.023 51.0581L195.493 50.6792C195.745 50.5529 195.966 50.395 196.156 50.2056C196.345 49.9845 196.503 49.7635 196.629 49.5425C196.756 49.2899 196.882 49.0373 197.008 48.7847C197.103 48.5636 197.182 48.0426 197.245 47.2217C197.34 46.4007 197.419 45.4377 197.482 44.3325C197.545 43.1958 197.592 42.0117 197.624 40.7803C197.687 39.5173 197.719 38.349 197.719 37.2754C197.75 36.1702 197.766 35.2388 197.766 34.481C197.766 33.6916 197.75 33.2179 197.719 33.0601C197.624 32.7443 197.45 32.4128 197.198 32.0654C196.977 31.8128 196.677 31.5444 196.298 31.2603C195.919 30.9445 195.414 30.7077 194.782 30.5498ZM249.203 45.3745C250.087 45.3745 250.908 45.2798 251.666 45.0903C252.297 44.9325 252.897 44.6799 253.465 44.3325C254.065 43.9536 254.46 43.401 254.649 42.6748C255.281 42.8011 255.818 42.9116 256.26 43.0063C256.702 43.0695 257.081 43.1326 257.396 43.1958C257.744 43.2905 258.044 43.3537 258.296 43.3853C258.549 43.4484 258.849 43.5116 259.196 43.5747C259.512 43.6379 259.891 43.7168 260.333 43.8115C260.807 43.8747 261.359 43.9694 261.991 44.0957C261.517 44.0326 261.028 44.0799 260.522 44.2378C260.049 44.3957 259.591 44.5693 259.149 44.7588C258.644 44.9798 258.17 45.2482 257.728 45.564C257.444 45.7534 257.112 46.0376 256.733 46.4165C256.386 46.7954 255.881 47.1585 255.218 47.5059C254.555 47.8532 253.671 48.1532 252.565 48.4058C251.492 48.6268 250.103 48.7057 248.397 48.6426C246.345 48.5794 244.624 48.2163 243.235 47.5532C241.846 46.8586 240.725 46.0218 239.872 45.043C239.02 44.0326 238.404 42.9432 238.025 41.7749C237.646 40.6066 237.441 39.5173 237.409 38.5068C237.378 37.4964 237.678 36.4386 238.309 35.3335C238.941 34.2284 239.825 33.2179 240.961 32.3022C242.13 31.3866 243.535 30.6445 245.177 30.0762C246.819 29.4762 248.618 29.1763 250.576 29.1763C251.713 29.1763 252.755 29.3184 253.702 29.6025C254.681 29.8551 255.565 30.2025 256.354 30.6445C257.175 31.0866 257.886 31.5918 258.486 32.1602C259.086 32.6969 259.591 33.2495 260.001 33.8179C260.412 34.4178 260.759 35.0493 261.043 35.7124C261.296 36.2808 261.501 36.9281 261.659 37.6543C261.817 38.3805 261.864 39.1226 261.801 39.8804C259.402 39.9435 257.46 39.9909 255.976 40.0225C254.523 40.054 253.386 40.0698 252.565 40.0698H250.434H248.824C248.255 40.0698 247.513 40.0856 246.598 40.1172C245.682 40.1488 244.561 40.1961 243.235 40.2593C243.393 41.5223 243.787 42.5011 244.419 43.1958C245.082 43.8589 245.777 44.3641 246.503 44.7114C247.324 45.0903 248.224 45.3114 249.203 45.3745ZM244.94 36.8491C245.95 36.9123 246.787 36.9596 247.45 36.9912C248.145 37.0228 248.713 37.0544 249.155 37.0859C249.629 37.1175 250.008 37.1333 250.292 37.1333H251.476C252.265 37.1333 253.734 37.0859 255.881 36.9912C255.786 35.6019 255.486 34.5441 254.981 33.8179C254.507 33.0916 254.002 32.5549 253.465 32.2075C252.834 31.8286 252.139 31.6076 251.381 31.5444C249.329 31.576 247.798 32.0023 246.787 32.8232C245.808 33.6442 245.193 34.9862 244.94 36.8491Z" fill="white"/>
<defs>
<linearGradient id="paint0_linear_85_1579" x1="270.723" y1="-118.355" x2="245.024" y2="-7.24481" gradientUnits="userSpaceOnUse">
<stop stop-color="#CF5C2B"/>
<stop offset="1" stop-color="#59173E"/>
</linearGradient>
<linearGradient id="paint1_linear_85_1579" x1="201.128" y1="-35.3566" x2="178.968" y2="152.415" gradientUnits="userSpaceOnUse">
<stop stop-color="#CF5C2B"/>
<stop offset="1" stop-color="#59173E"/>
</linearGradient>
<linearGradient id="paint2_linear_85_1579" x1="200.221" y1="-29.6435" x2="171.765" y2="203.826" gradientUnits="userSpaceOnUse">
<stop stop-color="#CF5C2B"/>
<stop offset="1" stop-color="#59173E"/>
</linearGradient>
<linearGradient id="paint3_linear_85_1579" x1="265.605" y1="-1.22305" x2="258.361" y2="29.8897" gradientUnits="userSpaceOnUse">
<stop stop-color="#CF5C2B"/>
<stop offset="1" stop-color="#59173E"/>
</linearGradient>
<linearGradient id="paint4_linear_85_1579" x1="268.059" y1="-3.13043" x2="250.45" y2="62.4663" gradientUnits="userSpaceOnUse">
<stop stop-color="#CF5C2B"/>
<stop offset="1" stop-color="#59173E"/>
</linearGradient>
<linearGradient id="paint5_linear_85_1579" x1="139.993" y1="29.0334" x2="132.749" y2="60.1461" gradientUnits="userSpaceOnUse">
<stop stop-color="#CF5C2B"/>
<stop offset="1" stop-color="#59173E"/>
</linearGradient>
<linearGradient id="paint6_linear_85_1579" x1="178.373" y1="-22.5339" x2="135.137" y2="135.522" gradientUnits="userSpaceOnUse">
<stop stop-color="#CF5C2B"/>
<stop offset="1" stop-color="#59173E"/>
</linearGradient>
<linearGradient id="paint7_linear_85_1579" x1="231.218" y1="-36.6081" x2="218.193" y2="2.97259" gradientUnits="userSpaceOnUse">
<stop stop-color="#CF5C2B"/>
<stop offset="1" stop-color="#59173E"/>
</linearGradient>
<linearGradient id="paint8_linear_85_1579" x1="139.748" y1="-78.3739" x2="121.368" y2="-5.47841" gradientUnits="userSpaceOnUse">
<stop stop-color="#CF5C2B"/>
<stop offset="1" stop-color="#59173E"/>
</linearGradient>
<linearGradient id="paint9_linear_85_1579" x1="172.707" y1="-70.0638" x2="154.328" y2="2.8318" gradientUnits="userSpaceOnUse">
<stop stop-color="#CF5C2B"/>
<stop offset="1" stop-color="#59173E"/>
</linearGradient>
<linearGradient id="paint10_linear_85_1579" x1="340.677" y1="-27.6915" x2="320.82" y2="45.3331" gradientUnits="userSpaceOnUse">
<stop stop-color="#CF5C2B"/>
<stop offset="1" stop-color="#59173E"/>
</linearGradient>
</defs>
</svg>
