<svg width="120" height="120" viewBox="0 0 120 120" fill="none" xmlns="http://www.w3.org/2000/svg">
<path d="M0.757816 56.6189C0.103428 59.8232 -0.124459 63.0991 0.0637035 66.3603C0.241413 69.4591 0.366886 72.6106 2.21297 75.2262C2.94053 76.2556 3.84163 77.1627 4.87234 77.882C5.556 78.3588 6.36925 78.6013 7.04873 79.0527C7.2118 79.1624 7.37486 79.2489 7.37068 79.4683C7.36231 79.8859 6.5679 80.3205 6.29611 80.5462C5.75044 80.9977 5.20266 81.5124 5.00614 82.2211C4.65699 83.4699 5.2612 84.7756 5.79851 85.8725C7.03411 88.4038 8.42439 90.8571 9.95687 93.2154C16.1244 102.708 23.2411 112.443 34.0898 116.733C40.2971 119.189 46.8577 119.415 53.4287 119.735C60.3217 120.085 67.2315 120.096 74.0995 119.723C80.2691 119.387 87.0388 118.881 92.3073 115.647C96.2107 113.234 99.3132 109.635 101.713 106.011C105.669 100.042 109.123 93.7302 112.052 87.1846C112.326 86.5708 112.713 85.978 112.738 85.2988C112.748 84.976 112.782 84.6702 112.738 84.3453C112.65 83.7104 112.386 83.1007 111.968 82.6177C113.135 82.0566 114.03 81.0229 114.638 79.8712C114.968 79.2468 115.221 78.5824 115.43 77.9094C115.606 77.3441 115.74 76.7978 116.07 76.3C116.787 75.2157 117.049 73.8488 117.396 72.6042C118.215 69.6784 118.888 66.7084 119.386 63.7088C119.457 63.2742 119.526 62.8375 119.591 62.4009C119.871 60.4834 120.072 58.5449 119.976 56.6169C119.971 56.4291 119.953 56.2372 119.944 56.0621C119.664 63.2595 117.214 69.5582 114.299 76.281C111.234 83.3581 107.58 90.1399 103.359 96.5547C100.973 100.183 97.8874 103.786 93.9987 106.201C88.7573 109.456 82.0232 109.956 75.8996 110.302C69.0609 110.684 62.1992 110.684 55.3522 110.344C48.8271 110.034 42.2958 109.829 36.1387 107.372C29.5446 104.748 24.1193 99.9298 19.7497 94.6266C15.0018 88.8426 11.228 82.1473 7.98535 75.9814C2.84642 66.2 0.923003 56.1275 3.41929 45.9326C2.20251 49.4427 1.46656 53.1911 0.757816 56.6189Z" fill="url(#paint0_linear_89_186)"/>
<path d="M119.961 55.526C119.961 55.7138 119.961 55.8867 119.946 56.0597C119.806 59.6014 119.139 62.9533 118.144 66.2145C117.134 69.5685 115.784 72.874 114.308 76.2744C113.375 78.4049 112.397 80.5058 111.372 82.59C111.31 82.7144 111.247 82.8558 111.17 82.9823C108.841 87.6674 106.231 92.1963 103.357 96.5522C102.347 98.1027 101.197 99.6553 99.9092 101.096C98.2011 103.039 96.2295 104.825 93.9924 106.205C88.7594 109.464 82.019 109.949 75.8996 110.31C69.0672 110.685 62.2013 110.685 55.3522 110.342C48.8292 110.027 42.2916 109.825 36.1408 107.38C29.5405 104.747 24.1193 99.9358 19.756 94.6242C19.7414 94.5926 19.71 94.5778 19.6933 94.5462C16.4778 90.6121 13.6993 86.2731 11.2594 81.9487C10.5611 80.7421 9.89211 79.5355 9.23982 78.3458C8.80495 77.5463 8.38474 76.7637 7.98124 75.979C7.46902 75.0066 7.00276 74.051 6.55326 73.0807C4.4103 68.3956 3.02833 63.6325 2.53074 58.8378C2.25059 56.0807 2.25059 53.3216 2.57674 50.5477C2.76281 49.0121 3.04297 47.4764 3.41511 45.9408C3.86461 44.1541 4.45632 42.3378 5.16925 40.5195C5.37205 40.0343 5.55807 39.5323 5.7755 39.0471C6.41317 37.4482 7.08011 35.8661 7.79512 34.2988C8.18399 33.436 8.57078 32.5902 8.97637 31.7295C9.80011 29.9745 10.6845 28.2194 11.6169 26.496C12.2379 25.3527 12.8756 24.2241 13.5592 23.1125C14.3976 21.6865 15.284 20.2922 16.2144 18.9126C16.2604 18.8177 16.3231 18.7397 16.3858 18.6469C16.852 17.9571 17.3183 17.2842 17.7991 16.6091C18.2026 16.0459 18.5915 15.4975 19.0096 14.9638C19.0724 14.8689 19.1497 14.776 19.2271 14.6811C22.8147 9.9792 27.0693 5.84259 33.0801 3.82176C45.8458 -0.47093 59.1238 -0.409782 72.9475 0.499382C78.5066 0.874861 84.7035 1.91062 89.1002 5.40383C98.2324 12.7067 106.2 21.2309 112.535 30.8204C112.612 30.9301 112.69 31.025 112.752 31.1346C115.238 34.8958 117.116 39.0155 118.328 43.3103C118.328 43.325 118.343 43.3419 118.343 43.3736C118.577 44.173 118.778 44.9725 118.949 45.7868C119.089 46.3985 119.213 47.0081 119.321 47.6346C119.321 47.6662 119.336 47.681 119.336 47.7127C119.336 47.7127 119.336 47.7126 119.336 47.7274C119.645 49.436 119.833 51.1742 119.925 52.9145C119.976 53.8026 119.976 54.6801 119.961 55.526Z" fill="url(#paint1_linear_89_186)"/>
<path d="M119.961 55.5258C119.961 55.7135 119.961 55.8865 119.946 56.0594C119.806 59.6012 119.139 62.953 118.144 66.2142C114.65 66.0412 111.109 65.7902 107.49 65.5708C93.2333 64.6469 78.9748 63.8158 64.7037 63.0479C43.8155 61.9363 23.1281 61.2782 2.53477 58.8333C2.25461 56.0763 2.25462 53.3172 2.58077 50.5433C23.1909 49.0393 43.7988 49.5877 64.7037 50.0412C64.9838 50.056 65.2619 50.056 65.5421 50.0728C64.3462 49.8851 63.1503 49.6805 61.9544 49.5096C43.7675 46.6893 23.7177 44.7929 5.77953 39.0426C6.4172 37.4437 7.08413 35.8617 7.79915 34.2944C8.18802 33.4316 8.57481 32.5857 8.9804 31.725C9.80414 29.97 10.6885 28.215 11.621 26.4916C12.2419 25.3483 12.8795 24.2197 13.5632 23.108C30.8951 22.606 48.7873 25.1289 65.4041 26.5717C79.1337 27.7467 92.9407 28.6706 106.637 30.1134C108.608 30.318 110.582 30.5522 112.539 30.818C112.616 30.9277 112.694 31.0226 112.756 31.1323C115.242 34.8934 117.12 39.0131 118.332 43.3079C118.332 43.3227 118.347 43.3395 118.347 43.3712C118.581 44.1707 118.782 44.9702 118.953 45.7844C119.093 46.3961 119.217 47.0058 119.325 47.6323C119.325 47.6639 119.34 47.6786 119.34 47.7103C119.34 47.7103 119.34 47.7103 119.34 47.725C119.649 49.4337 119.837 51.1719 119.929 52.9122C119.975 53.8023 119.975 54.6799 119.961 55.5258ZM110.952 82.9631C104.91 82.3049 98.9472 81.7101 92.8737 81.554C80.823 81.2249 68.7848 80.7228 56.7486 80.0499C44.6978 79.377 32.8164 78.6873 20.7175 78.7189C17.1759 78.7189 13.2015 78.4067 9.23963 78.3434C9.89193 79.5331 10.5589 80.7419 11.2593 81.9463C13.697 86.2707 16.4776 90.6119 19.6931 94.5438C31.5118 96.7524 43.2071 97.9442 55.2579 98.8365C67.2794 99.7141 79.3156 100.419 91.3664 100.967C94.2557 101.092 97.0824 101.123 99.909 101.092C101.199 99.6508 102.347 98.0982 103.357 96.5478C106.229 92.1918 108.838 87.6629 111.169 82.9778C111.092 82.9799 111.031 82.98 110.952 82.9631Z" fill="url(#paint2_linear_89_186)"/>
<path d="M112.754 31.1285C115.24 34.8896 117.118 39.0093 118.33 43.3041C118.05 42.724 117.724 42.1755 117.446 41.6587C116.453 39.794 115.397 37.9461 114.293 36.1425C112.165 32.7105 109.836 29.4051 107.321 26.2557C106.248 24.9078 104.992 23.7012 104.371 22.0558C103.842 20.6762 102.723 19.5962 101.715 18.5626C98.3306 15.0841 94.3395 12.325 90.6577 9.20727C88.5294 7.40582 86.4492 5.46301 83.9487 4.23954C81.4942 3.04983 78.7617 2.62583 76.0584 2.4845C75.0653 2.42121 74.0869 2.40644 73.0917 2.39167C72.6882 2.39167 72.2994 2.40646 71.9105 2.26723C71.4756 2.1259 71.0094 2.11113 70.5599 2.04784C69.3013 1.90651 68.0594 1.79682 66.8008 1.70189C56.3495 0.919297 45.7726 1.81159 35.5993 4.3661C33.7365 4.83651 31.8569 5.3681 30.1488 6.27726C29.9 6.41859 29.668 6.5599 29.4192 6.70123C27.8198 7.70321 26.4211 8.97312 24.9765 10.1797C24.2614 10.7915 23.5318 11.3863 22.7561 11.92C22.4467 12.1393 22.1498 12.2955 21.809 12.4537C21.2654 12.7195 20.9539 13.2995 20.6278 13.8016C19.9295 14.8837 19.4946 16.0102 18.9657 17.1556C18.8716 17.3434 18.7943 17.4846 18.7483 17.704C18.6082 18.3158 18.5162 18.9423 18.3908 19.5688C17.6298 19.5371 16.8687 19.3178 16.2164 18.9107C16.2624 18.8157 16.3251 18.7377 16.3879 18.6449C16.8541 17.9551 17.3203 17.2822 17.8012 16.6071C18.2047 16.0439 18.5936 15.4955 19.0117 14.9618C19.0744 14.8669 19.1518 14.774 19.2291 14.6791C22.8168 9.9772 27.0713 5.84059 33.082 3.81976C45.8478 -0.472931 59.1259 -0.411719 72.9495 0.497445C78.5087 0.872923 84.7056 1.90861 89.1023 5.40183C98.3264 12.7806 106.371 21.4145 112.754 31.1285Z" fill="#EB924D"/>
<path d="M119.323 47.6285C119.292 47.8331 119.246 48.0209 119.2 48.2234C119.077 47.4408 118.874 46.6561 118.951 45.8566V45.7786C119.091 46.3924 119.215 47.002 119.323 47.6285Z" fill="#EB924D"/>
<path d="M111.573 52.6949C113.035 52.7076 114.557 52.7329 115.863 53.3953C118.021 54.4901 119.031 57.0088 119.654 59.3629C119.907 57.2809 119.873 55.1651 119.56 53.0915C119.505 52.735 119.438 52.368 119.24 52.0685C119.01 51.7225 118.631 51.5094 118.255 51.3386C115.129 49.9274 111.523 50.6846 108.142 51.2352C106.054 51.5748 103.953 51.8259 101.845 51.9883C99.7294 52.1507 97.6052 52.2224 95.4832 52.2034C95.0796 52.1992 94.5758 52.0937 94.2078 52.3026C93.6998 52.5895 94.3291 52.5515 94.5842 52.5536C95.6651 52.562 96.748 52.5705 97.8289 52.581C99.9844 52.5979 102.14 52.6169 104.293 52.6338C106.457 52.6507 108.619 52.6696 110.783 52.6865C111.046 52.6907 111.31 52.6928 111.573 52.6949Z" fill="#EB924D"/>
<path d="M103.359 96.5503C100.982 100.185 97.8917 103.79 93.9946 106.203C88.7616 109.462 82.0212 109.947 75.9017 110.308C69.0693 110.683 62.2035 110.683 55.3544 110.34C48.8314 110.025 42.2938 109.823 36.143 107.378C29.5426 104.745 24.1214 99.9339 19.7582 94.6223C16.5134 90.6735 13.716 86.3027 11.2636 81.9446C10.0991 79.9386 9.01197 77.9325 7.98753 75.975C7.47531 75.0025 7.00906 74.0469 6.55956 73.0766C2.5057 64.2085 1.16974 55.119 3.42351 45.9367C3.87301 44.15 4.46472 42.3337 5.17765 40.5154C5.62715 39.3742 6.09124 38.2394 6.56792 37.1108C7.14495 35.7502 7.81818 34.453 8.34713 33.0839C8.86771 31.7318 9.46562 30.4091 10.1367 29.1245C11.4685 26.5679 13.0846 24.161 14.9495 21.9693C15.238 21.6297 15.5454 21.2859 15.9552 21.115C16.3273 20.9589 16.7434 20.9631 17.1448 20.9758C18.4933 21.0158 19.8397 21.1235 21.184 21.2458C25.4219 21.6297 29.6827 23.0346 33.9812 22.9502C36.12 22.908 38.2378 22.5072 40.3745 22.4081C41.4679 22.3575 42.5635 22.3849 43.6548 22.4482C44.2026 22.4799 44.7482 22.522 45.2939 22.5663C45.5678 22.5895 45.8396 22.6169 46.1135 22.6359C46.2849 22.6465 46.4438 22.6 46.6132 22.6064C46.7428 22.6127 46.8849 22.6486 47.0083 22.6823C46.0152 22.9903 44.949 23.1527 43.9266 23.3278C42.8917 23.505 41.8505 23.6484 40.8052 23.7602C38.7103 23.9859 36.6029 24.0935 34.4975 24.1315C32.3797 24.1694 30.2618 24.1357 28.146 24.083C26.3062 24.0366 24.4664 23.9733 22.6245 23.9248C20.7408 23.8763 18.8152 23.8488 17.0256 24.4437C14.6506 25.2326 12.7251 27.0615 11.3431 29.1625C11.2929 29.2384 11.2427 29.3165 11.1947 29.3924C10.3751 30.6813 9.72698 32.0735 9.14785 33.4868C8.86352 34.1829 8.65027 34.9402 8.30948 35.6089C8.20077 35.8241 8.02937 35.976 7.89138 36.1679C7.64259 36.516 7.49204 36.9399 7.31224 37.3238C6.91292 38.1803 6.52825 39.0452 6.17074 39.9227C5.5958 41.3487 5.06891 42.7894 4.63405 44.2639C4.2619 45.5169 3.67023 47.0526 3.79568 48.3857C3.90439 49.451 3.67231 50.5479 3.59495 51.6132C3.57823 51.8958 3.39215 55.0283 3.59495 55.0452C5.66056 55.1548 7.71158 55.5789 9.66638 56.2982C8.81338 56.391 7.97501 56.5323 7.13455 56.7053C6.34218 56.8677 5.37419 57.2496 4.83688 57.9077C4.6069 58.1904 4.54209 58.6903 4.48564 59.0404C4.34557 59.8948 4.39364 60.7681 4.48354 61.6245C4.87241 65.3244 6.05155 68.9084 7.51086 72.3003C7.87673 73.1504 8.24259 74.0005 8.60846 74.8527C8.9158 75.5678 9.25447 76.3209 9.89422 76.7575C10.4002 77.1013 11.0421 77.2216 11.6316 77.3313C12.8547 77.5591 13.9753 78.0759 15.2109 78.3227C17.6444 78.81 20.1073 79.196 22.589 79.2593C27.0484 79.3732 31.6166 78.4493 35.9108 79.6643C35.2105 79.7192 34.5122 79.7719 33.8118 79.8246C29.4381 80.1495 25.0622 80.4322 20.6822 80.6705C18.5204 80.7887 16.3587 80.9131 14.1969 80.9912C13.7516 81.0081 12.7376 80.8984 12.4992 81.411C12.4386 81.5396 12.4616 81.6768 12.4909 81.8118C12.6581 82.6344 13.2059 83.4951 13.6115 84.2165C14.7948 86.3238 16.2897 88.2265 17.703 90.1756C19.085 92.0826 20.5735 93.9114 22.1959 95.6158C22.9485 96.4068 23.72 97.2337 24.5688 97.9256C24.7131 98.0438 24.8595 98.1324 25.0225 98.2189C25.7438 98.6091 26.2748 99.3368 26.8811 99.8895C28.238 101.13 29.7349 102.212 31.3155 103.142C33.5567 104.463 35.9673 105.484 38.4469 106.252C43.4541 107.802 48.7101 108.355 53.9368 108.68C64.8106 109.357 75.8181 109.076 86.4493 106.671C89.3365 106.017 92.2238 105.195 94.7891 103.708C99.1733 101.168 102.276 96.9047 105.086 92.6626C106.79 90.0891 108.485 87.33 108.694 84.2439C106.662 83.5836 104.586 83.0542 102.487 82.6597C104.601 82.4635 106.712 82.223 108.82 82.0037C109.064 81.9783 109.313 81.9404 109.558 81.9868C109.744 82.0227 109.892 82.0607 110.087 82.0543C110.354 82.0459 110.62 82.0164 110.885 81.9742C110.971 81.9615 111.605 81.8919 111.623 81.8159C111.32 82.9403 110.883 84.0287 110.327 85.0518C110.076 85.5138 109.809 85.9673 109.487 86.3829C108.979 87.0389 108.642 87.8236 108.238 88.545C107.718 89.4732 107.187 90.3929 106.645 91.3084C105.585 93.0803 104.492 94.829 103.359 96.5503Z" fill="#EB924D"/>
<path d="M90.2437 52.4422C97.8496 52.2882 105.456 52.1342 113.059 51.995C114.531 51.9655 116.068 51.9338 117.437 52.4738C118.805 53.0138 120.003 54.2626 119.944 55.6696C119.94 55.6211 119.95 55.5768 119.961 55.5325C119.984 54.6782 119.982 53.8028 119.932 52.9168C119.84 51.1766 119.649 49.4299 119.338 47.717C119.258 47.9786 119.152 48.2191 118.97 48.4279C118.366 49.162 116.919 49.2274 116.043 49.3814C115.273 49.4974 114.494 49.5966 113.733 49.683C105.89 50.5943 98.0691 51.5119 90.2437 52.4422Z" fill="url(#paint3_linear_89_186)"/>
<path d="M10.4398 79.7529C10.7032 80.4743 10.9834 81.2105 11.2635 81.9467C10.099 79.9406 9.01186 77.9345 7.98742 75.977C7.4752 75.0045 7.00895 74.049 6.55945 73.0786C6.6828 73.2031 6.82289 73.3128 6.93161 73.4077C7.64663 74.0194 8.40766 74.551 9.21467 75.0066C11.9326 76.5571 15.0854 76.903 18.1294 77.3418C19.8229 77.5759 21.6396 77.9535 23.3477 77.9535C30.1341 78.6581 36.9205 79.3162 43.7237 79.9131C32.6325 79.6431 21.5289 79.5946 10.4398 79.7529Z" fill="url(#paint4_linear_89_186)"/>
<path d="M111.977 78.5295C108.976 80.698 105.071 81.6472 101.295 82.5416C104.624 82.5226 107.954 82.5522 111.28 82.6344C110.877 83.2166 110.751 83.936 110.94 84.5941C111.6 83.0627 112.261 81.5333 112.922 80.0019C113.563 78.5169 114.088 76.9179 114.88 75.4919C114.857 75.994 114.032 76.6964 113.664 77.0761C113.151 77.6013 112.587 78.0887 111.977 78.5295Z" fill="url(#paint5_linear_89_186)"/>
<path d="M50.8173 22.3532C41.2356 23.9037 31.1564 23.6231 21.5413 22.6042C19.9251 22.4312 17.7215 21.8997 16.2142 22.9164C15.3904 23.4649 14.5688 24.0281 13.745 24.5935C12.9527 25.1419 12.2397 25.7684 11.6167 26.4898C13.076 23.794 14.6608 21.1783 16.3856 18.6385C16.8518 17.9488 17.318 17.2758 17.7989 16.6008C17.7843 16.7253 17.7676 16.8518 17.7843 16.9763C17.8616 18.0732 18.6226 19.0288 19.5551 19.6089C20.4875 20.1721 21.5747 20.44 22.6451 20.6425C31.7459 22.4945 41.5304 21.5706 50.8173 22.3532Z" fill="url(#paint6_linear_89_186)"/>
<path d="M2.38215 51.4822C1.97865 52.4356 2.54943 53.5811 3.40453 54.1569C4.25962 54.7328 5.31959 54.8805 6.33985 55.005C10.2285 55.4775 14.157 55.8508 18.054 55.469C13.6259 55.661 8.76088 56.1187 4.33069 56.3107C4.03591 56.3233 3.72857 56.3381 3.46514 56.4731C2.90902 56.7579 2.72083 57.4708 2.73128 58.0994C2.74173 58.7281 2.88598 59.3651 2.748 59.979C2.11452 57.1629 2.09782 54.3573 2.38215 51.4822Z" fill="url(#paint7_linear_89_186)"/>
<path d="M101.933 50.7967C101.184 46.6306 99.7879 42.302 97.9063 38.1801C96.217 34.4739 94.0406 30.7528 91.5004 27.5339C89.209 24.6271 85.5189 22.8045 82.3599 20.9946C80.9779 20.2099 79.7883 19.2016 78.3478 18.5625C49.561 5.61902 15.7043 30.736 18.6145 61.2025C19.0996 66.3178 20.7157 71.2982 23.3311 75.7618C30.5315 88.1272 43.6987 95.9996 58.1141 97.3792C63.4474 97.8833 68.8853 97.645 74.087 96.4004C84.6387 93.8649 93.2921 87.1189 98.4352 77.7932C102.801 69.8933 103.52 59.5149 101.933 50.7967ZM89.0166 73.7199C85.1509 80.7337 78.6573 85.8026 70.721 87.7011C66.8114 88.6356 62.7261 88.8128 58.7308 88.4268C47.901 87.4037 38.012 81.4889 32.5887 72.2074C30.6339 68.8428 29.4151 65.1049 29.0471 61.2657C28.9342 60.076 28.8945 58.88 28.9279 57.6861C28.9425 57.1608 29.022 56.6271 28.9927 56.0997C28.9781 55.8192 28.8987 55.5703 28.8234 55.3045C28.6018 54.5135 28.6519 53.6043 28.8213 52.809C29.0053 51.9442 29.4548 51.1004 30.2012 50.6384C30.7782 50.2798 31.4723 50.1807 32.1455 50.1069C33.7261 49.936 35.3192 49.8727 36.9081 49.917C34.8927 49.6006 32.8773 49.2842 30.8597 48.9699C30.7657 48.9551 31.5287 46.5356 31.6124 46.3247C31.9427 45.4915 32.4027 44.73 32.7895 43.9326C33.4208 42.6332 34.3219 41.4034 35.1854 40.2537C36.9478 37.9038 39.0176 35.7881 41.3132 33.9634C43.6172 32.1324 46.149 30.5926 48.8334 29.4028C51.5241 28.211 54.3696 27.3694 57.2777 26.939C60.2235 26.5045 63.2321 26.4939 66.1779 26.9369C68.8477 27.3398 71.4611 28.1139 73.926 29.2235C74.9985 29.7129 75.9101 30.4681 76.9387 31.0482C79.32 32.413 82.0818 33.7904 83.8003 35.9695C85.7112 38.3869 87.342 41.1735 88.6194 43.96C90.0306 47.0588 91.0738 50.3052 91.6467 53.4335C92.2969 56.9815 92.3952 60.4621 91.5882 63.989C87.4841 64.2147 83.3718 64.2675 79.2615 64.1493C83.0038 64.5628 86.744 64.9762 90.4864 65.3876C91.6697 65.5184 91.0384 66.5879 90.7896 67.3367C90.5721 67.9949 90.4739 68.6424 90.4718 69.3343C90.4676 69.9587 90.4153 70.5431 90.2146 71.1379C90.064 71.5809 89.8675 72.0091 89.6689 72.4331C89.5665 72.6503 89.4619 72.8676 89.3511 73.0807C89.2779 73.2326 89.0166 73.5574 89.0166 73.7199Z" fill="url(#paint8_linear_89_186)"/>
<path d="M92.7318 84.0263C96.1793 80.5837 98.5376 76.1371 99.9196 71.4541C101.302 66.7712 101.741 61.8478 101.695 56.9624C101.688 56.2599 101.626 55.5321 101.368 54.8719C101.011 53.9564 100.327 53.6084 99.4032 53.3784C98.0108 53.0325 96.6184 52.6865 95.2281 52.3406C98.5188 52.4735 102.096 52.2963 105.385 52.1465C104.833 52.3384 104.279 52.5283 103.727 52.7203C103.589 52.7688 103.447 52.8194 103.34 52.9207C103.231 53.0261 103.175 53.178 103.135 53.3257C102.918 54.1167 103.035 54.9562 103.102 55.7747C103.208 57.0889 103.185 58.4115 103.104 59.7278C103.064 60.3796 103.01 61.0314 102.949 61.6811C102.817 63.1177 102.525 64.5162 102.24 65.9316C101.699 68.6148 101.356 71.3402 100.63 73.9791C99.905 76.6159 98.7593 79.2063 96.8463 81.1533C97.0658 81.7038 97.5007 82.1658 98.0338 82.4168C97.3669 82.459 96.6727 82.5097 96.0999 82.8577C95.7779 83.0518 95.5166 83.3302 95.2595 83.6044C94.35 84.5726 93.4531 85.5556 92.5269 86.5091C92.2279 86.8171 91.9039 87.028 91.5422 87.2495C90.7393 87.741 90.2021 88.5996 89.5539 89.2577C86.5852 92.2763 82.6672 94.1916 78.6489 95.4932C78.3457 95.5902 78.0426 95.6851 77.7394 95.778C74.9734 96.6091 72.128 97.1743 69.2574 97.4697C66.3848 97.765 63.4871 97.7925 60.6083 97.5499C59.1699 97.4296 57.7377 97.2398 56.316 96.9824C55.6052 96.8537 54.8985 96.7082 54.196 96.5458C51.9486 96.0268 49.6885 95.6535 47.487 94.9363C41.0331 92.8311 35.3777 88.8801 30.1614 84.5979C29.53 84.079 28.9049 83.5559 28.2819 83.0264C28.0101 82.7965 27.6714 82.556 27.4206 82.2987C27.2073 82.0793 27.0567 81.824 26.8205 81.6236C26.3563 81.2292 25.7856 80.9697 25.2023 80.8136C24.2657 80.5626 23.283 80.5436 22.3213 80.4149C22.4551 80.1091 22.821 79.9994 23.1472 79.934C23.881 79.7906 24.6274 79.7041 25.3738 79.6788C25.7417 79.6661 26.1306 79.7209 26.4923 79.6788C26.7913 79.645 27.0504 79.626 27.3578 79.6535C28.8275 79.7842 30.2639 80.1407 31.7274 80.3137C32.6097 80.4192 33.5045 80.4551 34.3868 80.3285C32.2689 80.5183 30.1531 80.7124 28.0331 80.879C28.8318 82.8408 30.8033 84.0178 32.6786 84.9861C33.0549 85.1801 33.4752 85.3426 33.8034 85.5999C33.9477 85.7138 34.0898 85.832 34.2362 85.9459C34.5289 86.1758 34.8216 86.4057 35.1164 86.6335C35.7039 87.0913 36.2935 87.5448 36.8914 87.9899C38.0831 88.8801 39.2998 89.7386 40.5626 90.5233C42.3188 91.616 44.1649 92.5631 46.0862 93.3246C49.055 94.4996 52.2016 95.2168 55.3836 95.4489C61.1309 95.8665 66.7193 96.6238 72.4123 95.7252C73.0855 95.6197 73.7608 95.5079 74.4277 95.3666C78.9248 94.4089 82.9933 92.0401 86.8005 89.4497C89.1023 87.8824 90.7582 85.9965 92.7318 84.0263Z" fill="#EB924D"/>
<path d="M23.1931 74.7155C22.3777 72.722 21.5644 70.7286 20.749 68.7352C20.2953 67.6236 19.8375 66.5056 19.5322 65.3433C19.2688 64.3392 19.1183 63.3097 18.9698 62.2825C18.8235 61.2657 18.675 60.249 18.5287 59.2344C18.6709 60.2216 18.6751 61.2426 18.7921 62.2361C18.9113 63.2486 19.0577 64.2569 19.2354 65.261C19.5866 67.2544 20.0549 69.2246 20.6341 71.1632C20.9058 72.0702 21.2027 72.971 21.5226 73.8611C21.6522 74.224 21.8027 74.5889 21.8801 74.9686C21.9323 75.2259 21.9282 75.4854 21.9554 75.7449C22.0411 76.5359 22.4926 77.3206 22.8083 78.0357C23.5359 77.9935 24.2614 77.9513 24.9889 77.9091C24.8551 77.9176 24.4683 77.3417 24.3847 77.2362C24.184 76.9768 24.0022 76.7025 23.8412 76.4157C23.5338 75.8588 23.4272 75.2892 23.1931 74.7155Z" fill="#EB924D"/>
<path d="M36.8997 24.3337C40.8009 24.6754 44.7293 24.378 48.6347 24.0785C47.6856 23.8675 46.7218 23.7241 45.7559 23.6292C44.7879 23.5343 43.8157 23.4857 42.8435 23.4646C41.8609 23.4436 40.8804 23.4499 39.8977 23.4625C38.9193 23.4752 37.9388 23.492 36.9603 23.4963C35.9819 23.5005 35.0055 23.4899 34.0291 23.4435C33.91 23.4372 33.7866 23.4225 33.6674 23.4288C33.6131 23.5807 33.5775 23.8253 33.6486 23.9793C33.7448 24.1818 33.9748 24.1396 34.1609 24.1396C34.7505 24.1396 35.34 24.1882 35.9254 24.243C36.2516 24.2725 36.5777 24.2915 36.8997 24.3337Z" fill="#EB924D"/>
<defs>
<linearGradient id="paint0_linear_89_186" x1="59.3475" y1="-3.16771" x2="59.953" y2="55.0436" gradientUnits="userSpaceOnUse">
<stop stop-color="#CF5C2B"/>
<stop offset="1" stop-color="#59173E"/>
</linearGradient>
<linearGradient id="paint1_linear_89_186" x1="102.585" y1="-22.2978" x2="-2.74794" y2="171.355" gradientUnits="userSpaceOnUse">
<stop stop-color="#CF5C2B"/>
<stop offset="1" stop-color="#59173E"/>
</linearGradient>
<linearGradient id="paint2_linear_89_186" x1="90.8985" y1="-0.426657" x2="-14.4342" y2="193.226" gradientUnits="userSpaceOnUse">
<stop stop-color="#CF5C2B"/>
<stop offset="1" stop-color="#59173E"/>
</linearGradient>
<linearGradient id="paint3_linear_89_186" x1="104.525" y1="-3.63833" x2="105.131" y2="54.5735" gradientUnits="userSpaceOnUse">
<stop stop-color="#CF5C2B"/>
<stop offset="1" stop-color="#59173E"/>
</linearGradient>
<linearGradient id="paint4_linear_89_186" x1="24.3283" y1="-2.80364" x2="24.9338" y2="55.4076" gradientUnits="userSpaceOnUse">
<stop stop-color="#CF5C2B"/>
<stop offset="1" stop-color="#59173E"/>
</linearGradient>
<linearGradient id="paint5_linear_89_186" x1="107.243" y1="-3.66654" x2="107.848" y2="54.545" gradientUnits="userSpaceOnUse">
<stop stop-color="#CF5C2B"/>
<stop offset="1" stop-color="#59173E"/>
</linearGradient>
<linearGradient id="paint6_linear_89_186" x1="55.4515" y1="-18.0969" x2="39.482" y2="9.41346" gradientUnits="userSpaceOnUse">
<stop stop-color="#CF5C2B"/>
<stop offset="1" stop-color="#59173E"/>
</linearGradient>
<linearGradient id="paint7_linear_89_186" x1="21.0993" y1="12.0762" x2="9.80992" y2="54.235" gradientUnits="userSpaceOnUse">
<stop stop-color="#CF5C2B"/>
<stop offset="1" stop-color="#59173E"/>
</linearGradient>
<linearGradient id="paint8_linear_89_186" x1="64.1121" y1="171.179" x2="60.5476" y2="59.6372" gradientUnits="userSpaceOnUse">
<stop stop-color="#CF5C2B"/>
<stop offset="1" stop-color="#59173E"/>
</linearGradient>
</defs>
</svg>
