<svg width="82" height="80" viewBox="0 0 82 80" fill="none" xmlns="http://www.w3.org/2000/svg">
<path d="M0.514692 37.7476C0.0702462 39.8837 -0.08453 42.0675 0.043266 44.2416C0.163962 46.3073 0.249159 48.4083 1.50298 50.152C1.99713 50.8397 2.60913 51.4429 3.30917 51.9225C3.77349 52.2403 4.32586 52.4006 4.78734 52.7029C4.8981 52.7746 5.01029 52.8337 5.00603 52.9799C5.00035 53.2584 4.46075 53.5481 4.27616 53.6985C3.90555 53.9995 3.53352 54.3426 3.40004 54.8151C3.16291 55.6476 3.57329 56.518 3.93822 57.2493C4.77742 58.9368 5.72168 60.5722 6.76251 62.1444C10.9514 68.4725 15.7849 74.9622 23.1516 77.8225C27.3675 79.4594 31.8233 79.6099 36.2862 79.8236C40.9678 80.057 45.6608 80.0641 50.3253 79.8152C54.5156 79.5916 59.1134 79.2541 62.6917 77.0983C65.3428 75.4896 67.45 73.0905 69.0801 70.6746C71.7667 66.695 74.1124 62.4875 76.1018 58.124C76.2878 57.7148 76.5505 57.3196 76.5675 56.8668C76.5761 56.6516 76.5974 56.4477 76.5675 56.2312C76.5093 55.8079 76.329 55.4015 76.045 55.0795C76.8373 54.7054 77.4465 54.0163 77.8583 53.2485C78.0826 52.8323 78.2545 52.3893 78.3979 51.9393C78.5171 51.5625 78.608 51.1982 78.8324 50.8664C79.3194 50.1436 79.4969 49.2323 79.7326 48.4026C80.2893 46.4522 80.7465 44.4722 81.083 42.4725C81.1327 42.1829 81.1781 41.8918 81.2221 41.6007C81.4124 40.3224 81.5488 39.0315 81.4834 37.7448C81.4806 37.6196 81.4678 37.4917 81.4621 37.3749C81.2718 42.173 79.6076 46.3721 77.6282 50.8537C75.5466 55.5717 73.0645 60.0927 70.1976 64.3691C68.5774 66.7878 66.4816 69.1896 63.8405 70.8012C60.2806 72.971 55.707 73.3043 51.5479 73.5349C46.9032 73.7894 42.2429 73.7894 37.5926 73.563C33.1623 73.3563 28.725 73.2199 24.5432 71.5816C20.0646 69.8323 16.3799 66.6219 13.4122 63.0852C10.1874 59.2293 7.62442 54.7659 5.42207 50.6568C1.93182 44.1361 0.625454 37.4213 2.32088 30.625C1.49589 32.9636 0.996057 35.4625 0.514692 37.7476Z" fill="url(#paint0_linear_126_9)"/>
<path d="M81.4734 37.019C81.4734 37.1441 81.4734 37.2594 81.4635 37.3733C81.3683 39.7344 80.9154 41.9703 80.2395 44.143C79.5536 46.3789 78.6363 48.5825 77.6338 50.8493C77.0005 52.2696 76.336 53.6702 75.6402 55.0596C75.5976 55.1426 75.5564 55.2368 75.5025 55.3211C73.9207 58.4444 72.1485 61.4636 70.1975 64.3675C69.5117 65.401 68.7307 66.436 67.856 67.3965C66.6959 68.6917 65.3569 69.8827 63.8376 70.8024C60.2834 72.975 55.7055 73.2985 51.5492 73.5389C46.9074 73.7893 42.2457 73.7893 37.5939 73.56C33.1637 73.3505 28.7235 73.2155 24.5459 71.5857C20.0631 69.8307 16.3826 66.6231 13.4177 63.0822C13.4064 63.0611 13.3865 63.0512 13.3751 63.0301C11.1913 60.4075 9.30414 57.5149 7.64705 54.6321C7.17279 53.8277 6.7184 53.0234 6.27537 52.2288C5.98002 51.6959 5.6946 51.1742 5.42055 50.651C5.07266 50.0028 4.75601 49.3657 4.45072 48.7189C2.99527 45.5956 2.05668 42.4203 1.71873 39.224C1.52846 37.386 1.52846 35.5466 1.74998 33.6974C1.87635 32.6737 2.06663 31.65 2.31938 30.6262C2.62467 29.4352 3.0265 28.2244 3.51071 27.0122C3.64702 26.6888 3.77483 26.3541 3.92251 26.0306C4.35559 24.9647 4.80854 23.9101 5.29417 22.8652C5.55828 22.2915 5.82097 21.7262 6.09645 21.1524C6.65591 19.9824 7.25655 18.8124 7.88985 17.6635C8.31158 16.9014 8.74468 16.149 9.20758 15.4079C9.77699 14.4573 10.379 13.5278 11.0109 12.6081C11.0422 12.5462 11.0848 12.4928 11.1273 12.4309C11.444 11.9711 11.7607 11.5225 12.0873 11.0725C12.3613 10.6971 12.6254 10.3314 12.9094 9.97566C12.952 9.91238 13.0045 9.8505 13.0571 9.78722C15.4937 6.65272 18.3833 3.89507 22.4657 2.5479C31.1359 -0.313795 40.1541 -0.27301 49.5428 0.333078C53.3185 0.583388 57.5273 1.27385 60.5134 3.60257C66.7158 8.47096 72.1272 14.1536 76.4297 20.5463C76.4822 20.6195 76.5348 20.6827 76.5774 20.7559C78.2657 23.2632 79.5408 26.0095 80.3644 28.8726C80.3644 28.8825 80.3744 28.8937 80.3744 28.9148C80.532 29.4478 80.6697 29.9808 80.7861 30.5236C80.8812 30.9314 80.965 31.3378 81.0389 31.7569C81.0389 31.7779 81.0502 31.7878 81.0502 31.8089C81.0502 31.8089 81.0502 31.8089 81.0502 31.8187C81.2618 32.9578 81.3882 34.1165 81.4507 35.2766C81.4848 35.8701 81.4847 36.4551 81.4734 37.019Z" fill="url(#paint1_linear_126_9)"/>
<path d="M81.4734 37.0186C81.4734 37.1438 81.4735 37.2591 81.4635 37.373C81.3684 39.734 80.9154 41.97 80.2395 44.1426C77.8668 44.0273 75.4614 43.8599 73.0034 43.7137C63.3207 43.0978 53.6366 42.5437 43.944 42.0318C29.7572 41.2908 15.7068 40.852 1.7202 39.2222C1.52992 37.3842 1.52993 35.5449 1.75144 33.6957C15.7494 32.693 29.7459 33.0586 43.944 33.361C44.1343 33.3708 44.3231 33.3708 44.5134 33.3821C43.7012 33.2569 42.889 33.1205 42.0768 33.0066C29.7246 31.1265 16.1072 29.8623 3.92397 26.0289C4.35706 24.963 4.81003 23.9083 5.29565 22.8634C5.55977 22.2897 5.82246 21.7244 6.09793 21.1506C6.6574 19.9806 7.25804 18.8106 7.89134 17.6618C8.31307 16.8996 8.74614 16.1473 9.20905 15.4062C20.9805 15.0715 33.1325 16.7533 44.4183 17.7152C53.7431 18.4985 63.1205 19.1158 72.4227 20.0763C73.7631 20.2113 75.1021 20.3688 76.4312 20.546C76.4837 20.6191 76.5363 20.6824 76.5789 20.7555C78.2672 23.2628 79.5423 26.0092 80.3659 28.8723C80.3659 28.8821 80.3758 28.8934 80.3758 28.9145C80.5334 29.4474 80.6712 29.9804 80.7876 30.5232C80.8827 30.931 80.9665 31.3374 81.0404 31.7565C81.0404 31.7776 81.0517 31.7874 81.0517 31.8085C81.0517 31.8085 81.0517 31.8085 81.0517 31.8183C81.2633 32.9574 81.3897 34.1161 81.4522 35.2763C81.4848 35.8697 81.4848 36.4547 81.4734 37.0186ZM75.3563 55.3109C71.2526 54.8722 67.2029 54.4756 63.0779 54.3702C54.8919 54.1508 46.7172 53.8161 38.5425 53.3675C30.3565 52.9189 22.2883 52.4591 14.071 52.4802C11.6656 52.4802 8.96624 52.2706 6.27543 52.2299C6.71845 53.0244 7.17142 53.8288 7.64711 54.6331C9.30278 57.5159 11.1913 60.4099 13.3752 63.0312C21.4022 64.5035 29.3455 65.298 37.5301 65.8929C45.6948 66.4779 53.8695 66.9475 62.0541 67.3132C64.0165 67.3961 65.9363 67.4172 67.8561 67.3961C68.7322 66.4357 69.5117 65.4007 70.1976 64.3671C72.1486 61.4632 73.9207 58.444 75.5025 55.3208C75.4514 55.3208 75.4088 55.3208 75.3563 55.3109Z" fill="url(#paint2_linear_126_9)"/>
<path d="M76.5803 20.7544C78.2686 23.2617 79.5438 26.0081 80.3673 28.8712C80.1771 28.4845 79.9555 28.1188 79.7667 27.7743C79.0922 26.5312 78.3751 25.2993 77.6254 24.097C76.1799 21.8091 74.5981 19.6055 72.8899 17.506C72.1614 16.6074 71.308 15.803 70.8863 14.7062C70.527 13.7865 69.7688 13.0665 69.083 12.376C66.784 10.0571 64.0719 8.21918 61.5728 6.13936C60.1273 4.93843 58.7144 3.64329 57.0161 2.82767C55.3491 2.03456 53.4932 1.7519 51.6572 1.65768C50.9828 1.6155 50.3182 1.60566 49.6423 1.59441C49.3683 1.59441 49.1042 1.60425 48.84 1.51004C48.5447 1.41582 48.2281 1.40597 47.9228 1.36378C47.0679 1.26956 46.2245 1.19645 45.3697 1.13457C38.2713 0.612859 31.0878 1.2077 24.1783 2.91065C22.9131 3.22424 21.6365 3.5786 20.4764 4.18469C20.3074 4.27891 20.1498 4.37313 19.9809 4.46735C18.8946 5.13531 17.9446 5.98187 16.9634 6.78623C16.4778 7.19404 15.9823 7.5906 15.4555 7.94638C15.2439 8.09262 15.0437 8.19669 14.8122 8.30216C14.443 8.47935 14.2315 8.86605 14.0114 9.20074C13.5371 9.92214 13.2418 10.6731 12.8825 11.4366C12.8186 11.5618 12.7661 11.656 12.7348 11.8023C12.6397 12.2101 12.5772 12.6277 12.492 13.0454C11.9751 13.0243 11.4583 12.878 11.0153 12.6066C11.0465 12.5448 11.0891 12.4913 11.1317 12.4295C11.4483 11.9696 11.765 11.521 12.0916 11.071C12.3656 10.6956 12.6298 10.3299 12.9137 9.97417C12.9563 9.91089 13.0089 9.84901 13.0614 9.78573C15.4981 6.65123 18.3877 3.89361 22.47 2.54643C31.1403 -0.31526 40.1584 -0.274475 49.5472 0.331613C53.3228 0.581923 57.5316 1.27238 60.5178 3.60111C66.7812 8.52294 72.2452 14.2787 76.5803 20.7544Z" fill="#EB924D"/>
<path d="M81.0419 31.7538C81.0206 31.8902 80.9893 32.0153 80.9581 32.1503C80.8743 31.6286 80.7366 31.1055 80.7891 30.5725V30.5205C80.8828 30.9297 80.968 31.3361 81.0419 31.7538Z" fill="#EB924D"/>
<path d="M75.7781 35.1319C76.772 35.1403 77.8044 35.1572 78.6918 35.5987C80.1572 36.3286 80.843 38.0076 81.2662 39.577C81.438 38.189 81.4153 36.7786 81.2023 35.3962C81.1654 35.1586 81.1199 34.9139 80.985 34.7142C80.8288 34.4836 80.5718 34.3415 80.3162 34.2276C78.1934 33.2869 75.7425 33.7917 73.4479 34.1587C72.0308 34.3851 70.6023 34.5525 69.171 34.6608C67.734 34.769 66.2913 34.8169 64.8501 34.8042C64.576 34.8014 64.2338 34.7311 63.9839 34.8703C63.6389 35.0615 64.0663 35.0362 64.2395 35.0376C64.9736 35.0433 65.7092 35.0489 66.4433 35.0559C67.9073 35.0672 69.3712 35.0798 70.8338 35.0911C72.3035 35.1023 73.7716 35.115 75.2413 35.1262C75.4188 35.129 75.5992 35.1305 75.7781 35.1319Z" fill="#EB924D"/>
<path d="M70.1991 64.3679C68.5846 66.7908 66.4859 69.1941 63.8391 70.8028C60.2849 72.9754 55.707 73.2989 51.5508 73.5393C46.909 73.7896 42.2472 73.7896 37.5955 73.5604C33.1652 73.3509 28.725 73.2159 24.5475 71.5861C20.0647 69.8311 16.3842 66.6235 13.4193 63.0826C11.2141 60.4501 9.31564 57.5364 7.65003 54.6311C6.85911 53.2937 6.12074 51.9564 5.42496 50.6514C5.07707 50.0031 4.76042 49.3661 4.45513 48.7193C1.70183 42.8074 0.794482 36.748 2.32519 30.6266C2.63049 29.4355 3.03232 28.2248 3.51652 27.0126C3.82181 26.2518 4.13706 25.4953 4.46081 24.7429C4.85271 23.8359 5.30994 22.9711 5.66918 22.0584C6.02275 21.157 6.42887 20.2753 6.88467 19.4189C7.78918 17.7146 8.88823 16.11 10.1534 14.649C10.3494 14.4226 10.5581 14.1933 10.8364 14.0794C11.0891 13.9754 11.3717 13.9782 11.6443 13.9866C12.5602 14.0133 13.4747 14.0851 14.3877 14.1666C17.266 14.4226 20.1598 15.3591 23.0793 15.3029C24.5319 15.2747 25.9703 15.0075 27.4215 14.9414C28.1641 14.9077 28.9082 14.926 29.6508 14.9696C30.0228 14.9907 30.3935 15.0188 30.7641 15.0483C30.9501 15.0638 31.1347 15.0821 31.3207 15.0947C31.4371 15.1018 31.5465 15.0708 31.6601 15.075C31.7481 15.0793 31.8446 15.1032 31.9284 15.1257C31.2539 15.331 30.5298 15.4393 29.8354 15.556C29.1325 15.6741 28.4254 15.7697 27.7154 15.8442C26.2926 15.9947 24.8613 16.0664 23.4314 16.0918C21.993 16.1171 20.5546 16.0946 19.1176 16.0594C17.868 16.0285 16.617 15.9863 15.3675 15.9539C14.0881 15.9216 12.7803 15.9033 11.5648 16.2999C9.95176 16.8258 8.644 18.045 7.70541 19.4456C7.67133 19.4963 7.63723 19.5483 7.60457 19.5989C7.04795 20.4581 6.60778 21.3862 6.21445 22.3284C6.02134 22.7925 5.8765 23.2973 5.64505 23.7431C5.57121 23.8865 5.45478 23.9878 5.36106 24.1157C5.19209 24.3478 5.08984 24.6304 4.96772 24.8864C4.69651 25.4573 4.43381 26.0338 4.19242 26.6188C3.80193 27.5695 3.44412 28.5299 3.14877 29.5129C2.89602 30.3482 2.49417 31.3719 2.57937 32.2607C2.65321 32.9708 2.49417 33.7021 2.44163 34.4122C2.43169 34.6006 2.3039 36.6889 2.44163 36.7002C3.84455 36.7733 5.23751 37.0545 6.56517 37.5355C5.98583 37.5973 5.41643 37.6916 4.84561 37.8069C4.30744 37.9152 3.65002 38.1697 3.28651 38.6084C3.13031 38.7969 3.08628 39.1301 3.04653 39.3636C2.94997 39.9331 2.98404 40.5153 3.0451 41.0862C3.31063 43.5527 4.10866 45.9419 5.10121 48.2032C5.3497 48.7699 5.59819 49.3366 5.84668 49.9047C6.05541 50.3814 6.28545 50.8835 6.71996 51.1746C7.06359 51.4038 7.49951 51.4839 7.89993 51.5571C8.73061 51.7089 9.49171 52.0534 10.3309 52.2194C11.9837 52.5442 13.6564 52.8016 15.3419 52.8438C18.3707 52.9197 21.4733 52.3038 24.3899 53.1138C23.9142 53.1503 23.4399 53.1855 22.9642 53.2206C19.9937 53.4372 17.0203 53.6256 14.0469 53.7845C12.5787 53.8633 11.1105 53.9462 9.64223 53.9997C9.33978 54.0109 8.65108 53.9378 8.48921 54.2795C8.44803 54.3653 8.46366 54.4567 8.48212 54.5453C8.59714 55.0937 8.96774 55.6675 9.24321 56.1484C10.0469 57.5532 11.0622 58.8217 12.0221 60.121C12.9607 61.3923 13.9717 62.6115 15.0736 63.7477C15.5847 64.275 16.1087 64.8263 16.6852 65.2875C16.7832 65.3649 16.8826 65.4254 16.9933 65.483C17.4832 65.7432 17.8453 66.2283 18.2557 66.5967C19.1772 67.4236 20.1939 68.145 21.2674 68.7666C22.7896 69.6469 24.4268 70.3275 26.1109 70.8394C29.5117 71.8729 33.0814 72.2414 36.6327 72.4579C44.0179 72.9079 51.494 72.7223 58.7145 71.1192C60.6755 70.6833 62.6364 70.1348 64.3787 69.1434C67.3563 67.4503 69.4636 64.6083 71.372 61.7804C72.5292 60.0648 73.6808 58.2254 73.8228 56.1681C72.4426 55.7279 71.0326 55.375 69.607 55.112C71.0425 54.9812 72.4767 54.8209 73.908 54.6747C74.0741 54.6578 74.2431 54.6325 74.4092 54.6634C74.5356 54.6873 74.6365 54.7126 74.7685 54.7084C74.9503 54.7028 75.1306 54.6831 75.3109 54.655C75.3691 54.6465 75.798 54.5987 75.8122 54.5495C75.6063 55.299 75.3095 56.0247 74.9318 56.7067C74.7614 57.0132 74.5796 57.317 74.361 57.594C74.0173 58.0314 73.7873 58.5545 73.5133 59.0354C73.1597 59.6542 72.799 60.2673 72.4313 60.8776C71.7114 62.0546 70.9687 63.2204 70.1991 64.3679Z" fill="#EB924D"/>
<path d="M61.2902 34.9635C66.456 34.8608 71.6232 34.7581 76.7861 34.6653C77.7858 34.6456 78.8294 34.6246 79.7595 34.9845C80.6882 35.3445 81.5018 36.177 81.462 37.115C81.4592 37.0827 81.4663 37.0531 81.4734 37.0236C81.489 36.4541 81.4876 35.8705 81.4535 35.2798C81.391 34.1197 81.2618 32.9553 81.0502 31.8135C80.9963 31.9878 80.9239 32.1482 80.8003 32.2874C80.39 32.7768 79.4074 32.8203 78.8124 32.923C78.2899 33.0003 77.7602 33.0664 77.2433 33.1241C71.9185 33.733 66.6065 34.3433 61.2902 34.9635Z" fill="url(#paint3_linear_126_9)"/>
<path d="M7.08906 53.17C7.26797 53.651 7.45824 54.1418 7.64851 54.6325C6.8576 53.2952 6.11922 51.9579 5.42344 50.6529C5.07555 50.0046 4.7589 49.3676 4.45361 48.7207C4.53881 48.8037 4.63254 48.8768 4.70638 48.9401C5.192 49.3479 5.70886 49.7023 6.25696 50.006C8.10291 51.0396 10.2442 51.2702 12.3116 51.5627C13.4618 51.7188 14.6958 51.9705 15.8559 51.9705C20.465 52.4402 25.0742 52.879 29.6947 53.2769C22.1619 53.0969 14.6205 53.0646 7.08906 53.17Z" fill="url(#paint4_linear_126_9)"/>
<path d="M76.0521 52.3541C74.0144 53.7997 71.3619 54.4325 68.7975 55.0287C71.0581 55.0161 73.32 55.0358 75.5792 55.0906C75.3051 55.4787 75.22 55.9582 75.3478 56.397C75.7965 55.3761 76.2452 54.3566 76.6939 53.3356C77.1298 52.3456 77.4862 51.2797 78.0244 50.3291C78.0088 50.6638 77.4479 51.1321 77.198 51.3852C76.8487 51.7353 76.4667 52.0602 76.0521 52.3541Z" fill="url(#paint5_linear_126_9)"/>
<path d="M34.5142 14.9041C28.0065 15.9377 21.1609 15.7507 14.6306 15.0715C13.5329 14.9562 12.0363 14.6018 11.0125 15.2796C10.453 15.6452 9.895 16.0207 9.33554 16.3975C8.79737 16.7632 8.31174 17.1808 7.89001 17.6618C8.88114 15.8646 9.95748 14.1209 11.1289 12.4277C11.4456 11.9679 11.7622 11.5193 12.0888 11.0693C12.0789 11.1523 12.0675 11.2367 12.0789 11.3196C12.1314 12.0509 12.6483 12.6879 13.2816 13.0746C13.9149 13.4501 14.6533 13.6287 15.3803 13.7637C21.5614 14.9984 28.2067 14.3824 34.5142 14.9041Z" fill="url(#paint6_linear_126_9)"/>
<path d="M1.61809 34.3232C1.34404 34.9589 1.73169 35.7224 2.31245 36.1063C2.89179 36.4902 3.61312 36.5887 4.30606 36.6702C6.94575 36.9852 9.61529 37.2341 12.2621 36.9796C9.2532 37.1076 5.95037 37.4127 2.94148 37.5407C2.73985 37.5491 2.53253 37.559 2.35362 37.649C1.97591 37.8388 1.84954 38.3141 1.85521 38.7332C1.86231 39.1523 1.96031 39.5769 1.86659 39.9861C1.43634 38.1102 1.42498 36.2399 1.61809 34.3232Z" fill="url(#paint7_linear_126_9)"/>
<path d="M39.8404 23.3802C37.7261 22.476 32.5674 19.3808 34.0144 16.4249C34.3268 15.7851 34.8607 15.2831 35.3818 14.7965C36.8727 13.4043 38.7897 10.7381 40.6811 9.94781C41.4634 9.62156 42.4915 9.84234 43.2256 10.1869C44.1316 10.613 44.8742 11.3104 45.5714 12.0248C46.9913 13.4831 49.303 15.276 49.499 17.4346C49.6509 19.1108 47.227 20.8489 46.0698 21.6913C44.9012 22.5435 43.6047 23.3956 42.2274 23.6417C41.4549 23.7809 40.6555 23.7289 39.8404 23.3802ZM49.9434 57.7458C49.7787 57.7598 49.7105 55.5788 49.7077 55.3903C49.6978 54.7969 49.4294 54.1768 49.3371 53.5861C49.2874 53.2655 49.2505 52.9435 49.2278 52.6201C49.2192 52.5019 49.2704 51.7693 49.1994 51.7173C48.7975 51.4234 48.2452 51.346 47.778 51.5176C46.8337 45.6086 46.5455 39.5969 46.9189 33.6274C47.8604 33.5177 48.5632 32.6445 48.7748 31.729C48.9608 30.9246 48.7265 30.1779 48.7705 29.3806C48.7833 29.1486 48.8557 28.9432 48.9225 28.7239C49.0872 28.174 49.1383 27.6031 49.1511 27.0308C48.6839 27.0237 48.8146 26.9745 48.3559 26.8915C47.264 26.6933 46.084 26.4402 44.9707 26.4683C44.4979 26.4795 44.0904 26.3122 43.6246 26.2264C43.0907 26.128 42.544 26.097 42.0016 26.1378C41.6097 26.1673 41.1908 26.2475 40.9168 26.5287C40.6541 26.7987 40.5817 27.1925 40.5263 27.5637C40.1287 30.1948 39.9469 32.8582 39.9824 35.5174C39.7141 33.0832 39.4471 30.649 39.1787 28.2148C39.1219 27.6931 39.0197 27.0969 38.5682 26.8212C38.1322 26.5555 37.6026 26.7144 37.1354 26.7805C36.8827 26.8156 36.6484 26.8269 36.3942 26.7959C35.5067 26.6834 34.4673 27.0294 33.5884 27.2304C33.6083 28.2415 33.6281 29.2526 33.648 30.2637C33.6622 30.9767 33.6537 31.4168 34.4418 31.511C34.757 31.549 35.0651 31.5645 35.3704 31.6601C35.5266 31.7093 35.6771 31.7824 35.8305 31.8415C36.1585 31.9667 36.2991 31.902 36.3218 32.3154C36.3019 32.5601 36.2863 32.8048 36.2778 33.0509C36.2309 34.2377 36.2167 35.426 36.2096 36.6143C36.1798 41.605 36.4325 46.5971 36.9679 51.5598C36.1542 51.3094 35.67 52.4372 35.5877 53.2782C35.4556 54.6169 35.3236 55.9556 35.1901 57.2944C36.255 57.3703 37.3186 57.4617 38.3864 57.4912C38.6775 57.4997 38.9473 57.5306 39.2242 57.6234C40.2309 57.9567 40.5234 58.6809 40.6228 59.6709C40.7464 60.8972 40.8316 62.309 41.8255 63.0515C42.1294 61.409 42.3538 59.7525 42.4972 58.0889C42.4759 58.3392 46.0911 58.0734 46.4077 58.0467C46.8522 58.0087 47.2952 57.9722 47.7397 57.9342C48.4752 57.8695 49.2093 57.8076 49.9434 57.7458Z" fill="#FCEBC5"/>
<defs>
<linearGradient id="paint0_linear_126_9" x1="40.3071" y1="-2.10882" x2="40.7035" y2="36.6975" gradientUnits="userSpaceOnUse">
<stop stop-color="#CF5C2B"/>
<stop offset="1" stop-color="#59173E"/>
</linearGradient>
<linearGradient id="paint1_linear_126_9" x1="69.6728" y1="-14.8617" x2="0.169138" y2="115.323" gradientUnits="userSpaceOnUse">
<stop stop-color="#CF5C2B"/>
<stop offset="1" stop-color="#59173E"/>
</linearGradient>
<linearGradient id="paint2_linear_126_9" x1="61.7359" y1="-0.281667" x2="-7.76761" y2="129.903" gradientUnits="userSpaceOnUse">
<stop stop-color="#CF5C2B"/>
<stop offset="1" stop-color="#59173E"/>
</linearGradient>
<linearGradient id="paint3_linear_126_9" x1="70.991" y1="-2.4221" x2="71.3872" y2="36.3845" gradientUnits="userSpaceOnUse">
<stop stop-color="#CF5C2B"/>
<stop offset="1" stop-color="#59173E"/>
</linearGradient>
<linearGradient id="paint4_linear_126_9" x1="16.5228" y1="-1.86569" x2="16.919" y2="36.9406" gradientUnits="userSpaceOnUse">
<stop stop-color="#CF5C2B"/>
<stop offset="1" stop-color="#59173E"/>
</linearGradient>
<linearGradient id="paint5_linear_126_9" x1="72.8366" y1="-2.44118" x2="73.2328" y2="36.3652" gradientUnits="userSpaceOnUse">
<stop stop-color="#CF5C2B"/>
<stop offset="1" stop-color="#59173E"/>
</linearGradient>
<linearGradient id="paint6_linear_126_9" x1="30.7404" y1="-16.9718" x2="18.0439" y2="28.1666" gradientUnits="userSpaceOnUse">
<stop stop-color="#CF5C2B"/>
<stop offset="1" stop-color="#59173E"/>
</linearGradient>
<linearGradient id="paint7_linear_126_9" x1="14.3301" y1="8.05352" x2="6.92496" y2="36.2274" gradientUnits="userSpaceOnUse">
<stop stop-color="#CF5C2B"/>
<stop offset="1" stop-color="#59173E"/>
</linearGradient>
</defs>
</svg>
